<svg width="24" height="24" viewBox="0 0 24 24" fill="none" xmlns="http://www.w3.org/2000/svg">
<path d="M3.30005 7L7.65005 9.5M12 12L12 22M12 12L16.35 9.5M12 12L7.65005 9.5M20.7001 7L16.35 9.5M16.35 9.5V19.8156M16.35 9.5L7.5 4.2699M7.5 4.2699L11 2.2699C11.304 2.09437 11.6489 2.00195 12 2.00195C12.3511 2.00195 12.696 2.09437 13 2.2699L16.5 4.2699L20 6.2699C20.3037 6.44526 20.556 6.69742 20.7315 7.00106C20.9071 7.30471 20.9996 7.64918 21 7.9999V15.9999C20.9996 16.3506 20.9071 16.6951 20.7315 16.9987C20.556 17.3024 20.3037 17.5545 20 17.7299L16.35 19.8156L13 21.7299C12.696 21.9054 12.3511 21.9979 12 21.9979C11.6489 21.9979 11.304 21.9054 11 21.7299L7.65005 19.8156L4 17.7299C3.69626 17.5545 3.44398 17.3024 3.26846 16.9987C3.09294 16.6951 3.00036 16.3506 3 15.9999V7.9999C3.00036 7.64918 3.09294 7.30471 3.26846 7.00106C3.44398 6.69742 3.69626 6.44526 4 6.2699L7.5 4.2699ZM7.65005 9.5V19.8156M7.65005 9.5L16.5 4.2699" stroke="currentColor" stroke-width="1.3" stroke-linecap="round" stroke-linejoin="round"/>
</svg>
