<svg width="24" height="24" viewBox="0 0 24 24" fill="none" xmlns="http://www.w3.org/2000/svg">
<path d="M4.23337 10.8874L11 14.7763M11 14.7763L17.7667 10.8874M11 14.7763L11 22.554M6 2V6M8 4H4M20 5V9M22 7H18M15 2V4M16 3H14M18 11.6651C17.9997 11.3923 17.9277 11.1244 17.7912 10.8882C17.6547 10.652 17.4585 10.4559 17.2222 10.3195L11.7778 7.20841C11.5413 7.07188 11.2731 7 11 7C10.7269 7 10.4587 7.07188 10.2222 7.20841L4.77778 10.3195C4.54154 10.4559 4.34532 10.652 4.2088 10.8882C4.07229 11.1244 4.00028 11.3923 4 11.6651V17.8873C4.00028 18.1601 4.07229 18.428 4.2088 18.6642C4.34532 18.9003 4.54154 19.0965 4.77778 19.2328L10.2222 22.344C10.4587 22.4805 10.7269 22.5524 11 22.5524C11.2731 22.5524 11.5413 22.4805 11.7778 22.344L17.2222 19.2328C17.4585 19.0965 17.6547 18.9003 17.7912 18.6642C17.9277 18.428 17.9997 18.1601 18 17.8873V11.6651Z" stroke="white" stroke-width="1.3" stroke-linecap="round" stroke-linejoin="round"/>
</svg>
