<svg width="24" height="24" viewBox="0 0 24 24" fill="none" xmlns="http://www.w3.org/2000/svg">
<path d="M3.30005 7L12 12M12 12L20.7001 7M12 12L12 22M21 14V7.9999C20.9996 7.64918 20.9071 7.30471 20.7315 7.00106C20.556 6.69742 20.3037 6.44526 20 6.2699L13 2.2699C12.696 2.09437 12.3511 2.00195 12 2.00195C11.6489 2.00195 11.304 2.09437 11 2.2699L4 6.2699C3.69626 6.44526 3.44398 6.69742 3.26846 7.00106C3.09294 7.30471 3.00036 7.64918 3 7.9999V15.9999C3.00036 16.3506 3.09294 16.6951 3.26846 16.9987C3.44398 17.3024 3.69626 17.5545 4 17.7299L11 21.7299C11.304 21.9054 11.6489 21.9979 12 21.9979C12.3511 21.9979 12.696 21.9054 13 21.7299L14.5 20.8728M19.141 18.816L18.357 20.646C18.3312 20.7061 18.2884 20.7573 18.2338 20.7933C18.1793 20.8292 18.1153 20.8484 18.05 20.8484C17.9846 20.8484 17.9207 20.8292 17.8661 20.7933C17.8115 20.7573 17.7687 20.7061 17.743 20.646L16.958 18.816C16.9245 18.737 16.8618 18.6739 16.783 18.64L14.952 17.856C14.8919 17.8302 14.8407 17.7874 14.8047 17.7328C14.7687 17.6783 14.7495 17.6143 14.7495 17.549C14.7495 17.4836 14.7687 17.4197 14.8047 17.3651C14.8407 17.3105 14.8919 17.2677 14.952 17.242L16.783 16.457C16.8616 16.4233 16.9243 16.3606 16.958 16.282L17.743 14.451C17.7687 14.3909 17.8115 14.3397 17.8661 14.3037C17.9207 14.2677 17.9846 14.2485 18.05 14.2485C18.1153 14.2485 18.1793 14.2677 18.2338 14.3037C18.2884 14.3397 18.3312 14.3909 18.357 14.451L19.141 16.282C19.175 16.3608 19.238 16.4234 19.317 16.457L21.147 17.242C21.417 17.358 21.417 17.74 21.147 17.856L19.317 18.64C19.2378 18.6738 19.1748 18.7368 19.141 18.816Z" stroke="white" stroke-width="1.3" stroke-linecap="round" stroke-linejoin="round"/>
</svg>
