<svg xmlns="http://www.w3.org/2000/svg" fill="none" viewBox="0 0 16 16"><g stroke="currentColor" stroke-linecap="round" stroke-width="1.3" clip-path="url(#a)"><path d="m4.998 13.909.557-2.225a1.112 1.112 0 0 0-1.08-1.382H2.32c-.51 0-.955.347-1.079.842L.684 13.37a1.112 1.112 0 0 0 1.079 1.382h2.156c.51 0 .956-.347 1.08-.842ZM6.11 7.234l.557-2.224a1.112 1.112 0 0 0-1.08-1.383H3.433c-.51 0-.956.348-1.08.843l-.556 2.225a1.112 1.112 0 0 0 1.08 1.382h2.156c.51 0 .955-.347 1.079-.843ZM11.673 13.909l.556-2.225a1.112 1.112 0 0 0-1.08-1.382H8.994c-.51 0-.955.347-1.079.842l-.556 2.225a1.112 1.112 0 0 0 1.08 1.382h2.156c.51 0 .955-.347 1.079-.842ZM13.141 5.816l-.784 1.83a.334.334 0 0 1-.614 0l-.785-1.83a.333.333 0 0 0-.175-.176l-1.831-.784a.334.334 0 0 1 0-.614l1.831-.785a.333.333 0 0 0 .175-.175l.785-1.831a.334.334 0 0 1 .614 0l.784 1.831a.334.334 0 0 0 .176.175l1.83.785c.27.116.27.498 0 .614l-1.83.784a.334.334 0 0 0-.176.176Z"/></g><defs><clipPath id="a"><path fill="currentColor" d="M0 0h16v16H0z"/></clipPath></defs></svg>
