<svg width="24" height="24" viewBox="0 0 24 24" fill="none" xmlns="http://www.w3.org/2000/svg">
<path d="M12.65 6.36397V5.71397H11.35V6.36397H12H12.65ZM11.35 17.6777C11.35 18.0367 11.641 18.3277 12 18.3277C12.359 18.3277 12.65 18.0367 12.65 17.6777H12H11.35ZM17.6569 14.0049L18.2695 14.222L17.6569 14.0049ZM17.6586 10L18.2714 9.78339L17.6586 10ZM16.6114 15.8388L17.1107 16.255L16.6114 15.8388ZM12.65 20.5C12.65 20.141 12.359 19.85 12 19.85C11.641 19.85 11.35 20.141 11.35 20.5H12H12.65ZM11.35 22C11.35 22.359 11.641 22.65 12 22.65C12.359 22.65 12.65 22.359 12.65 22H12H11.35ZM12.65 2C12.65 1.64101 12.359 1.35 12 1.35C11.641 1.35 11.35 1.64101 11.35 2H12H12.65ZM11.35 3.5C11.35 3.85899 11.641 4.15 12 4.15C12.359 4.15 12.65 3.85899 12.65 3.5H12H11.35ZM20.5 11.35C20.141 11.35 19.85 11.641 19.85 12C19.85 12.359 20.141 12.65 20.5 12.65V12V11.35ZM22 12.65C22.359 12.65 22.65 12.359 22.65 12C22.65 11.641 22.359 11.35 22 11.35V12V12.65ZM2 11.35C1.64101 11.35 1.35 11.641 1.35 12C1.35 12.359 1.64101 12.65 2 12.65V12V11.35ZM3.5 12.65C3.85899 12.65 4.15 12.359 4.15 12C4.15 11.641 3.85899 11.35 3.5 11.35V12V12.65ZM18.47 17.5508C18.2162 17.2969 17.8046 17.2969 17.5508 17.5508C17.2969 17.8046 17.2969 18.2162 17.5508 18.47L18.0104 18.0104L18.47 17.5508ZM18.6114 19.5307C18.8653 19.7845 19.2768 19.7845 19.5307 19.5307C19.7845 19.2768 19.7845 18.8653 19.5307 18.6114L19.0711 19.0711L18.6114 19.5307ZM5.38855 4.46931C5.13471 4.21547 4.72315 4.21547 4.46931 4.46931C4.21547 4.72315 4.21547 5.13471 4.46931 5.38855L4.92893 4.92893L5.38855 4.46931ZM5.52997 6.44921C5.78381 6.70305 6.19537 6.70305 6.44921 6.44921C6.70305 6.19537 6.70305 5.78381 6.44921 5.52997L5.98959 5.98959L5.52997 6.44921ZM6.44921 18.47C6.70305 18.2162 6.70305 17.8046 6.44921 17.5508C6.19537 17.2969 5.78382 17.2969 5.52997 17.5508L5.98959 18.0104L6.44921 18.47ZM4.46931 18.6114C4.21547 18.8653 4.21547 19.2768 4.46931 19.5307C4.72315 19.7845 5.13471 19.7845 5.38855 19.5307L4.92893 19.0711L4.46931 18.6114ZM19.5307 5.38855C19.7845 5.13471 19.7845 4.72315 19.5307 4.46931C19.2768 4.21547 18.8653 4.21547 18.6114 4.46931L19.0711 4.92893L19.5307 5.38855ZM17.5508 5.52997C17.2969 5.78381 17.2969 6.19537 17.5508 6.44921C17.8046 6.70305 18.2162 6.70305 18.47 6.44921L18.0104 5.98959L17.5508 5.52997ZM12 18V17.35C9.04528 17.35 6.65 14.9547 6.65 12H6H5.35C5.35 15.6727 8.32731 18.65 12 18.65V18ZM6 12H6.65C6.65 9.04528 9.04528 6.65 12 6.65V6V5.35C8.32731 5.35 5.35 8.32731 5.35 12H6ZM18 12H17.35C17.35 12.6281 17.242 13.2296 17.0442 13.7878L17.6569 14.0049L18.2695 14.222C18.5161 13.5264 18.65 12.7781 18.65 12H18ZM12 14L11.9994 14.65L17.6563 14.6549L17.6569 14.0049L17.6574 13.3549L12.0006 13.35L12 14ZM12 12H11.35V14H12H12.65V12H12ZM12 12V12.65H18V12V11.35H12V12ZM12 10H11.35V12H12H12.65V10H12ZM17.6586 10L17.0457 10.2166C17.2426 10.7736 17.35 11.3735 17.35 12H18H18.65C18.65 11.2239 18.5168 10.4776 18.2714 9.78339L17.6586 10ZM12 10V10.65H17.6586V10V9.35H12V10ZM12 14H11.35V15.8388H12H12.65V14H12ZM12 15.8388H11.35V17.6777H12H12.65V15.8388H12ZM17.6569 14.0049L17.0442 13.7878C16.8311 14.3891 16.5132 14.9414 16.1121 15.4227L16.6114 15.8388L17.1107 16.255C17.6087 15.6575 18.0041 14.9708 18.2695 14.222L17.6569 14.0049ZM16.6114 15.8388L16.1121 15.4227C15.1297 16.6015 13.6525 17.35 12 17.35V18V18.65C14.0546 18.65 15.8919 17.7175 17.1107 16.255L16.6114 15.8388ZM12 15.8388V16.4888H16.6114V15.8388V15.1888H12V15.8388ZM12 6.36397H11.35V8.18199H12H12.65V6.36397H12ZM12 8.18199H11.35V10H12H12.65V8.18199H12ZM12 6V6.65C13.6612 6.65 15.1452 7.40634 16.1275 8.59587L16.6287 8.18199L17.1299 7.7681C15.9112 6.29234 14.0654 5.35 12 5.35V6ZM16.6287 8.18199L16.1275 8.59587C16.5223 9.07398 16.8353 9.62135 17.0457 10.2166L17.6586 10L18.2714 9.78339C18.0094 9.0421 17.62 8.36161 17.1299 7.7681L16.6287 8.18199ZM12 8.18199V8.83199H16.6287V8.18199V7.53199H12V8.18199ZM12 20.5H11.35V22H12H12.65V20.5H12ZM12 2H11.35V3.5H12H12.65V2H12ZM20.5 12V12.65H22V12V11.35H20.5V12ZM2 12V12.65H3.5V12V11.35H2V12ZM18.0104 18.0104L17.5508 18.47L18.6114 19.5307L19.0711 19.0711L19.5307 18.6114L18.47 17.5508L18.0104 18.0104ZM4.92893 4.92893L4.46931 5.38855L5.52997 6.44921L5.98959 5.98959L6.44921 5.52997L5.38855 4.46931L4.92893 4.92893ZM5.98959 18.0104L5.52997 17.5508L4.46931 18.6114L4.92893 19.0711L5.38855 19.5307L6.44921 18.47L5.98959 18.0104ZM19.0711 4.92893L18.6114 4.46931L17.5508 5.52997L18.0104 5.98959L18.47 6.44921L19.5307 5.38855L19.0711 4.92893Z" fill="currentColor"/>
</svg>
