<svg width="512" height="512" viewBox="0 0 512 512" fill="none" xmlns="http://www.w3.org/2000/svg">
<g clip-path="url(#clip0_1471_12658)">
<path d="M324.094 389.858L284.667 379.567V191.5L326.871 180.816C350.01 174.941 369.446 170.154 370.371 170.339C371.112 170.339 371.667 222.027 371.667 285.326V400.334L367.594 400.15C365.189 400.15 345.566 395.361 324.094 389.835V389.857V389.858Z" fill="#00C8D2"/>
<path d="M138.667 343.325C138.667 279.602 139.229 227.339 140.166 227.339C140.914 227.154 160.573 231.998 184.164 237.913L226.667 248.65L226.292 342.975L225.73 437.278L187.535 447.107C166.565 452.463 146.906 457.47 144.097 458.029L138.667 459.334V343.325Z" fill="#3C8CFF"/>
<path d="M423.667 248.299C423.667 38.7081 423.853 27.4506 427.037 28.3797C428.722 28.9368 445.386 33.1843 463.921 37.8029C482.458 42.6075 500.807 47.2031 504.739 48.1312L511.667 49.9884L511.293 248.67L510.731 447.539L472.722 457.148C451.939 462.486 432.279 467.291 429.284 468.057L423.667 469.334V248.299Z" fill="#78E6DC"/>
<path d="M-0.333038 248.845C-0.333038 140.208 0.222275 51.334 1.14852 51.334C1.88822 51.334 21.3242 56.1412 44.4631 61.8769L86.667 72.583V248.66C86.667 345.267 86.296 424.55 85.9262 424.55C85.3709 424.55 65.7494 429.544 42.4262 435.466L-0.333038 446.334V248.823V248.844V248.845Z" fill="#325AB4"/>
</g>
<defs>
<clipPath id="clip0_1471_12658">
<rect width="512" height="512" fill="white"/>
</clipPath>
</defs>
</svg>
