<svg width="48" height="24" viewBox="0 0 48 24" fill="none" xmlns="http://www.w3.org/2000/svg">
<path d="M46.6309 5C47.379 5.00009 48 5.59922 48 6.32031V16.8799C48 17.601 47.379 18.2001 46.6309 18.2002H31.3691C30.6211 18.2 30 17.6009 30 16.8799V6.32031C30 5.59931 30.6211 5.00024 31.3691 5H46.6309ZM31.1738 14.918V16.8799C31.1738 16.9939 31.2509 17.0682 31.3691 17.0684H46.6309C46.7492 17.0682 46.8262 16.994 46.8262 16.8799V15.2656L43.4697 12.6787L40.7002 14.5166C40.4938 14.6507 40.1963 14.6383 40.0029 14.4873L36.2363 11.5527L31.1738 14.918ZM31.3691 6.13184C31.2509 6.13202 31.1738 6.20628 31.1738 6.32031V13.5391L35.9248 10.3799C36.0041 10.3255 36.0973 10.2913 36.1934 10.2803C36.3477 10.2641 36.5079 10.3091 36.6279 10.4033L40.3945 13.3447L43.1699 11.5059C43.3763 11.3718 43.6738 11.3841 43.8672 11.5352L46.8262 13.8154V6.32031C46.8262 6.20619 46.7492 6.13191 46.6309 6.13184H31.3691ZM40.3701 7.63965C41.3351 7.63986 42.1307 8.40684 42.1309 9.33691C42.1309 10.2671 41.3352 11.034 40.3701 11.0342C39.4048 11.0342 38.6084 10.2673 38.6084 9.33691C38.6086 8.40671 39.4049 7.63965 40.3701 7.63965ZM40.3701 8.77148C40.0393 8.77148 39.7834 9.01812 39.7832 9.33691C39.7832 9.65587 40.0392 9.90332 40.3701 9.90332C40.7009 9.90312 40.957 9.65574 40.957 9.33691C40.9569 9.01825 40.7007 8.77168 40.3701 8.77148Z" fill="#8A8A8A"/>
<path fill-rule="evenodd" clip-rule="evenodd" d="M27.0246 11.7207C27.2588 11.9549 27.2586 12.335 27.0246 12.5693L24.4797 15.1152C24.2455 15.3494 23.8654 15.3492 23.6311 15.1152C23.3968 14.8809 23.3968 14.5009 23.6311 14.2666L25.1477 12.75L17.5998 12.75C17.2686 12.7497 17.0002 12.4806 17.0002 12.1494C17.0004 11.8183 17.2688 11.55 17.5998 11.5498L25.1574 11.5498L23.6311 10.0234C23.3968 9.78908 23.3968 9.40907 23.6311 9.17477C23.8654 8.94115 24.2456 8.94071 24.4797 9.17477L27.0246 11.7207Z" fill="#8A8A8A"/>
<path d="M13.085 5C13.8028 5.00008 14.3847 5.58197 14.3848 6.2998V16.7002C14.3847 17.3732 13.8732 17.9266 13.2178 17.9932L13.085 18H2.68457C1.96678 17.9999 1.38487 17.418 1.38477 16.7002V6.2998C1.38487 5.582 1.96677 5.00013 2.68457 5H13.085ZM2.99609 6C2.65859 6 2.38477 6.27382 2.38477 6.61133V16.3887L2.38574 16.4199C2.40212 16.7428 2.66914 17 2.99609 17H3.60352L3.61914 16.9062C3.66287 16.6401 3.72991 16.3788 3.81836 16.126C3.87763 15.9566 4.06305 15.8666 4.23242 15.9258C4.40172 15.985 4.49072 16.1705 4.43164 16.3398C4.35679 16.5537 4.30034 16.7748 4.2627 17H12.6445C12.6069 16.7748 12.5504 16.5537 12.4756 16.3398C12.4165 16.1705 12.5055 15.9851 12.6748 15.9258C12.8441 15.8667 13.0296 15.9567 13.0889 16.126C13.1606 16.3311 13.2173 16.5416 13.2598 16.7559C13.3313 16.6613 13.3774 16.5461 13.3838 16.4199L13.3848 16.3887V6.61133C13.3848 6.28455 13.1283 6.01761 12.8057 6.00098L12.7734 6H2.99609ZM5.27832 14.0615C5.41842 13.9497 5.62232 13.9725 5.73438 14.1123C5.84635 14.2525 5.82381 14.4573 5.68359 14.5693C5.56309 14.6656 5.44742 14.7694 5.33789 14.8809C5.17528 15.0463 5.02901 15.2254 4.89941 15.415C4.79814 15.5632 4.59545 15.6012 4.44727 15.5C4.29941 15.3987 4.2614 15.1969 4.3623 15.0488C4.51342 14.8277 4.68514 14.619 4.875 14.4258L4.97168 14.3301C5.07012 14.2358 5.17269 14.1459 5.27832 14.0615ZM11.1729 14.1123C11.285 13.9724 11.4898 13.9496 11.6299 14.0615C11.7705 14.1739 11.9046 14.2959 12.0322 14.4258C12.2221 14.619 12.3938 14.8277 12.5449 15.0488C12.6458 15.1969 12.6077 15.3987 12.46 15.5C12.3118 15.6013 12.1091 15.5632 12.0078 15.415C11.8782 15.2254 11.731 15.0464 11.5684 14.8809C11.459 14.7696 11.3439 14.6654 11.2236 14.5693C11.0835 14.4573 11.0609 14.2525 11.1729 14.1123ZM5.25195 12.25C5.40471 12.156 5.60505 12.2037 5.69922 12.3564C5.82836 12.5659 5.98085 12.762 6.15527 12.9395C6.20593 12.991 6.25895 13.0402 6.3125 13.0879C6.35724 13.1278 6.38718 13.1782 6.4043 13.2314C6.46013 13.2368 6.5158 13.2566 6.56445 13.292C6.62279 13.3344 6.6824 13.3748 6.74316 13.4131C6.84698 13.4785 6.90526 13.5966 6.89355 13.7188C6.8818 13.8409 6.80192 13.9458 6.6875 13.9902C6.54319 14.0463 6.40245 14.1121 6.26562 14.1855C6.10751 14.2703 5.91007 14.2108 5.8252 14.0527C5.74242 13.8985 5.79783 13.7072 5.94727 13.6191C5.92359 13.6069 5.90071 13.5918 5.87988 13.5732C5.81561 13.516 5.7522 13.4564 5.69141 13.3945C5.48262 13.182 5.29982 12.9475 5.14551 12.6973C5.05164 12.5445 5.09931 12.3441 5.25195 12.25ZM11.209 12.3564C11.3032 12.2039 11.5035 12.1569 11.6562 12.251C11.809 12.3451 11.8568 12.5454 11.7627 12.6982C11.6092 12.9474 11.4271 13.1799 11.2197 13.3916C11.2178 13.3937 11.2159 13.3964 11.2139 13.3984C11.1538 13.4594 11.0918 13.5187 11.0283 13.5752C11.0078 13.5934 10.9852 13.608 10.9619 13.6201C11.1108 13.7084 11.1646 13.8987 11.082 14.0527C10.9971 14.2108 10.8007 14.2704 10.6426 14.1855C10.5059 14.1122 10.3649 14.0473 10.2207 13.9912C10.1064 13.9467 10.0265 13.8418 10.0146 13.7197C10.0029 13.5975 10.0612 13.4785 10.165 13.4131C10.2258 13.3748 10.2854 13.3344 10.3438 13.292C10.3922 13.2568 10.4474 13.2379 10.5029 13.2324C10.5201 13.1791 10.5518 13.1288 10.5967 13.0889C10.6498 13.0416 10.7017 12.9925 10.752 12.9414L10.7529 12.9404L10.8174 12.8721C10.9651 12.7128 11.0961 12.5398 11.209 12.3564ZM5.05469 9.40527C5.22912 9.4475 5.33615 9.62342 5.29395 9.79785C5.23793 10.0293 5.20609 10.268 5.2002 10.5098V10.5312C5.20012 10.5375 5.19964 10.5437 5.19922 10.5498C5.19954 10.5564 5.20027 10.5636 5.2002 10.5703L5.19922 10.5957C5.19978 10.8444 5.22773 11.0905 5.28125 11.3291C5.32052 11.5042 5.21028 11.6785 5.03516 11.7178C4.86017 11.7568 4.68677 11.6466 4.64746 11.4717C4.58333 11.1858 4.5502 10.8915 4.5498 10.5938V10.5625C4.54989 10.556 4.55033 10.5494 4.55078 10.543C4.55048 10.5366 4.54973 10.5298 4.5498 10.5234L4.55078 10.498V10.4941C4.55781 10.2058 4.59523 9.92077 4.66211 9.64453C4.70438 9.47013 4.88027 9.36305 5.05469 9.40527ZM11.873 9.4668C12.048 9.42786 12.2215 9.53799 12.2607 9.71289C12.3247 9.99898 12.3574 10.2938 12.3574 10.5918C12.3574 10.8899 12.3248 11.1854 12.2607 11.4717C12.2214 11.6465 12.048 11.7567 11.873 11.7178C11.6979 11.6786 11.5868 11.5043 11.626 11.3291C11.6796 11.0892 11.708 10.8418 11.708 10.5918C11.708 10.342 11.6796 10.0952 11.626 9.85547C11.5868 9.6803 11.6979 9.50597 11.873 9.4668ZM10.0293 7.30566C10.1233 7.15278 10.3237 7.10517 10.4766 7.19922C10.7162 7.34665 10.9409 7.52082 11.1465 7.71973C11.1475 7.72073 11.1494 7.72164 11.1504 7.72266L11.168 7.74121C11.1727 7.74596 11.1772 7.75089 11.1816 7.75586C11.186 7.75978 11.1911 7.76338 11.1953 7.76758L11.2168 7.78906C11.4256 8.00171 11.6084 8.23587 11.7627 8.48633C11.8568 8.63914 11.809 8.83946 11.6562 8.93359C11.5034 9.02765 11.3031 8.97994 11.209 8.82715C11.0806 8.61875 10.9291 8.4239 10.7559 8.24707L10.7236 8.21484C10.719 8.21076 10.7144 8.20654 10.71 8.20215L10.6953 8.18652C10.5236 8.02037 10.3355 7.87482 10.1357 7.75195C9.98314 7.65789 9.9355 7.45843 10.0293 7.30566ZM6.37207 7.23633C6.52308 7.13974 6.72345 7.18322 6.82031 7.33398C6.91701 7.48502 6.8735 7.68633 6.72266 7.7832C6.51959 7.9132 6.32904 8.06681 6.15625 8.24219L6.1543 8.24414C5.98543 8.41612 5.83644 8.60555 5.70996 8.80762C5.61465 8.9595 5.41473 9.00532 5.2627 8.91016C5.11071 8.81498 5.06424 8.61497 5.15918 8.46289C5.31011 8.22175 5.48768 7.99569 5.68945 7.79004L5.76953 7.70996C5.95559 7.53116 6.15807 7.37333 6.37207 7.23633ZM8.45312 6.625C8.73963 6.625 9.02343 6.65671 9.29883 6.71875C9.4739 6.75821 9.58335 6.93235 9.54395 7.10742C9.50451 7.28235 9.33119 7.39268 9.15625 7.35352C8.92736 7.30195 8.69119 7.27539 8.45312 7.27539C8.20737 7.27543 7.96434 7.30347 7.72852 7.3584C7.55375 7.39902 7.37958 7.29 7.33887 7.11523C7.29829 6.94056 7.40644 6.76639 7.58105 6.72559C7.86482 6.65949 8.15733 6.62504 8.45312 6.625Z" fill="#8A8A8A"/>
</svg>
