<svg width="24" height="24" viewBox="0 0 24 24" fill="none" xmlns="http://www.w3.org/2000/svg">
<path d="M13.2508 12.7276C12.4587 13.0908 11.5409 13.0908 10.7488 12.7276M10.7488 7.2724C11.5409 6.9092 12.4587 6.9092 13.2508 7.2724M9.27202 11.251C8.90883 10.4589 8.90883 9.54111 9.27202 8.74897M14.7272 8.74897C15.0904 9.54111 15.0904 10.4589 14.7272 11.251M6.18003 19.5412C6.06141 20.0143 6 20.504 6 21M18 21C18 20.504 17.9386 20.0143 17.82 19.5412M7 17.6833C7.21936 17.3526 7.47257 17.0421 7.75736 16.7574C8.04215 16.4726 8.35262 16.2194 8.68333 16M17 17.6833C16.7806 17.3526 16.5274 17.0421 16.2426 16.7574C15.9579 16.4726 15.6474 16.2194 15.3167 16M10.6747 15.1482C11.1062 15.0504 11.5505 15 12 15C12.4495 15 12.8938 15.0504 13.3253 15.1482M5 3H19C20.1046 3 21 3.89543 21 5V19C21 20.1046 20.1046 21 19 21H5C3.89543 21 3 20.1046 3 19V5C3 3.89543 3.89543 3 5 3Z" stroke="#8A8A8A" stroke-width="1.3" stroke-linecap="round" stroke-linejoin="round"/>
</svg>
