<svg width="48" height="24" viewBox="0 0 48 24" fill="none" xmlns="http://www.w3.org/2000/svg">
<g clip-path="url(#clip0_1683_13294)">
<path d="M33.5996 -0.249939C34.9251 -0.249939 36 0.824968 36 2.15045V21.3497C36 22.6752 34.9251 23.7501 33.5996 23.7501H14.4004C13.0749 23.7501 12 22.6752 12 21.3497V2.15045C12 0.824969 13.0749 -0.249939 14.4004 -0.249939H33.5996ZM14.4004 0.950256C13.7376 0.950256 13.2002 1.48771 13.2002 2.15045V21.3497L13.2012 21.4122C13.2335 22.0461 13.7585 22.5499 14.4004 22.5499H15.0059C15.0271 22.4967 15.0546 22.4473 15.0889 22.4034C15.0568 22.3118 15.0467 22.2109 15.0635 22.1085L15.125 21.7305C15.2058 21.2389 15.3297 20.7561 15.4932 20.2891C15.6028 19.9767 15.9452 19.8116 16.2578 19.921C16.5703 20.0305 16.7343 20.373 16.625 20.6856C16.4845 21.087 16.379 21.502 16.3096 21.9249L16.2471 22.3028C16.2319 22.3949 16.1959 22.4783 16.1455 22.5499H31.9541C31.9038 22.4783 31.8677 22.3949 31.8525 22.3028L31.791 21.9249L31.7314 21.6094C31.6658 21.2956 31.58 20.9867 31.4746 20.6856C31.3653 20.3729 31.5301 20.0304 31.8428 19.921C32.1554 19.8116 32.4979 19.9766 32.6074 20.2891C32.7708 20.7561 32.8938 21.2389 32.9746 21.7305L33.0371 22.1085C33.0539 22.2109 33.0428 22.3119 33.0107 22.4034C33.0451 22.4474 33.0735 22.4965 33.0947 22.5499H33.5996L33.6621 22.5489C34.2754 22.5176 34.7676 22.0255 34.7988 21.4122L34.7998 21.3497V2.15045C34.7998 1.50853 34.296 0.983541 33.6621 0.951233L33.5996 0.950256H14.4004ZM18.1875 16.4786C18.4464 16.2719 18.8245 16.3145 19.0312 16.5733C19.2377 16.8321 19.1952 17.2093 18.9365 17.4161C18.714 17.5939 18.5011 17.7865 18.2988 17.9922C17.9985 18.2979 17.7276 18.6284 17.4883 18.9786C17.3013 19.252 16.9278 19.3217 16.6543 19.1348C16.3808 18.9479 16.3102 18.5744 16.4971 18.3008C16.7759 17.8928 17.0921 17.508 17.4424 17.1514L17.6221 16.9737C17.8038 16.7996 17.9926 16.6343 18.1875 16.4786ZM29.0693 16.5733C29.2762 16.3144 29.6542 16.2727 29.9131 16.4796C30.1728 16.6871 30.4214 16.9115 30.6572 17.1514C31.0075 17.508 31.3237 17.8928 31.6025 18.3008C31.7894 18.5744 31.7189 18.9479 31.4453 19.1348C31.1719 19.3215 30.7993 19.2517 30.6123 18.9786C30.3731 18.6285 30.102 18.2978 29.8018 17.9922C29.5998 17.7867 29.3863 17.5946 29.1641 17.4171C28.9052 17.2102 28.8626 16.8322 29.0693 16.5733ZM29.1377 13.3321C29.3115 13.0502 29.6809 12.9622 29.9629 13.1358C30.245 13.3096 30.333 13.6799 30.1592 13.962C29.8757 14.4221 29.5403 14.8522 29.1572 15.2432C29.1536 15.247 29.1502 15.2512 29.1465 15.2549C29.0355 15.3676 28.9209 15.4758 28.8037 15.5801C28.7656 15.6141 28.724 15.6416 28.6807 15.6641C28.9556 15.827 29.0557 16.1787 28.9033 16.463C28.7466 16.7549 28.3828 16.8648 28.0908 16.7081C27.8386 16.5727 27.5785 16.4532 27.3125 16.3497C27.1014 16.2676 26.9544 16.0732 26.9326 15.8477C26.911 15.6222 27.0183 15.4031 27.21 15.2823C27.3222 15.2116 27.4323 15.1369 27.54 15.0587C27.6296 14.9936 27.7313 14.9573 27.834 14.9473C27.8657 14.849 27.9231 14.7573 28.0059 14.6837C28.1042 14.5961 28.2 14.5047 28.293 14.4102L28.2949 14.4083L28.4141 14.2842C28.687 13.9901 28.9291 13.6707 29.1377 13.3321ZM18.1396 13.1358C18.4217 12.962 18.7909 13.0492 18.9648 13.3311C19.2033 13.7178 19.4856 14.0786 19.8076 14.4063C19.9012 14.5016 19.9977 14.5935 20.0967 14.6817C20.1794 14.7555 20.236 14.8479 20.2676 14.9464C20.3706 14.9563 20.4727 14.9924 20.5625 15.0577C20.6702 15.136 20.7803 15.2106 20.8926 15.2813C21.0843 15.4021 21.1916 15.6212 21.1699 15.8467C21.1481 16.0722 21.0011 16.2666 20.79 16.3487C20.5237 16.4522 20.2633 16.5716 20.0107 16.7071C19.7189 16.8636 19.3551 16.7545 19.1982 16.463C19.0455 16.1784 19.1464 15.8259 19.4219 15.6631C19.3782 15.6405 19.3363 15.6124 19.2979 15.5782C19.1792 15.4724 19.0634 15.3623 18.9512 15.2481C18.5655 14.8557 18.2284 14.4232 17.9434 13.961C17.7695 13.679 17.8576 13.3097 18.1396 13.1358ZM17.7754 7.88287C18.0973 7.96092 18.2957 8.28551 18.2178 8.60748C18.1143 9.03494 18.0548 9.47551 18.0439 9.92194V9.96198C18.0438 9.97346 18.0428 9.98484 18.042 9.99615C18.0426 10.0084 18.0431 10.0209 18.043 10.0333L18.042 10.0811C18.043 10.5405 18.0954 10.9948 18.1943 11.4356C18.2666 11.7587 18.0632 12.0797 17.7402 12.1524C17.417 12.2249 17.0961 12.0214 17.0234 11.6983C16.9049 11.1702 16.8435 10.6262 16.8428 10.0762V10.0196C16.8429 10.0075 16.8439 9.99538 16.8447 9.98346C16.8442 9.97182 16.8436 9.9601 16.8438 9.9483L16.8447 9.90045V9.89264C16.8577 9.36031 16.9273 8.83427 17.0508 8.32428C17.129 8.00249 17.4535 7.80494 17.7754 7.88287ZM30.3623 7.99615C30.6857 7.92391 31.0068 8.12788 31.0791 8.45123C31.1972 8.97959 31.2578 9.52396 31.2578 10.0743C31.2578 10.6246 31.1973 11.169 31.0791 11.6973C31.0067 12.0206 30.6856 12.2237 30.3623 12.1514C30.0391 12.0791 29.8353 11.7588 29.9072 11.4356C30.0063 10.9927 30.0576 10.5359 30.0576 10.0743C30.0576 9.6126 30.0063 9.15591 29.9072 8.71295C29.8351 8.38966 30.039 8.06845 30.3623 7.99615ZM26.959 4.00592C27.1326 3.72381 27.502 3.63613 27.7842 3.80963C28.2268 4.08193 28.6427 4.40313 29.0225 4.77057L29.0615 4.80963C29.0705 4.81852 29.0787 4.82866 29.0869 4.83795C29.0952 4.8453 29.1044 4.85252 29.1123 4.86041L29.1514 4.89948C29.5368 5.29205 29.8743 5.72422 30.1592 6.18658C30.3329 6.46866 30.2449 6.83797 29.9629 7.01178C29.6809 7.18551 29.3116 7.09833 29.1377 6.81647C28.9004 6.43128 28.62 6.07097 28.2998 5.7442L28.2666 5.711C28.2581 5.70256 28.2501 5.69344 28.2422 5.68463C28.2336 5.67698 28.2241 5.66942 28.2158 5.66119L28.1875 5.63287C27.8706 5.32634 27.5247 5.05783 27.1562 4.83112C26.874 4.6575 26.7854 4.28815 26.959 4.00592ZM20.207 3.87799C20.486 3.69965 20.8565 3.78081 21.0352 4.05963C21.2138 4.33867 21.1325 4.71004 20.8535 4.88873C20.4787 5.1287 20.1275 5.41172 19.8086 5.73541C19.8073 5.73673 19.8069 5.73899 19.8057 5.7403C19.4939 6.0578 19.2188 6.40631 18.9854 6.77936C18.8095 7.0599 18.4399 7.14527 18.1592 6.96979C17.8783 6.79399 17.793 6.42351 17.9688 6.14264C18.2475 5.69736 18.5746 5.28018 18.9473 4.90045L18.9502 4.89752L19.0957 4.75397C19.4392 4.42386 19.812 4.13093 20.207 3.87799ZM24.0498 2.75006C24.5787 2.75006 25.1019 2.80936 25.6104 2.92389C25.9335 2.99673 26.1362 3.31751 26.0635 3.64069C25.9906 3.96388 25.6699 4.1666 25.3467 4.09381C24.9241 3.99863 24.4893 3.95026 24.0498 3.95026C23.596 3.95028 23.1474 4.00216 22.7119 4.10358C22.3892 4.17875 22.0664 3.97807 21.9912 3.65533C21.9163 3.33277 22.1169 3.01084 22.4395 2.93561C22.9635 2.81354 23.5035 2.75009 24.0498 2.75006Z" fill="#8A8A8A"/>
</g>
<defs>
<clipPath id="clip0_1683_13294">
<rect width="48" height="24" fill="white"/>
</clipPath>
</defs>
</svg>
