<svg width="24" height="24" viewBox="0 0 24 24" fill="none" xmlns="http://www.w3.org/2000/svg">
<path d="M22 18L19.9427 15.9426C19.6926 15.6927 19.3536 15.5522 19 15.5522C18.6464 15.5522 18.3074 15.6927 18.0573 15.9426L12 22M10 17V20.6667C10 21.403 10.597 22 11.3333 22H20.6667C21.403 22 22 21.403 22 20.6667V11.3333C22 10.597 21.403 10 20.6667 10H17M12 13.9666C12 12.9057 11.5786 11.8883 10.8284 11.1381C10.0783 10.388 9.06087 9.96655 8 9.96655C6.93913 9.96655 5.92172 10.388 5.17157 11.1381C4.42143 11.8883 4 12.9057 4 13.9666M5 22L7 20M7 20H4C3.46957 20 2.96086 19.7893 2.58579 19.4142C2.21071 19.0391 2 18.5304 2 18V17M7 20L5 18M9.41415 8.04751C10.1952 7.26647 10.1952 6.00014 9.41415 5.21909C8.6331 4.43804 7.36677 4.43804 6.58572 5.21909C5.80467 6.00014 5.80467 7.26647 6.58572 8.04751C7.36677 8.82856 8.6331 8.82856 9.41415 8.04751ZM3.33333 1.96655H12.6667C13.403 1.96655 14 2.56351 14 3.29989V12.6332C14 13.3696 13.403 13.9666 12.6667 13.9666H3.33333C2.59695 13.9666 2 13.3696 2 12.6332V3.29989C2 2.56351 2.59695 1.96655 3.33333 1.96655Z" stroke="#8A8A8A" stroke-width="1.3" stroke-linecap="round" stroke-linejoin="round"/>
</svg>
