<svg width="24" height="24" viewBox="0 0 24 24" fill="none" xmlns="http://www.w3.org/2000/svg">
<path d="M18 9C18 12.3137 15.3137 15 12 15C8.68629 15 6 12.3137 6 9C6 5.68629 8.68629 3 12 3C15.3137 3 18 5.68629 18 9Z" stroke="currentColor" stroke-width="1.3"/>
<path d="M14.5 15C14.5 18.3137 11.8137 21 8.5 21C5.18629 21 2.5 18.3137 2.5 15C2.5 11.6863 5.18629 9 8.5 9C11.8137 9 14.5 11.6863 14.5 15Z" stroke="currentColor" stroke-width="1.3"/>
<path d="M21.5 15C21.5 18.3137 18.8137 21 15.5 21C12.1863 21 9.5 18.3137 9.5 15C9.5 11.6863 12.1863 9 15.5 9C18.8137 9 21.5 11.6863 21.5 15Z" stroke="currentColor" stroke-width="1.3"/>
</svg>
