<svg width="24" height="24" viewBox="0 0 24 24" fill="none" xmlns="http://www.w3.org/2000/svg">
<path d="M10.6154 18.8127C10.0968 18.9352 9.55598 19 9 19C5.13401 19 2 15.866 2 12C2 8.13401 5.13401 5 9 5C9.55598 5 10.0968 5.06482 10.6154 5.18731M13.3846 18.8127C13.9032 18.9352 14.444 19 15 19C18.866 19 22 15.866 22 12C22 8.13401 18.866 5 15 5C14.444 5 13.9032 5.06482 13.3846 5.18731M19 12C19 15.866 15.866 19 12 19C8.13401 19 5 15.866 5 12C5 8.13401 8.13401 5 12 5C15.866 5 19 8.13401 19 12Z" stroke="currentColor" stroke-width="1.3"/>
</svg>
