<svg xmlns="http://www.w3.org/2000/svg" viewBox="0 0 8 9">
  <path d="M1.82148 8.68376C1.61587 8.68376 1.44996 8.60733 1.34177 8.46284C1.23057 8.31438 1.20157 8.10711 1.26219 7.89434L1.50561 7.03961C1.52502 6.97155 1.51151 6.89831 1.46918 6.8417C1.42684 6.7852 1.3606 6.75194 1.29025 6.75194H0.590376C0.384656 6.75194 0.21875 6.67562 0.110614 6.53113C-0.000591531 6.38256 -0.0295831 6.17529 0.0310774 5.96252L0.867308 3.03952L0.959638 2.71838C1.08375 2.28258 1.53638 1.9284 1.96878 1.9284H2.80622C2.90615 1.9284 2.99406 1.86177 3.02157 1.76508L3.29852 0.79284C3.4225 0.357484 3.87514 0.0033043 4.30753 0.0033043L6.09854 0.000112775L7.40967 0C7.61533 0 7.78124 0.0763259 7.88937 0.220813C8.00058 0.369269 8.02957 0.576538 7.96895 0.78931L7.59405 2.10572C7.4701 2.54096 7.01746 2.89503 6.58507 2.89503L4.79008 2.89844H3.95292C3.8531 2.89844 3.7653 2.96496 3.73762 3.06155L3.03961 5.49964C3.02008 5.56781 3.03359 5.64127 3.07604 5.69787C3.11837 5.75437 3.18461 5.78763 3.2549 5.78763C3.25507 5.78763 4.44105 5.78532 4.44105 5.78532H5.7483C5.95396 5.78532 6.11986 5.86164 6.228 6.00613C6.33921 6.1547 6.3682 6.36197 6.30754 6.57474L5.93263 7.89092C5.80869 8.32628 5.35605 8.68034 4.92366 8.68034L3.12872 8.68376H1.82148Z" fill="#8A8A8A"/>
</svg>

