<svg xmlns="http://www.w3.org/2000/svg" viewBox="0 0 100 23" width="100" height="23">
  <path d="M83.6786 22.2799C83.1357 22.2799 82.6977 22.1196 82.4123 21.8161C82.1187 21.5041 82.0422 21.0688 82.2023 20.622L83.192 17.8576C83.519 16.9436 84.7139 16.2 85.8554 16.2H88.0742C88.338 16.2 88.5701 16.0601 88.6427 15.857L89.0255 14.788C89.0767 14.6448 89.0411 14.491 88.9293 14.3721C88.8176 14.2534 88.6426 14.1836 88.4569 14.1836L83.5943 14.1843C83.567 14.1813 83.5416 14.1799 83.5139 14.1799H81.8757C81.3328 14.1799 80.8948 14.0196 80.6094 13.7161C80.316 13.4041 80.2393 12.9688 80.3993 12.5222L80.5903 11.9884C80.6414 11.8455 80.6058 11.6917 80.494 11.5728C80.3823 11.4541 80.2074 11.3843 80.0217 11.3843H79.3942C79.1302 11.3843 78.8983 11.5242 78.8257 11.7275L78.5412 12.5222C78.2141 13.4363 77.0192 14.1799 75.8777 14.1799H73.6644C73.4011 14.1799 73.1693 14.3193 73.0963 14.5219L72.4673 16.2652C72.4645 16.2719 72.4573 16.2897 72.455 16.2964L71.5571 18.7874C71.5531 18.7959 71.5477 18.8096 71.5446 18.8184L70.895 20.6215C70.5677 21.5363 69.3728 22.2799 68.2313 22.2799H64.7799C64.237 22.2799 63.7991 22.1196 63.5136 21.8161C63.2201 21.5044 63.1435 21.0691 63.3035 20.6222L66.1963 12.5859C66.1999 12.5775 66.2065 12.5609 66.2097 12.5523L66.4118 11.9889C66.4632 11.846 66.4277 11.6919 66.316 11.573C66.2042 11.4541 66.0292 11.3843 65.8435 11.3843H65.2223C64.9588 11.3843 64.7272 11.524 64.6542 11.7266L63.3949 15.2212C63.3912 15.2297 63.3857 15.2436 63.3826 15.2522L62.9075 16.5712C62.5801 17.4862 61.3853 18.23 60.2439 18.23H56.7925C56.2495 18.23 55.8115 18.0697 55.5261 17.7663C55.2327 17.454 55.156 17.0188 55.3161 16.5721L57.4134 10.7399C57.4648 10.597 57.4293 10.443 57.3177 10.3238C57.2059 10.205 57.0309 10.1351 56.8451 10.1351H56.2202C55.9564 10.1351 55.7245 10.275 55.6517 10.4781L54.7575 12.9721C54.7539 12.9804 54.7484 12.9941 54.7454 13.0026L53.4584 16.5712C53.1306 17.4862 51.9358 18.23 50.7945 18.23H47.3432C46.8003 18.23 46.3623 18.0697 46.0769 17.7663C45.7833 17.4543 45.7068 17.019 45.8668 16.5721L46.8564 13.8077C46.8602 13.7994 46.8655 13.7862 46.8686 13.7777L47.9658 10.7351C48.0173 10.5921 47.982 10.4378 47.8703 10.319C47.7586 10.2001 47.5834 10.13 47.3976 10.13H46.7786C46.5151 10.13 46.2835 10.2697 46.2104 10.4723L46.1207 10.7212C46.1176 10.7283 46.1108 10.7452 46.1082 10.7524L44.0902 16.3461C44.0871 16.3535 44.0798 16.3716 44.0772 16.379L44.0083 16.573C43.6814 17.4862 42.4866 18.23 41.3452 18.23H37.8938C37.3509 18.23 36.9129 18.0697 36.6275 17.7663C36.3339 17.4542 36.2574 17.0189 36.4174 16.5721L36.6076 16.0406C36.6588 15.8977 36.6232 15.7439 36.5114 15.625C36.3997 15.5063 36.2248 15.4365 36.0391 15.4365H35.4136C35.1503 15.4365 34.9185 15.5759 34.8454 15.7788L34.5597 16.5712C34.2321 17.4862 33.0372 18.23 31.8958 18.23H29.6591C29.3953 18.23 29.1632 18.3699 29.0906 18.573L28.3569 20.622C28.0299 21.5363 26.835 22.2799 25.6935 22.2799H22.2421C21.6991 22.2799 21.2611 22.1196 20.9757 21.8161C20.6821 21.5041 20.6056 21.0688 20.7657 20.622L21.4057 18.8341C21.4569 18.6912 21.4213 18.5374 21.3095 18.4185C21.1978 18.2998 21.0229 18.23 20.8372 18.23H18.9952C18.4524 18.23 18.0145 18.0697 17.7288 17.7663C17.4353 17.4542 17.3587 17.0189 17.5187 16.5723L17.709 16.0406C17.7601 15.8977 17.7244 15.7439 17.6127 15.625C17.5009 15.5063 17.3261 15.4365 17.1404 15.4365H16.513C16.2492 15.4365 16.0173 15.5764 15.9445 15.7795L15.6606 16.5721C15.3335 17.4864 14.1386 18.23 12.9972 18.23L8.26972 18.2367L4.80823 18.2369C4.26533 18.2369 3.82738 18.0766 3.54193 17.7732C3.24852 17.4612 3.17184 17.0259 3.33185 16.5793L3.97453 14.7842C4.02577 14.6411 3.99011 14.4873 3.87836 14.3684C3.76661 14.2497 3.59176 14.1799 3.40605 14.1799H1.55829C1.01539 14.1799 0.577442 14.0196 0.291991 13.7161C-0.00141439 13.4041 -0.0780926 12.9688 0.0819173 12.5222L1.80249 7.73338C1.80565 7.72621 1.81275 7.70818 1.81547 7.70101L2.37094 6.15854C2.37599 6.14743 2.38031 6.13656 2.38436 6.12524L2.53367 5.70776C2.86084 4.7937 4.05555 4.04988 5.19694 4.04988H7.40772C7.67152 4.04988 7.90357 3.90995 7.97619 3.70688L8.70725 1.66506C9.03446 0.75076 10.2293 0.00717626 11.3709 0.00717626L16.109 0H19.5597C20.1026 0 20.5405 0.160294 20.826 0.463733C21.1195 0.775747 21.196 1.21104 21.036 1.65788L20.0464 4.4225C19.719 5.33656 18.5242 6.08014 17.3828 6.08014L12.6446 6.08708H10.4347C10.1711 6.08708 9.93919 6.22701 9.86627 6.42986L8.89148 9.14682C8.88787 9.15537 8.88237 9.16904 8.87936 9.17759L8.02413 11.5497C7.97244 11.6929 8.00795 11.8471 8.12 11.9662C8.23175 12.0849 8.4066 12.1547 8.59231 12.1547C8.59275 12.1547 11.7233 12.1499 11.7233 12.1499H15.1739C15.7168 12.1499 16.1548 12.3102 16.4402 12.6136C16.7338 12.9256 16.8103 13.3609 16.6503 13.8078L16.4532 14.3587C16.402 14.5016 16.4376 14.6554 16.5494 14.7743C16.6611 14.893 16.836 14.9628 17.0217 14.9628H17.6491C17.9127 14.9628 18.1446 14.8229 18.2175 14.6201L18.5896 13.5832C18.5932 13.5746 19.97 9.75861 19.97 9.75861C20.2975 8.84362 21.4923 8.10004 22.6339 8.10004H24.837C25.1008 8.10004 25.3328 7.96011 25.4055 7.75681L26.1371 5.7129C26.4646 4.79884 27.6595 4.05502 28.8008 4.05502H32.252C32.7949 4.05502 33.2329 4.21531 33.5183 4.51875C33.8119 4.83076 33.8886 5.26605 33.7286 5.71266L33.0902 7.4959C33.039 7.63884 33.0746 7.79264 33.1864 7.91153C33.2981 8.03019 33.473 8.10004 33.6587 8.10004H35.5346C36.0775 8.10004 36.5155 8.26033 36.8009 8.56377C37.0945 8.87578 37.171 9.31107 37.0109 9.75792L35.358 14.3583C35.3066 14.5012 35.3421 14.6552 35.4539 14.7741C35.5655 14.893 35.7405 14.9629 35.9264 14.9629H36.5478C36.8113 14.9629 37.0431 14.8232 37.1161 14.6203L37.8943 12.4582C37.897 12.4518 37.9039 12.4344 37.9064 12.4279L39.9245 6.83398C39.9283 6.82519 39.9339 6.81108 39.9371 6.80229L40.3307 5.70852C40.6582 4.79377 41.853 4.04995 42.9944 4.04995H51.1684C51.7112 4.04995 52.1491 4.21045 52.4347 4.51392C52.7283 4.82569 52.8049 5.26098 52.6449 5.70759L52.0047 7.49569C51.9535 7.63886 51.9891 7.79266 52.1009 7.91132C52.2126 8.03022 52.3875 8.10006 52.5732 8.10006H53.2179C53.4817 8.10006 53.7137 7.96013 53.7864 7.75707L54.5181 5.71292C54.8455 4.79886 56.0403 4.05504 57.1817 4.05504H60.6331C61.176 4.05504 61.6139 4.21533 61.8994 4.51877C62.1929 4.83079 62.2695 5.26607 62.1095 5.71292L61.4713 7.49593C61.42 7.63886 61.4557 7.79266 61.5674 7.91156C61.6792 8.03021 61.854 8.10006 62.0397 8.10006H63.8826C64.4255 8.10006 64.8634 8.26035 65.1489 8.56379C65.4423 8.87581 65.519 9.3111 65.359 9.75771L65.1626 10.3066C65.1113 10.4495 65.147 10.6033 65.2587 10.7222C65.3705 10.8408 65.5453 10.9107 65.731 10.9107H66.3563C66.6196 10.9107 66.8512 10.7712 66.9245 10.5686L68.6786 5.70878C69.0061 4.79355 70.201 4.04997 71.3424 4.04997H73.5612C73.825 4.04997 74.0569 3.91005 74.1297 3.70698L74.8635 1.65798C75.1907 0.743679 76.3855 9.47361e-05 77.5269 9.47361e-05H80.9783C81.5213 9.47361e-05 81.9593 0.160388 82.2447 0.463828C82.5383 0.775842 82.6148 1.21113 82.4547 1.65798L81.465 4.42259C81.1378 5.33665 79.943 6.08024 78.8016 6.08024H76.5826C76.3188 6.08024 76.0867 6.22016 76.0141 6.42347L75.6302 7.49595C75.5789 7.63888 75.6146 7.79269 75.7264 7.91158C75.8381 8.03024 76.013 8.10008 76.1987 8.10008H78.0545C78.5974 8.10008 79.0354 8.26038 79.3208 8.56382C79.6144 8.87559 79.6909 9.31088 79.5309 9.75773L79.3345 10.3066C79.2833 10.4495 79.3189 10.6033 79.4307 10.7222C79.5424 10.8409 79.7173 10.9107 79.903 10.9107H80.5305C80.794 10.9107 81.0256 10.7712 81.0987 10.5684L82.8504 5.70878C83.1782 4.79379 84.373 4.04997 85.5143 4.04997H88.9658C89.5087 4.04997 89.9467 4.21026 90.2321 4.5137C90.5257 4.82572 90.6022 5.26101 90.4421 5.70785L88.8841 10.0468C88.8802 10.0554 88.8749 10.0691 88.8717 10.0778L88.7048 10.542C88.6534 10.6852 88.6887 10.8393 88.8005 10.9581C88.9122 11.077 89.0872 11.1469 89.2731 11.1469H89.8905C90.154 11.1469 90.3857 11.0072 90.4588 10.8046L92.2943 5.7088C92.6219 4.79382 93.8167 4.04999 94.9582 4.04999H98.4095C98.9523 4.04999 99.3902 4.2105 99.6758 4.51396C99.9694 4.82574 100.046 5.26103 99.8859 5.70788L95.9781 16.5718C95.6507 17.4865 94.4558 18.2301 93.3146 18.2301H91.0956C90.8318 18.2301 90.5997 18.3701 90.5271 18.5731L89.7934 20.6221C89.4662 21.5364 88.2714 22.28 87.13 22.28L83.6786 22.2799ZM27.8722 10.1351C27.6087 10.1351 27.377 10.2748 27.3039 10.4777L25.4625 15.5952C25.4111 15.7381 25.4465 15.8921 25.5582 16.011C25.67 16.1301 25.845 16.2 26.0308 16.2H26.6556C26.9191 16.2 27.1508 16.0603 27.2239 15.8575L29.0653 10.74C29.1167 10.597 29.0814 10.443 28.9696 10.3241C28.8579 10.205 28.6829 10.1351 28.497 10.1351H27.8722Z" fill="currentColor" />
</svg>
