<svg width="48" height="24" viewBox="0 0 48 24" fill="none" xmlns="http://www.w3.org/2000/svg">
<path d="M29.9316 2.13269H25.2057V3.57269H29.9316C31.1241 3.57269 32.0916 4.54018 32.0916 5.73269V18.0646C32.0916 19.2571 31.1241 20.2246 29.9316 20.2246H25.2057V21.6646H29.9316C30.8859 21.6646 31.8019 21.2849 32.4768 20.6099C33.1516 19.9349 33.5314 19.019 33.5314 18.0647V5.73281C33.5314 4.77843 33.1518 3.86249 32.4768 3.18761C31.8018 2.51273 30.8858 2.13293 29.9316 2.13293V2.13269Z" fill="#8A8A8A"/>
<path d="M30.2025 15.7602C30.5531 15.7602 30.8738 15.5652 31.0341 15.2539C31.1953 14.9427 31.1691 14.5677 30.9656 14.2817L29.0269 11.5601L26.7994 8.44014C26.6231 8.19359 26.3391 8.04733 26.0363 8.04733C25.7335 8.04733 25.4494 8.19358 25.2731 8.44014L25.2056 8.53389V15.7601L30.2025 15.7602Z" fill="#8A8A8A"/>
<path d="M23.0457 1.00018C22.6482 1.00018 22.3257 1.32269 22.3257 1.72018V2.13269H17.5999C16.6455 2.13269 15.7296 2.51237 15.0547 3.18737C14.3798 3.86237 14 4.77831 14 5.73257V18.0645C14 19.0189 14.3797 19.9348 15.0547 20.6097C15.7297 21.2846 16.6456 21.6644 17.5999 21.6644H22.3257V21.88C22.3257 22.2775 22.6482 22.6 23.0457 22.6C23.4432 22.6 23.7657 22.2775 23.7657 21.88V1.72C23.7657 1.32251 23.4432 1.00018 23.0457 1.00018ZM22.3257 15.7602H17.3289C16.9783 15.7602 16.6577 15.5652 16.4974 15.2539C16.3361 14.9427 16.3624 14.5677 16.5658 14.2817L17.4471 13.0433L18.6208 11.397H18.6199C18.7961 11.1495 19.0802 11.0033 19.383 11.0033C19.6867 11.0033 19.9708 11.1495 20.1471 11.397L21.318 13.0433L21.6517 13.5233L22.3258 12.568L22.3257 15.7602Z" fill="#8A8A8A"/>
</svg>
