<svg width="48" height="24" viewBox="0 0 48 24" fill="none" xmlns="http://www.w3.org/2000/svg">
<path d="M29.9316 2.13269H25.2057V3.57269H29.9316C31.1241 3.57269 32.0916 4.54018 32.0916 5.73269V18.0646C32.0916 19.2571 31.1241 20.2246 29.9316 20.2246H25.2057V21.6646H29.9316C30.8859 21.6646 31.8019 21.2849 32.4768 20.6099C33.1516 19.9349 33.5314 19.019 33.5314 18.0647V5.73281C33.5314 4.77843 33.1518 3.86249 32.4768 3.18761C31.8018 2.51273 30.8858 2.13293 29.9316 2.13293V2.13269Z" fill="#8A8A8A"/>
<path d="M29.0586 10.918C29.5299 11.2086 29.703 11.7469 29.7031 12.1836C29.7031 12.6202 29.5288 13.1584 29.0576 13.4492L25 16.0273V12.4717L25.6396 12.0801L25 11.6865V8.33887L29.0586 10.918Z" fill="#8A8A8A"/>
<path d="M23.0459 1C23.4433 1.0001 23.7656 1.32234 23.7656 1.71973V21.8799C23.7656 22.2773 23.4433 22.5995 23.0459 22.5996C22.6484 22.5996 22.3262 22.2774 22.3262 21.8799V21.6641H17.5996C16.6454 21.664 15.7296 21.2842 15.0547 20.6094C14.3798 19.9345 14 19.0188 14 18.0645V5.73242C14 4.77822 14.3799 3.86249 15.0547 3.1875C15.7295 2.51256 16.6453 2.13288 17.5996 2.13281H22.3262V1.71973C22.3263 1.32236 22.6485 1 23.0459 1ZM19.3008 5.00195C18.5469 5.04101 17.991 5.7594 18.001 6.48438V17.8672C17.9877 18.3783 18.241 18.8887 18.667 19.1621L18.6709 19.165C19.1025 19.4368 19.6599 19.4326 20.0879 19.1494L22 17.9336V14.3105L20.7266 15.0918V9.06055L22 9.84277V6.43359L20.0869 5.21875C19.8834 5.08395 19.6474 5.00777 19.4072 5L19.3008 5.00195Z" fill="#8A8A8A"/>
</svg>
