<svg width="24" height="24" viewBox="0 0 24 24" fill="none" xmlns="http://www.w3.org/2000/svg">
<path d="M11 21H5C3.89543 21 3 20.1046 3 19V5C3 3.89543 3.89543 3 5 3H19C20.1046 3 21 3.89543 21 5V15M9 8L15 12L9 16V8ZM18.141 18.816l-.784 1.83a.334.334 0 01-.614 0l-.785-1.83a.333.333 0 00-.175-.176l-1.831-.784a.334.334 0 010-.614l1.831-.785a.333.333 0 00.175-.175l.785-1.831a.334.334 0 01.614 0l.784 1.831a.334.334 0 00.176.175l1.83.785c.27.116.27.498 0 .614l-1.83.784a.334.334 0 00-.176.176Z" stroke="#8A8A8A" stroke-width="1.3" stroke-linecap="round" stroke-linejoin="round"/>
</svg>
