<svg width="48" height="24" viewBox="0 0 48 24" fill="none" xmlns="http://www.w3.org/2000/svg">
<path fill-rule="evenodd" clip-rule="evenodd" d="M22.3697 9.5C22.4578 9.50289 22.5441 9.53066 22.6187 9.58008L25.9107 11.6699C26.0837 11.7765 26.1471 11.9746 26.1471 12.1348C26.147 12.2949 26.0827 12.4921 25.9098 12.5986L22.6187 14.6895C22.4617 14.7931 22.2574 14.7941 22.0992 14.6943L22.0982 14.6934C21.9419 14.5931 21.8483 14.4063 21.8531 14.2188V10.0439C21.8496 9.77812 22.0541 9.51424 22.3307 9.5H22.3697ZM22.8619 13.2754L24.6646 12.1338L22.8619 10.9893V13.2754Z" fill="#8A8A8A"/>
<path d="M18 1.2002C18.4418 1.2002 18.7998 1.55817 18.7998 2V5.2002H29C29.9941 5.2002 30.7998 6.00589 30.7998 7V17.7002H34C34.4418 17.7002 34.7998 18.0582 34.7998 18.5C34.7998 18.9418 34.4418 19.2998 34 19.2998H30.7998V22.5C30.7998 22.9418 30.4418 23.2998 30 23.2998C29.5582 23.2998 29.2002 22.9418 29.2002 22.5V19.2998H19C18.0059 19.2998 17.2002 18.4941 17.2002 17.5V6.7998H14C13.5582 6.7998 13.2002 6.44183 13.2002 6C13.2002 5.55817 13.5582 5.2002 14 5.2002H17.2002V2C17.2002 1.55817 17.5582 1.2002 18 1.2002ZM18.7998 17.5C18.7998 17.6105 18.8895 17.7002 19 17.7002H29.2002V7C29.2002 6.88954 29.1105 6.79981 29 6.7998H18.7998V17.5Z" fill="#8A8A8A"/>
</svg>
