<svg width="48" height="24" viewBox="0 0 48 24" fill="none" xmlns="http://www.w3.org/2000/svg">
<path fill-rule="evenodd" clip-rule="evenodd" d="M28.0245 11.721C28.2587 11.9553 28.2588 12.3354 28.0245 12.5696L25.4796 15.1155C25.2454 15.3497 24.8653 15.3494 24.631 15.1155C24.3967 14.8812 24.3967 14.5012 24.631 14.2669L26.1485 12.7493L18.6007 12.7493C18.2693 12.7493 18.0001 12.4811 18.0001 12.1497C18.0001 11.8184 18.2693 11.5501 18.6007 11.5501L26.1573 11.5501L24.631 10.0238C24.3966 9.78943 24.3966 9.40944 24.631 9.17512C24.8653 8.94106 25.2454 8.94089 25.4796 9.17512L28.0245 11.721Z" fill="#8A8A8A"/>
<rect x="0.5" y="4.61523" width="14" height="14" rx="2.5" fill="#1C1C24" stroke="#8A8A8A"/>
<circle cx="9.04375" cy="10.7215" r="3.98125" fill="url(#paint0_radial_1694_13931)"/>
<path d="M44.203 5C46.2974 5 48.01 6.71671 48.01 8.84956V14.3804C48.01 16.5133 46.2974 18.23 44.203 18.23H34.807C32.7125 18.23 31 16.5133 31 14.3804V8.84956C31 6.71671 32.7125 5 34.807 5H44.203ZM34.807 6.37812C33.4315 6.37812 32.3499 7.48086 32.3499 8.84956V14.3804C32.3499 15.7491 33.4315 16.8519 34.807 16.8519H44.203C45.5785 16.8519 46.6601 15.7491 46.6601 14.3804V8.84956C46.6601 7.48086 45.5785 6.37812 44.203 6.37812H34.807ZM37.5598 8.12949C37.6752 8.13322 37.7884 8.16994 37.8862 8.23544L42.193 11.0009C42.4194 11.1419 42.5025 11.403 42.5025 11.615C42.5025 11.8269 42.419 12.0878 42.1927 12.2288L37.8865 14.9946C37.6809 15.132 37.4135 15.1341 37.2063 15.002L37.2046 15.0009C37 14.8683 36.8785 14.6208 36.8848 14.3727V8.84956C36.88 8.49772 37.1469 8.14891 37.5089 8.13007L37.5598 8.12949ZM38.2041 13.1249L40.5626 11.6144L38.2041 10.0996V13.1249ZM42.1753 11.8255C42.1606 11.8574 42.1424 11.887 42.1205 11.913L42.1506 11.8717C42.1598 11.8571 42.168 11.8414 42.1753 11.8255Z" fill="#8A8A8A"/>
<defs>
<radialGradient id="paint0_radial_1694_13931" cx="0" cy="0" r="1" gradientUnits="userSpaceOnUse" gradientTransform="translate(9.53125 10.884) rotate(-139.289) scale(4.6091)">
<stop offset="0.00961538" stop-color="white"/>
<stop offset="1" stop-color="#686868"/>
</radialGradient>
</defs>
</svg>
