<svg width="49" height="24" viewBox="0 0 49 24" fill="none" xmlns="http://www.w3.org/2000/svg">
<path d="M47.2461 5C47.9942 5.00009 48.6152 5.59922 48.6152 6.32031V16.8799C48.6152 17.601 47.9942 18.2001 47.2461 18.2002H31.9844C31.2363 18.2 30.6152 17.6009 30.6152 16.8799V6.32031C30.6152 5.59931 31.2363 5.00024 31.9844 5H47.2461ZM31.7891 14.918V16.8799C31.7891 16.9939 31.8661 17.0682 31.9844 17.0684H47.2461C47.3644 17.0682 47.4414 16.994 47.4414 16.8799V15.2656L44.085 12.6787L41.3154 14.5166C41.1091 14.6507 40.8115 14.6383 40.6182 14.4873L36.8516 11.5527L31.7891 14.918ZM31.9844 6.13184C31.8662 6.13202 31.7891 6.20628 31.7891 6.32031V13.5391L36.54 10.3799C36.6194 10.3255 36.7125 10.2913 36.8086 10.2803C36.9629 10.2641 37.1232 10.3091 37.2432 10.4033L41.0098 13.3447L43.7852 11.5059C43.9915 11.3718 44.2891 11.3841 44.4824 11.5352L47.4414 13.8154V6.32031C47.4414 6.20619 47.3645 6.13191 47.2461 6.13184H31.9844ZM40.9854 7.63965C41.9503 7.63986 42.7459 8.40684 42.7461 9.33691C42.7461 10.2671 41.9505 11.034 40.9854 11.0342C40.0201 11.0342 39.2236 10.2673 39.2236 9.33691C39.2238 8.40671 40.0202 7.63965 40.9854 7.63965ZM40.9854 8.77148C40.6545 8.77148 40.3986 9.01812 40.3984 9.33691C40.3984 9.65587 40.6544 9.90332 40.9854 9.90332C41.3161 9.90312 41.5723 9.65574 41.5723 9.33691C41.5721 9.01825 41.316 8.77168 40.9854 8.77148Z" fill="#8A8A8A"/>
<path fill-rule="evenodd" clip-rule="evenodd" d="M27.6398 11.7209C27.8739 11.9552 27.874 12.3353 27.6398 12.5695L25.0948 15.1154C24.8607 15.3496 24.4805 15.3492 24.2462 15.1154C24.0119 14.8811 24.0119 14.5011 24.2462 14.2668L25.7638 12.7492L18.2159 12.7492C17.8845 12.7492 17.6153 12.481 17.6153 12.1496C17.6153 11.8182 17.8846 11.55 18.2159 11.55L25.7726 11.55L24.2462 10.0236C24.0119 9.78931 24.0119 9.40931 24.2462 9.175C24.4805 8.94094 24.8606 8.94077 25.0948 9.175L27.6398 11.7209Z" fill="#8A8A8A"/>
<rect x="0.5" y="4.5" width="14" height="14" rx="2.5" fill="#1C1C24" stroke="#8A8A8A"/>
<circle cx="9.04375" cy="10.6062" r="3.98125" fill="url(#paint0_radial_1684_13636)"/>
<defs>
<radialGradient id="paint0_radial_1684_13636" cx="0" cy="0" r="1" gradientUnits="userSpaceOnUse" gradientTransform="translate(9.53125 10.7687) rotate(-139.289) scale(4.6091)">
<stop offset="0.00961538" stop-color="white"/>
<stop offset="1" stop-color="#686868"/>
</radialGradient>
</defs>
</svg>
