<svg width="24" height="24" viewBox="0 0 24 24" fill="none" xmlns="http://www.w3.org/2000/svg">
<path d="M17.5 10H20.6667C21.403 10 22 10.597 22 11.3333V20.6667C22 21.403 21.403 22 20.6667 22H11.3333C10.597 22 10 21.403 10 20.6667V17M14 15.5V18.6667L18 16L15 14M2.29912 4.63977C2.11384 4.8332 2 5.09561 2 5.38461V12.9231C2 13.5178 2.48215 14 3.07692 14H10.6154C10.8974 14 11.1541 13.8916 11.3461 13.7141M2.29912 4.63977C2.49515 4.43512 2.77116 4.30769 3.07692 4.30769H10.6154C10.9061 4.30769 11.1524 4.46662 11.3461 4.65384M2.29912 4.63977L4.59359 2.34615C4.79033 2.13329 5.07191 2 5.38463 2H12.9231C13.2201 2 13.4891 2.12025 13.6839 2.31473M11.3461 13.7141C11.559 13.5174 11.6923 13.2358 11.6923 12.9231V5.38461C11.6923 5.08055 11.5488 4.84967 11.3461 4.65384M11.3461 13.7141L13.6538 11.4064C13.8667 11.2097 14 10.9281 14 10.6154V3.07692C14 2.77918 13.8792 2.50967 13.6839 2.31473M11.3461 4.65384L13.6839 2.31473M5 22L7 20M7 20H4C3.46957 20 2.96086 19.7893 2.58579 19.4142C2.21071 19.0391 2 18.5304 2 18V17M7 20L5 18" stroke="#8A8A8A" stroke-width="1.3" stroke-linecap="round" stroke-linejoin="round"/>
</svg>
