<svg width="24" height="24" viewBox="0 0 24 24" fill="none" xmlns="http://www.w3.org/2000/svg">
<path d="M22 18L19.9427 15.9426C19.6926 15.6927 19.3536 15.5522 19 15.5522C18.6464 15.5522 18.3074 15.6927 18.0573 15.9426L12 22M10 17V20.6667C10 21.403 10.597 22 11.3333 22H20.6667C21.403 22 22 21.403 22 20.6667V11.3333C22 10.597 21.403 10 20.6667 10H17M2.29912 4.63977C2.11384 4.8332 2 5.09561 2 5.38461V12.9231C2 13.5178 2.48215 14 3.07692 14H10.6154C10.8974 14 11.1541 13.8916 11.3461 13.7141M2.29912 4.63977C2.49515 4.43512 2.77116 4.30769 3.07692 4.30769H10.6154C10.9061 4.30769 11.1524 4.46662 11.3461 4.65384M2.29912 4.63977L4.59359 2.34615C4.79033 2.13329 5.07191 2 5.38463 2H12.9231C13.2201 2 13.4891 2.12025 13.6839 2.31473M11.3461 13.7141C11.559 13.5174 11.6923 13.2358 11.6923 12.9231V5.38461C11.6923 5.08055 11.5488 4.84967 11.3461 4.65384M11.3461 13.7141L13.6538 11.4064C13.8667 11.2097 14 10.9281 14 10.6154V3.07692C14 2.77918 13.8792 2.50967 13.6839 2.31473M11.3461 4.65384L13.6839 2.31473M5 22L7 20M7 20H4C3.46957 20 2.96086 19.7893 2.58579 19.4142C2.21071 19.0391 2 18.5304 2 18V17M7 20L5 18" stroke="#8A8A8A" stroke-width="1.3" stroke-linecap="round" stroke-linejoin="round"/>
</svg>
