<svg width="24" height="24" viewBox="0 0 24 24" fill="none" xmlns="http://www.w3.org/2000/svg">
<path d="M18.8 12H20M4 12H5.2M16.8083 16.8083L17.6569 17.6569M6.34315 6.34315L7.19167 7.19167M7.1907 16.8083L6.34217 17.6569M17.6559 6.34315L16.8074 7.19167M12 18.8V20M12 4V5.2M11.4448 10.6596L9.7218 6.49994M16.2426 7.75736C18.5858 10.1005 18.5858 13.8995 16.2426 16.2426C13.8995 18.5858 10.1005 18.5858 7.75736 16.2426C5.41421 13.8995 5.41421 10.1005 7.75736 7.75736C10.1005 5.41421 13.8995 5.41421 16.2426 7.75736ZM18.0104 5.98959C21.3299 9.30905 21.3299 14.691 18.0104 18.0104C14.691 21.3299 9.30905 21.3299 5.98959 18.0104C2.67014 14.691 2.67014 9.30905 5.98959 5.98959C9.30905 2.67014 14.691 2.67014 18.0104 5.98959Z" stroke="currentColor" stroke-width="1.3" stroke-linecap="round"/>
</svg>
