<svg width="48" height="24" viewBox="0 0 48 24" fill="none" xmlns="http://www.w3.org/2000/svg">
<path d="M32.2435 1.33301C33.4808 1.33312 34.4935 2.34575 34.4935 3.58301V11.2422C35.9784 11.809 36.5649 13.8317 35.3109 15.0859C28.4415 21.9551 28.9659 21.498 28.681 21.5654C25.4267 22.3753 25.6288 22.3379 25.5013 22.3379L25.4935 22.3301C25.0063 22.3298 24.647 21.8727 24.767 21.4004C25.5693 18.2061 25.5088 18.2582 25.7113 18.0557L30.7767 12.9893C30.2817 12.6244 29.582 12.1127 28.6029 11.4082L24.5423 14.8135C24.2463 15.0618 23.7681 15.0618 23.472 14.8135L17.1341 9.49805L13.4955 12.042V17.0811C13.4955 17.4933 13.8322 17.8308 14.2445 17.8311H23.2445C23.6568 17.8313 23.9945 18.1687 23.9945 18.5811C23.9943 18.9933 23.6567 19.3309 23.2445 19.3311H14.2445C13.0073 19.3308 11.9955 18.3182 11.9955 17.0811V3.58301C11.9955 2.34583 13.0073 1.33325 14.2445 1.33301H32.2435ZM26.9183 18.9629L26.5209 20.5459L28.1039 20.1484L32.2982 15.9521C32.0571 15.7222 31.6993 15.3563 31.1127 14.7676L26.9183 18.9629ZM34.4857 13.4219C34.4857 12.672 33.5781 12.3043 33.0531 12.8291L32.7962 13.085C32.7438 13.1746 32.6636 13.2544 32.5629 13.3184L32.1712 13.71L33.3558 14.8945L34.2377 14.0137C34.3951 13.8562 34.4856 13.6468 34.4857 13.4219ZM14.2445 2.83301C13.8322 2.83325 13.4955 3.1707 13.4955 3.58301V10.4395L16.6937 8.14844C16.9973 7.93835 17.4383 7.951 17.7191 8.18652L24.0111 13.4639L28.0267 10.0967C28.3076 9.86126 28.7554 9.84805 29.0589 10.0645L31.8558 11.9102L31.9955 11.7715C32.2782 11.4887 32.6198 11.2892 32.9935 11.1816V3.58301C32.9935 3.17062 32.6559 2.83312 32.2435 2.83301H14.2445ZM24.2494 4.33301C25.4866 4.33301 26.4991 5.3449 26.4994 6.58203C26.4994 7.81936 25.4868 8.83203 24.2494 8.83203C23.0122 8.8318 22.0004 7.81922 22.0004 6.58203C22.0006 5.34504 23.0123 4.33323 24.2494 4.33301ZM24.2494 5.83301C23.8372 5.83323 23.4996 6.16991 23.4994 6.58203C23.4994 6.99435 23.8371 7.3318 24.2494 7.33203C24.6618 7.33203 24.9994 6.99449 24.9994 6.58203C24.9991 6.16977 24.6617 5.83301 24.2494 5.83301Z" fill="#8A8A8A"/>
</svg>
