<svg width="48" height="24" viewBox="0 0 48 24" fill="none" xmlns="http://www.w3.org/2000/svg">
<path d="M27.6289 0C30.5839 0.000217009 32.9999 2.46547 33 5.52832V11.666L31.0957 13.3594V5.52832C31.0956 3.56289 29.5694 1.9797 27.6289 1.97949H14.3711C12.4306 1.9797 10.9044 3.56289 10.9043 5.52832V13.4717C10.9044 15.4371 12.4306 17.0203 14.3711 17.0205H27V19H14.3711C11.4161 18.9998 9.00008 16.5345 9 13.4717V5.52832C9.00008 2.46547 11.4161 0.000217423 14.3711 0H27.6289ZM18.2559 4.49414C18.4185 4.49956 18.578 4.55256 18.7158 4.64648L24.793 8.61816C25.1122 8.82076 25.2295 9.19571 25.2295 9.5C25.2295 9.80434 25.1113 10.1792 24.792 10.3818L18.7168 14.3535C18.4268 14.5509 18.0492 14.5538 17.7568 14.3643L17.7539 14.3623C17.4655 14.1718 17.2938 13.8161 17.3027 13.46V5.52832C17.296 5.02308 17.6729 4.52218 18.1836 4.49512L18.2559 4.49414ZM19.1641 11.668L22.4922 9.49902L19.1641 7.32422V11.668Z" fill="#8A8A8A"/>
<path fill-rule="evenodd" clip-rule="evenodd" d="M39.784 8.33301C40.5601 8.37159 41.2873 8.69547 41.8368 9.24316L41.8407 9.24707C42.4245 9.83307 42.7546 10.6211 42.7547 11.4551C42.7547 11.8685 42.6746 12.2762 42.5155 12.6572C42.3585 13.0341 42.1305 13.3744 41.8446 13.6631L41.8397 13.667L41.1717 14.3369C41.0982 14.4106 41.0176 14.4759 40.9325 14.5332C40.8753 14.6183 40.8098 14.6989 40.7362 14.7725L33.4803 22.0264C33.2633 22.2432 32.9882 22.3939 32.6883 22.459L29.9276 23.0576C29.396 23.1727 28.8415 23.0106 28.4569 22.626C28.0723 22.2413 27.91 21.6869 28.0252 21.1553L28.6239 18.3945L28.6522 18.2832C28.7275 18.0268 28.8667 17.7924 29.0565 17.6025L36.3124 10.3477L36.4335 10.2383C36.4711 10.2075 36.51 10.1782 36.5497 10.1514C36.6059 10.0679 36.6713 9.98891 36.745 9.91504L37.4139 9.24609L37.4188 9.24023C38.0053 8.65788 38.7927 8.3291 39.6278 8.3291L39.784 8.33301ZM30.1874 18.7344L29.5887 21.4941L32.3485 20.8955L38.9071 14.3369L36.745 12.1758L30.1874 18.7344ZM39.6278 9.92871C39.2325 9.92871 38.8609 10.078 38.5751 10.3477L40.7333 12.5059C40.863 12.3681 40.9676 12.2125 41.0389 12.041C41.0962 11.9038 41.1326 11.758 41.1473 11.6074L41.1551 11.4551C41.155 11.0484 40.9947 10.6649 40.7069 10.376C40.418 10.0883 40.0349 9.92882 39.6278 9.92871Z" fill="#8A8A8A"/>
</svg>
