<svg width="48" height="24" viewBox="0 0 48 24" fill="none" xmlns="http://www.w3.org/2000/svg">
<path d="M27.6635 4.83333L30.6632 7.83286M16.9985 5.49937V9.49874M30.9971 13.4981V17.4975M21.998 1.5V3.49969M18.9983 7.49906H14.9987M32.9969 15.4978H28.9973M22.9979 2.49984H20.9981M33.6369 3.13979L32.3571 1.85999C32.2446 1.74632 32.1106 1.65609 31.963 1.59451C31.8154 1.53293 31.6571 1.50122 31.4971 1.50122C31.3372 1.50122 31.1789 1.53293 31.0313 1.59451C30.8837 1.65609 30.7497 1.74632 30.6372 1.85999L14.3588 18.1374C14.2451 18.2499 14.1549 18.3838 14.0933 18.5314C14.0317 18.679 14 18.8374 14 18.9973C14 19.1572 14.0317 19.3156 14.0933 19.4631C14.1549 19.6107 14.2451 19.7447 14.3588 19.8572L15.6387 21.137C15.7505 21.2518 15.8842 21.3432 16.0319 21.4055C16.1796 21.4679 16.3383 21.5 16.4986 21.5C16.6589 21.5 16.8176 21.4679 16.9653 21.4055C17.113 21.3432 17.2467 21.2518 17.3585 21.137L33.6369 4.85952C33.7518 4.74771 33.8432 4.61402 33.9055 4.46633C33.9679 4.31865 34 4.15996 34 3.99965C34 3.83934 33.9679 3.68066 33.9055 3.53297C33.8432 3.38528 33.7518 3.25159 33.6369 3.13979Z" stroke="#8A8A8A" stroke-width="1.3" stroke-linecap="round" stroke-linejoin="round"/>
</svg>
