<svg width="48" height="24" viewBox="0 0 48 24" fill="none" xmlns="http://www.w3.org/2000/svg">
<path d="M24.6289 0C27.5839 0.000217454 29.9999 2.46547 30 5.52832V12.7998L27.8828 14.7041C28.0196 14.3204 28.0957 13.9056 28.0957 13.4717V5.52832C28.0956 3.56289 26.5694 1.9797 24.6289 1.97949H11.3711C9.4306 1.9797 7.90438 3.56289 7.9043 5.52832V13.4717C7.90437 15.4371 9.4306 17.0203 11.3711 17.0205H24.6289C24.8981 17.0205 25.1589 16.9884 25.4092 16.9307L23.1113 19H11.3711C8.41613 18.9998 6.00008 16.5345 6 13.4717V5.52832C6.00008 2.46547 8.41613 0.000217456 11.3711 0H24.6289ZM15.2559 4.49414C15.4185 4.49956 15.578 4.55256 15.7158 4.64648L21.793 8.61816C22.1122 8.82076 22.2295 9.19571 22.2295 9.5C22.2295 9.80434 22.1113 10.1792 21.792 10.3818L15.7168 14.3535C15.4268 14.5509 15.0492 14.5538 14.7568 14.3643L14.7539 14.3623C14.4655 14.1718 14.2938 13.8161 14.3027 13.46V5.52832C14.296 5.02308 14.6729 4.52218 15.1836 4.49512L15.2559 4.49414ZM16.1641 11.668L19.4922 9.49902L16.1641 7.32422V11.668Z" fill="#8A8A8A"/>
<path d="M32.6395 13.0655L34.6395 15.0655M38.5 4.66675V7.33341M35.9728 17.7322V20.3988M32.6395 6.66675V8.00008M39.8333 6.00008H37.1667M37.3062 19.0655H34.6395M33.3062 7.33341H31.9728M37.7329 10.8255L36.8795 9.97218C36.8045 9.89639 36.7152 9.83623 36.6168 9.79517C36.5184 9.75411 36.4128 9.73297 36.3062 9.73297C36.1996 9.73297 36.094 9.75411 35.9956 9.79517C35.8972 9.83623 35.8079 9.89639 35.7329 9.97218L24.8795 20.8255C24.8037 20.9005 24.7436 20.9898 24.7025 21.0882C24.6615 21.1866 24.6403 21.2922 24.6403 21.3988C24.6403 21.5055 24.6615 21.6111 24.7025 21.7095C24.7436 21.8079 24.8037 21.8972 24.8795 21.9722L25.7329 22.8255C25.8074 22.9021 25.8965 22.963 25.995 23.0046C26.0935 23.0462 26.1993 23.0676 26.3062 23.0676C26.4131 23.0676 26.5189 23.0462 26.6174 23.0046C26.7158 22.963 26.805 22.9021 26.8795 22.8255L37.7329 11.9722C37.8095 11.8976 37.8704 11.8085 37.9119 11.71C37.9535 11.6115 37.9749 11.5057 37.9749 11.3988C37.9749 11.292 37.9535 11.1862 37.9119 11.0877C37.8704 10.9892 37.8095 10.9001 37.7329 10.8255Z" stroke="#8A8A8A" stroke-width="1.3" stroke-linecap="round" stroke-linejoin="round"/>
</svg>
