<svg width="48" height="24" viewBox="0 0 48 24" fill="none" xmlns="http://www.w3.org/2000/svg">
<path d="M31.7844 13.8522L29.9803 15.6814M24.2027 8.42231V10.8612M26.6082 16.2013V18.6402M31.7844 8V9.21945M23 9.64176H25.4055M25.4055 17.4207H27.8109M31.183 8.60973H32.3857M27.1899 11.8036L27.9597 11.0231C28.0273 10.9538 28.1079 10.8988 28.1966 10.8612C28.2854 10.8237 28.3807 10.8043 28.4768 10.8043C28.573 10.8043 28.6683 10.8237 28.757 10.8612C28.8458 10.8988 28.9263 10.9538 28.994 11.0231L38.7842 20.9494C38.8526 21.018 38.9069 21.0997 38.9439 21.1897C38.9809 21.2797 39 21.3763 39 21.4738C39 21.5713 38.9809 21.6679 38.9439 21.7579C38.9069 21.8479 38.8526 21.9296 38.7842 21.9982L38.0145 22.7786C37.9472 22.8487 37.8668 22.9044 37.778 22.9424C37.6892 22.9804 37.5937 23 37.4973 23C37.4009 23 37.3054 22.9804 37.2166 22.9424C37.1278 22.9044 37.0474 22.8487 36.9801 22.7786L27.1899 12.8523C27.1208 12.7841 27.0659 12.7026 27.0284 12.6125C26.9909 12.5225 26.9716 12.4257 26.9716 12.3279C26.9716 12.2302 26.9909 12.1334 27.0284 12.0433C27.0659 11.9533 27.1208 11.8717 27.1899 11.8036Z" stroke="#8A8A8A" stroke-width="1.3" stroke-linecap="round" stroke-linejoin="round"/>
<path d="M18.5908 0.00488281C18.644 0.010556 18.6968 0.0211124 18.748 0.0361328L18.8496 0.0732422L27.4863 3.82031C27.7975 3.956 27.9999 4.25977 27.999 4.59668V4.88281L25.2773 6.32324L19.3633 8.8916V17.8164L24 15.8018V15.959L19.2197 18.0361V18.0381L24 15.9609V17.6523L18.8496 19.8877C18.6546 19.9719 18.4361 19.982 18.2353 19.9189L18.1504 19.8877L9.51367 16.1396L9.40332 16.082C9.15808 15.9302 9.00203 15.6645 9 15.3721V4.59668C8.99911 4.25968 9.20241 3.95595 9.51367 3.82031L18.1494 0.0732422L18.2852 0.0263672C18.3319 0.0145036 18.3802 0.00679393 18.4287 0.00292969L18.5908 0.00488281ZM10.583 14.9121L17.7803 18.0381V18.0361L10.583 14.9102V14.9121ZM10.7266 14.8154L17.6357 17.8164V8.8916L10.7266 5.8916V14.8154ZM18.5 7.57617L11.6348 4.59668L11.6328 4.59863L18.5 7.57812L25.3672 4.59863L25.3643 4.59668L18.5 7.57617ZM11.9932 4.59668L18.5 7.41895L25.0059 4.59668L18.5 1.76758L11.9932 4.59668ZM18.4394 0.146484C18.359 0.152931 18.28 0.173119 18.207 0.205078L9.57129 3.95215C9.39972 4.0269 9.26947 4.16303 9.20019 4.32617C9.2698 4.16409 9.4004 4.02953 9.57129 3.95508L18.207 0.207031C18.28 0.175072 18.359 0.154884 18.4394 0.148438C18.5602 0.139301 18.6815 0.159598 18.792 0.207031L27.4287 3.95508C27.5993 4.02948 27.7311 4.16342 27.8008 4.3252C27.7314 4.16231 27.6 4.02684 27.4287 3.95215L18.792 0.205078C18.6815 0.157614 18.5602 0.137346 18.4394 0.146484Z" fill="#8A8A8A"/>
</svg>
