<svg width="16" height="16" viewBox="0 0 16 16" fill="none" xmlns="http://www.w3.org/2000/svg">
<path d="M9.33398 1.33337V4.00004C9.33398 4.35366 9.47446 4.6928 9.72451 4.94285C9.97456 5.1929 10.3137 5.33337 10.6673 5.33337H13.334M2.66732 4.66671V2.66671C2.66732 2.31309 2.80779 1.97395 3.05784 1.7239C3.30789 1.47385 3.64703 1.33337 4.00065 1.33337H10.0006L13.334 4.66671V13.3334C13.334 13.687 13.1935 14.0261 12.9435 14.2762C12.6934 14.5262 12.3543 14.6667 12.0006 14.6667L4.04264 14.666C3.77927 14.7004 3.51166 14.6552 3.2741 14.5365C3.03655 14.4177 2.83988 14.2307 2.70931 13.9994M3.33398 7.33337L1.33398 9.33337M1.33398 9.33337L3.33398 11.3334M1.33398 9.33337H8.00065" stroke="currentColor" stroke-width="1.3" stroke-linecap="round" stroke-linejoin="round"/>
</svg>
