<svg width="24" height="24" viewBox="0 0 24 24" fill="none" xmlns="http://www.w3.org/2000/svg">
<path d="M10 18V20.6667C10 21.403 10.597 22 11.3333 22H20.6667C21.403 22 22 21.403 22 20.6667V11.3333C22 10.597 21.403 10 20.6667 10H18M14 17V18.6667L18 16L16.6579 15.1053M5 18L7 20L5 22M7 20H4C3.46957 20 2.96086 19.7893 2.58579 19.4142C2.21071 19.0391 2 18.5304 2 18V17M2 11.3333H8M5 14V11.3333M8 14L8 11.3333M8 2H13C13.5523 2 14 2.44772 14 3L14 4.66667V11.3333L14 13C14 13.5523 13.5523 14 13 14H8L3 14C2.44771 14 2 13.5523 2 13V3C2 2.44771 2.44772 2 3 2L8 2ZM8 14V2M8 2L8 4.66667M2 4.66667H8M5 4.66667V2M8 4.66667V11.3333M8 4.66667H14M8 11.3333H14M11 14V11.3333M11 4.66667V2" stroke="currentColor" stroke-width="1.3" stroke-linecap="round" stroke-linejoin="round"/>
</svg>
