<svg width="48" height="24" viewBox="0 0 48 24" fill="none" xmlns="http://www.w3.org/2000/svg">
<path fill-rule="evenodd" clip-rule="evenodd" d="M34.8593 13C35.4827 13 36.0007 13.4988 36.0009 14.0996V22.9004C36.0007 23.5012 35.4827 24 34.8593 24H22.1425C21.5191 24 21.0011 23.5012 21.0009 22.9004V14.0996C21.0011 13.4988 21.5191 13 22.1425 13H34.8593ZM21.9794 21.2646V22.9004C21.9796 22.9953 22.0439 23.0566 22.1425 23.0566H34.8593C34.9579 23.0566 35.0222 22.9953 35.0224 22.9004V21.5547L32.2255 19.3984L29.9179 20.9307C29.746 21.0424 29.498 21.032 29.3369 20.9062L26.1982 18.4609L21.9794 21.2646ZM16.5009 10.5C16.777 10.5001 17.0009 10.7239 17.0009 11V17.5C17.001 18.3283 17.6727 18.9998 18.5009 19H18.7089L18.0615 18.3535C17.8665 18.1583 17.8665 17.8417 18.0615 17.6465C18.2567 17.4512 18.5742 17.4512 18.7695 17.6465L20.1835 19.0605C20.3785 19.2557 20.3784 19.5723 20.1835 19.7676L18.7695 21.1816C18.5742 21.3769 18.2567 21.3768 18.0615 21.1816C17.8666 20.9864 17.8664 20.6697 18.0615 20.4746L18.5361 20H18.5009C17.1204 19.9998 16.001 18.8806 16.0009 17.5V11C16.001 10.724 16.2249 10.5002 16.5009 10.5ZM22.1425 13.9424C22.0439 13.9424 21.9796 14.0047 21.9794 14.0996V20.1152L25.9384 17.4834C26.0045 17.4381 26.082 17.4096 26.162 17.4004C26.2907 17.3869 26.4244 17.4244 26.5244 17.5029L29.663 19.9531L31.9755 18.4219C32.1475 18.3102 32.3954 18.3204 32.5566 18.4463L35.0224 20.3467V14.0996C35.0222 14.0047 34.9579 13.9424 34.8593 13.9424H22.1425ZM29.6425 15.2002C30.4468 15.2003 31.1093 15.839 31.1093 16.6143C31.1093 17.3895 30.4469 18.0283 29.6425 18.0283C28.8381 18.0283 28.1747 17.3895 28.1747 16.6143C28.1748 15.839 28.8381 15.2002 29.6425 15.2002ZM29.6425 16.1426C29.3668 16.1426 29.1533 16.3485 29.1533 16.6143C29.1533 16.8801 29.3667 17.0859 29.6425 17.0859C29.9182 17.0859 30.1318 16.88 30.1318 16.6143C30.1318 16.3485 29.9182 16.1426 29.6425 16.1426ZM22.0917 0C23.6924 0.000102997 25.0009 1.29808 25.0009 2.91016V7.08984C25.0009 8.70192 23.6924 9.9999 22.0917 10H14.9111C13.3103 10 12.0009 8.70198 12.0009 7.08984V2.91016C12.0009 1.29802 13.3103 0 14.9111 0H22.0917ZM14.9111 1.04199C13.8598 1.04199 13.0331 1.87561 13.0331 2.91016V7.08984C13.0331 8.12439 13.8598 8.95801 14.9111 8.95801H22.0917C23.1429 8.95791 23.9697 8.12432 23.9697 7.08984V2.91016C23.9697 1.87568 23.1429 1.04209 22.0917 1.04199H14.9111ZM17.0146 2.36523C17.1026 2.36806 17.189 2.39596 17.2636 2.44531L20.5556 4.53613C20.7284 4.64278 20.7919 4.83988 20.7919 5C20.7919 5.16007 20.7283 5.35719 20.5556 5.46387L17.2646 7.55469C17.1075 7.65858 16.9024 7.66034 16.7441 7.56055L16.7431 7.55957C16.5867 7.45933 16.4941 7.27149 16.499 7.08398V2.91016C16.4953 2.64423 16.6989 2.38047 16.9755 2.36621L17.0146 2.36523ZM17.5068 6.1416L19.3095 5L17.5068 3.85449V6.1416ZM20.4999 5.22559L20.5234 5.19434C20.5303 5.1833 20.5364 5.17121 20.5419 5.15918C20.5308 5.1833 20.5167 5.20593 20.4999 5.22559Z" fill="#8A8A8A"/>
</svg>
