<svg width="24" height="24" viewBox="0 0 24 24" fill="none" xmlns="http://www.w3.org/2000/svg">
<path d="M18.0104 18.0104C21.3299 14.691 21.3299 9.30905 18.0104 5.98959C14.691 2.67014 9.30905 2.67014 5.98959 5.98959C2.67014 9.30905 2.67014 14.691 5.98959 18.0104C9.30905 21.3299 14.691 21.3299 18.0104 18.0104Z" stroke="currentColor" stroke-width="1.3" stroke-linecap="round" stroke-dasharray="1 2"/>
<path d="M20.5 12H22M2 12H3.5M18.0103 18.0103L19.778 19.778M4.22168 4.22168L5.98945 5.98945M5.98974 18.0103L4.22197 19.778M19.7783 4.22168L18.0106 5.98945M12 20.5V22M12 2V3.5M16.2426 7.75736C18.5858 10.1005 18.5858 13.8995 16.2426 16.2426C13.8995 18.5858 10.1005 18.5858 7.75736 16.2426C5.41421 13.8995 5.41421 10.1005 7.75736 7.75736C10.1005 5.41421 13.8995 5.41421 16.2426 7.75736Z" stroke="currentColor" stroke-width="1.3" stroke-linecap="round"/>
</svg>
