<svg width="24" height="24" viewBox="0 0 24 24" fill="none" xmlns="http://www.w3.org/2000/svg">
<path d="M19 3H5C3.89543 3 3 3.89543 3 5V19C3 20.1046 3.89543 21 5 21H19C20.1046 21 21 20.1046 21 19V5C21 3.89543 20.1046 3 19 3Z" stroke="currentColor" stroke-width="1.3" stroke-linecap="round" stroke-linejoin="round"/>
<path d="M13.6504 18.3252C13.8297 18.3254 13.9746 18.471 13.9746 18.6504C13.9744 18.8296 13.8296 18.9744 13.6504 18.9746C13.471 18.9746 13.3254 18.8297 13.3252 18.6504C13.3252 18.4709 13.4709 18.3252 13.6504 18.3252ZM17.6504 17.8252C17.8297 17.8254 17.9746 17.971 17.9746 18.1504C17.9744 18.3296 17.8296 18.4744 17.6504 18.4746C17.471 18.4746 17.3254 18.3297 17.3252 18.1504C17.3252 17.9709 17.4709 17.8252 17.6504 17.8252ZM7.65039 17.3252C7.8297 17.3254 7.97461 17.471 7.97461 17.6504C7.9744 17.8296 7.82957 17.9744 7.65039 17.9746C7.47103 17.9746 7.32541 17.8297 7.3252 17.6504C7.3252 17.4709 7.4709 17.3252 7.65039 17.3252ZM11.6504 16.3252C11.8297 16.3254 11.9746 16.471 11.9746 16.6504C11.9744 16.8296 11.8296 16.9744 11.6504 16.9746C11.471 16.9746 11.3254 16.8297 11.3252 16.6504C11.3252 16.4709 11.4709 16.3252 11.6504 16.3252ZM15.6504 16.3252C15.8297 16.3254 15.9746 16.471 15.9746 16.6504C15.9744 16.8296 15.8296 16.9744 15.6504 16.9746C15.471 16.9746 15.3254 16.8297 15.3252 16.6504C15.3252 16.4709 15.4709 16.3252 15.6504 16.3252ZM18.6504 15.8252C18.8297 15.8254 18.9746 15.971 18.9746 16.1504C18.9744 16.3296 18.8296 16.4744 18.6504 16.4746C18.471 16.4746 18.3254 16.3297 18.3252 16.1504C18.3252 15.9709 18.4709 15.8252 18.6504 15.8252ZM9.65039 14.3252C9.8297 14.3254 9.97461 14.471 9.97461 14.6504C9.9744 14.8296 9.82957 14.9744 9.65039 14.9746C9.47103 14.9746 9.32541 14.8297 9.3252 14.6504C9.3252 14.4709 9.4709 14.3252 9.65039 14.3252ZM13.6504 14.3252C13.8297 14.3254 13.9746 14.471 13.9746 14.6504C13.9744 14.8296 13.8296 14.9744 13.6504 14.9746C13.471 14.9746 13.3254 14.8297 13.3252 14.6504C13.3252 14.4709 13.4709 14.3252 13.6504 14.3252ZM17.6504 13.8252C17.8297 13.8254 17.9746 13.971 17.9746 14.1504C17.9744 14.3296 17.8296 14.4744 17.6504 14.4746C17.471 14.4746 17.3254 14.3297 17.3252 14.1504C17.3252 13.9709 17.4709 13.8252 17.6504 13.8252ZM15.6504 12.3252C15.8297 12.3254 15.9746 12.471 15.9746 12.6504C15.9744 12.8296 15.8296 12.9744 15.6504 12.9746C15.471 12.9746 15.3254 12.8297 15.3252 12.6504C15.3252 12.4709 15.4709 12.3252 15.6504 12.3252ZM18.6504 11.8252C18.8297 11.8254 18.9746 11.971 18.9746 12.1504C18.9744 12.3296 18.8296 12.4744 18.6504 12.4746C18.471 12.4746 18.3254 12.3297 18.3252 12.1504C18.3252 11.9709 18.4709 11.8252 18.6504 11.8252ZM11.6504 11.3252C11.8297 11.3254 11.9746 11.471 11.9746 11.6504C11.9744 11.8296 11.8296 11.9744 11.6504 11.9746C11.471 11.9746 11.3254 11.8297 11.3252 11.6504C11.3252 11.4709 11.4709 11.3252 11.6504 11.3252ZM17.6504 9.8252C17.8297 9.82541 17.9746 9.97103 17.9746 10.1504C17.9744 10.3296 17.8296 10.4744 17.6504 10.4746C17.471 10.4746 17.3254 10.3297 17.3252 10.1504C17.3252 9.9709 17.4709 9.8252 17.6504 9.8252ZM7.65039 9.3252C7.8297 9.32541 7.97461 9.47103 7.97461 9.65039C7.9744 9.82957 7.82957 9.9744 7.65039 9.97461C7.47103 9.97461 7.32541 9.8297 7.3252 9.65039C7.3252 9.4709 7.4709 9.3252 7.65039 9.3252ZM13.6504 9.3252C13.8297 9.32541 13.9746 9.47103 13.9746 9.65039C13.9744 9.82957 13.8296 9.9744 13.6504 9.97461C13.471 9.97461 13.3254 9.8297 13.3252 9.65039C13.3252 9.4709 13.4709 9.3252 13.6504 9.3252ZM18.6504 7.8252C18.8297 7.82541 18.9746 7.97103 18.9746 8.15039C18.9744 8.32957 18.8296 8.4744 18.6504 8.47461C18.471 8.47461 18.3254 8.3297 18.3252 8.15039C18.3252 7.9709 18.4709 7.8252 18.6504 7.8252ZM11.6504 7.3252C11.8297 7.32541 11.9746 7.47103 11.9746 7.65039C11.9744 7.82957 11.8296 7.9744 11.6504 7.97461C11.471 7.97461 11.3254 7.8297 11.3252 7.65039C11.3252 7.4709 11.4709 7.3252 11.6504 7.3252ZM15.6504 7.3252C15.8297 7.32541 15.9746 7.47103 15.9746 7.65039C15.9744 7.82957 15.8296 7.9744 15.6504 7.97461C15.471 7.97461 15.3254 7.8297 15.3252 7.65039C15.3252 7.4709 15.4709 7.3252 15.6504 7.3252ZM17.6504 5.8252C17.8297 5.82541 17.9746 5.97103 17.9746 6.15039C17.9744 6.32957 17.8296 6.4744 17.6504 6.47461C17.471 6.47461 17.3254 6.3297 17.3252 6.15039C17.3252 5.9709 17.4709 5.8252 17.6504 5.8252ZM9.65039 5.3252C9.8297 5.32541 9.97461 5.47103 9.97461 5.65039C9.9744 5.82957 9.82957 5.9744 9.65039 5.97461C9.47103 5.97461 9.32541 5.8297 9.3252 5.65039C9.3252 5.4709 9.4709 5.3252 9.65039 5.3252ZM13.6504 5.3252C13.8297 5.32541 13.9746 5.47103 13.9746 5.65039C13.9744 5.82957 13.8296 5.9744 13.6504 5.97461C13.471 5.97461 13.3254 5.8297 13.3252 5.65039C13.3252 5.4709 13.4709 5.3252 13.6504 5.3252Z" stroke="currentColor" stroke-width="0.65"/>
</svg>
