<svg width="512" height="512" viewBox="0 0 512 512" fill="none" xmlns="http://www.w3.org/2000/svg">
<g clip-path="url(#clip0_1471_12743)">
<path d="M148.228 255.643L102.567 278.057L99.924 279.348L64.0174 296.98V325.672L113.435 301.418L117.364 299.492L139.326 288.706L145.968 285.454C148.837 273.378 152.193 262.214 155.914 251.876L148.228 255.643ZM432.49 117.736C431.012 114.312 429.43 110.958 427.761 107.637C427.552 107.225 427.343 106.777 427.1 106.364C408.825 70.8767 379.613 41.7882 343.81 23.4336C343.115 23.0725 318.563 11.8911 285.838 5.73274C276.222 3.92656 265.929 2.55047 255.305 2H122.372C90.1518 2 64.0174 27.7858 64.0174 59.5923V260.77L87.5957 249.209L88.6216 248.71L172.068 207.753L178.397 204.639C213.016 148.337 255.861 133.664 255.861 133.664V166.537C270.05 167.191 282.447 172.868 290.394 181.193C293.768 184.686 296.636 189.691 298.74 194.782C299.14 195.78 299.522 196.761 299.854 197.759C300.532 199.633 301.071 201.457 301.487 203.195C302.079 205.603 303.07 207.581 304.287 209.335C304.287 209.335 304.287 209.388 304.323 209.405C305.521 211.107 306.93 212.553 308.408 213.929C313.555 218.745 319.433 222.564 319.433 231.853C319.433 236.05 317.607 239.68 314.476 242.862C312.72 244.668 310.565 246.303 308.095 247.851C307.556 248.177 306.983 248.504 306.408 248.814L306.339 248.865C305.244 249.468 304.078 250.069 302.896 250.638C302.653 250.758 302.392 250.861 302.131 250.982C302.079 250.999 302.009 251.016 301.957 251.05C294.567 254.387 278.866 259.48 275.927 260.391C275.231 260.58 274.432 260.804 273.579 261.044C270.919 261.802 267.789 262.696 265.929 263.246C265.72 263.281 265.529 263.35 265.338 263.418C264.729 263.608 264.364 263.728 264.33 263.745C262.885 264.176 261.478 264.691 260.138 265.311C259.791 265.466 259.443 265.638 259.096 265.81C255.409 267.581 252.071 269.937 249.184 272.794C242.455 279.416 238.317 288.534 238.317 298.63C238.317 303.655 239.378 308.47 241.22 312.858C242.194 315.025 243.342 317.106 244.629 319.101C246.262 321.785 248.158 324.485 250.245 327.221C250.488 327.582 250.767 327.926 251.027 328.27C258.139 337.473 267.32 346.969 276.622 356.757C279.804 360.094 283.005 363.448 286.117 366.854C288.881 369.864 291.628 372.91 294.271 375.988C295.054 376.882 295.837 377.795 296.585 378.706C301.523 377.657 313.033 374.388 314.094 374.061C340.419 365.737 364.311 351.94 384.36 334.033C384.655 333.792 384.933 333.552 385.229 333.293C421.258 300.73 444.75 254.852 447.687 203.573C447.862 200.614 447.949 197.673 447.983 194.68C448 194.009 448 193.32 448 192.632C447.949 166.038 442.453 140.717 432.49 117.736ZM135.605 326.739L135.448 326.808L64.0174 361.848V390.541L135.326 355.552C135.552 352.25 135.831 348.947 136.161 345.576C136.196 344.99 136.265 344.389 136.317 343.803L136.387 343.081C136.822 338.54 137.361 333.93 137.987 329.234C138.161 327.943 138.334 326.618 138.526 325.311L135.605 326.739ZM156.522 505.434C155.775 503.696 154.958 501.717 154.088 499.464C147.394 482.176 137.517 449.923 134.996 405.214C134.753 400.983 134.579 396.665 134.474 392.227L68.6426 424.481L64 426.768V456.391C64 463.942 65.4606 471.132 68.1558 477.739C76.7282 498.983 97.7679 514 122.355 514H160.452V513.828C160.104 513.157 158.627 510.336 156.522 505.434Z" fill="#B6B6B6"/>
</g>
<defs>
<clipPath id="clip0_1471_12743">
<rect width="512" height="512" fill="white"/>
</clipPath>
</defs>
</svg>
