<svg width="24" height="24" viewBox="0 0 24 24" fill="none" xmlns="http://www.w3.org/2000/svg">
<path d="M3 19C3 20.1046 3.79594 21 4.77778 21H11V3H4.77778C3.79594 3 3 3.89543 3 5M3 19V5M3 19C3 19.5304 3.21071 20.0391 3.58579 20.4142C3.96086 20.7893 4.46957 21 5 21M3 5C3 4.46957 3.21071 3.96086 3.58579 3.58579C3.96086 3.21071 4.46957 3 5 3M11 1L11 23M21 15L17.9 11.9C17.5237 11.5312 17.017 11.3258 16.4901 11.3284C15.9632 11.331 15.4586 11.5415 15.086 11.914L14 13M11 16L6 21M14 3H19.1538C20.1734 3 21 3.89543 21 5V19C21 20.1046 20.1734 21 19.1538 21H14V3ZM11 9C11 10.1046 10.1046 11 9 11C7.89543 11 7 10.1046 7 9C7 7.89543 7.89543 7 9 7C10.1046 7 11 7.89543 11 9Z" stroke="#8A8A8A" stroke-width="1.3" stroke-linecap="round" stroke-linejoin="round"/>
</svg>
