<svg width="24" height="24" viewBox="0 0 24 24" fill="none" xmlns="http://www.w3.org/2000/svg">
<path d="M21 14.9999L17.914 11.9139C17.5389 11.539 17.0303 11.3284 16.5 11.3284C15.9697 11.3284 15.4611 11.539 15.086 11.9139L12.6935 14.3064M14.5 21H19C20.1046 21 21 20.1046 21 19V5C21 3.89543 20.1046 3 19 3H5C3.89543 3 3 3.89543 3 5V13M11 9C11 10.1046 10.1046 11 9 11C7.89543 11 7 10.1046 7 9C7 7.89543 7.89543 7 9 7C10.1046 7 11 7.89543 11 9ZM2.03125 18.6735C1.98958 18.5613 1.98958 18.4378 2.03125 18.3255C2.43708 17.3415 3.12595 16.5001 4.01054 15.9081C4.89512 15.3161 5.93558 15 7 15C8.06442 15 9.10488 15.3161 9.98946 15.9081C10.874 16.5001 11.5629 17.3415 11.9687 18.3255C12.0104 18.4378 12.0104 18.5613 11.9687 18.6735C11.5629 19.6575 10.874 20.4989 9.98946 21.0909C9.10488 21.683 8.06442 21.999 7 21.999C5.93558 21.999 4.89512 21.683 4.01054 21.0909C3.12595 20.4989 2.43708 19.6575 2.03125 18.6735ZM8.49992 18.4995C8.49992 19.3278 7.82838 19.9994 6.99999 19.9994C6.17161 19.9994 5.50007 19.3278 5.50007 18.4995C5.50007 17.6711 6.17161 16.9995 6.99999 16.9995C7.82838 16.9995 8.49992 17.6711 8.49992 18.4995Z" stroke="#8A8A8A" stroke-width="1.3" stroke-linecap="round" stroke-linejoin="round"/>
</svg>
