<svg width="512" height="512" viewBox="0 0 512 512" fill="none" xmlns="http://www.w3.org/2000/svg">
<path fill-rule="evenodd" clip-rule="evenodd" d="M395.375 21.5144C427.705 39.8392 451.602 70.0498 461.979 105.716C466.214 107.231 470.383 109.146 474.351 111.441C474.93 111.775 475.465 112.109 475.978 112.488C481.015 115.539 485.696 119.193 489.954 123.403C497.132 130.58 502.783 139.135 506.566 148.552C510.349 157.969 512.187 168.053 511.968 178.198C511.75 188.343 509.479 198.339 505.294 207.585C501.108 216.83 495.094 225.134 487.614 231.996C495.691 239.399 502.052 248.476 506.253 258.592C510.454 268.709 512.393 279.62 511.934 290.563C511.476 301.506 508.631 312.217 503.598 321.947C498.565 331.676 491.467 340.19 482.799 346.893L481.974 347.539L482.442 348.252C491.135 361.662 495.482 377.744 494.345 394.251L494.145 396.701C492.96 408.382 489.056 419.623 482.745 429.526C476.434 439.428 467.891 447.717 457.8 453.729C447.709 459.741 436.349 463.309 424.631 464.148C412.912 464.987 401.16 463.073 390.315 458.56C385.863 471.308 378.061 482.623 367.726 491.319C357.391 500.015 344.904 505.771 331.576 507.983C318.248 510.196 304.57 508.782 291.976 503.892C279.383 499.002 268.339 490.815 260.003 480.19C248.608 485.653 236.192 488.666 223.558 489.033C222.666 489.144 221.73 489.211 220.771 489.211H200.777L199.261 489.144C174.384 487.652 174.897 449.605 200.777 449.605H218.698L219.724 449.516L220.771 449.494C234.369 449.727 247.502 444.553 257.282 435.11C267.062 425.667 272.687 412.728 272.92 399.14C273.154 385.552 267.976 372.428 258.527 362.655C249.077 352.881 236.13 347.26 222.532 347.026C221.94 347.096 221.345 347.133 220.749 347.138H61.9055C56.6498 347.138 51.6095 345.051 47.8932 341.338C44.1768 337.624 42.0891 332.587 42.0891 327.335C42.0891 322.083 44.1768 317.046 47.8932 313.332C51.6095 309.618 56.6498 307.532 61.9055 307.532H218.698L219.724 307.443L220.794 307.421C233.42 307.446 245.612 302.814 255.033 294.412C264.453 286.01 270.44 274.43 271.846 261.89C273.251 249.351 269.977 236.734 262.65 226.457C255.323 216.181 244.459 208.968 232.14 206.201L228.997 205.51C226.801 205.015 224.574 204.673 222.332 204.485C221.813 204.532 221.292 204.554 220.771 204.552H61.9055C59.2487 204.641 56.6012 204.195 54.1204 203.241C51.6397 202.286 49.3765 200.843 47.4656 198.996C45.5546 197.149 44.035 194.938 42.9972 192.492C41.9594 190.046 41.4245 187.417 41.4245 184.76C41.4245 182.104 41.9594 179.475 42.9972 177.029C44.035 174.583 45.5546 172.371 47.4656 170.525C49.3765 168.678 51.6397 167.235 54.1204 166.28C56.6012 165.326 59.2487 164.88 61.9055 164.969H218.721L219.746 164.88L220.794 164.857C234.391 165.114 247.533 159.963 257.33 150.537C267.127 141.11 272.775 128.181 273.032 114.593C273.289 101.005 268.134 87.871 258.701 78.0811C249.268 68.2912 236.33 62.6469 222.733 62.39C222.088 62.4486 221.441 62.4783 220.794 62.4791H200.799L199.261 62.4568C174.384 60.9643 174.897 22.9177 200.777 22.9177H218.609C219.327 22.8417 220.049 22.8046 220.771 22.8064C229.732 22.8064 238.381 24.0983 246.562 26.5041L247.253 26.0586C269.159 11.8174 294.559 3.86392 320.68 3.06648C346.801 2.26904 372.64 8.65827 395.375 21.5367V21.5144ZM312.074 277.326L310.558 278.128L308.708 279.264C303.719 298.203 292.742 315.024 277.412 327.224C288.107 335.722 296.743 346.524 302.676 358.824C308.608 371.125 311.684 384.606 311.673 398.26C311.7 419.205 304.452 439.51 291.165 455.709C296.129 462.076 303.11 466.57 310.964 468.454C318.818 470.338 327.08 469.501 334.395 466.078C341.71 462.656 347.646 456.853 351.228 449.618C354.811 442.384 355.829 434.148 354.114 426.261L353.446 423.498L353.156 421.739L353.044 420.491L353.022 419.556L353.044 418.264L353.156 417.083L353.446 415.346L353.847 413.742L354.337 412.316L355.117 410.556L355.229 410.334C356.145 408.55 357.333 406.919 358.751 405.5L359.977 404.341L360.891 403.629L362.005 402.849L362.942 402.27L364.168 401.602L365.795 400.933L367.043 400.488L367.935 400.243L369.673 399.886L371.301 399.686L372.304 399.641H373.374L374.288 399.686L375.58 399.819L376.829 400.042L378.211 400.376L378.902 400.599L379.994 400.978L381.198 401.49L382.178 401.958L383.36 402.648L384.14 403.161C385.477 404.096 386.681 405.166 387.773 406.435L388.62 407.46L389.378 408.529C392.144 412.811 395.796 416.45 400.089 419.201C404.382 421.952 409.215 423.751 414.262 424.477C419.31 425.203 424.454 424.838 429.349 423.409C434.244 421.979 438.775 419.517 442.636 416.188C446.498 412.86 449.6 408.743 451.734 404.114C453.869 399.486 454.985 394.454 455.007 389.358C455.03 384.262 453.959 379.221 451.866 374.573C449.773 369.926 446.708 365.781 442.876 362.419C439.37 362.726 435.846 362.778 432.333 362.575L431.062 362.463L430.482 362.352H430.126C414.441 360.972 399.584 354.71 387.647 344.448C375.711 334.186 367.296 320.441 363.588 305.149L363.008 302.565C361.978 297.158 359.71 292.064 356.38 287.681C353.05 283.297 348.75 279.744 343.816 277.299C338.882 274.854 333.449 273.585 327.942 273.589C322.435 273.594 317.004 274.873 312.074 277.326ZM213.638 379.682C216.295 379.593 218.943 380.039 221.423 380.994C223.904 381.948 226.167 383.392 228.078 385.239C229.989 387.085 231.509 389.297 232.547 391.743C233.584 394.188 234.119 396.818 234.119 399.474C234.119 402.131 233.584 404.76 232.547 407.206C231.509 409.651 229.989 411.863 228.078 413.71C226.167 415.556 223.904 417 221.423 417.955C218.943 418.909 216.295 419.355 213.638 419.266H131.698C126.56 419.094 121.69 416.933 118.117 413.24C114.543 409.547 112.546 404.611 112.546 399.474C112.546 394.337 114.543 389.401 118.117 385.708C121.69 382.015 126.56 379.855 131.698 379.682H213.638ZM418.891 145.723C413.753 148.691 409.437 152.894 406.334 157.951C403.232 163.007 401.442 168.758 401.126 174.681L401.081 176.574C401.081 181.599 399.169 186.435 395.734 190.104C392.299 193.773 387.596 195.999 382.58 196.333L381.265 196.377C376.237 196.377 371.397 194.467 367.726 191.034C364.055 187.601 361.826 182.902 361.493 177.889L361.448 176.574C361.438 170.035 359.628 163.624 356.216 158.044C352.804 152.464 347.922 147.929 342.103 144.937C336.285 141.945 329.754 140.61 323.227 141.078C316.7 141.547 310.428 143.801 305.097 147.594C299.166 162.238 289.525 175.088 277.122 184.883C293.479 197.811 304.898 215.961 309.466 236.295C319.215 233.814 329.362 233.313 339.308 234.821C349.254 236.329 358.796 239.816 367.37 245.075C375.943 250.334 383.374 257.258 389.222 265.438C395.07 273.618 399.216 282.887 401.415 292.697L401.861 294.768C403.418 302.127 407.264 308.805 412.849 313.846C418.435 318.888 425.473 322.034 432.957 322.835L435.721 323.058L436.657 323.103C437.994 323.103 439.332 323.036 440.669 322.88L442.564 322.635L443.946 322.301C452.409 320.511 459.933 315.708 465.116 308.787C470.299 301.866 472.788 293.299 472.12 284.68C471.452 276.061 467.672 267.979 461.484 261.938C455.297 255.897 447.123 252.309 438.485 251.843L436.724 251.799C433.818 251.802 430.947 251.164 428.316 249.932C425.684 248.7 423.357 246.904 421.499 244.67L420.741 243.69C419.105 241.469 417.954 238.93 417.363 236.236C416.772 233.542 416.753 230.754 417.309 228.053C418.168 223.816 420.392 219.976 423.64 217.121C426.888 214.265 430.982 212.55 435.297 212.237L436.724 212.215C443.767 212.212 450.652 210.125 456.51 206.216C462.368 202.308 466.937 196.754 469.641 190.255C472.344 183.755 473.061 176.601 471.702 169.695C470.343 162.789 466.967 156.439 462.001 151.447C457.182 146.685 451.105 143.393 444.481 141.958L442.207 141.535C441.638 141.442 441.072 141.323 440.513 141.178C433.006 140.355 425.431 141.947 418.891 145.723ZM213.839 236.607C219.095 236.607 224.135 238.693 227.851 242.407C231.568 246.121 233.655 251.158 233.655 256.41C233.655 261.662 231.568 266.699 227.851 270.412C224.135 274.126 219.095 276.213 213.839 276.213H19.1519C14.0142 276.04 9.14457 273.88 5.57109 270.187C1.99762 266.494 0 261.558 0 256.421C0 251.284 1.99762 246.348 5.57109 242.655C9.14457 238.962 14.0142 236.801 19.1519 236.629H213.861L213.839 236.607ZM213.616 93.3306C216.273 93.2416 218.92 93.6876 221.401 94.6421C223.882 95.5966 226.145 97.0402 228.056 98.8868C229.967 100.733 231.487 102.945 232.524 105.391C233.562 107.837 234.097 110.466 234.097 113.122C234.097 115.779 233.562 118.408 232.524 120.854C231.487 123.299 229.967 125.511 228.056 127.358C226.145 129.205 223.882 130.648 221.401 131.603C218.92 132.557 216.273 133.003 213.616 132.914H131.72C129.063 133.003 126.416 132.557 123.935 131.603C121.454 130.648 119.191 129.205 117.28 127.358C115.369 125.511 113.85 123.299 112.812 120.854C111.774 118.408 111.239 115.779 111.239 113.122C111.239 110.466 111.774 107.837 112.812 105.391C113.85 102.945 115.369 100.733 117.28 98.8868C119.191 97.0402 121.454 95.5966 123.935 94.6421C126.416 93.6876 129.063 93.2416 131.72 93.3306H213.661H213.616ZM287.109 49.8043L285.927 50.2721C299.859 64.5548 308.682 83.0347 311.026 102.842C323.714 100.297 336.845 101.065 349.149 105.072C361.453 109.08 372.515 116.191 381.265 125.719C391.357 114.698 404.514 106.942 419.047 103.444C408.203 79.241 388.431 60.154 363.851 50.1611C339.271 40.1682 311.78 40.0404 287.109 49.8043Z" fill="#B6B6B6"/>
</svg>
