<svg width="24" height="24" viewBox="0 0 24 24" fill="none" xmlns="http://www.w3.org/2000/svg">
<path d="M10.5 15H4.33333C3.59695 15 3 14.403 3 13.6667V4.33333C3 3.59695 3.59695 3 4.33333 3H13.6667C14.403 3 15 3.59695 15 4.33333V11L12.9427 8.94263C12.6926 8.69267 12.3536 8.55225 12 8.55225C11.6464 8.55225 11.3074 8.69267 11.0573 8.94263L5 15M18.3109 20.2074L12.9705 18.7508M15.4997 15.2586C14.5976 16.6137 13.5146 16.9887 12.208 17.2328C12.1646 17.2407 12.1241 17.2597 12.0904 17.2881C12.0567 17.3164 12.0309 17.3531 12.0157 17.3944C12.0004 17.4358 11.9962 17.4804 12.0035 17.5238C12.0107 17.5673 12.0291 17.6081 12.057 17.6423L15.7172 22.0841C15.7916 22.163 15.8896 22.2157 15.9964 22.2341C16.1033 22.2525 16.2133 22.2356 16.3098 22.1861C17.3673 21.4615 18.9999 19.6549 18.9999 18.7589M18 3H19C19.5304 3 20.0391 3.21071 20.4142 3.58579C20.7893 3.96086 21 4.46957 21 5V9M10 21H5C4.46957 21 3.96086 20.7893 3.58579 20.4142C3.21071 20.0391 3 19.5304 3 19V18M8.33333 7C8.33333 7.73638 7.73638 8.33333 7 8.33333C6.26362 8.33333 5.66667 7.73638 5.66667 7C5.66667 6.26362 6.26362 5.66667 7 5.66667C7.73638 5.66667 8.33333 6.26362 8.33333 7ZM20.188 12.5694C20.2866 12.4709 20.4036 12.3927 20.5324 12.3393C20.6611 12.286 20.7992 12.2585 20.9386 12.2585C21.078 12.2585 21.216 12.286 21.3448 12.3393C21.4735 12.3927 21.5905 12.4709 21.6891 12.5694C21.7877 12.668 21.8659 12.785 21.9192 12.9138C21.9725 13.0426 22 13.1806 22 13.32C22 13.4594 21.9725 13.5974 21.9192 13.7262C21.8659 13.855 21.7877 13.972 21.6891 14.0705L19.68 16.0802C19.6331 16.1271 19.6068 16.1906 19.6068 16.2569C19.6068 16.3232 19.6331 16.3868 19.68 16.4337L20.152 16.9057C20.378 17.1317 20.5049 17.4382 20.5049 17.7578C20.5049 18.0774 20.378 18.3838 20.152 18.6098L19.68 19.0819C19.6331 19.1287 19.5695 19.1551 19.5032 19.1551C19.4369 19.1551 19.3733 19.1287 19.3265 19.0819L15.1767 14.9326C15.1298 14.8857 15.1035 14.8221 15.1035 14.7558C15.1035 14.6895 15.1298 14.626 15.1767 14.5791L15.6487 14.107C15.8747 13.8811 16.1812 13.7541 16.5008 13.7541C16.8203 13.7541 17.1268 13.8811 17.3528 14.107L17.8249 14.5791C17.8717 14.6259 17.9353 14.6523 18.0016 14.6523C18.0679 14.6523 18.1315 14.6259 18.1784 14.5791L20.188 12.5694Z" stroke="#8A8A8A" stroke-width="1.3" stroke-linecap="round" stroke-linejoin="round"/>
</svg>
