<svg width="24" height="24" viewBox="0 0 24 24" fill="none" xmlns="http://www.w3.org/2000/svg">
<path d="M11 8.33331L9.62844 6.96175C9.46175 6.79511 9.2357 6.7015 9 6.7015C8.7643 6.7015 8.53825 6.79511 8.37156 6.96175L4.33333 11M11 18.3333L9.62844 16.9618C9.46175 16.7951 9.2357 16.7015 9 16.7015C8.7643 16.7015 8.53825 16.7951 8.37156 16.9618L4.33333 21M21 8.33331L19.6284 6.96175C19.4618 6.79511 19.2357 6.7015 19 6.7015C18.7643 6.7015 18.5382 6.79511 18.3716 6.96175L14.3333 11M21 18.3333L19.6284 16.9618C19.4618 16.7951 19.2357 16.7015 19 16.7015C18.7643 16.7015 18.5382 16.7951 18.3716 16.9618L14.3333 21M3.88889 3H10.1111C10.602 3 11 3.39797 11 3.88889V10.1111C11 10.602 10.602 11 10.1111 11H3.88889C3.39797 11 3 10.602 3 10.1111V3.88889C3 3.39797 3.39797 3 3.88889 3ZM3.88889 13H10.1111C10.602 13 11 13.398 11 13.8889V20.1111C11 20.602 10.602 21 10.1111 21H3.88889C3.39797 21 3 20.602 3 20.1111V13.8889C3 13.398 3.39797 13 3.88889 13ZM13.8889 3H20.1111C20.602 3 21 3.39797 21 3.88889V10.1111C21 10.602 20.602 11 20.1111 11H13.8889C13.398 11 13 10.602 13 10.1111V3.88889C13 3.39797 13.398 3 13.8889 3ZM13.8889 13H20.1111C20.602 13 21 13.398 21 13.8889V20.1111C21 20.602 20.602 21 20.1111 21H13.8889C13.398 21 13 20.602 13 20.1111V13.8889C13 13.398 13.398 13 13.8889 13Z" stroke="currentColor" stroke-width="1.3" stroke-linecap="round" stroke-linejoin="round"/>
</svg>
