<svg width="24" height="24" viewBox="0 0 24 24" fill="none" xmlns="http://www.w3.org/2000/svg">
<path d="M20 12L17.9427 9.94263C17.6926 9.69267 17.3536 9.55225 17 9.55225C16.6464 9.55225 16.3074 9.69267 16.0573 9.94263L10 16M5 16H3M15 18.5H3M11.0667 20.9333H3M9.33333 4H18.6667C19.403 4 20 4.59695 20 5.33333V14.6667C20 15.403 19.403 16 18.6667 16H9.33333C8.59695 16 8 15.403 8 14.6667V5.33333C8 4.59695 8.59695 4 9.33333 4ZM13.3333 8C13.3333 8.73638 12.7364 9.33333 12 9.33333C11.2636 9.33333 10.6667 8.73638 10.6667 8C10.6667 7.26362 11.2636 6.66667 12 6.66667C12.7364 6.66667 13.3333 7.26362 13.3333 8Z" stroke="currentColor" stroke-width="1.3" stroke-linecap="round" stroke-linejoin="round"/>
</svg>
