<svg width="48" height="24" viewBox="0 0 48 24" fill="none" xmlns="http://www.w3.org/2000/svg">
<path d="M21.4316 13.4326C21.7455 13.1187 22.2535 13.1188 22.5674 13.4326C22.8813 13.7465 22.8813 14.2544 22.5674 14.5684L15.6777 21.4502H18.25C18.692 21.4502 19.0498 21.808 19.0498 22.25C19.0498 22.692 18.692 23.0498 18.25 23.0498H13.75C13.5592 23.0498 13.3754 22.9822 13.2305 22.8584L13.2295 22.8574C13.1888 22.8217 13.1504 22.7816 13.1172 22.7373V22.7363C13.0211 22.6128 12.9622 22.4629 12.9502 22.3066V17.75C12.9502 17.308 13.308 16.9502 13.75 16.9502C14.192 16.9502 14.5498 17.308 14.5498 17.75V20.3213L21.4316 13.4326ZM34.75 7.9502C34.9619 7.9502 35.1664 8.03452 35.3164 8.18457C35.4662 8.33455 35.5498 8.53829 35.5498 8.75V22.25C35.5498 22.4619 35.4665 22.6664 35.3164 22.8164C35.1664 22.9665 34.9619 23.0498 34.75 23.0498H21.25C20.8081 23.0497 20.4502 22.692 20.4502 22.25C20.4503 21.8081 20.8081 21.4503 21.25 21.4502H33.9502V8.75C33.9503 8.30811 34.3081 7.95026 34.75 7.9502ZM27.25 0.450195C27.6919 0.450195 28.0497 0.808072 28.0498 1.25C28.0498 1.692 27.692 2.0498 27.25 2.0498H14.5498V14.75C14.5498 14.9619 14.4665 15.1664 14.3164 15.3164C14.1664 15.4665 13.9619 15.5498 13.75 15.5498C13.5383 15.5498 13.3346 15.4662 13.1846 15.3164C13.0345 15.1664 12.9502 14.9619 12.9502 14.75V1.25C12.9503 0.808109 13.3081 0.450255 13.75 0.450195H27.25ZM35.5498 5.75C35.5498 6.192 35.192 6.5498 34.75 6.5498C34.3081 6.54974 33.9502 6.19196 33.9502 5.75V3.17773L27.0684 10.0674C26.9184 10.2183 26.7131 10.3047 26.5 10.3047C26.2872 10.3046 26.0825 10.2189 25.9326 10.0684C25.7817 9.91843 25.6953 9.71311 25.6953 9.5C25.6953 9.28687 25.7817 9.08159 25.9326 8.93164L32.8223 2.0498H30.25C29.808 2.0498 29.4502 1.692 29.4502 1.25C29.4502 0.808002 29.808 0.450195 30.25 0.450195H34.75C34.9408 0.450201 35.1246 0.517855 35.2695 0.641602L35.2705 0.642578C35.3109 0.678079 35.3488 0.717743 35.3818 0.761719L35.4473 0.859375C35.5053 0.961394 35.5408 1.07563 35.5498 1.19336V5.75Z" fill="#8A8A8A" stroke="#8A8A8A" stroke-width="0.1"/>
</svg>
