<svg width="48" height="24" viewBox="0 0 48 24" fill="none" xmlns="http://www.w3.org/2000/svg">
<path d="M13.1625 8.91744L23.6625 14.1674C23.8744 14.2743 24.1256 14.2743 24.3375 14.1674L34.8375 8.91744C35.0878 8.789 35.2453 8.53119 35.2453 8.24996C35.2453 7.96872 35.0878 7.71089 34.8375 7.58247L24.3375 2.33247C24.1256 2.22559 23.8744 2.22559 23.6625 2.33247L13.1625 7.58247C12.9122 7.71091 12.7547 7.96872 12.7547 8.24996C12.7547 8.53119 12.9122 8.78902 13.1625 8.91744ZM23.9999 3.84L32.82 8.25L23.9999 12.66L15.1799 8.25L23.9999 3.84ZM35.1674 11.6626C35.353 12.031 35.2049 12.4801 34.8374 12.6676L24.3374 17.9176C24.1255 18.0244 23.8743 18.0244 23.6624 17.9176L13.1624 12.6676C12.8258 12.4651 12.7021 12.0366 12.8802 11.6869C13.0574 11.3363 13.4746 11.1816 13.8374 11.3326L23.9999 16.41L34.1625 11.3326C34.531 11.1469 34.9799 11.2951 35.1674 11.6626ZM35.1674 15.4126C35.353 15.781 35.2049 16.2301 34.8374 16.4176L24.3374 21.6676C24.1255 21.7744 23.8743 21.7744 23.6624 21.6676L13.1624 16.4176C12.8258 16.2151 12.7021 15.7866 12.8802 15.4369C13.0574 15.0863 13.4746 14.9316 13.8374 15.0826L23.9999 20.16L34.1625 15.0826C34.531 14.8969 34.9799 15.0451 35.1674 15.4126Z" fill="#8A8A8A"/>
</svg>
