<svg width="48" height="24" viewBox="0 0 48 24" fill="none" xmlns="http://www.w3.org/2000/svg">
<path d="M16.6309 5C17.379 5.00009 18 5.59922 18 6.32031V16.8799C18 17.601 17.379 18.2001 16.6309 18.2002H1.36914C0.621115 18.2 0 17.6009 0 16.8799V6.32031C0 5.59931 0.621115 5.00024 1.36914 5H16.6309ZM1.17383 14.918V16.8799C1.17383 16.9939 1.25087 17.0682 1.36914 17.0684H16.6309C16.7492 17.0682 16.8262 16.994 16.8262 16.8799V15.2656L13.4697 12.6787L10.7002 14.5166C10.4938 14.6507 10.1963 14.6383 10.0029 14.4873L6.23633 11.5527L1.17383 14.918ZM1.36914 6.13184C1.25093 6.13202 1.17383 6.20628 1.17383 6.32031V13.5391L5.9248 10.3799C6.00415 10.3255 6.09728 10.2913 6.19336 10.2803C6.34771 10.2641 6.50795 10.3091 6.62793 10.4033L10.3945 13.3447L13.1699 11.5059C13.3763 11.3718 13.6738 11.3841 13.8672 11.5352L16.8262 13.8154V6.32031C16.8262 6.20619 16.7492 6.13191 16.6309 6.13184H1.36914ZM10.3701 7.63965C11.3351 7.63986 12.1307 8.40684 12.1309 9.33691C12.1309 10.2671 11.3352 11.034 10.3701 11.0342C9.40483 11.0342 8.6084 10.2673 8.6084 9.33691C8.60859 8.40671 9.40495 7.63965 10.3701 7.63965ZM10.3701 8.77148C10.0393 8.77148 9.78338 9.01812 9.7832 9.33691C9.7832 9.65587 10.0392 9.90332 10.3701 9.90332C10.7009 9.90312 10.957 9.65574 10.957 9.33691C10.9569 9.01825 10.7007 8.77168 10.3701 8.77148Z" fill="#8A8A8A"/>
<path fill-rule="evenodd" clip-rule="evenodd" d="M29.0243 11.7215C29.2585 11.9558 29.2585 12.3359 29.0243 12.5701L26.4794 15.116C26.2452 15.3502 25.8651 15.3499 25.6307 15.116C25.3964 14.8817 25.3964 14.5017 25.6307 14.2674L27.1483 12.7498L19.6005 12.7498C19.2691 12.7498 18.9999 12.4816 18.9999 12.1502C18.9999 11.8188 19.2691 11.5506 19.6005 11.5506L27.1571 11.5506L25.6307 10.0242C25.3964 9.78992 25.3964 9.40992 25.6307 9.17561C25.8651 8.94155 26.2451 8.94138 26.4794 9.17561L29.0243 11.7215Z" fill="#8A8A8A"/>
<path d="M47.1523 16.3271C47.1523 16.5005 47.0912 16.6844 46.9463 16.8242C46.8031 16.9622 46.6216 17.0156 46.457 17.0156H31.1953C30.9111 17.0155 30.6187 16.8504 30.5264 16.5225C30.5141 16.479 30.508 16.4338 30.5078 16.3887L30.5 14.3672C30.4993 14.1991 30.5836 14.0413 30.7236 13.9482L35.7861 10.584L35.8555 10.5449C36.0228 10.4687 36.2216 10.4898 36.3701 10.6055L40.1367 13.54L40.1611 13.5518C40.1808 13.5572 40.2058 13.5585 40.2266 13.5547L40.2539 13.5449L43.0195 11.709L43.0889 11.6709C43.2553 11.5951 43.4523 11.6153 43.6006 11.7295L46.958 14.3164C47.0807 14.4111 47.1523 14.5579 47.1523 14.7129V16.3271Z" stroke="#8A8A8A" stroke-linejoin="round"/>
<path d="M31.7607 6C32.726 6 33.5215 6.76692 33.5215 7.69727C33.5214 8.62757 32.726 9.39453 31.7607 9.39453C30.7956 9.39445 30.0001 8.62752 30 7.69727C30 6.76697 30.7955 6.00008 31.7607 6ZM31.7607 7.13184C31.4299 7.13191 31.1738 7.37836 31.1738 7.69727C31.1739 8.01607 31.43 8.26262 31.7607 8.2627C32.0916 8.2627 32.3476 8.01613 32.3477 7.69727C32.3477 7.37831 32.0917 7.13184 31.7607 7.13184Z" fill="#8A8A8A"/>
</svg>
