<svg width="48" height="24" viewBox="0 0 48 24" fill="none" xmlns="http://www.w3.org/2000/svg">
<path d="M24.0035 1C17.9391 1 13 5.93909 13 12.0035C13 18.068 17.9391 23 24.0035 23C30.068 23 35 18.068 35 12.0035C35 5.93909 30.068 1 24.0035 1ZM24.0035 2.83353C29.0778 2.83353 33.1665 6.92919 33.1665 12.0035C33.1665 17.0779 29.0776 21.1665 24.0035 21.1665C18.9292 21.1665 14.8335 17.0776 14.8335 12.0035C14.8335 6.92949 18.9292 2.83353 24.0035 2.83353Z" fill="#8A8A8A"/>
<path d="M24.0012 1.91791C21.3277 1.91791 18.762 2.98021 16.871 4.87092C14.9801 6.76174 13.9168 9.32742 13.9168 12.0023C13.9168 14.6772 14.9802 17.2415 16.871 19.1325C18.7618 21.0234 21.3275 22.0867 24.0012 22.0867V1.91791Z" fill="#8A8A8A"/>
</svg>
