<svg width="24" height="24" viewBox="0 0 24 24" fill="none" xmlns="http://www.w3.org/2000/svg">
<path d="M16.125 21C16.125 19.6076 15.5719 18.2723 14.5873 17.2877C13.6027 16.3031 12.2674 15.75 10.875 15.75M10.875 15.75C9.48261 15.75 8.14726 16.3031 7.16269 17.2877C6.17812 18.2723 5.625 19.6076 5.625 21M10.875 15.75C12.808 15.75 14.375 14.183 14.375 12.25C14.375 10.317 12.808 8.75 10.875 8.75C8.942 8.75 7.375 10.317 7.375 12.25C7.375 14.183 8.942 15.75 10.875 15.75ZM18.1875 5.8125C17.8727 5.50826 17.4724 5.25 17 5.25H4.75C4.25313 5.25 3.80462 5.45707 3.48607 5.78963C3.18499 6.10395 3 6.53037 3 7V19.25C3 20.2165 3.7835 21 4.75 21H17C17.4583 21 17.8755 20.8238 18.1875 20.5354C18.5334 20.2157 18.75 19.7582 18.75 19.25V7C18.75 6.5059 18.5168 6.13071 18.1875 5.8125ZM18.1875 20.5354L20.4375 18.2854C20.7834 17.9657 21 17.5082 21 17V4.75C21 4.26618 20.8037 3.82821 20.4863 3.51144C20.1697 3.19541 19.7327 3 19.25 3H7.00003C6.49187 3 6.03429 3.21659 5.71458 3.5625L3.48607 5.78963M18.1875 5.8125L20.4863 3.51144" stroke="currentColor" stroke-width="1.3" stroke-linecap="round" stroke-linejoin="round"/>
</svg>
