<svg width="48" height="24" viewBox="0 0 48 24" fill="none" xmlns="http://www.w3.org/2000/svg">
<g clip-path="url(#clip0_1683_13217)">
<path d="M33.2579 14.2434C33.2579 8.04845 24.8306 0.0257698 24.4718 -0.312477C24.2037 -0.565892 23.7862 -0.561497 23.5226 -0.305153C23.1637 0.0434776 14.7439 8.30814 14.7439 14.2436C14.7439 19.3484 18.8966 23.5 24.0003 23.5C29.1067 23.5015 33.2579 19.3486 33.2579 14.2434ZM24.0015 22.1299C19.6538 22.1299 16.1165 18.5924 16.1165 14.2449C16.1165 9.63656 22.2409 2.98187 24.009 1.15676C25.7829 2.94092 31.8885 9.42993 31.8885 14.2449C31.887 18.5926 28.349 22.1299 24.0015 22.1299Z" fill="#8A8A8A"/>
<path d="M28.4502 12.5882C28.0766 12.6482 27.8218 12.9998 27.8804 13.3733C28.1265 14.9143 27.5918 16.2605 26.0933 17.8748C25.8355 18.1516 25.8516 18.5852 26.1284 18.843C26.2603 18.9661 26.4273 19.0261 26.5943 19.0261C26.7788 19.0261 26.9619 18.9529 27.0967 18.8064C28.3037 17.5071 29.6381 15.6907 29.2339 13.1552C29.1753 12.7831 28.8222 12.5295 28.4502 12.5882Z" fill="#8A8A8A"/>
</g>
<defs>
<clipPath id="clip0_1683_13217">
<rect width="48" height="24" fill="white"/>
</clipPath>
</defs>
</svg>
