<svg width="48" height="24" viewBox="0 0 48 24" fill="none" xmlns="http://www.w3.org/2000/svg">
<path d="M12.5 9C12.7761 9 13 9.22386 13 9.5V20C13 20.2761 13.2239 20.5 13.5 20.5H28C28.2761 20.5 28.5 20.7239 28.5 21C28.5 21.2761 28.2761 21.5 28 21.5H13.5C12.6716 21.5 12 20.8284 12 20V9.5C12 9.22386 12.2239 9 12.5 9ZM14.5 7C14.7761 7 15 7.22386 15 7.5V18C15 18.2761 15.2239 18.5 15.5 18.5H30C30.2761 18.5 30.5 18.7239 30.5 19C30.5 19.2761 30.2761 19.5 30 19.5H15.5C14.6716 19.5 14 18.8284 14 18V7.5C14 7.22386 14.2239 7 14.5 7ZM16.5 5C16.7761 5 17 5.22386 17 5.5V16C17 16.2761 17.2239 16.5 17.5 16.5H32C32.2761 16.5 32.5 16.7239 32.5 17C32.5 17.2761 32.2761 17.5 32 17.5H17.5C16.6716 17.5 16 16.8284 16 16V5.5C16 5.22386 16.2239 5 16.5 5ZM33.7061 2.5C34.4126 2.5 34.9999 3.08968 35 3.7998V14.2002C34.9999 14.9103 34.4126 15.5 33.7061 15.5H19.2939C18.5874 15.5 18.0001 14.9103 18 14.2002V3.7998C18.0001 3.08968 18.5874 2.5 19.2939 2.5H33.7061ZM19.1084 12.2676V14.2002C19.1085 14.3124 19.1814 14.3856 19.293 14.3857H33.7061C33.8179 14.3857 33.8915 14.3125 33.8916 14.2002V12.6094L30.7207 10.0615L28.1055 11.873C27.9107 12.005 27.6299 11.9923 27.4473 11.8438L23.8896 8.95312L19.1084 12.2676ZM19.2939 3.61426C19.1821 3.61426 19.1085 3.68744 19.1084 3.7998V10.9092L23.5957 7.79883C23.6707 7.74519 23.7587 7.71107 23.8496 7.7002C23.9954 7.68428 24.1465 7.72944 24.2598 7.82227L27.8164 10.7178L30.4385 8.90723C30.6334 8.7753 30.9141 8.78784 31.0967 8.93652L33.8916 11.1826V3.7998C33.8915 3.68747 33.8179 3.61426 33.7061 3.61426H19.2939ZM27.7939 5.09961C28.7054 5.09987 29.4561 5.8554 29.4561 6.77148C29.456 7.68754 28.7054 8.44213 27.7939 8.44238C26.8823 8.44238 26.1309 7.6877 26.1309 6.77148C26.1309 5.85524 26.8823 5.09961 27.7939 5.09961ZM27.7939 6.21387C27.4814 6.21387 27.2393 6.45737 27.2393 6.77148C27.2393 7.08557 27.4814 7.32812 27.7939 7.32812C28.1062 7.32788 28.3476 7.08542 28.3477 6.77148C28.3477 6.45752 28.1063 6.21411 27.7939 6.21387Z" fill="#8A8A8A"/>
</svg>
