<svg width="24" height="24" viewBox="0 0 24 24" fill="none" xmlns="http://www.w3.org/2000/svg">
<path d="M5 17C5 13.8174 6.26428 10.7652 8.51472 8.51472C10.7652 6.26428 13.8174 5 17 5M5 17C3.89543 17 3 17.8954 3 19C3 20.1046 3.89543 21 5 21C6.10457 21 7 20.1046 7 19C7 17.8954 6.10457 17 5 17ZM17 5C17 6.10457 17.8954 7 19 7C20.1046 7 21 6.10457 21 5C21 3.89543 20.1046 3 19 3C17.8954 3 17 3.89543 17 5ZM12.034 12.681C11.998 12.5906 11.9892 12.4915 12.0088 12.3962C12.0285 12.3008 12.0756 12.2133 12.1445 12.1445C12.2133 12.0756 12.3008 12.0285 12.3962 12.0088C12.4915 11.9892 12.5906 11.998 12.681 12.034L21.681 15.534C21.7775 15.5717 21.8599 15.6384 21.9168 15.725C21.9737 15.8116 22.0023 15.9137 21.9987 16.0172C21.9951 16.1207 21.9594 16.2206 21.8966 16.3029C21.8338 16.3853 21.7469 16.4461 21.648 16.477L18.204 17.545C18.0486 17.593 17.9073 17.6783 17.7923 17.7933C17.6773 17.9083 17.592 18.0496 17.544 18.205L16.477 21.648C16.4461 21.7469 16.3853 21.8338 16.3029 21.8966C16.2206 21.9594 16.1207 21.9951 16.0172 21.9987C15.9137 22.0023 15.8116 21.9737 15.725 21.9168C15.6384 21.8599 15.5717 21.7775 15.534 21.681L12.034 12.681Z" stroke="currentColor" stroke-width="1.3" stroke-linecap="round" stroke-linejoin="round"/>
</svg>
