<svg width="48" height="24" viewBox="0 0 48 24" fill="none" xmlns="http://www.w3.org/2000/svg">
<path fill-rule="evenodd" clip-rule="evenodd" d="M16.6309 5C17.379 5.00009 18 5.59922 18 6.32031V16.8799C18 17.601 17.379 18.2001 16.6309 18.2002H1.36914C0.621115 18.2 0 17.6009 0 16.8799V6.32031C0 5.59931 0.621115 5.00024 1.36914 5H16.6309ZM46.6309 5C47.379 5.00009 48 5.59922 48 6.32031V16.8799C48 17.601 47.379 18.2001 46.6309 18.2002H31.3691C30.6211 18.2 30 17.6009 30 16.8799V6.32031C30 5.59931 30.6211 5.00024 31.3691 5H46.6309ZM1.17383 14.918V16.8799C1.17383 16.9939 1.25087 17.0682 1.36914 17.0684H16.6309C16.7492 17.0682 16.8262 16.994 16.8262 16.8799V15.2656L13.4697 12.6787L10.7002 14.5166C10.4938 14.6507 10.1963 14.6383 10.0029 14.4873L6.23633 11.5527L1.17383 14.918ZM31.1738 14.918V16.8799C31.1738 16.9939 31.2509 17.0682 31.3691 17.0684H46.6309C46.7492 17.0682 46.8262 16.994 46.8262 16.8799V15.2656L43.4697 12.6787L40.7002 14.5166C40.4938 14.6507 40.1963 14.6383 40.0029 14.4873L36.2363 11.5527L31.1738 14.918ZM1.36914 6.13184C1.25093 6.13202 1.17383 6.20628 1.17383 6.32031V13.5391L5.9248 10.3799C6.00415 10.3255 6.09727 10.2913 6.19336 10.2803C6.34772 10.2641 6.50795 10.3091 6.62793 10.4033L10.3945 13.3447L13.1699 11.5059C13.3763 11.3718 13.6738 11.3841 13.8672 11.5352L16.8262 13.8154V6.32031C16.8262 6.20619 16.7492 6.13191 16.6309 6.13184H1.36914ZM31.3691 6.13184C31.2509 6.13202 31.1738 6.20628 31.1738 6.32031V13.5391L35.9248 10.3799C36.0042 10.3255 36.0973 10.2913 36.1934 10.2803C36.3477 10.2641 36.5079 10.3091 36.6279 10.4033L40.3945 13.3447L43.1699 11.5059C43.3763 11.3718 43.6738 11.3841 43.8672 11.5352L46.8262 13.8154V6.32031C46.8262 6.20619 46.7492 6.13191 46.6309 6.13184H31.3691ZM10.3701 7.63965C11.3351 7.63986 12.1307 8.40682 12.1309 9.33691C12.1309 10.2671 11.3352 11.034 10.3701 11.0342C9.40483 11.0342 8.6084 10.2673 8.6084 9.33691C8.60857 8.4067 9.40493 7.63965 10.3701 7.63965ZM40.3701 7.63965C41.3351 7.63986 42.1307 8.40682 42.1309 9.33691C42.1309 10.2671 41.3352 11.034 40.3701 11.0342C39.4048 11.0342 38.6084 10.2673 38.6084 9.33691C38.6086 8.4067 39.4049 7.63965 40.3701 7.63965ZM10.3701 8.77148C10.0393 8.77148 9.78336 9.0181 9.7832 9.33691C9.7832 9.65587 10.0392 9.90332 10.3701 9.90332C10.7009 9.90312 10.957 9.65574 10.957 9.33691C10.9569 9.01823 10.7008 8.77168 10.3701 8.77148ZM40.3701 8.77148C40.0393 8.77148 39.7834 9.0181 39.7832 9.33691C39.7832 9.65587 40.0392 9.90332 40.3701 9.90332C40.7009 9.90312 40.957 9.65574 40.957 9.33691C40.9569 9.01823 40.7008 8.77168 40.3701 8.77148Z" fill="#8A8A8A"/>
<path fill-rule="evenodd" clip-rule="evenodd" d="M29.0246 11.7207C29.2588 11.9549 29.2586 12.335 29.0246 12.5693L26.4797 15.1152C26.2455 15.3494 25.8654 15.3492 25.6311 15.1152C25.3968 14.8809 25.3968 14.5009 25.6311 14.2666L27.1477 12.75L19.5998 12.75C19.2686 12.7497 19.0002 12.4806 19.0002 12.1494C19.0004 11.8183 19.2688 11.55 19.5998 11.5498L27.1574 11.5498L25.6311 10.0234C25.3968 9.78908 25.3968 9.40907 25.6311 9.17477C25.8654 8.94115 26.2456 8.94071 26.4797 9.17477L29.0246 11.7207Z" fill="#8A8A8A"/>
</svg>
