<svg width="48" height="24" viewBox="0 0 48 24" fill="none" xmlns="http://www.w3.org/2000/svg">
<path fill-rule="evenodd" clip-rule="evenodd" d="M30.5488 2.5C32.0541 2.50024 33.2763 3.71416 33.2763 5.20898V13.1113L35.0712 11.3291C35.2839 11.1179 35.628 11.1179 35.8407 11.3291C36.0531 11.5403 36.0533 11.8816 35.8407 12.0928H35.8447L33.1171 14.8008C33.0681 14.8494 33.0069 14.8936 32.9365 14.9199C32.8713 14.9472 32.8007 14.9638 32.7294 14.9639C32.659 14.9638 32.5868 14.9473 32.5214 14.9199C32.456 14.8925 32.3959 14.8545 32.3417 14.8008L29.9999 12.4766V15.5996C29.9999 16.0913 29.5856 16.5 29.0868 16.5H18.913C18.4142 16.5 17.9999 16.0913 17.9999 15.5996V13.3271C17.8586 13.3266 17.723 13.279 17.6142 13.1709L15.8193 11.3887V19.291C15.8194 20.1845 16.5562 20.9158 17.456 20.916H30.5478C31.4476 20.9159 32.1834 20.1845 32.1835 19.291V18.208C32.1835 17.9111 32.4287 17.6671 32.7275 17.666C33.0265 17.6667 33.2714 17.9109 33.2714 18.208V19.291C33.2713 20.7857 32.0492 21.9998 30.5439 22H17.4511C15.946 21.9996 14.7237 20.7856 14.7236 19.291V11.3887L12.9286 13.1709C12.7159 13.3818 12.3717 13.382 12.1591 13.1709C11.9469 12.9598 11.9469 12.6184 12.1591 12.4072L14.8876 9.69922C14.9417 9.64553 15.0021 9.60748 15.0673 9.58008C15.1981 9.5263 15.3505 9.52641 15.4814 9.58008C15.5519 9.60647 15.613 9.6505 15.662 9.69922L17.9999 12.0195V8.40039C17.9999 7.90871 18.4142 7.5 18.913 7.5H29.0868C29.5856 7.5 29.9999 7.90871 29.9999 8.40039V11.1709C30.1386 11.1713 30.2768 11.2239 30.3827 11.3291L32.1777 13.1113V5.20898C32.1777 4.31525 31.441 3.58398 30.5409 3.58398H17.455C16.5553 3.58438 15.8193 4.31549 15.8193 5.20898V6.29199C15.8191 6.58944 15.573 6.83398 15.2734 6.83398C14.9741 6.83359 14.7286 6.5892 14.7284 6.29199V5.20898C14.7284 3.71427 15.9508 2.50043 17.456 2.5H30.5488ZM18.7822 14.2617V15.5996C18.7822 15.6775 18.834 15.7285 18.913 15.7285H29.0868C29.1658 15.7285 29.2177 15.6775 29.2177 15.5996V14.499L26.9794 12.7354L25.1327 13.9893C24.9953 14.0803 24.7976 14.0714 24.6689 13.9688L22.1572 11.9678L18.7822 14.2617ZM18.913 8.27148C18.834 8.27148 18.7822 8.32254 18.7822 8.40039V13.3223L21.9491 11.168C22.0021 11.1308 22.0647 11.1072 22.1288 11.0996C22.2317 11.0886 22.3379 11.1204 22.4179 11.1846L24.9296 13.1895L26.7802 11.9355C26.9177 11.8444 27.1153 11.8533 27.2441 11.9561L29.2177 13.5107V8.40039C29.2177 8.32254 29.1658 8.27148 29.0868 8.27148H18.913ZM24.913 9.2998C25.5565 9.29981 26.0868 9.82277 26.0868 10.457C26.0868 11.0913 25.5565 11.6143 24.913 11.6143C24.2695 11.6143 23.7392 11.0914 23.7392 10.457C23.7392 9.82276 24.2695 9.2998 24.913 9.2998ZM24.913 10.0713C24.6924 10.0713 24.5215 10.2396 24.5214 10.457C24.5214 10.6745 24.6924 10.8428 24.913 10.8428C25.1336 10.8428 25.3046 10.6745 25.3046 10.457C25.3046 10.2396 25.1336 10.0713 24.913 10.0713Z" fill="#8A8A8A"/>
</svg>
