<svg width="24" height="24" viewBox="0 0 24 24" fill="none" xmlns="http://www.w3.org/2000/svg">
<path d="M12.0001 4L12.0001 3.35L11.3501 3.35V4H12.0001ZM12.0001 20H11.3501C11.3501 20.1724 11.4185 20.3377 11.5404 20.4596C11.6623 20.5815 11.8277 20.65 12.0001 20.65L12.0001 20ZM12.0001 11.35H11.3501V12.65H12.0001V12V11.35ZM20.0001 12.65C20.359 12.65 20.6501 12.359 20.6501 12C20.6501 11.641 20.359 11.35 20.0001 11.35V12V12.65ZM12.0001 13.35H11.3501V14.65H12.0001V14V13.35ZM20.0001 14.65C20.359 14.65 20.6501 14.359 20.6501 14C20.6501 13.641 20.359 13.35 20.0001 13.35V14V14.65ZM12.0001 9.34999H11.3501V10.65H12.0001V9.99999V9.34999ZM20.0001 10.65C20.359 10.65 20.6501 10.359 20.6501 9.99999C20.6501 9.64101 20.359 9.34999 20.0001 9.34999V9.99999V10.65ZM12.0001 7.34999H11.3501V8.64999H12.0001V7.99999V7.34999ZM19.0001 8.64999C19.359 8.64999 19.6501 8.35898 19.6501 7.99999C19.6501 7.64101 19.359 7.34999 19.0001 7.34999V7.99999V8.64999ZM12.0001 15.35H11.3501V16.65H12.0001V16V15.35ZM19.0001 16.65C19.359 16.65 19.6501 16.359 19.6501 16C19.6501 15.641 19.359 15.35 19.0001 15.35V16V16.65ZM12.0001 17.35H11.3501V18.65H12.0001V18V17.35ZM17.5001 18.65C17.859 18.65 18.1501 18.359 18.1501 18C18.1501 17.641 17.859 17.35 17.5001 17.35V18V18.65ZM12.0001 5.34999H11.3501V6.64999H12.0001V5.99999V5.34999ZM17.5001 6.64999C17.859 6.64999 18.1501 6.35898 18.1501 5.99999C18.1501 5.64101 17.859 5.34999 17.5001 5.34999V5.99999V6.64999ZM14.5001 4.64999C14.859 4.64999 15.1501 4.35897 15.1501 3.99999C15.1501 3.641 14.859 3.34999 14.5001 3.34999L14.5001 3.99999L14.5001 4.64999ZM14.5001 20.65C14.859 20.65 15.1501 20.359 15.1501 20C15.1501 19.641 14.859 19.35 14.5001 19.35L14.5001 20L14.5001 20.65ZM12.0001 4H11.3501V20H12.0001H12.6501V4H12.0001ZM12.0001 12V12.65H20.0001V12V11.35H12.0001V12ZM12.0001 14V14.65H20.0001V14V13.35H12.0001V14ZM12.0001 9.99999V10.65H20.0001V9.99999V9.34999H12.0001V9.99999ZM12.0001 7.99999V8.64999H19.0001V7.99999V7.34999H12.0001V7.99999ZM12.0001 16V16.65H19.0001V16V15.35H12.0001V16ZM12.0001 18V18.65H17.5001V18V17.35H12.0001V18ZM12.0001 5.99999V6.64999H17.5001V5.99999V5.34999H12.0001V5.99999ZM12.0001 4L12.0001 4.65L14.5001 4.64999L14.5001 3.99999L14.5001 3.34999L12.0001 3.35L12.0001 4ZM12.0001 20L12.0001 20.65L14.5001 20.65L14.5001 20L14.5001 19.35L12.0001 19.35L12.0001 20ZM20.4853 11.9705H19.8353C19.8353 16.2978 16.3274 19.8058 12.0001 19.8058V20.4558V21.1058C17.0453 21.1058 21.1353 17.0158 21.1353 11.9705H20.4853ZM12.0001 20.4558V19.8058C7.67275 19.8058 4.16477 16.2978 4.16477 11.9705H3.51477H2.86477C2.86477 17.0158 6.95478 21.1058 12.0001 21.1058V20.4558ZM3.51477 11.9705H4.16477C4.16477 7.64323 7.67275 4.13526 12.0001 4.13526V3.48526V2.83526C6.95478 2.83526 2.86477 6.92526 2.86477 11.9705H3.51477ZM12.0001 3.48526V4.13526C16.3274 4.13526 19.8353 7.64323 19.8353 11.9705H20.4853H21.1353C21.1353 6.92526 17.0453 2.83526 12.0001 2.83526V3.48526Z" fill="currentColor"/>
</svg>
