<svg width="24" height="24" viewBox="0 0 24 24" fill="none" xmlns="http://www.w3.org/2000/svg">
<path d="M1 14L3 12V19C3 19.5304 3.21071 20.0391 3.58579 20.4142C3.96086 20.7893 4.46957 21 5 21H8M23 10L21 12V5C21 4.46957 20.7893 3.96086 20.4142 3.58579C20.0391 3.21071 19.5304 3 19 3H16M18 14L15.9427 11.9426C15.6926 11.6927 15.3536 11.5522 15 11.5522C14.6464 11.5522 14.3074 11.6927 14.0573 11.9426L8 18M7.33333 6H16.6667C17.403 6 18 6.59695 18 7.33333V16.6667C18 17.403 17.403 18 16.6667 18H7.33333C6.59695 18 6 17.403 6 16.6667V7.33333C6 6.59695 6.59695 6 7.33333 6ZM11.3333 10C11.3333 10.7364 10.7364 11.3333 10 11.3333C9.26362 11.3333 8.66667 10.7364 8.66667 10C8.66667 9.26362 9.26362 8.66667 10 8.66667C10.7364 8.66667 11.3333 9.26362 11.3333 10Z" stroke="white" stroke-width="1.3" stroke-linecap="round" stroke-linejoin="round"/>
</svg>
