<svg width="24" height="24" viewBox="0 0 24 24" fill="none" xmlns="http://www.w3.org/2000/svg">
<path d="M16 3H21M21 3V8M21 3L17 7M18 21H19C19.5304 21 20.0391 20.7893 20.4142 20.4142C20.7893 20.0391 21 19.5304 21 19M21 12V15M3 6V5C3 4.46957 3.21071 3.96086 3.58579 3.58579C3.96086 3.21071 4.46957 3 5 3M9 3H12M15 17L12.9427 14.9426C12.6926 14.6927 12.3536 14.5522 12 14.5522C11.6464 14.5522 11.3074 14.6927 11.0573 14.9426L5 21M4.33333 9H13.6667C14.403 9 15 9.59695 15 10.3333V19.6667C15 20.403 14.403 21 13.6667 21H4.33333C3.59695 21 3 20.403 3 19.6667V10.3333C3 9.59695 3.59695 9 4.33333 9ZM8.33333 13C8.33333 13.7364 7.73638 14.3333 7 14.3333C6.26362 14.3333 5.66667 13.7364 5.66667 13C5.66667 12.2636 6.26362 11.6667 7 11.6667C7.73638 11.6667 8.33333 12.2636 8.33333 13Z" stroke="#8A8A8A" stroke-width="1.3" stroke-linecap="round" stroke-linejoin="round"/>
</svg>
