<svg width="48" height="24" viewBox="0 0 48 24" fill="none" xmlns="http://www.w3.org/2000/svg">
<path d="M18 1.2002C18.4418 1.2002 18.7998 1.55817 18.7998 2V5.2002H29C29.9941 5.2002 30.7998 6.00589 30.7998 7V17.7002H34C34.4418 17.7002 34.7998 18.0582 34.7998 18.5C34.7998 18.9418 34.4418 19.2998 34 19.2998H30.7998V22.5C30.7998 22.9418 30.4418 23.2998 30 23.2998C29.5582 23.2998 29.2002 22.9418 29.2002 22.5V19.2998H19C18.0059 19.2998 17.2002 18.4941 17.2002 17.5V6.7998H14C13.5582 6.7998 13.2002 6.44183 13.2002 6C13.2002 5.55817 13.5582 5.2002 14 5.2002H17.2002V2C17.2002 1.55817 17.5582 1.2002 18 1.2002ZM18.7998 17.5C18.7998 17.6105 18.8895 17.7002 19 17.7002H29.2002V7C29.2002 6.88954 29.1105 6.79981 29 6.7998H18.7998V17.5Z" fill="#8A8A8A"/>
</svg>
