<svg width="48" height="24" viewBox="0 0 48 24" fill="none" xmlns="http://www.w3.org/2000/svg">
<path d="M24.0002 10.9506C22.4541 9.6908 20.4514 9.1392 18.4787 9.42816C18.2607 8.80882 18.1488 8.15727 18.1496 7.50043V7.49945C18.1498 5.41028 19.2656 3.47869 21.0754 2.43304C22.885 1.38855 25.1153 1.38845 26.925 2.43304L27.2561 2.6391C28.8699 3.72034 29.8497 5.5406 29.8498 7.49945V7.50043C29.8506 8.15737 29.7388 8.80876 29.5207 9.42816C27.5483 9.13945 25.5462 9.69102 24.0002 10.9506ZM22.2297 13.0707C20.9335 12.6588 19.8225 11.8085 19.0862 10.6674C19.2239 10.6578 19.3618 10.6504 19.5002 10.6498C20.7921 10.6481 22.0453 11.0775 23.0656 11.8657C22.7457 12.2373 22.466 12.6415 22.2297 13.0707ZM25.7697 13.0698C25.5339 12.6414 25.254 12.2386 24.9348 11.8676C25.954 11.079 27.2077 10.6501 28.4992 10.6508C28.6376 10.6514 28.7756 10.6578 28.9133 10.6674C28.1769 11.8085 27.066 12.6579 25.7697 13.0698ZM19.0969 22.3315C17.6196 22.2291 16.2357 21.5709 15.2248 20.4887C14.2139 19.4065 13.6505 17.9801 13.6496 16.4995C13.6507 15.2383 14.0599 14.0112 14.8156 13.0014C15.5468 12.0225 16.566 11.2995 17.7287 10.9301C18.5931 12.5003 20.0112 13.6917 21.7072 14.2719C21.3242 15.4366 21.2474 16.6814 21.4856 17.8852C21.7241 19.0859 22.2682 20.2045 23.0627 21.1332C21.9324 22.0019 20.5223 22.4303 19.0969 22.3315ZM29.6819 22.2426C28.0119 22.5816 26.28 22.1738 24.9367 21.1332C25.7315 20.2044 26.2763 19.0853 26.5149 17.8842C26.753 16.6805 26.6752 15.4365 26.2922 14.2719C27.988 13.692 29.405 12.5008 30.2697 10.9311C31.9037 11.4445 33.2334 12.6462 33.9035 14.226C34.5881 15.843 34.5115 17.682 33.6926 19.2348C32.8746 20.7878 31.402 21.8925 29.6819 22.2426ZM24.4133 13.3334C24.1376 13.3528 23.8609 13.3529 23.5852 13.3334C23.7115 13.1369 23.8508 12.9495 24.0002 12.77C24.1494 12.9492 24.2871 13.1372 24.4133 13.3334ZM24.0002 20.228C23.3622 19.4615 22.9284 18.5463 22.7453 17.5639C22.559 16.5634 22.6407 15.5335 22.9748 14.5746C23.6529 14.6745 24.3414 14.6744 25.0188 14.5746C25.3546 15.5336 25.4377 16.5632 25.2522 17.5629C25.07 18.5453 24.6372 19.4615 24.0002 20.228ZM35.6506 16.3696H35.6467C35.6172 14.8949 35.1354 13.4636 34.2619 12.2729C33.3925 11.087 32.1799 10.2008 30.7903 9.72797C31.027 9.00974 31.1505 8.25806 31.1496 7.50043C31.1506 5.39267 30.2222 3.3924 28.6115 2.03265C27.0017 0.673924 24.873 0.0954168 22.7961 0.449646C20.7192 0.803888 18.9039 2.05694 17.8362 3.8725C16.793 5.64585 16.5674 7.77997 17.2082 9.72894C15.2317 10.3959 13.6402 11.8926 12.8586 13.8334C12.0592 15.8203 12.1936 18.0622 13.2238 19.9409C14.2542 21.8195 16.0735 23.1361 18.1789 23.5297C20.2439 23.9157 22.3716 23.3717 23.9992 22.0502C25.3822 23.1703 27.134 23.737 28.9133 23.6332C30.7347 23.5279 32.446 22.73 33.6985 21.4047C34.9499 20.0786 35.6486 18.3245 35.6506 16.5004V16.3696Z" fill="#8A8A8A" stroke="#8A8A8A" stroke-width="0.3"/>
</svg>
