<svg width="24" height="24" viewBox="0 0 24 24" fill="none" xmlns="http://www.w3.org/2000/svg">
<path d="M10 18V20.6667C10 21.403 10.597 22 11.3333 22H20.6667C21.403 22 22 21.403 22 20.6667V11.3333C22 10.597 21.403 10 20.6667 10H18M14 17V18.6667L18 16L16.6579 15.1053M14 9.96658L11.9427 7.90924C11.6926 7.65928 11.3536 7.51886 11 7.51886C10.6464 7.51886 10.3074 7.65928 10.0573 7.90924L4 13.9666M5 18L7 20L5 22M7 20H4C3.46957 20 2.96086 19.7893 2.58579 19.4142C2.21071 19.0391 2 18.5304 2 18V17M3.33333 1.96661H12.6667C13.403 1.96661 14 2.56357 14 3.29995V12.6333C14 13.3697 13.403 13.9666 12.6667 13.9666H3.33333C2.59695 13.9666 2 13.3697 2 12.6333V3.29995C2 2.56357 2.59695 1.96661 3.33333 1.96661ZM7.33333 5.96661C7.33333 6.70299 6.73638 7.29995 6 7.29995C5.26362 7.29995 4.66667 6.70299 4.66667 5.96661C4.66667 5.23023 5.26362 4.63328 6 4.63328C6.73638 4.63328 7.33333 5.23023 7.33333 5.96661Z" stroke="currentColor" stroke-width="1.3" stroke-linecap="round" stroke-linejoin="round"/>
</svg>
