<svg width="48" height="24" viewBox="0 0 48 24" fill="none" xmlns="http://www.w3.org/2000/svg">
<path d="M14 1.2002C14.4418 1.2002 14.7998 1.55817 14.7998 2V8.00684C14.8958 7.83091 14.9994 7.65581 15.1113 7.48438C15.6603 6.64373 16.4355 5.78389 17.3633 5.01074C19.2091 3.47256 21.7588 2.2002 24.5 2.2002C29.8381 2.20019 35.7998 5.96117 35.7998 13.5C35.7998 13.9418 35.4418 14.2998 35 14.2998C34.5582 14.2998 34.2002 13.9418 34.2002 13.5C34.2002 7.03883 29.1619 3.7998 24.5 3.7998C22.2413 3.79981 20.0409 4.86081 18.3867 6.23926C17.5645 6.92442 16.9022 7.6688 16.4512 8.35938C16.1004 8.89656 15.9082 9.35442 15.835 9.7002H20.5C20.9418 9.7002 21.2998 10.0582 21.2998 10.5C21.2998 10.9418 20.9418 11.2998 20.5 11.2998H15C14.0059 11.2998 13.2002 10.4941 13.2002 9.5V2C13.2002 1.55817 13.5582 1.2002 14 1.2002Z" fill="#8A8A8A"/>
<path d="M18.3446 15.6464C17.9126 15.8958 17.758 16.4565 18.0038 16.8823L21.6038 23.1177C21.8497 23.5435 22.4126 23.69 22.8446 23.4406L31.6554 18.3537C32.0874 18.1043 32.242 17.5435 31.9962 17.1177L28.3962 10.8823C28.1503 10.4565 27.5874 10.31 27.1554 10.5594L18.3446 15.6464ZM18.7303 16.3145L27.5411 11.2275C27.6095 11.188 27.6795 11.2062 27.7184 11.2736L30.2738 15.6996L27.7878 15.3394C27.6246 15.3147 27.4487 15.4064 27.3753 15.5544L26.3994 17.5653L23.2225 17.0844C23.121 17.0687 23.0133 17.095 22.9296 17.156C22.8778 17.1947 22.8358 17.2462 22.8085 17.3049L21.1425 20.7535L18.6816 16.491C18.6426 16.4236 18.6619 16.3539 18.7303 16.3145ZM24.4407 14.2052C23.8834 14.527 23.6855 15.245 24.0027 15.7943C24.3198 16.3436 25.0406 16.5312 25.5979 16.2095C26.1552 15.8877 26.3531 15.1697 26.0359 14.6204C25.7188 14.0711 24.998 13.8835 24.4407 14.2052ZM24.8264 14.8733C25.0175 14.763 25.2494 14.8234 25.3582 15.0117C25.4669 15.2 25.4032 15.4311 25.2121 15.5414C25.0211 15.6517 24.7891 15.5913 24.6804 15.403C24.5717 15.2147 24.6354 14.9836 24.8264 14.8733ZM23.3884 17.8934L26.5633 18.3707C26.7264 18.3954 26.9023 18.3037 26.9757 18.1558L27.948 16.1469L30.7679 16.5556L31.3183 17.509C31.3572 17.5764 31.338 17.6461 31.2696 17.6856L22.4588 22.7725C22.3904 22.812 22.3205 22.7938 22.2815 22.7264L21.6126 21.5677L23.3884 17.8934Z" fill="#8A8A8A"/>
</svg>
