<svg width="48" height="24" viewBox="0 0 48 24" fill="none" xmlns="http://www.w3.org/2000/svg">
<path d="M43.6982 4.98535C45.7927 4.98543 47.5049 6.70216 47.5049 8.83496V14.3652C47.5049 16.498 45.7927 18.2148 43.6982 18.2148H34.3018C32.2075 18.2146 30.4951 16.4979 30.4951 14.3652V8.83496C30.4951 6.70225 32.2075 4.98558 34.3018 4.98535H43.6982ZM16.6309 5C17.379 5.00009 18 5.59922 18 6.32031V16.8799C18 17.601 17.379 18.2001 16.6309 18.2002H1.36914C0.621115 18.2 0 17.6009 0 16.8799V6.32031C0 5.59931 0.621115 5.00024 1.36914 5H16.6309ZM1.17383 14.918V16.8799C1.17383 16.9939 1.25087 17.0682 1.36914 17.0684H16.6309C16.7492 17.0682 16.8262 16.994 16.8262 16.8799V15.2656L13.4697 12.6787L10.7002 14.5166C10.4938 14.6507 10.1963 14.6383 10.0029 14.4873L6.23633 11.5527L1.17383 14.918ZM34.3018 6.36328C32.9265 6.3635 31.8447 7.4664 31.8447 8.83496V14.3652C31.8447 15.7338 32.9265 16.8367 34.3018 16.8369H43.6982C45.0737 16.8368 46.1553 15.7339 46.1553 14.3652V8.83496C46.1553 7.46631 45.0737 6.36336 43.6982 6.36328H34.3018ZM37.0547 8.11426C37.1701 8.11799 37.284 8.15521 37.3818 8.2207L41.6885 10.9863C41.9146 11.1274 41.998 11.3888 41.998 11.6006C41.9979 11.8124 41.9137 12.0729 41.6875 12.2139L37.3818 14.9795C37.1763 15.117 36.9084 15.1194 36.7012 14.9873L36.7002 14.9863C36.4956 14.8537 36.3735 14.6055 36.3799 14.3574V8.83496C36.3751 8.48315 36.642 8.13414 37.0039 8.11523L37.0547 8.11426ZM1.36914 6.13184C1.25093 6.13202 1.17383 6.20628 1.17383 6.32031V13.5391L5.9248 10.3799C6.00415 10.3255 6.09727 10.2913 6.19336 10.2803C6.34772 10.2641 6.50795 10.3091 6.62793 10.4033L10.3945 13.3447L13.1699 11.5059C13.3763 11.3718 13.6738 11.3841 13.8672 11.5352L16.8262 13.8154V6.32031C16.8262 6.20619 16.7492 6.13191 16.6309 6.13184H1.36914ZM37.6992 13.1104L40.0576 11.5996L37.6992 10.085V13.1104ZM41.6152 11.8984L41.6455 11.8564C41.6546 11.8419 41.6627 11.8264 41.6699 11.8105C41.6553 11.8424 41.6371 11.8725 41.6152 11.8984ZM10.3701 7.63965C11.3351 7.63986 12.1307 8.40682 12.1309 9.33691C12.1309 10.2671 11.3352 11.034 10.3701 11.0342C9.40483 11.0342 8.6084 10.2673 8.6084 9.33691C8.60857 8.4067 9.40493 7.63965 10.3701 7.63965ZM10.3701 8.77148C10.0393 8.77148 9.78336 9.0181 9.7832 9.33691C9.7832 9.65587 10.0392 9.90332 10.3701 9.90332C10.7009 9.90312 10.957 9.65574 10.957 9.33691C10.9569 9.01823 10.7008 8.77168 10.3701 8.77148Z" fill="#8A8A8A"/>
<path fill-rule="evenodd" clip-rule="evenodd" d="M29.0245 11.721C29.2587 11.9553 29.2588 12.3354 29.0245 12.5696L26.4796 15.1155C26.2454 15.3497 25.8653 15.3494 25.631 15.1155C25.3967 14.8812 25.3967 14.5012 25.631 14.2669L27.1485 12.7493L19.6007 12.7493C19.2693 12.7493 19.0001 12.4811 19.0001 12.1497C19.0001 11.8184 19.2693 11.5501 19.6007 11.5501L27.1573 11.5501L25.631 10.0238C25.3966 9.78943 25.3966 9.40944 25.631 9.17512C25.8653 8.94106 26.2454 8.94089 26.4796 9.17512L29.0245 11.721Z" fill="#8A8A8A"/>
</svg>
