<svg width="48" height="24" viewBox="0 0 48 24" fill="none" xmlns="http://www.w3.org/2000/svg">
<path d="M25.5386 22.7695C25.8783 22.7697 26.1538 23.045 26.1538 23.3848C26.1537 23.7245 25.8783 23.9998 25.5386 24H15.3843C15.0445 23.9999 14.7691 23.7245 14.769 23.3848C14.769 23.0449 15.0445 22.7696 15.3843 22.7695H25.5386ZM32.6147 19.3848C32.9546 19.3848 33.231 19.6601 33.231 20C33.231 20.3399 32.9546 20.6152 32.6147 20.6152H15.3843C15.0445 20.6152 14.769 20.3398 14.769 20C14.769 19.6602 15.0445 19.3848 15.3843 19.3848H32.6147ZM32.6147 16C32.9546 16 33.2309 16.2754 33.231 16.6152C33.231 16.9551 32.9546 17.2305 32.6147 17.2305H15.3843C15.0445 17.2304 14.769 16.9551 14.769 16.6152C14.7691 16.2755 15.0445 16.0001 15.3843 16H32.6147ZM31.8257 0C32.593 0 33.2308 0.614038 33.231 1.35352V12.1846C33.231 12.9242 32.5931 13.5381 31.8257 13.5381H16.1733C15.4061 13.5379 14.769 12.9241 14.769 12.1846V1.35352C14.7692 0.614161 15.4062 0.000205504 16.1733 0H31.8257ZM15.9731 10.1719V12.1846C15.9731 12.3016 16.052 12.3778 16.1733 12.3779H31.8257C31.9472 12.3779 32.0269 12.3017 32.0269 12.1846V10.5283L28.5835 7.875L25.7427 9.76074C25.531 9.89807 25.2261 9.88528 25.0278 9.73047L21.1655 6.7207L15.9731 10.1719ZM16.1733 1.16016C16.0522 1.16032 15.9733 1.2367 15.9731 1.35352V8.75781L20.8452 5.51758C20.9267 5.4617 21.0228 5.42637 21.1216 5.41504C21.2799 5.39849 21.4439 5.44534 21.5669 5.54199L25.4292 8.55859L28.2769 6.67285C28.4885 6.53537 28.7934 6.54826 28.9917 6.70312L32.0269 9.04199V1.35352C32.0267 1.2366 31.9471 1.16016 31.8257 1.16016H16.1733ZM25.4048 2.70801C26.3946 2.70816 27.2104 3.49419 27.2104 4.44824C27.2104 5.40234 26.3947 6.1893 25.4048 6.18945C24.4148 6.18945 23.5981 5.40243 23.5981 4.44824C23.5982 3.4941 24.4148 2.70801 25.4048 2.70801ZM25.4048 3.86816C25.0654 3.86816 24.8023 4.12117 24.8022 4.44824C24.8022 4.77537 25.0654 5.02832 25.4048 5.02832C25.7441 5.02818 26.0063 4.77528 26.0063 4.44824C26.0063 4.12126 25.744 3.86831 25.4048 3.86816Z" fill="#8A8A8A"/>
</svg>
