<svg width="24" height="24" viewBox="0 0 24 24" fill="none" xmlns="http://www.w3.org/2000/svg">
<path d="M11.9999 4L11.9999 3.35L11.3499 3.35V4H11.9999ZM11.9999 20H11.3499C11.3499 20.1724 11.4184 20.3377 11.5403 20.4596C11.6622 20.5815 11.8275 20.65 11.9999 20.65L11.9999 20ZM11.9999 11.35H11.3499V12.65H11.9999V12V11.35ZM19.9999 12.65C20.3589 12.65 20.6499 12.359 20.6499 12C20.6499 11.641 20.3589 11.35 19.9999 11.35V12V12.65ZM11.9999 13.35H11.3499V14.65H11.9999V14V13.35ZM19.9999 14.65C20.3589 14.65 20.6499 14.359 20.6499 14C20.6499 13.641 20.3589 13.35 19.9999 13.35V14V14.65ZM11.9999 9.34999H11.3499V10.65H11.9999V9.99999V9.34999ZM19.9999 10.65C20.3589 10.65 20.6499 10.359 20.6499 9.99999C20.6499 9.64101 20.3589 9.34999 19.9999 9.34999V9.99999V10.65ZM11.9999 7.34999H11.3499V8.64999H11.9999V7.99999V7.34999ZM18.9999 8.64999C19.3589 8.64999 19.6499 8.35898 19.6499 7.99999C19.6499 7.64101 19.3589 7.34999 18.9999 7.34999V7.99999V8.64999ZM11.9999 15.35H11.3499V16.65H11.9999V16V15.35ZM18.9999 16.65C19.3589 16.65 19.6499 16.359 19.6499 16C19.6499 15.641 19.3589 15.35 18.9999 15.35V16V16.65ZM11.9999 17.35H11.3499V18.65H11.9999V18V17.35ZM17.4999 18.65C17.8589 18.65 18.1499 18.359 18.1499 18C18.1499 17.641 17.8589 17.35 17.4999 17.35V18V18.65ZM11.9999 5.34999H11.3499V6.64999H11.9999V5.99999V5.34999ZM17.4999 6.64999C17.8589 6.64999 18.1499 6.35898 18.1499 5.99999C18.1499 5.64101 17.8589 5.34999 17.4999 5.34999V5.99999V6.64999ZM14.4999 4.64999C14.8589 4.64999 15.1499 4.35897 15.1499 3.99999C15.1499 3.641 14.8589 3.34999 14.4999 3.34999L14.4999 3.99999L14.4999 4.64999ZM14.4999 20.65C14.8589 20.65 15.1499 20.359 15.1499 20C15.1499 19.641 14.8589 19.35 14.4999 19.35L14.4999 20L14.4999 20.65ZM11.9999 4H11.3499V20H11.9999H12.6499V4H11.9999ZM11.9999 12V12.65H19.9999V12V11.35H11.9999V12ZM11.9999 14V14.65H19.9999V14V13.35H11.9999V14ZM11.9999 9.99999V10.65H19.9999V9.99999V9.34999H11.9999V9.99999ZM11.9999 7.99999V8.64999H18.9999V7.99999V7.34999H11.9999V7.99999ZM11.9999 16V16.65H18.9999V16V15.35H11.9999V16ZM11.9999 18V18.65H17.4999V18V17.35H11.9999V18ZM11.9999 5.99999V6.64999H17.4999V5.99999V5.34999H11.9999V5.99999ZM11.9999 4L11.9999 4.65L14.4999 4.64999L14.4999 3.99999L14.4999 3.34999L11.9999 3.35L11.9999 4ZM11.9999 20L11.9999 20.65L14.4999 20.65L14.4999 20L14.4999 19.35L11.9999 19.35L11.9999 20ZM20.4852 11.9705H19.8352C19.8352 16.2978 16.3272 19.8058 11.9999 19.8058V20.4558V21.1058C17.0452 21.1058 21.1352 17.0158 21.1352 11.9705H20.4852ZM11.9999 20.4558V19.8058C7.67262 19.8058 4.16465 16.2978 4.16465 11.9705H3.51465H2.86465C2.86465 17.0158 6.95465 21.1058 11.9999 21.1058V20.4558ZM3.51465 11.9705H4.16465C4.16465 7.64323 7.67262 4.13526 11.9999 4.13526V3.48526V2.83526C6.95465 2.83526 2.86465 6.92526 2.86465 11.9705H3.51465ZM11.9999 3.48526V4.13526C16.3272 4.13526 19.8352 7.64323 19.8352 11.9705H20.4852H21.1352C21.1352 6.92526 17.0452 2.83526 11.9999 2.83526V3.48526Z" fill="#8A8A8A"/>
</svg>
