<svg width="24" height="24" viewBox="0 0 24 24" fill="none" xmlns="http://www.w3.org/2000/svg">
<path d="M10.3 21H5C4.46957 21 3.96086 20.7893 3.58579 20.4142C3.21071 20.0391 3 19.5304 3 19V5C3 4.46957 3.21071 3.96086 3.58579 3.58579C3.96086 3.21071 4.46957 3 5 3H19C19.5304 3 20.0391 3.21071 20.4142 3.58579C20.7893 3.96086 21 4.46957 21 5V11.914M17.9 11.9C17.5237 11.5312 17.017 11.3258 16.4901 11.3284C15.9632 11.331 15.4586 11.5415 15.086 11.914L6 21M11 9C11 10.1046 10.1046 11 9 11C7.89543 11 7 10.1046 7 9C7 7.89543 7.89543 7 9 7C10.1046 7 11 7.89543 11 9ZM18.141 18.816L17.357 20.646C17.3312 20.7061 17.2884 20.7573 17.2338 20.7933C17.1793 20.8293 17.1153 20.8485 17.05 20.8485C16.9846 20.8485 16.9207 20.8293 16.8661 20.7933C16.8115 20.7573 16.7687 20.7061 16.743 20.646L15.958 18.816C15.9245 18.737 15.8618 18.6739 15.783 18.64L13.952 17.856C13.8919 17.8303 13.8407 17.7875 13.8047 17.7329C13.7687 17.6783 13.7495 17.6144 13.7495 17.549C13.7495 17.4836 13.7687 17.4197 13.8047 17.3651C13.8407 17.3106 13.8919 17.2678 13.952 17.242L15.783 16.457C15.8616 16.4233 15.9243 16.3607 15.958 16.282L16.743 14.451C16.7687 14.3909 16.8115 14.3397 16.8661 14.3037C16.9207 14.2677 16.9846 14.2486 17.05 14.2486C17.1153 14.2486 17.1793 14.2677 17.2338 14.3037C17.2884 14.3397 17.3312 14.3909 17.357 14.451L18.141 16.282C18.175 16.3608 18.238 16.4234 18.317 16.457L20.147 17.242C20.417 17.358 20.417 17.74 20.147 17.856L18.317 18.64C18.2378 18.6738 18.1748 18.7369 18.141 18.816Z" stroke="white" stroke-width="1.3" stroke-linecap="round" stroke-linejoin="round"/>
</svg>
