<svg width="24" height="24" viewBox="0 0 24 24" fill="none" xmlns="http://www.w3.org/2000/svg">
<path d="M14 9.96658L11.9427 7.90924C11.6926 7.65928 11.3536 7.51886 11 7.51886C10.6464 7.51886 10.3074 7.65928 10.0573 7.90924L4 13.9666M5 18L7 20L5 22M7 20H4C3.46957 20 2.96086 19.7893 2.58579 19.4142C2.21071 19.0391 2 18.5304 2 18V17M16.6001 10.1608L20.8005 12.561C20.9827 12.6662 21.1341 12.8176 21.2394 12.9998C21.3448 13.182 21.4003 13.3887 21.4005 13.5991V18.3996C21.4003 18.61 21.3448 18.8167 21.2394 18.999C21.1341 19.1812 20.9827 19.3325 20.8005 19.4377L16.6001 21.8379C16.4176 21.9433 16.2107 21.9987 16 21.9987C15.7894 21.9987 15.5824 21.9433 15.4 21.8379L11.1995 19.4377C11.0173 19.3325 10.8659 19.1812 10.7606 18.999C10.6553 18.8167 10.5997 18.61 10.5995 18.3996V16.5M16 15.9994L21.2206 12.9991M16 15.9994L15 15.4247M16 15.9994L16 22M3.33333 1.96661H12.6667C13.403 1.96661 14 2.56357 14 3.29995V12.6333C14 13.3697 13.403 13.9666 12.6667 13.9666H3.33333C2.59695 13.9666 2 13.3697 2 12.6333V3.29995C2 2.56357 2.59695 1.96661 3.33333 1.96661ZM7.33333 5.96661C7.33333 6.70299 6.73638 7.29995 6 7.29995C5.26362 7.29995 4.66667 6.70299 4.66667 5.96661C4.66667 5.23023 5.26362 4.63328 6 4.63328C6.73638 4.63328 7.33333 5.23023 7.33333 5.96661Z" stroke="currentColor" stroke-width="1.3" stroke-linecap="round" stroke-linejoin="round"/>
</svg>
