<svg width="24" height="24" viewBox="0 0 24 24" fill="none" xmlns="http://www.w3.org/2000/svg">
<path d="M2.03125 18.6735L1.42188 18.8997C1.42457 18.907 1.4274 18.9142 1.43035 18.9213L2.03125 18.6735ZM2.03125 18.3255L1.43035 18.0777C1.4274 18.0849 1.42457 18.0921 1.42188 18.0993L2.03125 18.3255ZM11.9687 18.3255L12.5781 18.0993C12.5754 18.0921 12.5726 18.0849 12.5697 18.0777L11.9687 18.3255ZM11.9687 18.6735L12.5697 18.9213C12.5726 18.9142 12.5754 18.907 12.5781 18.8997L11.9687 18.6735ZM9.54038 7.54038C9.28654 7.79422 9.28654 8.20578 9.54038 8.45962C9.79422 8.71346 10.2058 8.71346 10.4596 8.45962L10 8L9.54038 7.54038ZM15.4596 3.45962C15.7135 3.20578 15.7135 2.79422 15.4596 2.54038C15.2058 2.28654 14.7942 2.28654 14.5404 2.54038L15 3L15.4596 3.45962ZM12.5404 10.5404L12.0808 11L13 11.9192L13.4596 11.4596L13 11L12.5404 10.5404ZM20.4596 4.45962C20.7135 4.20578 20.7135 3.79422 20.4596 3.54038C20.2058 3.28654 19.7942 3.28654 19.5404 3.54038L20 4L20.4596 4.45962ZM15.5404 13.5404C15.2865 13.7942 15.2865 14.2058 15.5404 14.4596C15.7942 14.7135 16.2058 14.7135 16.4596 14.4596L16 14L15.5404 13.5404ZM21.4596 9.45962C21.7135 9.20578 21.7135 8.79422 21.4596 8.54038C21.2058 8.28654 20.7942 8.28654 20.5404 8.54038L21 9L21.4596 9.45962ZM14.5 20.35C14.141 20.35 13.85 20.641 13.85 21C13.85 21.359 14.141 21.65 14.5 21.65V21V20.35ZM2.35 13C2.35 13.359 2.64101 13.65 3 13.65C3.35899 13.65 3.65 13.359 3.65 13H3H2.35ZM2.03125 18.6735L2.64062 18.4473C2.65313 18.481 2.65313 18.518 2.64062 18.5517L2.03125 18.3255L1.42188 18.0993C1.32604 18.3575 1.32604 18.6415 1.42188 18.8997L2.03125 18.6735ZM2.03125 18.3255L2.63215 18.5733C2.9889 17.7083 3.59447 16.9687 4.37207 16.4483L4.01054 15.9081L3.649 15.3679C2.65744 16.0316 1.88526 16.9747 1.43035 18.0777L2.03125 18.3255ZM4.01054 15.9081L4.37207 16.4483C5.14968 15.9278 6.0643 15.65 7 15.65V15V14.35C5.80685 14.35 4.64056 14.7043 3.649 15.3679L4.01054 15.9081ZM7 15V15.65C7.9357 15.65 8.85032 15.9278 9.62793 16.4483L9.98946 15.9081L10.351 15.3679C9.35944 14.7043 8.19315 14.35 7 14.35V15ZM9.98946 15.9081L9.62793 16.4483C10.4055 16.9687 11.0111 17.7083 11.3678 18.5733L11.9687 18.3255L12.5697 18.0777C12.1147 16.9747 11.3426 16.0316 10.351 15.3679L9.98946 15.9081ZM11.9687 18.3255L11.3594 18.5517C11.3469 18.518 11.3469 18.481 11.3594 18.4473L11.9687 18.6735L12.5781 18.8997C12.674 18.6415 12.674 18.3575 12.5781 18.0993L11.9687 18.3255ZM11.9687 18.6735L11.3678 18.4257C11.0111 19.2907 10.4055 20.0303 9.62793 20.5508L9.98946 21.0909L10.351 21.6311C11.3426 20.9675 12.1147 20.0244 12.5697 18.9213L11.9687 18.6735ZM9.98946 21.0909L9.62793 20.5508C8.85032 21.0712 7.9357 21.349 7 21.349V21.999V22.649C8.19315 22.649 9.35944 22.2948 10.351 21.6311L9.98946 21.0909ZM7 21.999V21.349C6.0643 21.349 5.14968 21.0712 4.37207 20.5508L4.01054 21.0909L3.649 21.6311C4.64056 22.2948 5.80685 22.649 7 22.649V21.999ZM4.01054 21.0909L4.37207 20.5508C3.59447 20.0303 2.9889 19.2907 2.63215 18.4257L2.03125 18.6735L1.43035 18.9213C1.88526 20.0244 2.65744 20.9675 3.649 21.6311L4.01054 21.0909ZM8.49992 18.4995H7.84992C7.84992 18.9689 7.46939 19.3494 6.99999 19.3494V19.9994V20.6494C8.18736 20.6494 9.14992 19.6868 9.14992 18.4995H8.49992ZM6.99999 19.9994V19.3494C6.53059 19.3494 6.15007 18.9689 6.15007 18.4995H5.50007H4.85007C4.85007 19.6868 5.81262 20.6494 6.99999 20.6494V19.9994ZM5.50007 18.4995H6.15007C6.15007 18.0301 6.53059 17.6495 6.99999 17.6495V16.9995V16.3495C5.81262 16.3495 4.85007 17.3121 4.85007 18.4995H5.50007ZM6.99999 16.9995V17.6495C7.46939 17.6495 7.84992 18.0301 7.84992 18.4995H8.49992H9.14992C9.14992 17.3121 8.18736 16.3495 6.99999 16.3495V16.9995ZM10 8L10.4596 8.45962L15.4596 3.45962L15 3L14.5404 2.54038L9.54038 7.54038L10 8ZM13 11L13.4596 11.4596L20.4596 4.45962L20 4L19.5404 3.54038L12.5404 10.5404L13 11ZM16 14L16.4596 14.4596L21.4596 9.45962L21 9L20.5404 8.54038L15.5404 13.5404L16 14ZM5 3V3.65H19V3V2.35H5V3ZM19 3V3.65C19.7456 3.65 20.35 4.25442 20.35 5H21H21.65C21.65 3.53645 20.4636 2.35 19 2.35V3ZM21 5H20.35V19H21H21.65V5H21ZM21 19H20.35C20.35 19.7456 19.7456 20.35 19 20.35V21V21.65C20.4636 21.65 21.65 20.4636 21.65 19H21ZM3 5H3.65C3.65 4.25442 4.25442 3.65 5 3.65V3V2.35C3.53645 2.35 2.35 3.53645 2.35 5H3ZM19 21V20.35H14.5V21V21.65H19V21ZM3 13H3.65V5H3H2.35V13H3ZM5 3L4.54038 3.45962L20.5404 19.4596L21 19L21.4596 18.5404L5.45962 2.54038L5 3Z" fill="#8A8A8A"/>
</svg>
