<svg width="24" height="24" viewBox="0 0 24 24" fill="none" xmlns="http://www.w3.org/2000/svg">
<path d="M22 18L19.9427 15.9426C19.6926 15.6927 19.3536 15.5522 19 15.5522C18.6464 15.5522 18.3074 15.6927 18.0573 15.9426L12 22M10 17V20.6667C10 21.403 10.597 22 11.3333 22H20.6667C21.403 22 22 21.403 22 20.6667V11.3333C22 10.597 21.403 10 20.6667 10H17M14 9.96651L11.9427 7.90918C11.6926 7.65922 11.3536 7.5188 11 7.5188C10.6464 7.5188 10.3074 7.65922 10.0573 7.90918L4 13.9665M5 22L7 20M7 20H4C3.46957 20 2.96086 19.7893 2.58579 19.4142C2.21071 19.0391 2 18.5304 2 18V17M7 20L5 18M3.33333 1.96655H12.6667C13.403 1.96655 14 2.56351 14 3.29989V12.6332C14 13.3696 13.403 13.9666 12.6667 13.9666H3.33333C2.59695 13.9666 2 13.3696 2 12.6332V3.29989C2 2.56351 2.59695 1.96655 3.33333 1.96655ZM7.33333 5.96655C7.33333 6.70293 6.73638 7.29989 6 7.29989C5.26362 7.29989 4.66667 6.70293 4.66667 5.96655C4.66667 5.23017 5.26362 4.63322 6 4.63322C6.73638 4.63322 7.33333 5.23017 7.33333 5.96655Z" stroke="#8A8A8A" stroke-width="1.3" stroke-linecap="round" stroke-linejoin="round"/>
</svg>
