<svg width="24" height="24" viewBox="0 0 24 24" fill="none" xmlns="http://www.w3.org/2000/svg">
<path d="M15.6151 11.9999L20.5432 14.8147C20.6816 14.8931 20.7967 15.0068 20.8768 15.1443C20.9569 15.2817 20.9991 15.438 20.9991 15.597C20.9991 15.7561 20.9569 15.9124 20.8768 16.0498C20.7967 16.1872 20.6816 16.301 20.5432 16.3794L15.6151 19.2029M8.38492 11.9999L3.45687 14.8147C3.31847 14.8931 3.20335 15.0068 3.12326 15.1443C3.04317 15.2817 3.00098 15.438 3.00098 15.597C3.00098 15.7561 3.04317 15.9124 3.12326 16.0498C3.20335 16.1872 3.31847 16.301 3.45687 16.3794L4.6883 17.085M4.6883 17.085L11.1007 20.7589C11.3742 20.9168 11.6843 20.9999 12 20.9999C12.3157 20.9999 12.6259 20.9168 12.8993 20.7589L15.6151 19.2029M4.6883 17.085C4.6883 17.085 13.8671 15.4346 15.3747 15.9371C17.062 16.4996 15.6151 19.2029 15.6151 19.2029M12.8993 13.5646C12.6259 13.7224 12.3157 13.8055 12 13.8055C11.6843 13.8055 11.3742 13.7224 11.1007 13.5646L3.45687 9.18508C3.31847 9.10665 3.20335 8.99291 3.12326 8.85546C3.04317 8.71802 3.00098 8.56179 3.00098 8.40271C3.00098 8.24363 3.04317 8.0874 3.12326 7.94995C3.20335 7.81251 3.31847 7.69877 3.45687 7.62033L11.1007 3.24084C11.3742 3.08298 11.6843 2.99988 12 2.99988C12.3157 2.99988 12.6259 3.08298 12.8993 3.24084L20.5432 7.62033C20.6816 7.69877 20.7967 7.81251 20.8768 7.94995C20.9569 8.0874 20.9991 8.24363 20.9991 8.40271C20.9991 8.56179 20.9569 8.71802 20.8768 8.85546C20.7967 8.99291 20.6816 9.10665 20.5432 9.18508L12.8993 13.5646ZM12.6231 6.99949C12.1336 7.38197 11.292 7.45559 10.7435 7.16393C10.195 6.87227 10.1472 6.32577 10.6367 5.94329C11.1263 5.5608 11.9678 5.48718 12.5163 5.77884C13.0649 6.0705 13.1127 6.617 12.6231 6.99949Z" stroke="currentColor" stroke-width="1.3" stroke-linecap="round" stroke-linejoin="round"/>
</svg>
