<svg width="24" height="24" viewBox="0 0 24 24" fill="none" xmlns="http://www.w3.org/2000/svg">
<path d="M12 7L12.7452 6.25483C12.8974 6.10265 13.1298 6.06492 13.3223 6.16117L14 6.5M12 7L11.2548 6.25483C11.1026 6.10265 10.8702 6.06492 10.6777 6.16117L10 6.5M12 7V10M12 13.5L9.62485 14.9251C9.54331 14.974 9.47741 15.0452 9.43489 15.1302L8 18M12 13.5L14.3751 14.9251C14.4567 14.974 14.5226 15.0452 14.5651 15.1302L16 18M12 13.5V10M12 10H14.7929C14.9255 10 15.0527 9.94732 15.1464 9.85355L16.4021 8.59793C16.4662 8.53385 16.5116 8.45356 16.5336 8.36564L17 6.5M12 10H9.15139C9.05268 10 8.95617 10.0292 8.87404 10.084L7.58321 10.9445C7.52828 10.9811 7.48115 11.0283 7.44453 11.0832L6.5 12.5M5 3H19C20.1046 3 21 3.89543 21 5V19C21 20.1046 20.1046 21 19 21H5C3.89543 21 3 20.1046 3 19V5C3 3.89543 3.89543 3 5 3Z" stroke="white" stroke-width="1.3" stroke-linecap="round"/>
</svg>
