<svg width="24" height="24" viewBox="0 0 24 24" fill="none" xmlns="http://www.w3.org/2000/svg">
<path d="M8.5 21H5M5 21C4.46957 21 3.96086 20.7893 3.58579 20.4142C3.21071 20.0391 3 19.5304 3 19V5C3 4.46957 3.21071 3.96086 3.58579 3.58579C3.96086 3.21071 4.46957 3 5 3H19C19.5304 3 20.0391 3.21071 20.4142 3.58579C20.7893 3.96086 21 4.46957 21 5V9M5 21L14.086 11.914C14.4586 11.5415 14.9632 11.331 15.4901 11.3284M18.5 13.7503L20.5 15.7503M11 9C11 10.1046 10.1046 11 9 11C7.89543 11 7 10.1046 7 9C7 7.89543 7.89543 7 9 7C10.1046 7 11 7.89543 11 9ZM21.5871 14.6562C21.8514 14.3919 22 14.0334 22 13.6596C22 13.2858 21.8516 12.9273 21.5873 12.6629C21.323 12.3986 20.9645 12.25 20.5907 12.25C20.2169 12.25 19.8584 12.3984 19.594 12.6627L12.921 19.3373C12.8049 19.453 12.719 19.5955 12.671 19.7523L12.0105 21.9283C11.9975 21.9715 11.9966 22.0175 12.0076 22.0612C12.0187 22.105 12.0414 22.1449 12.0734 22.1768C12.1053 22.2087 12.1453 22.2313 12.189 22.2423C12.2328 22.2533 12.2787 22.2523 12.322 22.2393L14.4985 21.5793C14.6551 21.5317 14.7976 21.4463 14.9135 21.3308L21.5871 14.6562Z" stroke="#8A8A8A" stroke-width="1.3" stroke-linecap="round" stroke-linejoin="round"/>
</svg>
