<svg width="24" height="24" viewBox="0 0 24 24" fill="none" xmlns="http://www.w3.org/2000/svg">
<path d="M3.30005 7L12 12M12 12L20.7001 7M12 12L12 19.1883M12 22L12 19.1883M4.85692 18.2196L4 17.7299C3.69626 17.5545 3.44398 17.3024 3.26846 16.9987C3.09294 16.6951 3.00036 16.3506 3 15.9999V7.9999C3.00036 7.64918 3.09294 7.30471 3.26846 7.00106C3.44398 6.69742 3.69626 6.44526 4 6.2699L11 2.2699C11.304 2.09437 11.6489 2.00195 12 2.00195C12.3511 2.00195 12.696 2.09437 13 2.2699L20 6.2699C20.3037 6.44526 20.556 6.69742 20.7315 7.00106C20.9071 7.30471 20.9996 7.64918 21 7.9999V11M4.85692 18.2196L11 21.7299C11.304 21.9054 11.6489 21.9979 12 21.9979C12.3511 21.9979 12.696 21.9054 13 21.7299L15.2959 20.4179M4.85692 18.2196L8.05312 16.6917C8.89859 16.2875 9.91132 16.5246 10.4896 17.262L12 19.1883M17.709 18.9722L21.7645 17.7261L20.5184 13.6706M21.7645 17.7261L16.9047 15.1508M7.44718 13.3014C7.35081 13.9871 6.76393 14.3058 6.13635 14.0131C5.50876 13.7205 5.07813 12.9273 5.1745 12.2416C5.27087 11.5559 5.85776 11.2372 6.48534 11.5299C7.11292 11.8225 7.54356 12.6157 7.44718 13.3014Z" stroke="white" stroke-width="1.3" stroke-linecap="round" stroke-linejoin="round"/>
</svg>
