<svg width="48" height="24" viewBox="0 0 48 24" fill="none" xmlns="http://www.w3.org/2000/svg">
<path d="M31.5 5.25659V2.25659C31.5 1.01534 30.4913 0.0065918 29.25 0.0065918H15.75C14.5087 0.0065918 13.5 1.01534 13.5 2.25659V5.25659C13.5 6.49785 14.5087 7.50659 15.75 7.50659H29.25C30.4913 7.50659 31.5 6.49785 31.5 5.25659Z" fill="#8A8A8A"/>
<path d="M21.75 15.0066C20.5087 15.0066 19.5 16.0153 19.5 17.2566V21.7434C19.5 22.9846 20.5087 23.9934 21.75 23.9934C22.9913 23.9934 24 22.9846 24 21.7434V17.2566C24 16.0153 22.9913 15.0066 21.75 15.0066Z" fill="#8A8A8A"/>
<path d="M33 3.51276V9.0066C33 9.42004 32.6634 9.7566 32.25 9.7566H23.25C22.0087 9.7566 21 10.7653 21 12.0066V13.5825C21.2419 13.5328 21.4931 13.5066 21.75 13.5066C22.0069 13.5066 22.2581 13.5328 22.5 13.5825V12.0066C22.5 11.5931 22.8366 11.2566 23.25 11.2566H32.25C33.4913 11.2566 34.5 10.2479 34.5 9.0066V5.63172C34.5 4.65484 33.8719 3.82212 33 3.51276Z" fill="#8A8A8A"/>
</svg>
