<svg width="48" height="24" viewBox="0 0 48 24" fill="none" xmlns="http://www.w3.org/2000/svg">
<g clip-path="url(#clip0_1683_13339)">
<path fill-rule="evenodd" clip-rule="evenodd" d="M21.8111 0.763488C22.0544 0.680752 22.3219 0.694326 22.5572 0.804504L24.2105 1.57892L25.3502 0.86798L25.4605 0.80841C25.7263 0.685595 26.0353 0.68534 26.3043 0.81134L28.3394 1.76446C28.7393 1.95203 28.9116 2.42892 28.7242 2.82892C28.5366 3.22887 28.0597 3.40119 27.6597 3.21368L25.9205 2.39825L24.7994 3.09943V5.68927H28.8726C29.2124 5.68941 29.5256 5.86158 29.7086 6.14044L29.7789 6.26642L31.7134 10.4129C31.7319 10.4525 31.7482 10.4934 31.7613 10.535L31.7925 10.6629L32.7877 16.3514C32.8637 16.7865 32.5724 17.201 32.1373 17.2772C31.7022 17.3531 31.2876 17.0619 31.2115 16.6268L30.23 11.0174L28.4898 7.28888H24.7994V12.4891C24.7994 12.5583 24.7895 12.6252 24.773 12.6893H25.5162C25.8633 12.6893 26.1818 12.8688 26.3629 13.157L26.4312 13.2869L28.2476 17.4227C28.2921 17.5239 28.3195 17.6318 28.3287 17.742L28.7964 23.4236C28.8326 23.8639 28.5053 24.2497 28.065 24.2859C27.6248 24.322 27.239 23.9947 27.2027 23.5545L26.7418 17.9734L25.1236 14.2889H23.2964L21.2535 18.0096L20.7964 23.5545C20.7602 23.9948 20.3744 24.3221 19.9341 24.2859C19.494 24.2496 19.1666 23.8638 19.2027 23.4236L19.6695 17.7518L19.6832 17.6473C19.7027 17.5443 19.7389 17.4446 19.7896 17.3524L22.065 13.2078L22.1382 13.0936C22.3251 12.8415 22.622 12.6895 22.941 12.6893H23.2261C23.2096 12.6253 23.1998 12.5582 23.1998 12.4891V7.28888H19.9586L17.7593 11.0584L16.7857 16.1629C16.7029 16.5969 16.2832 16.8815 15.8492 16.7986C15.4156 16.7156 15.1308 16.2968 15.2134 15.8631L16.2076 10.658L16.2535 10.4949C16.2733 10.4422 16.2973 10.3905 16.3257 10.3416L18.7505 6.18536C18.9297 5.87821 19.2592 5.68933 19.6148 5.68927H23.1998V2.87189L22.1324 2.37189L20.3394 3.21368C19.9394 3.40112 19.4625 3.22884 19.275 2.82892C19.0876 2.42898 19.2599 1.95204 19.6597 1.76446L21.7086 0.804504L21.8111 0.763488Z" fill="#8A8A8A"/>
</g>
<defs>
<clipPath id="clip0_1683_13339">
<rect width="48" height="24" fill="white"/>
</clipPath>
</defs>
</svg>
