<svg width="48" height="24" viewBox="0 0 48 24" fill="none" xmlns="http://www.w3.org/2000/svg">
<path d="M31.6737 13.2531L37.0537 7.87977C37.2291 7.69873 37.4387 7.5544 37.6704 7.45517C37.9021 7.35595 38.1512 7.30382 38.4033 7.30182C38.6553 7.29982 38.9052 7.34798 39.1385 7.44351C39.3717 7.53904 39.5836 7.68003 39.7619 7.85825C39.9401 8.03648 40.0811 8.24839 40.1766 8.48164C40.2721 8.71488 40.3203 8.96481 40.3183 9.21685C40.3163 9.46889 40.2642 9.71802 40.1649 9.94972C40.0657 10.1814 39.9214 10.3911 39.7403 10.5664L34.367 15.9531M30.347 15.2798C29.2403 15.2798 28.347 16.1798 28.347 17.2931C28.347 18.1798 26.6803 18.3065 27.0137 18.6398C27.7337 19.3731 28.6737 19.9865 29.6803 19.9865C31.147 19.9865 32.347 18.7865 32.347 17.2931C32.3479 17.0296 32.2968 16.7685 32.1968 16.5247C32.0968 16.2809 31.9497 16.0592 31.764 15.8722C31.5783 15.6853 31.3575 15.5367 31.1144 15.4351C30.8713 15.3334 30.6105 15.2807 30.347 15.2798Z" stroke="#8A8A8A" stroke-width="1.3" stroke-linecap="round" stroke-linejoin="round"/>
<path d="M24.6289 0C27.5839 0.000217454 29.9999 2.46547 30 5.52832V11.5L28.0957 13.4043V5.52832C28.0956 3.56289 26.5694 1.9797 24.6289 1.97949H11.3711C9.4306 1.9797 7.90438 3.56289 7.9043 5.52832V13.4717C7.90437 15.4371 9.4306 17.0203 11.3711 17.0205H24.5V19H11.3711C8.41613 18.9998 6.00008 16.5345 6 13.4717V5.52832C6.00008 2.46547 8.41613 0.000217456 11.3711 0H24.6289ZM15.2559 4.49414C15.4185 4.49956 15.578 4.55256 15.7158 4.64648L21.793 8.61816C22.1122 8.82076 22.2295 9.19571 22.2295 9.5C22.2295 9.80434 22.1113 10.1792 21.792 10.3818L15.7168 14.3535C15.4268 14.5509 15.0492 14.5538 14.7568 14.3643L14.7539 14.3623C14.4655 14.1718 14.2938 13.8161 14.3027 13.46V5.52832C14.296 5.02308 14.6729 4.52218 15.1836 4.49512L15.2559 4.49414ZM16.1641 11.668L19.4922 9.49902L16.1641 7.32422V11.668Z" fill="#8A8A8A"/>
</svg>
