<svg width="48" height="24" viewBox="0 0 48 24" fill="none" xmlns="http://www.w3.org/2000/svg">
<path d="M33.6737 13.2531L39.0537 7.87977C39.2291 7.69873 39.4387 7.5544 39.6704 7.45517C39.9021 7.35595 40.1512 7.30382 40.4033 7.30182C40.6553 7.29982 40.9052 7.34798 41.1385 7.44351C41.3717 7.53904 41.5836 7.68003 41.7619 7.85825C41.9401 8.03648 42.0811 8.24839 42.1766 8.48164C42.2721 8.71488 42.3203 8.96481 42.3183 9.21685C42.3163 9.46889 42.2642 9.71802 42.1649 9.94972C42.0657 10.1814 41.9214 10.3911 41.7403 10.5664L36.367 15.9531M32.347 15.2798C31.2403 15.2798 30.347 16.1798 30.347 17.2931C30.347 18.1798 28.6803 18.3065 29.0137 18.6398C29.7337 19.3731 30.6737 19.9865 31.6803 19.9865C33.147 19.9865 34.347 18.7865 34.347 17.2931C34.3479 17.0296 34.2968 16.7685 34.1968 16.5247C34.0968 16.2809 33.9497 16.0592 33.764 15.8722C33.5783 15.6853 33.3575 15.5367 33.1144 15.4351C32.8713 15.3334 32.6105 15.2807 32.347 15.2798Z" stroke="#8A8A8A" stroke-width="1.3" stroke-linecap="round" stroke-linejoin="round"/>
<path d="M30.1738 3C31.1714 3 31.9998 3.79837 32 4.75977V11.1914L30.4355 12.5156V4.75977C30.4354 4.6077 30.3317 4.50879 30.1738 4.50879H9.82617C9.6683 4.50879 9.56554 4.60767 9.56543 4.75977V14.3848L15.8994 10.1738C16.0053 10.1012 16.1295 10.0548 16.2578 10.04C16.4637 10.0184 16.6769 10.0794 16.8369 10.2051L21.8584 14.126L25.5596 11.6748C25.8347 11.4961 26.2314 11.5125 26.4893 11.7139L29.0508 13.6875L27.8545 14.6992L26.5107 13.6631L27.4463 15.2842L27.0977 17.1406L25.1533 13.7725L23.6758 14.7529L26.1816 19.0918H26.7324L26.4502 20.6006H9.82617C8.82854 20.6006 8 19.8014 8 18.8398V4.75977C8.00017 3.79837 8.82864 3 9.82617 3H30.1738ZM9.56543 18.8398C9.56543 18.9921 9.66822 19.0918 9.82617 19.0918H11.0283L9.56543 16.5576V18.8398ZM10.4521 15.6338L12.4492 19.0918H14.4922L11.9287 14.6523L10.4521 15.6338ZM12.9551 13.9697L15.9131 19.0918H17.9561L14.4316 12.9883L12.9551 13.9697ZM15.459 12.3057L19.3779 19.0918H21.4209L17.877 12.9541L20.459 14.9668L22.8408 19.0918H24.7598L22.6484 15.4355L22.2666 15.6895C21.9915 15.8682 21.5947 15.8517 21.3369 15.6504L16.3154 11.7373L15.459 12.3057ZM21.8262 6.52051C23.1132 6.52051 24.1738 7.54274 24.1738 8.7832C24.1737 10.0236 23.1131 11.0459 21.8262 11.0459C20.5393 11.0458 19.4786 10.0235 19.4785 8.7832C19.4785 7.54278 20.5392 6.52057 21.8262 6.52051ZM21.8262 8.02832C21.385 8.02838 21.0439 8.35797 21.0439 8.7832C21.0441 9.20833 21.3851 9.53705 21.8262 9.53711C22.2673 9.53711 22.6093 9.20837 22.6094 8.7832C22.6094 8.35793 22.2674 8.02832 21.8262 8.02832Z" fill="#8A8A8A"/>
</svg>
