<svg width="48" height="24" viewBox="0 0 48 24" fill="none" xmlns="http://www.w3.org/2000/svg">
<path d="M22.0936 7.58276L16.0996 15.7728C15.9586 15.9654 15.8911 16.2022 15.9095 16.4403C15.9278 16.6783 16.0307 16.902 16.1996 17.0708L17.0166 17.8888C17.1879 18.0599 17.4156 18.1631 17.6573 18.1791C17.8989 18.1951 18.1382 18.1228 18.3306 17.9758L26.1836 11.9818M27.5935 21.1557C26.5935 20.4817 25.4655 19.9817 24.0935 19.9817C22.0355 19.9817 20.1655 22.3377 18.0935 21.9817C16.0215 21.6257 15.3185 18.6127 16.5935 17.4817M32.0935 6.98169C32.0935 9.74311 29.8549 11.9817 27.0935 11.9817C24.3321 11.9817 22.0935 9.74311 22.0935 6.98169C22.0935 4.22027 24.3321 1.98169 27.0935 1.98169C29.8549 1.98169 32.0935 4.22027 32.0935 6.98169Z" stroke="#8A8A8A" stroke-width="1.95" stroke-linecap="round" stroke-linejoin="round"/>
</svg>
