<svg width="48" height="24" viewBox="0 0 48 24" fill="none" xmlns="http://www.w3.org/2000/svg">
<path fill-rule="evenodd" clip-rule="evenodd" d="M46.6309 5C47.379 5.00009 48 5.59922 48 6.32031V16.8799C48 17.601 47.379 18.2001 46.6309 18.2002H31.3691C30.6211 18.2 30 17.6009 30 16.8799V6.32031C30 5.59931 30.6211 5.00024 31.3691 5H46.6309ZM31.1738 14.918V16.8799C31.1738 16.9939 31.2509 17.0682 31.3691 17.0684H46.6309C46.7492 17.0682 46.8262 16.994 46.8262 16.8799V15.2656L43.4697 12.6787L40.7002 14.5166C40.4938 14.6507 40.1963 14.6383 40.0029 14.4873L36.2363 11.5527L31.1738 14.918ZM31.3691 6.13184C31.2509 6.13202 31.1738 6.20628 31.1738 6.32031V13.5391L35.9248 10.3799C36.0042 10.3255 36.0973 10.2913 36.1934 10.2803C36.3477 10.2641 36.5079 10.3091 36.6279 10.4033L40.3945 13.3447L43.1699 11.5059C43.3763 11.3718 43.6738 11.3841 43.8672 11.5352L46.8262 13.8154V6.32031C46.8262 6.20619 46.7492 6.13191 46.6309 6.13184H31.3691ZM40.3701 7.63965C41.3351 7.63986 42.1307 8.40682 42.1309 9.33691C42.1309 10.2671 41.3352 11.034 40.3701 11.0342C39.4048 11.0342 38.6084 10.2673 38.6084 9.33691C38.6086 8.4067 39.4049 7.63965 40.3701 7.63965ZM40.3701 8.77148C40.0393 8.77148 39.7834 9.0181 39.7832 9.33691C39.7832 9.65587 40.0392 9.90332 40.3701 9.90332C40.7009 9.90312 40.957 9.65574 40.957 9.33691C40.9569 9.01823 40.7008 8.77168 40.3701 8.77148Z" fill="#8A8A8A"/>
<path fill-rule="evenodd" clip-rule="evenodd" d="M28.0243 11.7215C28.2585 11.9557 28.2585 12.3358 28.0243 12.5701L25.4794 15.116C25.2452 15.3501 24.8651 15.3499 24.6308 15.116C24.3965 14.8817 24.3965 14.5017 24.6308 14.2674L26.1483 12.7498L18.6005 12.7498C18.2691 12.7498 17.9999 12.4815 17.9999 12.1502C17.9999 11.8188 18.2691 11.5506 18.6005 11.5506L26.1571 11.5506L24.6308 10.0242C24.3964 9.78987 24.3964 9.40987 24.6308 9.17555C24.8651 8.9416 25.2452 8.94136 25.4794 9.17555L28.0243 11.7215Z" fill="#8A8A8A"/>
<path d="M17.1523 16.3271C17.1523 16.5005 17.0912 16.6844 16.9463 16.8242C16.8031 16.9622 16.6216 17.0156 16.457 17.0156H1.19531C0.911144 17.0155 0.618719 16.8504 0.526367 16.5225C0.514126 16.479 0.507988 16.4338 0.507812 16.3887L0.5 14.3672C0.499346 14.1991 0.583623 14.0413 0.723633 13.9482L5.78613 10.584L5.85547 10.5449C6.02284 10.4687 6.22164 10.4898 6.37012 10.6055L10.1367 13.54L10.1611 13.5518C10.1808 13.5572 10.2058 13.5585 10.2266 13.5547L10.2539 13.5449L13.0195 11.709L13.0889 11.6709C13.2553 11.5951 13.4523 11.6153 13.6006 11.7295L16.958 14.3164C17.0807 14.4111 17.1523 14.5579 17.1523 14.7129V16.3271Z" stroke="#8A8A8A" stroke-linejoin="round"/>
<path d="M1.76074 6C2.72603 6 3.52148 6.76692 3.52148 7.69727C3.52143 8.62757 2.72599 9.39453 1.76074 9.39453C0.795561 9.39445 5.54527e-05 8.62752 0 7.69727C0 6.76697 0.795528 6.00008 1.76074 6ZM1.76074 7.13184C1.42989 7.13191 1.17383 7.37836 1.17383 7.69727C1.17393 8.01607 1.42996 8.26262 1.76074 8.2627C2.09161 8.2627 2.34755 8.01613 2.34766 7.69727C2.34766 7.37831 2.09167 7.13184 1.76074 7.13184Z" fill="#8A8A8A"/>
</svg>
