<svg width="24" height="24" viewBox="0 0 24 24" fill="none" xmlns="http://www.w3.org/2000/svg">
<path d="M22 18L19.9427 15.9426C19.6926 15.6927 19.3536 15.5522 19 15.5522C18.6464 15.5522 18.3074 15.6927 18.0573 15.9426L12 22M10 17V20.6667C10 21.403 10.597 22 11.3333 22H20.6667C21.403 22 22 21.403 22 20.6667V11.3333C22 10.5969 21.403 9.99999 20.6667 9.99999H17M10.4103 7.96658L13.696 9.84327C13.7883 9.89557 13.8651 9.9714 13.9185 10.063C13.9719 10.1547 14 10.2588 14 10.3649C14 10.471 13.9719 10.5751 13.9185 10.6668C13.8651 10.7584 13.7883 10.8343 13.696 10.8865L8.59958 13.8065C8.41729 13.9118 8.2105 13.9672 8 13.9672C7.7895 13.9672 7.58271 13.9118 7.40042 13.8065L2.30396 10.8865C2.21168 10.8343 2.13493 10.7584 2.08153 10.6668C2.02813 10.5751 2 10.471 2 10.3649C2 10.2588 2.02813 10.1547 2.08153 10.063C2.13493 9.9714 2.21168 9.89557 2.30396 9.84327L5.58967 7.96658M5 18L7 20L5 22M7 20H4C3.46957 20 2.96086 19.7893 2.58579 19.4142C2.21071 19.0391 2 18.5304 2 18V17M8.59958 9.00979C8.41729 9.11504 8.2105 9.17044 8 9.17044C7.7895 9.17044 7.58271 9.11504 7.40042 9.00979L2.30396 6.08982C2.21168 6.03752 2.13493 5.96169 2.08153 5.87005C2.02813 5.77841 2 5.67424 2 5.56818C2 5.46212 2.02813 5.35795 2.08153 5.26631C2.13493 5.17467 2.21168 5.09884 2.30396 5.04654L7.40042 2.12657C7.58271 2.02132 7.7895 1.96591 8 1.96591C8.2105 1.96591 8.41729 2.02132 8.59958 2.12657L13.696 5.04654C13.7883 5.09884 13.8651 5.17467 13.9185 5.26631C13.9719 5.35795 14 5.46212 14 5.56818C14 5.67424 13.9719 5.77841 13.9185 5.87005C13.8651 5.96169 13.7883 6.03752 13.696 6.08982L8.59958 9.00979Z" stroke="white" stroke-width="1.3" stroke-linecap="round" stroke-linejoin="round"/>
</svg>
