<svg width="48" height="24" viewBox="0 0 48 24" fill="none" xmlns="http://www.w3.org/2000/svg">
<path fill-rule="evenodd" clip-rule="evenodd" d="M23.9551 11.569C24.0223 11.5639 24.0902 11.5717 24.1543 11.5905L24.2178 11.6129L29.5977 13.9469L29.667 13.984C29.821 14.0797 29.9185 14.2476 29.918 14.4313V21.1432C29.9163 21.351 29.7897 21.5385 29.5977 21.6217L24.2178 23.9557C24.0964 24.0081 23.9599 24.0154 23.835 23.9762L23.7822 23.9557L18.4023 21.6207C18.2107 21.537 18.0837 21.3512 18.082 21.1432V14.4313C18.0814 14.2213 18.2084 14.0314 18.4023 13.9469L23.7822 11.6129L23.8662 11.5836C23.8952 11.5763 23.925 11.5714 23.9551 11.569ZM24.1113 23.8951C24.1199 23.893 24.1292 23.8929 24.1377 23.8903L24.1816 23.8737C24.1589 23.8834 24.135 23.8892 24.1113 23.8951ZM19.1582 20.7965L23.4619 22.6657V17.1061L19.1582 15.2379V20.7965ZM24.5381 17.1061V22.6657L28.8418 20.7965V15.2379L24.5381 17.1061ZM19.9473 14.4303L24 16.1891L28.0527 14.4303L24 12.6686L19.9473 14.4303ZM23.7217 0.174444C23.8965 -0.000257044 24.1535 -0.043465 24.3691 0.043585C24.441 0.0726834 24.5091 0.116253 24.5674 0.174444L27.1035 2.71058C27.3368 2.94397 27.3367 3.32286 27.1035 3.55628C26.8701 3.78915 26.4911 3.78945 26.2578 3.55628L24.7471 2.04554V9.56409C24.7467 9.89377 24.4791 10.1615 24.1494 10.1617C23.8197 10.1615 23.5512 9.89373 23.5508 9.56409V2.03675L22.0312 3.55628C21.7978 3.78915 21.4188 3.78945 21.1855 3.55628C20.9528 3.32298 20.9528 2.9439 21.1855 2.71058L23.7217 0.174444Z" fill="#8A8A8A"/>
</svg>
