<svg width="48" height="24" viewBox="0 0 48 24" fill="none" xmlns="http://www.w3.org/2000/svg">
<path d="M31.6309 10.8003C32.379 10.8004 33 11.3996 33 12.1207V22.6802C33 23.4013 32.379 24.0004 31.6309 24.0005H16.3691C15.6211 24.0003 15 23.4012 15 22.6802V12.1207C15 11.3996 15.6211 10.8006 16.3691 10.8003H31.6309ZM16.1738 20.7183V22.6802C16.1738 22.7943 16.2509 22.8686 16.3691 22.8687H31.6309C31.7492 22.8686 31.8262 22.7943 31.8262 22.6802V21.066L28.4697 18.479L25.7002 20.3169C25.4938 20.451 25.1963 20.4386 25.0029 20.2876L21.2363 17.3531L16.1738 20.7183ZM16.3691 11.9312C16.2509 11.9314 16.1738 12.0066 16.1738 12.1207V19.3394L20.9248 16.1802C21.0042 16.1259 21.0973 16.0917 21.1934 16.0806C21.3477 16.0644 21.5079 16.1094 21.6279 16.2037L25.3945 19.1451L28.1699 17.3062C28.3763 17.1721 28.6738 17.1845 28.8672 17.3355L31.8262 19.6158V12.1207C31.8262 12.0065 31.7492 11.9313 31.6309 11.9312H16.3691ZM25.3701 13.44C26.3352 13.4402 27.1308 14.2071 27.1309 15.1373C27.1309 16.0675 26.3352 16.8343 25.3701 16.8345C24.4048 16.8345 23.6084 16.0676 23.6084 15.1373C23.6085 14.207 24.4049 13.44 25.3701 13.44ZM25.3701 14.5718C25.0393 14.5718 24.7833 14.8184 24.7832 15.1373C24.7832 15.4562 25.0392 15.7027 25.3701 15.7027C25.7009 15.7025 25.957 15.4561 25.957 15.1373C25.9569 14.8185 25.7008 14.572 25.3701 14.5718ZM24.1104 0.0112754C24.2235 0.0332536 24.3322 0.0877981 24.4199 0.175338L26.9658 2.72124C27.1999 2.95549 27.1998 3.33559 26.9658 3.56987C26.7316 3.80407 26.3515 3.80398 26.1172 3.56987L24.6006 2.05327V9.60014C24.6006 9.93138 24.3312 10.1996 24 10.1998C23.6688 10.1995 23.4004 9.93135 23.4004 9.60014V2.04253L21.874 3.56987C21.6398 3.80381 21.2606 3.80371 21.0264 3.56987C20.7922 3.33556 20.7921 2.95552 21.0264 2.72124L23.5713 0.175338C23.659 0.0877596 23.7677 0.0332911 23.8809 0.0112754C23.9565 -0.00336574 24.0348 -0.00333736 24.1104 0.0112754Z" fill="#8A8A8A"/>
</svg>
