<svg width="48" height="25" viewBox="0 0 48 25" fill="none" xmlns="http://www.w3.org/2000/svg">
<path d="M28.4741 11.649C30.4688 11.649 32.1001 13.2838 32.1001 15.315V20.5826C32.1001 22.6138 30.4688 24.2486 28.4741 24.2486H19.5259C17.5312 24.2486 15.8999 22.6138 15.8999 20.5826V15.315C15.8999 13.2837 17.5312 11.649 19.5259 11.649H28.4741ZM19.5259 12.9615C18.2159 12.9615 17.1861 14.0115 17.186 15.315V20.5826C17.1861 21.8861 18.2159 22.9361 19.5259 22.9361H28.4741C29.7841 22.9361 30.8139 21.8861 30.814 20.5826V15.315C30.8139 14.0115 29.7841 12.9615 28.4741 12.9615H19.5259ZM22.147 14.6294C22.2569 14.633 22.3654 14.6677 22.4585 14.73L26.5601 17.3638C26.7756 17.4982 26.855 17.747 26.855 17.9488C26.855 18.1506 26.7746 18.3994 26.5591 18.5337L22.4585 21.1675C22.2628 21.2984 22.0083 21.3 21.811 21.1744L21.8091 21.1734C21.6142 21.0471 21.4983 20.811 21.5044 20.5748V15.315C21.4998 14.9799 21.7544 14.6474 22.0991 14.6294H22.147ZM22.7612 19.3873L25.0073 17.9478L22.7612 16.5054V19.3873ZM26.4907 18.233L26.519 18.1929C26.5277 18.179 26.5355 18.1642 26.5425 18.149C26.5286 18.1794 26.5116 18.2082 26.4907 18.233ZM23.312 0.174364C23.4869 -2.2942e-05 23.744 -0.043522 23.9595 0.0435047C24.0313 0.072586 24.0994 0.116224 24.1577 0.174364L26.6938 2.7105C26.927 2.94375 26.9267 3.32274 26.6938 3.5562C26.4604 3.78907 26.0814 3.78937 25.8481 3.5562L24.3374 2.04546V9.56401C24.337 9.89367 24.0694 10.1614 23.7397 10.1617C23.41 10.1615 23.1415 9.89373 23.1411 9.56401V2.03667L21.6216 3.5562C21.3881 3.78907 21.0091 3.78937 20.7759 3.5562C20.5432 3.32289 20.5432 2.94378 20.7759 2.7105L23.312 0.174364Z" fill="#8A8A8A"/>
</svg>
