<svg width="48" height="24" viewBox="0 0 48 24" fill="none" xmlns="http://www.w3.org/2000/svg">
<path fill-rule="evenodd" clip-rule="evenodd" d="M28.8809 12C29.3076 12 29.6533 12.2991 29.6533 12.667V23.333C29.6533 23.7016 29.3077 24 28.8809 24C28.4549 23.9999 28.1094 23.7015 28.1094 23.333V12.667C28.1094 12.2985 28.4548 12.0001 28.8809 12ZM22.5352 12.4297C22.9619 12.4297 23.3076 12.7288 23.3076 13.0967V22.9033C23.3076 23.2712 22.9612 23.5693 22.5352 23.5693C22.1091 23.5693 21.7627 23.2713 21.7627 22.9033V13.0967C21.7627 12.7281 22.1091 12.4297 22.5352 12.4297ZM25.708 14.3652C26.1348 14.3652 26.4805 14.6643 26.4805 15.0322V20.9678C26.4802 21.3355 26.1347 21.6338 25.708 21.6338C25.2823 21.6336 24.9368 21.3354 24.9365 20.9678V15.0322C24.9365 14.6638 25.2821 14.3654 25.708 14.3652ZM16.1885 14.7959C16.6153 14.7959 16.9609 15.095 16.9609 15.4629V20.5371C16.9609 20.9057 16.6145 21.2041 16.1885 21.2041C15.7617 21.204 15.417 20.9056 15.417 20.5371V15.4629C15.417 15.0944 15.7625 14.796 16.1885 14.7959ZM32.0547 14.7959C32.4813 14.7961 32.8262 15.0951 32.8262 15.4629V20.5371C32.8262 20.9055 32.4813 21.2039 32.0547 21.2041C31.6286 21.2041 31.2832 20.9057 31.2832 20.5371V15.4629C31.2832 15.0943 31.6286 14.7959 32.0547 14.7959ZM12.7725 15.6553C13.1992 15.6553 13.5449 15.9543 13.5449 16.3223V19.6768C13.5447 20.0451 13.1984 20.3428 12.7725 20.3428C12.3458 20.3428 12.0003 20.0451 12 19.6768V16.3223C12 15.9537 12.3457 15.6553 12.7725 15.6553ZM19.3623 15.6553C19.7889 15.6555 20.1338 15.9545 20.1338 16.3223V19.6768C20.1336 20.045 19.7881 20.3426 19.3623 20.3428C18.9356 20.3428 18.59 20.0452 18.5898 19.6768V16.3223C18.5898 15.9537 18.9355 15.6553 19.3623 15.6553ZM35.2285 15.6553C35.6552 15.6554 36 15.9544 36 16.3223V19.6768C35.9997 20.045 35.6543 20.3427 35.2285 20.3428C34.8019 20.3428 34.4563 20.0451 34.4561 19.6768V16.3223C34.4561 15.9537 34.8017 15.6553 35.2285 15.6553Z" fill="#8A8A8A"/>
<path fill-rule="evenodd" clip-rule="evenodd" d="M24.2595 0.0109778C24.3727 0.0328866 24.4813 0.0875782 24.5691 0.17504L27.115 2.72094C27.3493 2.95522 27.3492 3.33525 27.115 3.56957C26.8807 3.80389 26.5007 3.80389 26.2664 3.56957L24.7498 2.05297V9.59984C24.7498 9.93112 24.4814 10.2003 24.1501 10.2004C23.8188 10.2004 23.5496 9.93122 23.5496 9.59984V2.04223L22.0232 3.56957C21.7889 3.80363 21.4098 3.80362 21.1755 3.56957C20.9416 3.33522 20.9414 2.95512 21.1755 2.72094L23.7205 0.17504C23.8081 0.0874084 23.9169 0.0330238 24.03 0.0109778C24.1056 -0.00371393 24.1839 -0.00360448 24.2595 0.0109778Z" fill="#8A8A8A"/>
</svg>
