<svg width="48" height="24" viewBox="0 0 48 24" fill="none" xmlns="http://www.w3.org/2000/svg">
<path d="M25.12 4.65979C26.0073 3.75304 27.4985 3.73975 28.3787 4.65979L31.3397 7.62073H31.3387C32.2523 8.49397 32.253 10.0028 31.3182 10.8785L31.3192 10.8795L23.62 18.5797L22.5096 19.6891V7.27112L22.7 7.08069L25.12 4.65979Z" stroke="#8A8A8A" stroke-width="1.3"/>
<path d="M32.3396 13.8499C33.6177 13.8499 34.65 14.8804 34.6501 16.1594V20.3401C34.6501 21.6199 33.618 22.6506 32.3396 22.6506H20.3503L21.4597 21.5403L29.1501 13.8499H32.3396Z" stroke="#8A8A8A" stroke-width="1.3"/>
<path d="M17.7604 17.2496C17.1991 17.2496 16.7498 17.6986 16.7497 18.2594C16.7497 18.8208 17.1995 19.2701 17.7604 19.2701C18.3065 19.2699 18.7702 18.8157 18.7702 18.2594C18.7701 17.6982 18.3211 17.2499 17.7604 17.2496ZM22.1706 18.2399C22.1706 20.6987 20.2192 22.6498 17.7604 22.65C15.2992 22.65 13.3493 20.677 13.3493 18.2399V3.65979C13.3494 2.38005 14.3815 1.34933 15.6598 1.34924H19.8405C21.1222 1.34934 22.1421 2.38132 22.1706 3.64514V18.2399Z" stroke="#8A8A8A" stroke-width="1.3"/>
</svg>
