<svg width="512" height="512" viewBox="0 0 512 512" fill="none" xmlns="http://www.w3.org/2000/svg">
<g clip-path="url(#clip0_1484_17507)">
<path fill-rule="evenodd" clip-rule="evenodd" d="M419.563 282.517C419.627 282.517 419.627 282.517 419.563 282.517C431.125 256.512 439.488 231.872 442.688 211.221C446.784 184.832 442.859 164.011 430.912 149.291C416.619 131.648 394.347 126.741 372.117 126.571C355.776 126.571 336.64 129.408 316.203 134.208C301.803 78.8267 272.256 0 216.789 0C152.683 0 101.824 113.429 72.064 213.248C61.1626 249.941 42.6666 322.859 42.6666 358.677C42.6666 443.2 109.504 512 191.659 512C284.672 512 462.592 452.267 462.592 358.677C462.592 329.771 445.675 304.213 419.563 282.517ZM371.989 160.491C383.573 160.576 399.232 162.112 406.336 171.584C412.779 180.203 412.16 194.987 410.475 205.824C407.531 224.896 399.915 245.845 392.448 263.424C374.059 252.295 354.711 242.835 334.635 235.157C331.949 212.332 328.32 189.628 323.755 167.104C341.632 162.923 358.123 160.491 371.989 160.491ZM338.368 272.811C352.235 278.869 365.397 285.525 378.304 293.589C367 315.774 354.517 337.337 340.907 358.187C341.739 336.213 341.12 306.24 338.368 272.811ZM300.331 223.381C270.421 214.421 240.576 208.597 214.613 206.379C239.818 194.534 265.756 184.316 292.267 175.787C295.445 191.424 298.112 207.488 300.331 223.381ZM125.803 155.563C155.712 79.36 189.803 33.8987 216.981 33.8987C251.819 33.8987 275.584 107.989 284.715 142.869C249.773 153.916 215.784 167.779 183.083 184.32C151.509 200.192 119.808 221.397 98.3893 239.211C105.088 212.075 119.296 172.309 125.803 155.563ZM190.869 478.101C127.083 477.675 75.3493 424.235 75.3493 358.677C75.3493 292.757 127.531 239.189 191.701 239.189C224.704 239.189 265.899 246.976 304.683 259.883C308.949 303.616 309.803 343.68 307.627 369.131C302.165 433.173 247.616 477.931 190.869 478.101ZM345.408 441.365C332.907 447.125 319.659 452.373 306.048 456.939C338.944 422.016 376.896 367.061 404.693 313.429C421.035 328.427 429.931 343.893 429.931 358.656C429.973 386.411 399.125 416.555 345.408 441.365Z" fill="#B6B6B6"/>
</g>
<defs>
<clipPath id="clip0_1484_17507">
<rect width="512" height="512" fill="white"/>
</clipPath>
</defs>
</svg>
