<svg width="24" height="24" viewBox="0 0 24 24" fill="none" xmlns="http://www.w3.org/2000/svg">
<path d="M9.72252 3.06471C9.75827 2.70751 9.49768 2.38896 9.14048 2.35322C8.78328 2.31747 8.46473 2.57806 8.42898 2.93526L9.07575 2.99998L9.72252 3.06471ZM21.0718 15.56C21.4285 15.5204 21.6857 15.1991 21.6461 14.8423C21.6065 14.4855 21.2851 14.2284 20.9283 14.268L21 14.914L21.0718 15.56ZM9.29041 7.79037C9.03657 8.04421 9.03657 8.45576 9.29041 8.7096C9.54425 8.96344 9.95581 8.96344 10.2097 8.7096L9.75003 8.24998L9.29041 7.79037ZM15.4597 3.4596C15.7135 3.20576 15.7135 2.79421 15.4597 2.54037C15.2058 2.28652 14.7943 2.28652 14.5404 2.54037L15 2.99998L15.4597 3.4596ZM11.5404 11.5404L11.0808 12L12 12.9192L12.4597 12.4596L12 12L11.5404 11.5404ZM19.2097 5.7096C19.4635 5.45576 19.4635 5.04421 19.2097 4.79037C18.9558 4.53652 18.5443 4.53652 18.2904 4.79037L18.75 5.24998L19.2097 5.7096ZM15.2904 13.7904C15.0366 14.0442 15.0366 14.4558 15.2904 14.7096C15.5443 14.9634 15.9558 14.9634 16.2097 14.7096L15.75 14.25L15.2904 13.7904ZM21.4597 9.4596C21.7135 9.20576 21.7135 8.79421 21.4597 8.54037C21.2058 8.28652 20.7943 8.28652 20.5404 8.54037L21 8.99998L21.4597 9.4596ZM1.35 12C1.35 12.359 1.64101 12.65 2 12.65C2.35899 12.65 2.65 12.359 2.65 12H2H1.35ZM15.7398 20.5723C15.4108 20.716 15.2606 21.0992 15.4044 21.4282C15.5481 21.7571 15.9313 21.9073 16.2602 21.7635L16 21.1679L15.7398 20.5723ZM2.03128 18.6735L1.42191 18.8997C1.4246 18.9069 1.42743 18.9142 1.43038 18.9213L2.03128 18.6735ZM2.03128 18.3255L1.43038 18.0777C1.42743 18.0848 1.4246 18.0921 1.42191 18.0993L2.03128 18.3255ZM11.9688 18.3255L12.5782 18.0993C12.5755 18.0921 12.5726 18.0848 12.5697 18.0777L11.9688 18.3255ZM11.9688 18.6735L12.5697 18.9213C12.5726 18.9142 12.5755 18.9069 12.5782 18.8997L11.9688 18.6735ZM9.07575 2.99998L8.42898 2.93526C8.01458 7.07604 9.25668 10.461 11.6083 12.7037C13.9543 14.9412 17.3344 15.9749 21.0718 15.56L21 14.914L20.9283 14.268C17.5111 14.6473 14.5317 13.6954 12.5055 11.763C10.4848 9.83582 9.34203 6.8666 9.72252 3.06471L9.07575 2.99998ZM9.75003 8.24998L10.2097 8.7096L15.4597 3.4596L15 2.99998L14.5404 2.54037L9.29041 7.79037L9.75003 8.24998ZM12 12L12.4597 12.4596L19.2097 5.7096L18.75 5.24998L18.2904 4.79037L11.5404 11.5404L12 12ZM15.75 14.25L16.2097 14.7096L21.4597 9.4596L21 8.99998L20.5404 8.54037L15.2904 13.7904L15.75 14.25ZM2 12H2.65C2.65 6.83614 6.83614 2.65 12 2.65V2V1.35C6.11817 1.35 1.35 6.11817 1.35 12H2ZM12 2V2.65C17.1639 2.65 21.35 6.83614 21.35 12H22H22.65C22.65 6.11817 17.8818 1.35 12 1.35V2ZM22 12H21.35C21.35 15.8331 19.0434 19.1289 15.7398 20.5723L16 21.1679L16.2602 21.7635C20.0203 20.1207 22.65 16.3682 22.65 12H22ZM2.03128 18.6735L2.64065 18.4473C2.65316 18.481 2.65316 18.518 2.64065 18.5517L2.03128 18.3255L1.42191 18.0993C1.32607 18.3575 1.32607 18.6415 1.42191 18.8997L2.03128 18.6735ZM2.03128 18.3255L2.63218 18.5733C2.98893 17.7083 3.5945 16.9687 4.3721 16.4483L4.01057 15.9081L3.64903 15.3679C2.65747 16.0315 1.88529 16.9747 1.43038 18.0777L2.03128 18.3255ZM4.01057 15.9081L4.3721 16.4483C5.14971 15.9278 6.06433 15.65 7.00003 15.65V15V14.35C5.80688 14.35 4.64059 14.7043 3.64903 15.3679L4.01057 15.9081ZM7.00003 15V15.65C7.93573 15.65 8.85035 15.9278 9.62796 16.4483L9.98949 15.9081L10.351 15.3679C9.35947 14.7043 8.19318 14.35 7.00003 14.35V15ZM9.98949 15.9081L9.62796 16.4483C10.4056 16.9687 11.0111 17.7083 11.3679 18.5733L11.9688 18.3255L12.5697 18.0777C12.1148 16.9747 11.3426 16.0315 10.351 15.3679L9.98949 15.9081ZM11.9688 18.3255L11.3594 18.5517C11.3469 18.518 11.3469 18.481 11.3594 18.4473L11.9688 18.6735L12.5782 18.8997C12.674 18.6415 12.674 18.3575 12.5782 18.0993L11.9688 18.3255ZM11.9688 18.6735L11.3679 18.4257C11.0111 19.2907 10.4056 20.0303 9.62796 20.5507L9.98949 21.0909L10.351 21.6311C11.3426 20.9675 12.1148 20.0243 12.5697 18.9213L11.9688 18.6735ZM9.98949 21.0909L9.62796 20.5507C8.85035 21.0712 7.93573 21.349 7.00003 21.349V21.999V22.649C8.19318 22.649 9.35947 22.2947 10.351 21.6311L9.98949 21.0909ZM7.00003 21.999V21.349C6.06433 21.349 5.14971 21.0712 4.3721 20.5507L4.01057 21.0909L3.64903 21.6311C4.64059 22.2947 5.80688 22.649 7.00003 22.649V21.999ZM4.01057 21.0909L4.3721 20.5507C3.5945 20.0303 2.98893 19.2907 2.63218 18.4257L2.03128 18.6735L1.43038 18.9213C1.88529 20.0243 2.65747 20.9675 3.64903 21.6311L4.01057 21.0909ZM8.49995 18.4994H7.84995C7.84995 18.9688 7.46942 19.3494 7.00002 19.3494V19.9994V20.6494C8.18739 20.6494 9.14995 19.6868 9.14995 18.4994H8.49995ZM7.00002 19.9994V19.3494C6.53062 19.3494 6.1501 18.9688 6.1501 18.4994H5.5001H4.8501C4.8501 19.6868 5.81265 20.6494 7.00002 20.6494V19.9994ZM5.5001 18.4994H6.1501C6.1501 18.03 6.53062 17.6495 7.00002 17.6495V16.9995V16.3495C5.81265 16.3495 4.8501 17.3121 4.8501 18.4994H5.5001ZM7.00002 16.9995V17.6495C7.46942 17.6495 7.84995 18.03 7.84995 18.4994H8.49995H9.14995C9.14995 17.3121 8.18739 16.3495 7.00002 16.3495V16.9995Z" fill="#8A8A8A"/>
</svg>
