<svg width="512" height="512" viewBox="0 0 512 512" fill="none" xmlns="http://www.w3.org/2000/svg">
<g clip-path="url(#clip0_1485_17648)">
<path d="M77.2098 19.4619C78.2934 20.5687 82.6957 43.8103 87.369 48.6664C92.0422 53.5225 108.455 55.9167 114.844 59.395C116.853 60.4792 120.962 61.1794 117.711 64.4092C116.56 65.5386 89.1073 71.6144 86.7594 73.9408C85.3823 75.296 77.0066 108.182 72.7849 104.884C70.0532 98.4924 65.4929 78.4355 61.4969 74.5506C57.7493 70.9142 41.6978 67.7972 35.4894 64.6125C33.7511 63.7316 28.4457 63.822 32.3062 59.9371C34.3606 57.8817 57.7719 52.8449 61.4743 49.7506C65.1768 46.6562 68.1117 28.745 72.1979 22.3078C73.3267 20.5235 73.9137 16.0739 77.2323 19.4394L77.2098 19.4619Z" fill="#C4F855"/>
<path d="M30.5227 120.153C31.7193 121.35 53.5276 124.196 48.0191 129.617C47.3644 130.249 33.1641 131.559 30.5453 134.676C27.7007 138.064 28.5586 148.477 24.4046 152.113C19.6637 148.544 19.5057 137.996 15.9612 134.721C13.7939 132.711 -3.9959 130.136 0.790199 125.19C1.85127 124.083 13.0038 122.841 15.9612 120.085C19.4831 116.788 19.6637 106.262 24.4046 102.694C28.0168 105.607 28.5812 118.278 30.5002 120.176L30.5227 120.153Z" fill="#C4F855"/>
<path d="M299.764 493.803C279.174 495.361 246.123 495.429 225.579 493.803C177.56 490.008 133.469 472.617 97.4379 440.995C64.4318 412.039 69.2179 359.368 108.681 340.937C111.435 361.626 124.619 376.85 144.622 382.564C169.229 389.588 177.041 385.026 189.615 363.433C70.6854 363.162 58.2912 238.62 103.037 152.045C161.147 39.6092 299.515 -21.5779 415.917 43.8103C504.324 93.4782 552.298 215.943 468.406 292.602C495.587 315.595 510.081 345.07 500.509 380.938C481.365 452.673 365.189 488.856 299.786 493.803H299.764Z" fill="#C4F855"/>
<path d="M200.881 464.553L239.576 459.471C269.986 453.621 303.105 445.355 328.774 427.285C332.408 424.733 338.639 422.994 337.939 417.37C286.692 440.905 229.688 452.131 173.361 443.728C140.355 438.805 87.0078 422.61 104.211 379.176L115.634 398.058C184.152 436.794 298.161 414.411 364.963 378.092C370.065 375.314 405.916 350.355 407.609 352.208C401.942 383.626 378.463 408.448 355.933 429.77C364.805 432.209 377.741 423.852 385.823 419.199C431.697 392.931 464.816 347.239 425.602 298.271C501.502 330.457 488.431 392.638 424.044 430.448C358.98 468.664 274.366 474.627 200.836 464.576L200.881 464.553Z" fill="#181818"/>
<path d="M315.499 145.36L319.36 149.199C302.044 195.434 258.969 230.082 212.146 242.527C203.838 246.186 196.659 253.82 203.297 262.448L224.428 284.403C231.517 292.76 240.141 304.731 230.094 313.946C227.227 314.646 219.596 315.934 216.616 316.205C210.273 314.262 196.953 304.776 198.623 298.226L189.457 297.435C168.101 287.09 144.712 283.928 121.188 284.199L115.476 280.247C113.851 277.853 112.564 276.226 110.983 273.493C109.019 272.658 107.529 270.399 106.491 266.74C102.224 236.451 106.243 209.889 117.756 181.34L125.748 196.925C127.396 200.313 131.121 201.645 133.469 203.791C165.866 233.583 225.331 222.086 260.03 201.103C281.545 188.071 302.631 162.458 315.544 140.842C318.208 141.068 316.944 143.349 315.544 145.337L315.499 145.36Z" fill="#FE3E8E"/>
<path d="M304.256 264.504C356.768 258.428 345.999 349.994 315.499 370.164C311.751 372.264 308.839 374.817 304.256 376.917C280.168 387.94 266.103 387.781 241.314 388.165C261.971 348.594 248.787 277.017 304.256 264.526V264.504Z" fill="#FEFEFE"/>
<path d="M304.256 68.9266C303.782 70.7561 302.066 71.0271 301.999 71.1852C288.814 80.2199 268.315 84.5339 252.557 82.4333C250.706 88.735 237.905 96.0079 232.329 91.4228C223.705 95.6917 199.684 110.17 194.108 111.66C192.866 116.042 190.857 115.974 189.616 111.66C187.787 116.313 183.249 118.843 175.957 119.227C175.618 126.455 173.429 130.678 169.387 131.898C153.359 142.039 141.551 156.743 131.166 172.373C128.051 175.355 126.945 174.09 128.909 170.114C135.298 152.339 142.793 138.177 153.629 122.909C168.372 113.377 180.382 100.977 195.643 91.8745C208.873 83.9918 228.559 74.0989 243.549 71.2078C262.378 66.9841 287.121 61.5182 304.234 68.9492L304.256 68.9266Z" fill="#E8FDCC"/>
<path d="M252.557 82.4108C255.628 82.0494 256.395 82.7947 254.815 84.6694C262.513 101.564 260.572 154.214 234.587 154.372C233.232 153.739 230.32 154.53 228.898 152.294C224.902 145.992 236.822 103.077 232.329 91.4454C241.811 86.77 240.073 86.2053 252.557 82.4559V82.4108Z" fill="#1A1919"/>
<path d="M189.616 111.638C202.439 126.748 197.201 182.085 171.623 183.576C170.336 183.17 165.482 181.34 165.279 180.979C162.705 176.619 168.62 155.636 169.342 148.68C169.907 143.101 168.981 137.409 169.388 131.853C170.968 110.26 172.548 116.178 189.616 111.615V111.638Z" fill="#1A1919"/>
<path d="M194.108 111.638C206.119 120.831 199.775 157.059 195.689 170.566C191.986 182.853 184.333 187.506 171.623 183.576C193.047 172.938 193.499 132.643 189.616 111.638C190.902 111.299 192.821 111.977 194.108 111.638Z" fill="#FA418C"/>
<path d="M254.815 149.854C254.77 153.784 246.484 160.967 243.572 156.608C238.854 157.466 237.951 155.953 234.587 154.349C257.592 144.343 252.806 106.014 254.815 84.6468C255.266 82.8625 259.985 81.9816 261.407 82.5237C273.056 87.0184 267.593 145.337 254.815 149.832V149.854Z" fill="#FB428C"/>
<path d="M257.05 152.09C252.873 156.856 250.164 159.183 245.807 163.339L243.55 156.585C245.31 156.269 253.776 151.119 254.792 149.832C257.953 146.85 259.104 148.115 257.05 152.09Z" fill="#C4F855"/>
<path d="M131.189 172.328C129.27 175.242 128.751 180.324 124.461 181.317C123.355 176.642 127.735 173.39 128.931 170.069L131.189 172.328Z" fill="#E1FDB3"/>
<path d="M230.072 313.968C236.89 289.078 196.592 272.454 196.163 256.576C195.598 236.519 228.762 233.831 244.362 225.971C268.248 213.955 311.774 172.463 315.499 145.36C316.673 141.384 318.186 137.635 319.992 134.111C326.697 112.88 340.671 92.7328 340.22 68.904C359.048 67.9102 374.219 88.8254 373.61 106.127C373.271 115.455 349.566 137.432 342.906 149.177C332.092 168.24 328.029 191.368 315.093 209.054C295.384 235.977 261.61 245.373 246.913 278.011C241.721 289.575 241.631 311.1 230.049 313.991L230.072 313.968Z" fill="#C81C65"/>
<path d="M198.623 298.226C193.092 307.983 174.354 308.006 163.45 307.283C150.469 306.425 139.926 303.127 128.931 295.967C121.256 288.897 121.052 288.446 115.453 280.224C144.328 278.711 174.106 282.076 198.623 298.203V298.226Z" fill="#C4F755"/>
<path d="M302.021 71.1626C292.539 101.926 278.339 127.855 257.073 152.09L254.815 149.832C257.953 145.834 260.436 131.627 261.294 125.958C262.581 117.307 265.403 93.1394 260.346 86.8603C258.472 84.5339 256.576 85.3018 254.815 84.6242C253.912 84.2854 253.167 83.1561 252.557 82.3656C268.88 77.4643 285.089 73.4891 301.999 71.1175L302.021 71.1626Z" fill="#C4F855"/>
<path d="M153.652 122.886C225.511 21.6077 395.17 11.3534 463.439 122.163C506.966 192.791 488.769 291.653 391.919 287C390.429 288.423 398.082 308.299 398.466 313.133C401.762 353.834 347.015 371.768 315.138 377.708C311.864 378.318 306.378 381.141 304.256 376.895C302.563 370.909 311.232 364.992 315.499 370.141L326.606 358.622C384.559 334.071 366.114 261.048 304.256 264.481L301.412 269.857C279.31 275.955 268.993 296.374 264.094 317.244C260.278 340.372 254.815 363.027 247.681 385.207L241.314 388.12C239.712 388.143 234.226 392.186 229.011 392.683C225.127 393.044 205.306 393.789 205.396 389.25C205.419 387.894 218.987 374.546 222.305 367.973C227.001 358.645 228.785 348.368 232.329 338.678C177.876 345.364 124.281 337.639 108.703 277.965C108.297 274.645 109.042 273.155 110.961 273.471C117.124 271.415 118.704 274.803 115.453 280.224C122.497 281.489 130.67 288.468 128.931 295.967C153.9 310.355 182.752 315.595 211.288 312.116L216.594 316.182C216.978 309.406 226.934 308.299 230.072 313.923C241.111 271.935 259.24 245.283 297.303 221.409C316.041 200.81 329.948 175.964 339.023 146.873L368.169 108.747C373.203 96.6855 358.1 74.8443 344.667 73.5794C341.213 93.6815 334.847 113.038 325.545 131.627L319.969 134.089C318.75 137.228 317.26 139.487 315.476 140.842C295.926 196.744 229.439 233.718 171.532 225.361C158.957 223.554 134.214 217.659 133.424 203.791C137.691 203.768 141.19 207.269 144.667 208.286C146.066 206.682 147.805 205.395 149.95 205.485C181.511 206.885 203.274 206.321 231.584 189.019C274.885 162.548 303.985 116.426 314.483 67.2552C310.352 66.8486 306.423 66.4195 304.234 62.1732L301.389 65.1094C281.771 64.6125 262.491 66.6453 243.527 71.1852L241.066 76.335C211.04 84.9856 184.31 103.01 161.034 123.292L153.607 122.909L153.652 122.886Z" fill="#181818"/>
<path d="M304.256 62.1732C309.494 62.3313 314.777 62.0376 319.992 62.1732C310.713 118.662 271.16 178.562 217.384 201.216C196.185 210.16 166.949 214.904 144.644 208.286L142.409 199.296C143.267 198.212 145.276 201.532 145.75 201.532H181.714C200.226 201.532 232.758 175.716 245.784 163.316C244.949 157.985 252.309 152.903 257.027 152.068C264.861 136.099 273.688 120.492 283.509 105.268C287.956 91.8971 294.12 80.5361 301.999 71.14C301.502 70.1462 302.247 69.4009 304.256 68.8814C298.048 68.136 298.161 63.7768 304.256 62.128V62.1732Z" fill="#67B700"/>
<path d="M110.961 273.493L108.703 277.988C107.439 273.155 107.168 271.822 106.446 266.74C109.177 268.298 109.606 271.167 110.938 273.493H110.961Z" fill="#363524"/>
<path d="M412.147 118.391L394.673 149.244C384.83 176.687 385.71 206.66 405.013 229.698C392.483 242.188 388.645 254.611 373.023 237.31C343.516 204.649 372.526 132.711 412.124 118.391H412.147Z" fill="#4C8600"/>
<path d="M315.499 370.164C320.669 359.39 328.39 349.926 331.912 338.249C339.475 313.11 340.062 264.12 304.256 264.504C345.525 255.198 371.126 285.283 364.805 326.188C361.915 344.889 330.805 361.581 315.499 370.164Z" fill="#FE96C1"/>
<path d="M198.623 298.226C206.751 303.579 212.146 306.402 216.616 316.205C183.43 319.118 153.787 318.847 128.954 295.967C151.801 304.053 175.347 305.295 198.646 298.226H198.623Z" fill="#67B601"/>
<path d="M304.256 62.1732C303.94 64.2737 304.73 67.097 304.256 68.9266C284.141 69.4912 263.416 67.3455 243.572 71.1852C262.626 63.0089 283.848 61.5859 304.256 62.1958V62.1732Z" fill="#C1F258"/>
<path d="M315.499 145.36C315.702 143.914 315.364 142.333 315.499 140.865C316.628 138.968 315.928 135.15 319.992 134.111C318.885 137.635 320.33 142.581 315.499 145.36Z" fill="#E6327E"/>
</g>
<defs>
<clipPath id="clip0_1485_17648">
<rect width="512" height="478" fill="white" transform="translate(0 17)"/>
</clipPath>
</defs>
</svg>
