<svg width="512" height="512" viewBox="0 0 512 512" fill="none" xmlns="http://www.w3.org/2000/svg">
<g clip-path="url(#clip0_1484_17519)">
<path d="M347.264 42.6667C371.925 42.6667 391.915 62.4427 391.915 86.8267V353.515C392.086 357.601 393.836 361.461 396.797 364.282C399.757 367.103 403.697 368.666 407.787 368.64C411.873 368.66 415.807 367.095 418.763 364.275C421.719 361.454 423.466 357.597 423.637 353.515V194.112C423.668 188.341 424.835 182.632 427.072 177.312C429.309 171.992 432.572 167.165 436.675 163.106C440.777 159.047 445.639 155.835 450.983 153.655C456.327 151.475 462.048 150.369 467.819 150.4C473.592 150.369 479.314 151.476 484.659 153.657C490.004 155.839 494.867 159.052 498.97 163.113C503.073 167.174 506.336 172.004 508.571 177.327C510.807 182.649 511.972 188.36 512 194.133V334.101C511.977 337.77 510.5 341.279 507.892 343.859C505.284 346.439 501.759 347.878 498.091 347.861C496.272 347.873 494.47 347.526 492.786 346.84C491.102 346.155 489.569 345.144 488.275 343.867C486.982 342.589 485.953 341.069 485.247 339.393C484.54 337.718 484.171 335.92 484.16 334.101V194.133C484.149 191.999 483.717 189.887 482.89 187.919C482.063 185.951 480.856 184.165 479.338 182.664C477.821 181.162 476.023 179.974 474.046 179.167C472.07 178.361 469.953 177.951 467.819 177.963C465.684 177.951 463.568 178.361 461.591 179.167C459.615 179.974 457.816 181.162 456.299 182.664C454.781 184.165 453.575 185.951 452.747 187.919C451.92 189.887 451.489 191.999 451.477 194.133V353.536C451.447 359.243 450.292 364.888 448.08 370.148C445.867 375.409 442.641 380.182 438.584 384.195C434.527 388.209 429.719 391.384 424.435 393.539C419.15 395.695 413.493 396.788 407.787 396.757C402.08 396.788 396.423 395.695 391.139 393.539C385.855 391.384 381.047 388.209 376.99 384.195C372.933 380.182 369.706 375.409 367.494 370.148C365.281 364.888 364.127 359.243 364.096 353.536V86.8693C363.919 82.5361 362.068 78.4405 358.933 75.4443C355.798 72.4481 351.622 70.7851 347.285 70.8053C342.948 70.7794 338.771 72.437 335.631 75.4292C332.492 78.4214 330.636 82.5149 330.453 86.848L330.432 426.133C330.364 437.655 325.724 448.678 317.531 456.779C309.338 464.88 298.263 469.396 286.741 469.333C281.035 469.364 275.378 468.271 270.093 466.115C264.809 463.96 260.001 460.785 255.944 456.771C251.887 452.758 248.661 447.985 246.448 442.724C244.236 437.464 243.081 431.819 243.051 426.112V384.853C243.051 377.259 249.28 371.093 256.96 371.093C264.64 371.093 270.869 377.259 270.869 384.853V426.112C270.869 431.723 273.899 436.907 278.805 439.723C283.712 442.517 289.771 442.517 294.677 439.723C297.085 438.358 299.088 436.379 300.482 433.988C301.876 431.597 302.611 428.88 302.613 426.112V86.8267C302.613 62.4427 322.603 42.6667 347.264 42.6667ZM226.219 42.6667C250.88 42.6667 270.869 62.4427 270.869 86.8267V332.651C270.861 334.468 270.494 336.266 269.791 337.941C269.087 339.616 268.06 341.137 266.768 342.415C265.476 343.693 263.945 344.703 262.262 345.389C260.579 346.075 258.777 346.422 256.96 346.411C255.143 346.422 253.341 346.075 251.658 345.389C249.975 344.703 248.444 343.693 247.152 342.415C245.86 341.137 244.833 339.616 244.129 337.941C243.426 336.266 243.059 334.468 243.051 332.651V86.8267C243.022 82.3889 241.234 78.1437 238.078 75.0237C234.922 71.9037 230.657 70.164 226.219 70.1867C221.781 70.164 217.515 71.9037 214.359 75.0237C211.203 78.1437 209.415 82.3889 209.387 86.8267V385.771C209.319 397.419 204.63 408.563 196.349 416.756C188.069 424.948 176.875 429.518 165.227 429.461C153.575 429.524 142.375 424.956 134.09 416.763C125.805 408.57 121.113 397.422 121.045 385.771V194.133C121.034 191.999 120.603 189.887 119.775 187.919C118.948 185.951 117.741 184.165 116.224 182.664C114.706 181.162 112.908 179.974 110.931 179.167C108.955 178.361 106.839 177.951 104.704 177.963C102.569 177.951 100.453 178.361 98.4766 179.167C96.5 179.974 94.7017 181.162 93.1842 182.664C91.6668 184.165 90.46 185.951 89.6327 187.919C88.8054 189.887 88.3739 191.999 88.3627 194.133V275.2C88.3319 280.971 87.1648 286.68 84.9278 292C82.6908 297.32 79.4279 302.147 75.3252 306.206C71.2226 310.265 66.3606 313.477 61.017 315.657C55.6733 317.837 49.9525 318.943 44.1813 318.912C38.4102 318.943 32.6894 317.837 27.3457 315.657C22.002 313.477 17.1401 310.265 13.0374 306.206C8.9348 302.147 5.67185 297.32 3.43488 292C1.19791 286.68 0.0307347 280.971 0 275.2L0 245.803C0 238.187 6.22933 232.021 13.9093 232.021C21.5893 232.021 27.84 238.208 27.84 245.803V275.2C27.84 284.117 35.1573 291.349 44.1813 291.349C53.2053 291.349 60.5227 284.117 60.5227 275.2V194.112C60.5904 182.464 65.2796 171.319 73.5601 163.127C81.8405 154.935 93.0346 150.365 104.683 150.421C116.334 150.359 127.534 154.926 135.819 163.119C144.104 171.312 148.796 182.46 148.864 194.112V385.771C148.864 394.709 156.181 401.941 165.227 401.941C174.251 401.941 181.568 394.709 181.568 385.771V86.8267C181.568 62.4427 201.557 42.6667 226.219 42.6667Z" fill="url(#paint0_linear_1484_17519)"/>
</g>
<defs>
<linearGradient id="paint0_linear_1484_17519" x1="0" y1="21400.4" x2="51293.2" y2="21400.4" gradientUnits="userSpaceOnUse">
<stop stop-color="#E2167E"/>
<stop offset="1" stop-color="#FE603C"/>
</linearGradient>
<clipPath id="clip0_1484_17519">
<rect width="512" height="512" fill="white"/>
</clipPath>
</defs>
</svg>
