<svg width="48" height="24" viewBox="0 0 48 24" fill="none" xmlns="http://www.w3.org/2000/svg">
<path d="M24.9961 8.39551C25.2763 8.39551 25.5009 8.62089 25.501 8.90039H25.499L25.498 18.3691C25.498 18.3961 25.4947 18.421 25.4912 18.4473C25.4912 18.486 25.498 18.527 25.498 18.5713C25.498 19.8522 24.239 20.8953 22.6924 20.8955C21.1456 20.8955 19.8887 19.8523 19.8887 18.5713C19.8887 17.2881 21.1456 16.2432 22.6924 16.2432C23.3759 16.2432 23.9991 16.4451 24.4883 16.7812V11.875H17.6094V20.3799C17.6094 20.4276 17.6007 20.4743 17.5869 20.5186C17.4219 21.67 16.238 22.5693 14.8027 22.5693C13.2562 22.5692 12.0002 21.5258 12 20.2422C12 18.9577 13.256 17.9142 14.8027 17.9141C15.4866 17.9141 16.1103 18.1158 16.5996 18.4521V8.90039C16.5997 8.62032 16.8252 8.39573 17.1045 8.39551H24.9961Z" fill="#8A8A8A"/>
<path d="M27.5083 1.79395V7.01134M30.0083 4.40264H25.0083" stroke="#8A8A8A" stroke-width="1.3" stroke-linecap="round" stroke-linejoin="round"/>
<path d="M33.5084 7.59473V10.3773M34.8417 8.98603H32.175" stroke="#8A8A8A" stroke-width="1.3" stroke-linecap="round" stroke-linejoin="round"/>
<path d="M29.3084 12.9834V15.766M30.6417 14.3747H27.975" stroke="#8A8A8A" stroke-width="1.3" stroke-linecap="round" stroke-linejoin="round"/>
</svg>
