<svg viewBox="0 0 100 100" xmlns="http://www.w3.org/2000/svg">
  <defs>
    <clipPath id="hollow">
        <path
    d="M-50 50
       A100 100 0 0 1 150 50
       A100 100 0 0 1 -50 50
       M30 50
       A20 20 0 0 0 70 50
       A20 20 0 0 0 30 50"/>
    </clipPath>
  </defs>
  <g clip-path="var(--shape)" stroke-width="4">
    <path d="M0 50A50 50 0 0 0 75 93L50 50" fill="var(--type1, red)"/>
    <path d="M75 93A50 50 0 0 0 75 7L50 50" fill="var(--type2, blue)"/>
    <path d="M75 7A50 50 0 0 0 0 50L50 50" fill="var(--type3, green)"/>
    <path d="M50 50L0 50M50 50L75 93M50 50L75 7" stroke="var(--inner-stroke, black)"/>
    <path d="M50 2A48 48 0 0 1 50 98A48 48 0 0 1 50 2" fill="transparent" stroke="var(--outer-stroke, transparent)"/>
  </g>
</svg>
