<svg viewBox="0 0 100 100" xmlns="http://www.w3.org/2000/svg">
  <defs>
    <clipPath id="hollow">
      <path
    d="M -50 50
       A 100 100, 0, 0, 1, 150 50
       A 100 100, 0, 0, 1, -50 50
       M 30 50
       A 20 20, 0, 0, 0, 70 50
       A 20 20, 0, 0, 0, 30 50"/>
    </clipPath>
  </defs>
  <g clip-path="var(--shape)" stroke-width="4">
    <path d="M 50 0 A 50 50, 0, 0, 1, 50 100" fill="var(--type1, red)"/>
    <path d="M 50 100 A 50 50, 0, 0, 1, 50 0" fill="var(--type2, blue)"/>
    <path d="M50 0L50 100" stroke="var(--inner-stroke, black)"/>
    <path d="M50 2A48 48 0 0 1 50 98A48 48 0 0 1 50 2" fill="transparent" stroke="var(--outer-stroke, transparent)"/>
  </g>
</svg>
