<svg width="48" height="25" viewBox="0 0 48 25" fill="none" xmlns="http://www.w3.org/2000/svg">
<path d="M24.6685 8.66309C25.1372 8.66309 25.5171 9.03766 25.5171 9.5V11.7314C25.5169 12.1936 25.1371 12.5684 24.6685 12.5684C24.2 12.5682 23.821 12.1935 23.8208 11.7314V10.3359H19.8608V22.0518H21.8403C22.309 22.0518 22.6889 22.4264 22.689 22.8887C22.689 23.351 22.3091 23.7256 21.8403 23.7256H16.1851C15.7163 23.7256 15.3364 23.351 15.3364 22.8887C15.3365 22.4264 15.7163 22.0518 16.1851 22.0518H18.1646V10.3359H14.2056V11.7314C14.2054 12.1935 13.8254 12.5682 13.3569 12.5684C12.8883 12.5684 12.5085 12.1936 12.5083 11.7314V9.5C12.5083 9.03766 12.8882 8.66309 13.3569 8.66309H24.6685ZM29.3081 13.1895C29.6669 13.1895 29.9583 13.481 29.9585 13.8398V14.5811H30.6421C31.0008 14.5813 31.2913 14.8728 31.2915 15.2314C31.2913 15.5902 31.0008 15.8806 30.6421 15.8809H29.9585V16.6221C29.9585 16.981 29.6671 17.2724 29.3081 17.2725C28.9493 17.2723 28.6587 16.9809 28.6587 16.6221V15.8809H27.9751C27.6162 15.8809 27.3249 15.5903 27.3247 15.2314C27.3249 14.8726 27.6162 14.5811 27.9751 14.5811H28.6587V13.8398C28.6589 13.4811 28.9494 13.1896 29.3081 13.1895ZM33.5083 7.80078C33.8672 7.80092 34.1587 8.09227 34.1587 8.45117V9.19238H34.8423C35.201 9.19269 35.4917 9.48398 35.4917 9.84277C35.4915 10.2014 35.2009 10.4919 34.8423 10.4922H34.1587V11.2334C34.1587 11.5923 33.8671 11.8837 33.5083 11.8838C33.1495 11.8836 32.8589 11.5922 32.8589 11.2334V10.4922H32.1753C31.8164 10.4922 31.5251 10.2016 31.5249 9.84277C31.5249 9.48379 31.8163 9.19238 32.1753 9.19238H32.8589V8.45117C32.8589 8.0923 33.1495 7.80096 33.5083 7.80078ZM27.5083 0C27.8673 5.15104e-07 28.1587 0.291406 28.1587 0.650391V2.60938H30.0083C30.3672 2.60938 30.6585 2.89994 30.6587 3.25879C30.6586 3.61772 30.3672 3.90918 30.0083 3.90918H28.1587V5.86816C28.1584 6.22692 27.8671 6.51758 27.5083 6.51758C27.1495 6.51755 26.8582 6.2269 26.8579 5.86816V3.90918H25.0083C24.6494 3.90915 24.358 3.6177 24.3579 3.25879C24.3581 2.89996 24.6494 2.6094 25.0083 2.60938H26.8579V0.650391C26.8579 0.291423 27.1493 2.78729e-05 27.5083 0Z" fill="#8A8A8A"/>
</svg>
