<svg width="512" height="512" viewBox="0 0 512 512" fill="none" xmlns="http://www.w3.org/2000/svg">
<g clip-path="url(#clip0_1483_15836)">
<path fill-rule="evenodd" clip-rule="evenodd" d="M196.373 184.704V136.491C196.373 132.437 197.909 129.387 201.451 127.36L298.368 71.552C311.573 63.936 327.296 60.3947 343.531 60.3947C404.416 60.3947 442.987 107.584 442.987 157.803C442.987 161.365 442.987 165.419 442.475 169.472L341.995 110.613C339.266 108.876 336.099 107.954 332.864 107.954C329.629 107.954 326.462 108.876 323.733 110.613L196.373 184.704ZM422.699 372.437V257.28C422.699 250.176 419.648 245.12 413.547 241.557L286.187 167.467L327.787 143.616C329.294 142.624 331.059 142.095 332.864 142.095C334.669 142.095 336.434 142.624 337.941 143.616L434.859 199.445C462.784 215.659 481.557 250.176 481.557 283.669C481.557 322.24 458.731 357.76 422.677 372.48L422.699 372.437ZM166.443 270.997L124.843 246.635C121.28 244.608 119.744 241.557 119.744 237.504V125.845C119.744 71.552 161.344 30.4427 217.685 30.4427C239.019 30.4427 258.795 37.5467 275.541 50.24L175.573 108.096C169.493 111.637 166.443 116.715 166.443 123.819V270.976V270.997ZM256 322.731L196.373 289.237V218.197L256 184.704L315.627 218.197V289.237L256 322.731ZM294.315 476.971C272.981 476.971 253.205 469.888 236.459 457.195L336.427 399.339C342.507 395.797 345.557 390.72 345.557 383.616V236.459L387.669 260.821C391.232 262.848 392.747 265.899 392.747 269.952V381.589C392.747 435.883 350.635 476.971 294.315 476.971ZM174.059 363.84L77.12 308.011C49.216 291.776 30.4427 257.28 30.4427 223.787C30.3769 204.756 35.9917 186.138 46.5684 170.317C57.1451 154.495 72.2025 142.19 89.8133 134.976V250.667C89.8133 257.771 92.864 262.848 98.944 266.411L225.813 339.989L184.213 363.84C182.707 364.835 180.941 365.365 179.136 365.365C177.331 365.365 175.565 364.835 174.059 363.84ZM168.469 447.04C111.125 447.04 69.0133 403.925 69.0133 350.635C69.0133 346.581 69.5253 342.528 70.016 338.475L169.984 396.288C176.085 399.851 182.165 399.851 188.245 396.288L315.605 322.731V370.944C315.605 374.997 314.112 378.048 310.549 380.075L213.632 435.883C200.427 443.499 184.704 447.04 168.469 447.04ZM294.315 507.413C323.553 507.416 351.895 497.319 374.547 478.831C397.198 460.343 412.768 434.598 418.624 405.952C475.456 391.232 512 337.92 512 283.648C512 248.128 496.789 213.632 469.376 188.757C471.915 178.091 473.429 167.445 473.429 156.8C473.429 84.2453 414.571 29.9307 346.581 29.9307C332.885 29.9307 319.701 31.9573 306.475 36.544C282.795 13.2354 250.933 0.118797 217.707 1.37049e-07C188.465 -0.00135846 160.121 10.0985 137.469 28.5908C114.817 47.0831 99.2486 72.8325 93.3973 101.483C36.544 116.203 0 169.493 0 223.787C0 259.328 15.2107 293.824 42.624 318.677C40.0853 329.344 38.5707 340.011 38.5707 350.656C38.5707 423.211 97.4293 477.504 165.419 477.504C179.115 477.504 192.299 475.477 205.525 470.912C229.208 494.23 261.08 507.347 294.315 507.456V507.413Z" fill="#B6B6B6"/>
</g>
<defs>
<clipPath id="clip0_1483_15836">
<rect width="512" height="512" fill="white"/>
</clipPath>
</defs>
</svg>
