<svg width="24" height="24" viewBox="0 0 24 24" fill="none" xmlns="http://www.w3.org/2000/svg">
<path d="M12.3333 11.0335H3M15 15.0335H3M11.0667 18.9667H3M17.7169 10.6415L18.8234 8.05975C18.8689 7.95355 18.9535 7.86892 19.0597 7.8234L21.6415 6.71693C22.0051 6.56108 22.0051 6.04555 21.6415 5.8897L19.0597 4.78323C18.9535 4.73772 18.8689 4.65309 18.8234 4.54688L17.7169 1.96512C17.5611 1.60147 17.0455 1.60147 16.8897 1.96512L15.7832 4.54688C15.7377 4.65309 15.6531 4.73772 15.5469 4.78323L12.9651 5.8897C12.6015 6.04555 12.6015 6.56108 12.9651 6.71693L15.5469 7.8234C15.6531 7.86892 15.7377 7.95355 15.7832 8.05975L16.8897 10.6415C17.0455 11.0052 17.5611 11.0052 17.7169 10.6415Z" stroke="#8A8A8A" stroke-width="1.3" stroke-linecap="round"/>
</svg>
