<svg width="48" height="24" viewBox="0 0 48 24" fill="none" xmlns="http://www.w3.org/2000/svg">
<path d="M28.1738 3C29.1714 3 29.9998 3.79837 30 4.75977V18.8398C30 19.8014 29.1715 20.6006 28.1738 20.6006H7.82617C6.82854 20.6006 6 19.8014 6 18.8398V4.75977C6.00017 3.79837 6.82864 3 7.82617 3H28.1738ZM7.56543 16.2236V18.8398C7.56543 18.9921 7.66822 19.0918 7.82617 19.0918H28.1738C28.3318 19.0918 28.4346 18.9921 28.4346 18.8398V16.6875L23.959 13.2383L20.2666 15.6895C19.9915 15.8682 19.5947 15.8517 19.3369 15.6504L14.3154 11.7373L7.56543 16.2236ZM7.82617 4.50879C7.6683 4.50879 7.56554 4.60767 7.56543 4.75977V14.3848L13.8994 10.1738C14.0053 10.1012 14.1295 10.0548 14.2578 10.04C14.4637 10.0184 14.6769 10.0794 14.8369 10.2051L19.8584 14.126L23.5596 11.6748C23.8347 11.4961 24.2314 11.5125 24.4893 11.7139L28.4355 14.7549V4.75977C28.4354 4.6077 28.3317 4.50879 28.1738 4.50879H7.82617ZM19.8262 6.52051C21.1132 6.52051 22.1738 7.54274 22.1738 8.7832C22.1737 10.0236 21.1131 11.0459 19.8262 11.0459C18.5393 11.0458 17.4786 10.0235 17.4785 8.7832C17.4785 7.54278 18.5392 6.52057 19.8262 6.52051ZM19.8262 8.02832C19.385 8.02838 19.0439 8.35797 19.0439 8.7832C19.0441 9.20833 19.3851 9.53705 19.8262 9.53711C20.2673 9.53711 20.6093 9.20837 20.6094 8.7832C20.6094 8.35793 20.2674 8.02832 19.8262 8.02832Z" fill="#8A8A8A"/>
<path d="M40.4717 3C40.4717 3.35895 40.7622 3.65033 41.1211 3.65039H42.5C42.6444 3.65039 42.7823 3.67273 42.9111 3.71387C43.2179 3.81186 43.5419 3.66872 43.6846 3.3916C43.846 3.51071 43.9882 3.65309 44.1074 3.81445C43.8306 3.95724 43.6882 4.28222 43.7861 4.58887C43.8273 4.71771 43.8496 4.85556 43.8496 5V6.33984C43.8499 6.69862 44.1412 6.98926 44.5 6.98926V9.81055C44.141 9.81055 43.8496 10.102 43.8496 10.4609V13.1396C43.8497 13.4985 44.1411 13.7891 44.5 13.7891V16.6104C44.141 16.6104 43.8496 16.9018 43.8496 17.2607V18.5996C43.8496 18.7441 43.8273 18.8828 43.7861 19.0117C43.6884 19.3182 43.8308 19.6424 44.1074 19.7852C43.9882 19.9466 43.846 20.0889 43.6846 20.208C43.5617 19.9696 43.3052 19.8307 43.04 19.8594L42.9111 19.8867C42.7823 19.9278 42.6444 19.9502 42.5 19.9502H41.1211C40.7623 19.9503 40.4719 20.2408 40.4717 20.5996H37.5283C37.5281 20.2408 37.2377 19.9503 36.8789 19.9502H34.1211C33.7623 19.9503 33.4719 20.2408 33.4717 20.5996H30.5283C30.5281 20.2408 30.2377 19.9503 29.8789 19.9502H29.1504V19.4443C29.1503 19.0854 28.8589 18.7949 28.5 18.7949V16.5391C28.8142 16.5391 29.0762 16.3159 29.1367 16.0195L29.1504 15.8887V13.5781C29.1504 13.2191 28.859 12.9277 28.5 12.9277V10.6719C28.8141 10.6719 29.0761 10.4495 29.1367 10.1533L29.1504 10.0225V7.71094C29.1503 7.35203 28.8589 7.06152 28.5 7.06152V4.80566C28.8142 4.80566 29.0763 4.58252 29.1367 4.28613L29.1504 4.15527V3.65039H29.8789C30.2378 3.65033 30.5283 3.35895 30.5283 3H33.4717C33.4717 3.35895 33.7622 3.65033 34.1211 3.65039H36.8789C37.2378 3.65033 37.5283 3.35895 37.5283 3H40.4717Z" stroke="#8A8A8A" stroke-width="1.3" stroke-linecap="round" stroke-dasharray="2.6 4"/>
<path d="M30 16.5L35.7727 13.2806C36.0841 13.1069 36.4645 13.1122 36.771 13.2945L43 17" stroke="#8A8A8A" stroke-width="1.3" stroke-linecap="round" stroke-linejoin="round" stroke-dasharray="2.6 2.6"/>
</svg>
