<svg width="48" height="24" viewBox="0 0 48 24" fill="none" xmlns="http://www.w3.org/2000/svg">
<path d="M19.5 11.8L30.1304 1.80247C30.4457 1.48849 30.8226 1.23816 31.2392 1.06607C31.6558 0.893979 32.1037 0.803564 32.5568 0.800092C33.01 0.796619 33.4593 0.880159 33.8787 1.04584C34.298 1.21153 34.679 1.45605 34.9995 1.76516C35.3199 2.07427 35.5734 2.4418 35.7451 2.84634C35.9169 3.25088 36.0035 3.68434 35.9999 4.12147C35.9963 4.55861 35.9026 4.99069 35.7242 5.39254C35.5458 5.7944 35.2863 6.15799 34.9608 6.46216L24 16.796M19.5369 11.8C17.0673 11.8 15.0738 13.9034 15.0738 16.5054C15.0738 18.5776 11.3545 18.8736 12.0984 19.6527C13.7051 21.3666 15.8027 22.8 18.0492 22.8C21.3221 22.8 24 19.9955 24 16.5054C24.0019 15.8895 23.888 15.2792 23.6648 14.7095C23.4416 14.1397 23.1134 13.6215 22.6989 13.1846C22.2845 12.7477 21.7919 12.4005 21.2494 12.1629C20.7068 11.9254 20.1249 11.802 19.5369 11.8Z" stroke="#8A8A8A" stroke-width="1.6" stroke-linecap="round" stroke-linejoin="round"/>
</svg>
