<svg viewBox="0 0 16 16" fill="none" xmlns="http://www.w3.org/2000/svg">
    <path d="M7.13727 11.2201L6.27454 14.4398" stroke="var(--pin-color, var(--color-smoke-800, #8a8a8a))" stroke-width="1.3" stroke-linecap="round" stroke-linejoin="round" />
    <path d="M6.28085 6.68385C6.21652 6.92342 6.08664 7.1403 5.9058 7.31009C5.72497 7.47989 5.50035 7.59587 5.25721 7.645L3.95569 7.91742C3.71254 7.96655 3.48793 8.08253 3.30709 8.25233C3.12626 8.42212 2.99637 8.639 2.93204 8.87857L2.80091 9.36797C2.75515 9.53876 2.7791 9.72073 2.86751 9.87385C2.95591 10.027 3.10153 10.1387 3.27231 10.1845L10.9997 12.255C11.1705 12.3008 11.3525 12.2768 11.5056 12.1884C11.6587 12.1 11.7705 11.9544 11.8162 11.7836L11.9474 11.2942C12.0114 11.0546 12.0074 10.8018 11.9357 10.5643C11.864 10.3269 11.7274 10.1141 11.5414 9.95001L10.5505 9.06333C10.3645 8.89921 10.2279 8.68646 10.1562 8.44899C10.0845 8.21153 10.0805 7.95877 10.1446 7.71913L10.7933 5.29787C10.8391 5.12709 10.9508 4.98148 11.1039 4.89307C11.2571 4.80466 11.439 4.78071 11.6098 4.82647C11.9514 4.91799 12.3153 4.87008 12.6216 4.69327C12.9278 4.51646 13.1513 4.22523 13.2428 3.88366C13.3343 3.54209 13.2864 3.17815 13.1096 2.8719C12.9328 2.56566 12.6416 2.34219 12.3 2.25067L7.1484 0.870299C6.80683 0.778775 6.44289 0.826689 6.13665 1.0035C5.8304 1.18031 5.60694 1.47154 5.51541 1.81311C5.42389 2.15468 5.4718 2.51862 5.64861 2.82487C5.82542 3.13111 6.11665 3.35458 6.45822 3.4461C6.62901 3.49186 6.77462 3.6036 6.86302 3.75672C6.95143 3.90984 6.97539 4.09181 6.92962 4.2626L6.28085 6.68385Z" fill="var(--handle-color, var(--color-gold-600, #fd9903))" />
</svg>