<svg width="24" height="24" viewBox="0 0 24 24" fill="none" xmlns="http://www.w3.org/2000/svg">
<path d="M10 18V20.6667C10 21.403 10.597 22 11.3333 22H20.6667C21.403 22 22 21.403 22 20.6667V11.3333C22 10.597 21.403 10 20.6667 10H18M14 17V18.6667L18 16L16.6579 15.1053M8 4.63322L8.87155 4.08134C8.95314 4.02967 9.05313 4.01593 9.14563 4.04367L10 4.29989M8 4.63322L7.12845 4.08134C7.04686 4.02967 6.94687 4.01593 6.85437 4.04367L6 4.29989M8 4.63322V6.63322M8 8.96655L6.74997 9.90408C6.69573 9.94476 6.65518 10.001 6.63374 10.0653L6 11.9666M8 8.96655L9.25003 9.90408C9.30427 9.94476 9.34482 10.001 9.36626 10.0653L10 11.9666M8 8.96655V6.63322M8 6.63322H9.86193C9.95033 6.63322 10.0351 6.66834 10.0976 6.73085L10.9489 7.58216C10.9826 7.61581 11.0086 7.65627 11.0254 7.70083L11.5 8.96655M8 6.63322H6.13807C6.04967 6.63322 5.96488 6.66834 5.90237 6.73085L5.05205 7.58117C5.01776 7.61546 4.99137 7.65681 4.97471 7.70235L4.5 9M5 22L7 20M7 20H4C3.46957 20 2.96086 19.7893 2.58579 19.4142C2.21071 19.0391 2 18.5304 2 18V17M7 20L5 18M3.33333 1.96655H12.6667C13.403 1.96655 14 2.56351 14 3.29989V12.6332C14 13.3696 13.403 13.9666 12.6667 13.9666H3.33333C2.59695 13.9666 2 13.3696 2 12.6332V3.29989C2 2.56351 2.59695 1.96655 3.33333 1.96655Z" stroke="#8A8A8A" stroke-width="1.3" stroke-linecap="round" stroke-linejoin="round"/>
</svg>
