<svg width="48" height="24" viewBox="0 0 48 24" fill="none" xmlns="http://www.w3.org/2000/svg">
<path fill-rule="evenodd" clip-rule="evenodd" d="M46.6309 5C47.379 5.00009 48 5.59922 48 6.32031V16.8799C48 17.601 47.379 18.2001 46.6309 18.2002H31.3691C30.6211 18.2 30 17.6009 30 16.8799V6.32031C30 5.59931 30.6211 5.00024 31.3691 5H46.6309ZM31.1738 14.918V16.8799C31.1738 16.9939 31.2509 17.0682 31.3691 17.0684H46.6309C46.7492 17.0682 46.8262 16.994 46.8262 16.8799V15.2656L43.4697 12.6787L40.7002 14.5166C40.4938 14.6507 40.1963 14.6383 40.0029 14.4873L36.2363 11.5527L31.1738 14.918ZM31.3691 6.13184C31.2509 6.13202 31.1738 6.20628 31.1738 6.32031V13.5391L35.9248 10.3799C36.0042 10.3255 36.0973 10.2913 36.1934 10.2803C36.3477 10.2641 36.5079 10.3091 36.6279 10.4033L40.3945 13.3447L43.1699 11.5059C43.3763 11.3718 43.6738 11.3841 43.8672 11.5352L46.8262 13.8154V6.32031C46.8262 6.20619 46.7492 6.13191 46.6309 6.13184H31.3691ZM40.3701 7.63965C41.3351 7.63986 42.1307 8.40682 42.1309 9.33691C42.1309 10.2671 41.3352 11.034 40.3701 11.0342C39.4048 11.0342 38.6084 10.2673 38.6084 9.33691C38.6086 8.4067 39.4049 7.63965 40.3701 7.63965ZM40.3701 8.77148C40.0393 8.77148 39.7834 9.0181 39.7832 9.33691C39.7832 9.65587 40.0392 9.90332 40.3701 9.90332C40.7009 9.90312 40.957 9.65574 40.957 9.33691C40.9569 9.01823 40.7008 8.77168 40.3701 8.77148Z" fill="#8A8A8A"/>
<path fill-rule="evenodd" clip-rule="evenodd" d="M26.0245 11.7209C26.2587 11.9552 26.2588 12.3353 26.0245 12.5695L23.4796 15.1154C23.2454 15.3496 22.8653 15.3492 22.631 15.1154C22.3967 14.8811 22.3967 14.5011 22.631 14.2668L24.1485 12.7492L16.6007 12.7492C16.2693 12.7492 16.0001 12.481 16.0001 12.1496C16.0001 11.8182 16.2693 11.55 16.6007 11.55L24.1573 11.55L22.631 10.0236C22.3966 9.78931 22.3966 9.40931 22.631 9.175C22.8653 8.94094 23.2454 8.94077 23.4796 9.175L26.0245 11.7209Z" fill="#8A8A8A"/>
<path fill-rule="evenodd" clip-rule="evenodd" d="M4.50879 3.99908C4.67448 3.94286 4.85638 3.95242 5.0166 4.0274L6.14453 4.55474L6.9209 4.07037L6.99609 4.03033C7.17731 3.9466 7.38792 3.94638 7.57129 4.03228L8.95898 4.6817C9.23158 4.80955 9.34936 5.13462 9.22168 5.40728C9.09386 5.67981 8.76872 5.7975 8.49609 5.66998L7.30957 5.11334L6.5459 5.59088V7.35748H9.32227C9.55399 7.35758 9.76787 7.47491 9.89258 7.6651L9.94043 7.75103L11.2598 10.5782C11.2723 10.6051 11.2831 10.633 11.292 10.6612L11.3135 10.7481L11.9922 14.626C12.044 14.9227 11.8445 15.206 11.5479 15.2579C11.2515 15.3094 10.9691 15.1108 10.917 14.8145L10.248 10.9903L9.06152 8.4483H6.5459V11.9932C6.5459 12.0406 6.53772 12.0861 6.52637 12.1299H7.03418C7.27074 12.13 7.48787 12.2519 7.61133 12.4483L7.6582 12.5372L8.89648 15.3565C8.92679 15.4255 8.94591 15.4992 8.95215 15.5743L9.27051 19.4483C9.29492 19.7481 9.07228 20.0113 8.77246 20.0362C8.47235 20.0608 8.20934 19.8373 8.18457 19.5372L7.87012 15.7325L6.7666 13.2198H5.52148L4.12793 15.7569L3.81641 19.5372C3.79165 19.8373 3.52864 20.0608 3.22852 20.0362C2.92858 20.0114 2.70604 19.7482 2.73047 19.4483L3.04785 15.5811L3.05762 15.5098C3.07094 15.4396 3.09534 15.3716 3.12988 15.3087L4.68164 12.4835L4.73145 12.4053C4.85878 12.2335 5.06092 12.1302 5.27832 12.1299H5.47461C5.46324 12.0861 5.45508 12.0406 5.45508 11.9932V8.4483H3.24512L1.74609 11.0176L1.08203 14.4981C1.02541 14.7938 0.739135 14.9882 0.443359 14.9317C0.147892 14.8749 -0.045583 14.5886 0.0107421 14.293L0.688476 10.7452L0.719726 10.6338C0.733191 10.5979 0.749175 10.5626 0.768555 10.5294L2.42187 7.69537C2.54403 7.48613 2.76846 7.35759 3.01074 7.35748H5.45508V5.43658L4.72754 5.09576L3.50488 5.66998C3.23223 5.79763 2.90714 5.67987 2.7793 5.40728C2.65156 5.1346 2.76937 4.80956 3.04199 4.6817L4.43848 4.0274L4.50879 3.99908Z" fill="#8A8A8A"/>
</svg>
