<svg width="48" height="24" viewBox="0 0 48 24" fill="none" xmlns="http://www.w3.org/2000/svg">
<path d="M34 3.11111V6.07407C34 6.68795 33.4163 7.18519 32.6956 7.18519C31.975 7.18519 31.3913 6.68795 31.3913 6.07407V4.22222H25.3042V19.7778H28.3479C29.0685 19.7778 29.6523 20.275 29.6523 20.8889C29.6523 21.5028 29.0685 22 28.3479 22H19.6521C18.9315 22 18.3477 21.5028 18.3477 20.8889C18.3477 20.275 18.9315 19.7778 19.6521 19.7778H22.6958V4.22222H16.6087V6.07407C16.6087 6.68795 16.025 7.18519 15.3044 7.18519C14.5837 7.18519 14 6.68795 14 6.07407V3.11111C14 2.49723 14.5837 2 15.3044 2H32.6959C33.4166 2 34 2.49723 34 3.11111Z" fill="#8A8A8A"/>
</svg>
