<svg width="48" height="24" viewBox="0 0 48 24" fill="none" xmlns="http://www.w3.org/2000/svg">
<path d="M31.7925 9.09033C31.9848 9.09035 32.1755 9.12865 32.353 9.20264C32.5295 9.27625 32.6899 9.38454 32.8247 9.52002L33.6724 10.3677L33.771 10.4731C33.8641 10.5839 33.9401 10.7085 33.9966 10.8423C34.0719 11.0207 34.1108 11.2131 34.1108 11.4067C34.1108 11.6003 34.0718 11.7919 33.9966 11.9702C33.9212 12.1487 33.8112 12.3107 33.6724 12.4458L33.6714 12.4448L30.5884 15.5288C30.5873 15.5299 30.5866 15.5316 30.5854 15.5327C30.5843 15.5338 30.5827 15.5346 30.5815 15.5356L22.8306 23.2856C22.6955 23.4245 22.5344 23.5355 22.356 23.6108C22.1776 23.6861 21.986 23.7251 21.7925 23.7251C21.5988 23.7251 21.4065 23.6862 21.228 23.6108C21.0524 23.5366 20.893 23.4283 20.7593 23.2925L19.9058 22.439L19.9067 22.438C19.7713 22.3031 19.662 22.1437 19.5884 21.9673C19.5144 21.7898 19.4761 21.599 19.4761 21.4067C19.4761 21.2143 19.5143 21.0229 19.5884 20.8452C19.6621 20.6685 19.7709 20.5085 19.9067 20.3735H19.9058L30.7593 9.52002C30.8941 9.3844 31.0544 9.27634 31.231 9.20264C31.4086 9.12851 31.6 9.09035 31.7925 9.09033ZM20.8257 21.2925L20.8228 21.2954C20.8082 21.3099 20.7965 21.3272 20.7886 21.3462C20.7807 21.3652 20.7769 21.3861 20.7769 21.4067C20.7769 21.4271 20.7808 21.4475 20.7886 21.4663L20.8228 21.5181L20.8257 21.52L21.6782 22.3735L21.6851 22.3794C21.699 22.3937 21.7155 22.4058 21.7339 22.4136C21.7523 22.4213 21.7725 22.4253 21.7925 22.4253C21.8125 22.4253 21.8327 22.4213 21.8511 22.4136C21.8694 22.4058 21.886 22.3937 21.8999 22.3794L29.2065 15.0728L28.1255 13.9917L20.8257 21.2925ZM33.9858 15.1831C34.3447 15.1831 34.6361 15.4746 34.6362 15.8335V16.5161H35.3198C35.6786 16.5163 35.9691 16.8077 35.9692 17.1665C35.9692 17.5253 35.6786 17.8167 35.3198 17.8169H34.6362V18.4995C34.6362 18.8585 34.3448 19.1499 33.9858 19.1499C33.6271 19.1496 33.3364 18.8583 33.3364 18.4995V17.8169H32.6528C32.294 17.8168 32.0025 17.5254 32.0024 17.1665C32.0026 16.8077 32.294 16.5162 32.6528 16.5161H33.3364V15.8335C33.3366 15.4748 33.6272 15.1834 33.9858 15.1831ZM31.7319 10.4028C31.7129 10.4108 31.6956 10.4224 31.6812 10.437L31.6782 10.439L29.0444 13.0728L30.1255 14.1538L32.7593 11.52L32.7661 11.5142C32.7804 11.5002 32.7915 11.4828 32.7993 11.4644C32.8069 11.4461 32.811 11.4265 32.811 11.4067C32.811 11.3868 32.8071 11.3665 32.7993 11.3481C32.7916 11.33 32.7802 11.3131 32.7661 11.2993L31.9038 10.437C31.8894 10.4225 31.8719 10.4108 31.853 10.4028C31.834 10.3949 31.8131 10.3902 31.7925 10.3901C31.7718 10.3902 31.751 10.3949 31.7319 10.4028ZM26.1255 8.02393C26.4844 8.02393 26.7757 8.31544 26.7759 8.67432V8.69092H26.7925C27.1513 8.69101 27.4418 8.98249 27.4419 9.34131C27.4417 9.70009 27.1513 9.99063 26.7925 9.99072H26.7759V10.0073C26.7759 10.3663 26.4845 10.6577 26.1255 10.6577C25.7667 10.6575 25.4761 10.3662 25.4761 10.0073V9.99072H25.4595C25.1007 9.99063 24.8093 9.70009 24.8091 9.34131C24.8092 8.98249 25.1006 8.69101 25.4595 8.69092H25.4761V8.67432C25.4762 8.31555 25.7667 8.0241 26.1255 8.02393ZM22.8003 8.2749C23.14 8.27507 23.4154 8.55044 23.4155 8.89014C23.4155 9.2299 23.14 9.50521 22.8003 9.50537H12.646C12.3062 9.50529 12.0308 9.22995 12.0308 8.89014C12.0308 8.55039 12.3062 8.27498 12.646 8.2749H22.8003ZM33.9858 4.02393C34.3447 4.02393 34.6361 4.31544 34.6362 4.67432V5.35791H35.3198C35.6785 5.35809 35.9689 5.64871 35.9692 6.00732C35.9692 6.3662 35.6787 6.65753 35.3198 6.65771H34.6362V7.34131C34.6361 7.70014 34.3447 7.99072 33.9858 7.99072C33.6272 7.99046 33.3366 7.69998 33.3364 7.34131V6.65771H32.6528C32.2939 6.65762 32.0024 6.36625 32.0024 6.00732C32.0027 5.64866 32.2941 5.358 32.6528 5.35791H33.3364V4.67432C33.3366 4.3156 33.6272 4.02419 33.9858 4.02393ZM29.8765 4.2749C30.2163 4.2749 30.4926 4.55034 30.4927 4.89014C30.4927 5.23 30.2163 5.50537 29.8765 5.50537H12.646C12.3062 5.50529 12.0308 5.22995 12.0308 4.89014C12.0308 4.55039 12.3062 4.27498 12.646 4.2749H29.8765ZM29.8765 0.274902C30.2163 0.274902 30.4926 0.550338 30.4927 0.890137C30.4927 1.23 30.2163 1.50537 29.8765 1.50537H12.646C12.3062 1.50529 12.0308 1.22995 12.0308 0.890137C12.0308 0.550388 12.3062 0.274984 12.646 0.274902H29.8765Z" fill="#8A8A8A"/>
</svg>
