<svg width="48" height="24" viewBox="0 0 48 24" fill="none" xmlns="http://www.w3.org/2000/svg">
<g clip-path="url(#clip0_1683_13281)">
<path d="M33.8497 -0.249939C35.1752 -0.249939 36.2501 0.824968 36.2501 2.15045V21.3497C36.2501 22.6752 35.1752 23.7501 33.8497 23.7501H14.6505C13.325 23.7501 12.2501 22.6752 12.2501 21.3497V2.15045C12.2501 0.824969 13.325 -0.249939 14.6505 -0.249939H33.8497ZM15.921 3.42096H13.4503V6.09088H15.921V9.00397H13.4503V11.6749H15.921V14.3458H13.4503V17.0167H15.921V19.9297H13.4503V21.3497L13.4512 21.4122C13.4835 22.0461 14.0085 22.5499 14.6505 22.5499H15.4053L15.4883 22.0518C15.5794 21.5071 15.7252 20.9748 15.921 20.462V19.9297H16.1446C16.5502 19.055 17.1097 18.2498 17.8047 17.5547C17.9948 17.3648 18.1938 17.186 18.3995 17.0167H15.921V14.3458H18.5909V13.6456C18.1207 12.9595 17.7747 12.1978 17.5684 11.3946C17.5925 11.4885 17.6177 11.5821 17.6456 11.6749H15.921V9.00397H17.3731C17.4645 7.97323 17.7803 6.9809 18.2911 6.09186H15.921V3.42096H18.5909V0.950256H15.921V3.42096ZM23.6622 16.3253C21.7831 16.3273 19.9814 17.0745 18.6524 18.4034C17.601 19.4549 16.9139 20.8024 16.6719 22.2501H32.2276C31.9856 20.8025 31.2985 19.455 30.2471 18.4034C28.9183 17.0745 27.1165 16.3272 25.2374 16.3253H23.6622ZM32.8741 20.2022C32.8356 20.1108 32.7966 20.0197 32.7549 19.9297H35.0499V17.0167H32.4297V14.3458H35.0499V11.6749H32.4297V9.00397H35.0499V6.09186H32.4297V3.42096H35.0499V2.15045C35.0499 1.50853 34.5461 0.983541 33.9122 0.951233L33.8497 0.950256H32.4297V3.42096H29.5167V0.950256H26.8458V2.94244C26.8439 2.94176 26.8418 2.94117 26.8399 2.94049C27.2058 3.07117 27.5603 3.23206 27.9005 3.42096H29.5167V4.64948L29.7188 4.86237C30.068 5.24841 30.3689 5.67051 30.6231 6.11725C30.6182 6.10865 30.6144 6.09946 30.6094 6.09088H32.4297V9.00397H31.5274C31.5458 9.21165 31.5557 9.42077 31.5557 9.63092C31.5557 10.3333 31.4515 11.0252 31.252 11.6856C31.2531 11.682 31.2548 11.6785 31.2559 11.6749H32.4297V14.3458H29.7647C29.6843 14.4364 29.602 14.5255 29.5167 14.6124V16.3214C29.5106 16.3177 29.5042 16.3143 29.4981 16.3106C29.8478 16.5205 30.1836 16.7553 30.501 17.0167H32.4297V19.3028C32.596 19.5937 32.7444 19.894 32.8741 20.2022ZM31.0948 17.5547C31.1639 17.6239 31.2315 17.6944 31.2979 17.7657C31.2315 17.6944 31.1639 17.6239 31.0948 17.5547C30.998 17.458 30.899 17.3638 30.7979 17.2725C30.8989 17.364 30.998 17.458 31.0948 17.5547ZM18.5919 16.8633C19.2387 16.3623 19.9522 15.9604 20.71 15.671C20.2483 15.3849 19.8172 15.0448 19.4268 14.6544C19.3268 14.5544 19.2311 14.4509 19.1378 14.3458H18.5919V16.8633ZM24.4503 3.72565C22.8841 3.72568 21.3819 4.34775 20.2735 5.45514C19.1662 6.56331 18.5441 8.065 18.544 9.63092C18.546 11.1968 19.1681 12.6983 20.2755 13.8057C21.3827 14.9131 22.8842 15.5352 24.4503 15.5372C26.0163 15.537 27.5187 14.915 28.627 13.8077C29.7342 12.6994 30.3565 11.1969 30.3565 9.63092C30.3564 8.06512 29.734 6.56338 28.627 5.45514C27.5188 4.34784 26.0163 3.72578 24.4503 3.72565ZM31.1846 11.8907C31.1567 11.9739 31.1277 12.0566 31.0967 12.1387C31.1277 12.0567 31.1567 11.9739 31.1846 11.8907ZM17.3487 9.89362C17.3491 9.90372 17.3502 9.91379 17.3506 9.92389C17.3466 9.82712 17.3439 9.73011 17.3438 9.63287L17.3487 9.89362ZM18.5919 3.42096V5.61041C18.8367 5.25364 19.1147 4.9169 19.4249 4.60651V4.60553C19.8962 4.13466 20.4279 3.73867 21.0001 3.42096H18.5919ZM21.504 3.16608C21.5004 3.1677 21.4968 3.16933 21.4932 3.17096C22.4126 2.75035 23.4198 2.52547 24.4503 2.52545C24.3584 2.52545 24.2663 2.52875 24.1749 2.53229V0.950256H21.504V3.16608ZM24.7637 2.53229C24.7621 2.53222 24.7605 2.53236 24.7589 2.53229L24.4503 2.52545C24.555 2.52546 24.6595 2.52768 24.7637 2.53229ZM33.3936 21.9571C33.3807 21.8853 33.3673 21.8136 33.3526 21.7422C33.3673 21.8136 33.3807 21.8853 33.3936 21.9571ZM33.3438 21.7061C33.3246 21.6149 33.3046 21.524 33.2823 21.4337C33.3046 21.524 33.3246 21.6149 33.3438 21.7061ZM32.9893 20.4913C32.9545 20.3988 32.9181 20.307 32.8799 20.2159C32.9181 20.307 32.9544 20.3988 32.9893 20.4913ZM17.4288 10.7188C17.4267 10.7058 17.4239 10.6928 17.4219 10.6797C17.4239 10.6928 17.4267 10.7058 17.4288 10.7188Z" fill="#8A8A8A"/>
</g>
<defs>
<clipPath id="clip0_1683_13281">
<rect width="48" height="24" fill="white"/>
</clipPath>
</defs>
</svg>
