<svg width="24" height="24" viewBox="0 0 24 24" fill="none" xmlns="http://www.w3.org/2000/svg">
<path d="M19 3C20.1046 3 21 3.89543 21 5M21 19C21 20.1046 20.1046 21 19 21H18C18 19.4087 17.3679 17.8826 16.2426 16.7574C15.1174 15.6321 13.5913 15 12 15C10.4087 15 8.88258 15.6321 7.75736 16.7574C6.63214 17.8826 6 19.4087 6 21H5C3.89543 21 3 20.1046 3 19M3 5C3 3.89543 3.89543 3 5 3M21 13.5V16M21 8V11M3 11V8M3 16V13.5M8 3H10.5M13.5 3H16M10.5 21H8.5M15.5 21H13.5M14.1213 12.1213C15.2929 10.9497 15.2929 9.05025 14.1213 7.87868C12.9497 6.70711 11.0503 6.70711 9.87868 7.87868C8.70711 9.05025 8.70711 10.9497 9.87868 12.1213C11.0503 13.2929 12.9497 13.2929 14.1213 12.1213Z" stroke="#8A8A8A" stroke-width="1.3" stroke-linecap="round" stroke-linejoin="round"/>
</svg>
