<svg width="512" height="512" viewBox="0 0 512 512" fill="none" xmlns="http://www.w3.org/2000/svg">
<g clip-path="url(#clip0_1483_16751)">
<path fill-rule="evenodd" clip-rule="evenodd" d="M419.563 176.533C419.563 79.04 331.029 0 221.803 0C183.957 0 153.259 79.04 153.259 176.533C153.259 200.917 155.179 224.171 158.656 245.312H91.52L21.3333 490.667H221.867V353.131C331.029 353.131 419.541 274.048 419.541 176.597L419.563 176.555V176.533ZM221.803 32.32C241.643 32.32 257.685 96.9173 257.685 176.533C257.685 256.171 241.643 320.747 221.824 320.747C201.984 320.747 185.963 256.171 185.963 176.533C185.963 96.9173 202.005 32.32 221.803 32.32Z" fill="#B6B6B6"/>
<path fill-rule="evenodd" clip-rule="evenodd" d="M423.424 353.109H222.037L299.264 490.667H500.608L423.424 353.109Z" fill="#B6B6B6"/>
</g>
<defs>
<clipPath id="clip0_1483_16751">
<rect width="512" height="512" fill="white"/>
</clipPath>
</defs>
</svg>
