<svg width="48" height="24" viewBox="0 0 48 24" fill="none" xmlns="http://www.w3.org/2000/svg">
<g clip-path="url(#clip0_1684_13417)">
<path d="M18.4659 16.3994C18.7798 16.0857 19.2878 16.0856 19.6017 16.3994C19.9155 16.7133 19.9154 17.2212 19.6017 17.5352L15.6788 21.4502H18.2511C18.6931 21.4502 19.0508 21.808 19.0509 22.25C19.0509 22.692 18.6931 23.0498 18.2511 23.0498H13.7511C13.5603 23.0498 13.3765 22.9822 13.2316 22.8584L13.2306 22.8574C13.1899 22.8217 13.1515 22.7816 13.1183 22.7373V22.7363C13.0222 22.6128 12.9633 22.4629 12.9513 22.3066V17.75C12.9513 17.308 13.3091 16.9502 13.7511 16.9502C14.1931 16.9502 14.5509 17.308 14.5509 17.75V20.3213L18.4659 16.3994ZM34.7511 7.9502C34.963 7.9502 35.1674 8.03452 35.3175 8.18457C35.4673 8.33455 35.5509 8.53829 35.5509 8.75V22.25C35.5509 22.4619 35.4675 22.6664 35.3175 22.8164C35.1675 22.9665 34.963 23.0498 34.7511 23.0498H21.2511C20.8091 23.0497 20.4513 22.692 20.4513 22.25C20.4514 21.8081 20.8092 21.4503 21.2511 21.4502H33.9513V8.75C33.9514 8.30811 34.3092 7.95026 34.7511 7.9502ZM27.2511 0.450195C27.693 0.450195 28.0508 0.808072 28.0509 1.25C28.0509 1.692 27.6931 2.0498 27.2511 2.0498H14.5509V14.75C14.5509 14.9619 14.4675 15.1664 14.3175 15.3164C14.1675 15.4665 13.963 15.5498 13.7511 15.5498C13.5394 15.5498 13.3357 15.4662 13.1857 15.3164C13.0356 15.1664 12.9513 14.9619 12.9513 14.75V1.25C12.9514 0.808109 13.3092 0.450255 13.7511 0.450195H27.2511ZM35.5509 5.75C35.5509 6.192 35.1931 6.5498 34.7511 6.5498C34.3091 6.54974 33.9513 6.19196 33.9513 5.75V3.18457L30.1505 7.27637L30.1495 7.27734C29.9996 7.42828 29.7943 7.51465 29.5812 7.51465C29.3948 7.51455 29.2149 7.44853 29.0724 7.33105L29.0138 7.27734C28.863 7.12747 28.7765 6.92291 28.7765 6.70996C28.7765 6.49683 28.8629 6.29155 29.0138 6.1416L32.8292 2.0498H30.2511C29.8091 2.0498 29.4513 1.692 29.4513 1.25C29.4513 0.808002 29.8091 0.450195 30.2511 0.450195H34.7511C34.9419 0.450201 35.1257 0.517855 35.2706 0.641602L35.2716 0.642578C35.312 0.67808 35.3498 0.717744 35.3829 0.761719L35.4484 0.859375C35.5064 0.961394 35.5418 1.07563 35.5509 1.19336V5.75Z" fill="#8A8A8A" stroke="#8A8A8A" stroke-width="0.1"/>
</g>
<path fill-rule="evenodd" clip-rule="evenodd" d="M22.2197 7.40625C22.3779 7.41135 22.533 7.46106 22.667 7.5498L28.5752 11.3018C28.8856 11.4931 28.9999 11.8473 29 12.1348C29 12.4223 28.8847 12.7764 28.5742 12.9678L22.668 16.7197C22.386 16.9062 22.0186 16.9096 21.7344 16.7305L21.7324 16.7285C21.4518 16.5486 21.2852 16.2125 21.2939 15.876V8.38281C21.2874 7.90559 21.653 7.43289 22.1494 7.40723L22.2197 7.40625ZM23.0879 14.0488L26.3232 12.0664L23.0879 10.0791V14.0488Z" fill="#8A8A8A"/>
<defs>
<clipPath id="clip0_1684_13417">
<rect width="24" height="24" fill="white" transform="translate(12.0011)"/>
</clipPath>
</defs>
</svg>
