<svg width="182" height="148" viewBox="0 0 182 148" fill="none" xmlns="http://www.w3.org/2000/svg">
<g clip-path="url(#clip0_2902_38097)">
<path d="M116 16H110V0H116V16ZM105 96H99V132H105V96ZM105 24H99V36H105V24ZM149 96H143V128H149V96ZM160 100H154V116H160V100ZM105 52H99V76H105V52ZM116 40H110V84H116V40ZM160 16H154V72H160V16ZM171 20H165V52H171V20ZM182 24H176V36H182V24ZM94 44H88V112H94V44ZM94 44H88V112H94V44ZM127 32H121V48H127V32ZM138 24H132V40H138V24ZM149 16H143V48H149V16ZM127 60H121V84H127V60ZM138 68H132V84H138V68ZM149 60H143V84H149V60ZM116 92H110V112H116V92ZM127 92H121V104H127V92ZM138 92H132V112H138V92ZM116 120H110V144H116V120ZM127 128H121V148H127V128ZM138 120H132V140H138V120ZM72 0H66V16H72V0ZM83 96H77V132H83V96ZM83 24H77V36H83V24ZM39 96H33V128H39V96ZM28 100H22V116H28V100ZM83 52H77V76H83V52ZM72 40H66V84H72V40ZM28 16H22V72H28V16ZM17 20H11V52H17V20ZM6 24H0V36H6V24ZM61 32H55V48H61V32ZM50 24H44V40H50V24ZM39 16H33V48H39V16ZM61 60H55V84H61V60ZM50 68H44V84H50V68ZM39 60H33V84H39V60ZM72 92H66V112H72V92ZM61 92H55V104H61V92ZM50 92H44V112H50V92ZM72 120H66V144H72V120ZM61 128H55V148H61V128ZM50 120H44V140H50V120Z" fill="black"/>
</g>
<defs>
<clipPath id="clip0_2902_38097">
<rect width="182" height="148" fill="white"/>
</clipPath>
</defs>
</svg>
