<svg width="512" height="512" viewBox="0 0 512 512" fill="none" xmlns="http://www.w3.org/2000/svg">
<g clip-path="url(#clip0_1485_17729)">
<path d="M405.193 151.462C410.542 145.833 441.167 177.892 445.432 182.856C483.26 227.291 510.074 300.044 494.482 357.869C470.744 445.795 355.164 425.693 375.266 326.055C379.531 304.904 397.291 282.354 404.354 260.749C416.275 224.18 414.562 188.415 405.228 151.497L405.193 151.462Z" fill="#FEFEFE"/>
<path d="M38.1066 196.876C37.5472 121.99 112.992 17.8425 190.185 11.6195C269.126 5.25668 289.823 101.154 217.315 129.646C185.85 141.988 149.946 135.66 115.125 146.323C83.4505 156.042 61.5652 174.641 38.0717 196.841L38.1066 196.876Z" fill="#FEFEFE"/>
<path d="M268.777 476.595L216.545 495.999C157.427 508.794 59.2927 490.265 24.6467 435.796C-13.1806 376.433 51.6363 311.826 111.244 352.695C135.437 369.266 146.065 397.235 164 418.806C189.241 449.221 228.991 473.064 268.777 476.595Z" fill="#FEFEFE"/>
<path d="M289.788 256.309C294.857 255.609 299.612 247.673 299.996 265.294C301.29 323.118 247.975 366.26 191.898 350.702V280.781C213.259 286.585 233.956 283.823 254.827 277.285L255.492 272.181C267.868 268.23 279.3 262.951 289.788 256.309Z" fill="#FDFDFD"/>
<path d="M349.221 396.186C340.69 420.239 303.667 468.554 277.517 469.778C237.871 471.666 176.62 433.104 160.434 396.186C173.893 399.682 183.578 408.387 197.072 413.701C233.536 428 283.495 429.958 319.085 413.212C324.609 410.59 346.529 393.704 349.221 396.186Z" fill="#FCFCFC"/>
<path d="M386.733 134.891C390.789 138.981 398.9 161.321 400.613 168.208C408.793 201.071 406.276 232.92 393.795 264.21C393.096 265.993 386.489 287.633 380.685 280.781C380.056 280.047 384.391 266.762 384.391 261.693C384.391 214.95 362.016 167.369 326.391 137.548L289.788 116.536C311.079 110.628 371.63 119.823 386.733 134.925V134.891Z" fill="#FCFCFC"/>
<path d="M163.93 147.966L118.446 177.612C82.6113 211.629 65.0611 256.099 64.3269 305.254C47.0214 288.368 27.7581 233.584 38.561 213.062C58.069 175.934 122.152 144.225 163.93 148.001V147.966Z" fill="#FCFCFC"/>
<path d="M286.292 252.813C282.97 263.58 258.918 276.726 251.331 266.797C251.786 265.014 261.644 258.336 265.001 250.75C271.259 236.556 270.035 223.376 265.42 208.972C262.309 199.218 256.925 196.631 251.331 189.919C268.881 190.338 281.257 207.154 288.145 221.173C295.032 235.192 299.367 240.821 286.257 252.813H286.292Z" fill="#F7F7F7"/>
<path d="M289.788 256.309C281.292 267.566 267.728 273.23 254.827 277.285C253.289 274.523 250.597 269.699 251.331 266.797C263.043 267.881 277.796 260.574 286.292 252.813C285.767 255.12 287.76 256.588 289.788 256.309Z" fill="#1F1F1F"/>
</g>
<defs>
<clipPath id="clip0_1485_17729">
<rect width="512" height="512" fill="white"/>
</clipPath>
</defs>
</svg>
