<svg width="48" height="24" viewBox="0 0 48 24" fill="none" xmlns="http://www.w3.org/2000/svg">
<g clip-path="url(#clip0_1684_13432)">
<g clip-path="url(#clip1_1684_13432)">
<path d="M34.0012 12.1069C34.0012 5.10693 28.5012 1.60693 23.5012 1.60693C18.5012 1.60694 14.0012 6.2736 14.0012 8.60693" stroke="#8A8A8A" stroke-width="1.6" stroke-linecap="round" stroke-linejoin="round"/>
<path d="M13.0012 0.606934V8.10693C13.0012 8.65922 13.4489 9.10693 14.0012 9.10693H19.5012" stroke="#8A8A8A" stroke-width="1.6" stroke-linecap="round" stroke-linejoin="round"/>
</g>
</g>
<path fill-rule="evenodd" clip-rule="evenodd" d="M20.2476 14.5033C20.3872 14.4285 20.5469 14.3936 20.7075 14.4035L27.6993 14.6991C28.0639 14.7095 28.3399 14.9591 28.4837 15.2081C28.6274 15.4571 28.7054 15.821 28.5323 16.1419L25.2925 22.3448C25.1415 22.6473 24.8251 22.834 24.4893 22.8209L24.4867 22.8202C24.1537 22.8047 23.8414 22.5969 23.6807 22.3011L19.9341 15.8119C19.6899 15.4019 19.7703 14.8098 20.1872 14.5393L20.2476 14.5033ZM24.3215 19.8213L26.1322 16.4868L22.3367 16.3834L24.3215 19.8213Z" fill="#8A8A8A"/>
<defs>
<clipPath id="clip0_1684_13432">
<rect width="24" height="24" fill="white" transform="translate(12.0011)"/>
</clipPath>
<clipPath id="clip1_1684_13432">
<rect width="24" height="24" fill="white" transform="translate(11.2512 -0.249878)"/>
</clipPath>
</defs>
</svg>
