<svg width="512" height="512" viewBox="0 0 512 512" fill="none" xmlns="http://www.w3.org/2000/svg">
<g clip-path="url(#clip0_1483_16761)">
<path fill-rule="evenodd" clip-rule="evenodd" d="M381.013 490.496C324.075 495.723 276.757 429.141 240.277 395.477C221.824 528.192 21.3333 515.776 21.3333 381.013V131.2C21.3333 111.552 26.5387 91.4988 36.9707 74.6668C56.2133 42.1761 93.504 20.9068 131.2 21.3335H381.013C515.755 21.3335 528.597 221.824 395.456 239.851L458.816 302.805C528.192 368.171 476.053 493.291 381.035 490.475L381.013 490.496ZM350.549 411.115C389.845 451.605 452.395 389.056 411.904 349.76L302.421 240.277H241.067V301.632L335.701 396.267L350.549 411.115ZM87.8933 380.629C87.104 436.779 175.723 436.779 174.507 380.629V130.816C175.317 102.741 145.643 80.6828 118.784 89.1095C117.568 89.5148 116.373 89.8988 115.584 90.3041C98.7307 96.7254 87.104 113.557 87.488 131.605V380.629H87.8933ZM381.013 174.123C437.163 174.912 437.163 86.6988 381.013 87.5095H232.256C243.477 111.168 240.683 148.459 241.067 174.123H381.013Z" fill="#B6B6B6"/>
</g>
<defs>
<clipPath id="clip0_1483_16761">
<rect width="512" height="512" fill="white"/>
</clipPath>
</defs>
</svg>
