<svg width="48" height="24" viewBox="0 0 48 24" fill="none" xmlns="http://www.w3.org/2000/svg">
<path d="M28.8809 0C29.3076 0 29.6533 0.299061 29.6533 0.666992V11.333C29.6533 11.7016 29.3077 12 28.8809 12C28.4549 11.9999 28.1094 11.7015 28.1094 11.333V0.666992C28.1094 0.29848 28.4548 5.9042e-05 28.8809 0ZM22.5352 0.429688C22.9619 0.42969 23.3076 0.72875 23.3076 1.09668V10.9033C23.3076 11.2712 22.9612 11.5693 22.5352 11.5693C22.1091 11.5693 21.7627 11.2713 21.7627 10.9033V1.09668C21.7627 0.728131 22.1091 0.429688 22.5352 0.429688ZM25.708 2.36523C26.1348 2.36523 26.4805 2.6643 26.4805 3.03223V8.96777C26.4802 9.33551 26.1347 9.63379 25.708 9.63379C25.2823 9.63359 24.9368 9.3354 24.9365 8.96777V3.03223C24.9365 2.6638 25.2821 2.36543 25.708 2.36523ZM16.1885 2.7959C16.6153 2.7959 16.9609 3.09496 16.9609 3.46289V8.53711C16.9609 8.90566 16.6145 9.2041 16.1885 9.2041C15.7617 9.20405 15.417 8.90564 15.417 8.53711V3.46289C15.417 3.09438 15.7625 2.79595 16.1885 2.7959ZM32.0547 2.7959C32.4813 2.7961 32.8262 3.09508 32.8262 3.46289V8.53711C32.8262 8.90553 32.4813 9.2039 32.0547 9.2041C31.6286 9.2041 31.2832 8.90567 31.2832 8.53711V3.46289C31.2832 3.09434 31.6286 2.7959 32.0547 2.7959ZM12.7725 3.65527C13.1992 3.65528 13.5449 3.95434 13.5449 4.32227V7.67676C13.5447 8.04511 13.1984 8.34277 12.7725 8.34277C12.3458 8.34277 12.0003 8.04513 12 7.67676V4.32227C12 3.95372 12.3457 3.65527 12.7725 3.65527ZM19.3623 3.65527C19.7889 3.65548 20.1338 3.95446 20.1338 4.32227V7.67676C20.1336 8.04505 19.7881 8.34257 19.3623 8.34277C18.9356 8.34277 18.59 8.04519 18.5898 7.67676V4.32227C18.5898 3.95372 18.9355 3.65527 19.3623 3.65527ZM35.2285 3.65527C35.6552 3.65539 36 3.9544 36 4.32227V7.67676C35.9997 8.04504 35.6543 8.34266 35.2285 8.34277C34.8019 8.34277 34.4563 8.04513 34.4561 7.67676V4.32227C34.4561 3.95372 34.8017 3.65527 35.2285 3.65527Z" fill="#8A8A8A"/>
<path fill-rule="evenodd" clip-rule="evenodd" d="M23.7207 23.8245C23.9549 24.0586 24.335 24.0585 24.5693 23.8245L27.1152 21.2795C27.3494 21.0453 27.3492 20.6652 27.1152 20.4309C26.8809 20.1966 26.5009 20.1966 26.2666 20.4309L24.75 21.9475V14.3997C24.7498 14.0685 24.4807 13.8 24.1494 13.8C23.8184 13.8003 23.55 14.0686 23.5498 14.3997V21.9573L22.0234 20.4309C21.7891 20.1966 21.4091 20.1966 21.1748 20.4309C20.9412 20.6653 20.9408 21.0454 21.1748 21.2795L23.7207 23.8245Z" fill="#8A8A8A"/>
</svg>
