<svg width="48" height="24" viewBox="0 0 48 24" fill="none" xmlns="http://www.w3.org/2000/svg">
<path d="M23.7397 13.8366C24.0694 13.8369 24.337 14.1046 24.3374 14.4342V21.9528L25.8481 20.4421C26.0814 20.209 26.4604 20.2092 26.6938 20.4421C26.9269 20.6755 26.927 21.0544 26.6938 21.2878L24.1577 23.8239C24.0994 23.8821 24.0313 23.9256 23.9595 23.9548C23.7439 24.0419 23.4869 23.9985 23.312 23.8239L20.7759 21.2878C20.5431 21.0544 20.543 20.6754 20.7759 20.4421C21.0092 20.209 21.3881 20.2092 21.6216 20.4421L23.1411 21.9616V14.4342C23.1415 14.1046 23.41 13.8368 23.7397 13.8366ZM28.4741 0.00163269C30.4687 0.00165681 32.0999 1.63657 32.1001 3.66765V8.93523C32.1001 10.9665 30.4688 12.6022 28.4741 12.6022H19.5259C17.5311 12.6022 15.8999 10.9665 15.8999 8.93523V3.66765C15.9001 1.63656 17.5313 0.00163269 19.5259 0.00163269H28.4741ZM19.5259 1.31413C18.216 1.31413 17.1862 2.36432 17.186 3.66765V8.93523C17.186 10.2387 18.2159 11.2897 19.5259 11.2897H28.4741C29.7841 11.2897 30.814 10.2387 30.814 8.93523V3.66765C30.8138 2.36433 29.7839 1.31416 28.4741 1.31413H19.5259ZM22.147 2.9821C22.2569 2.98565 22.3654 3.02031 22.4585 3.08269L26.5601 5.71648C26.7756 5.85072 26.8549 6.09964 26.855 6.30144C26.855 6.50326 26.7746 6.75205 26.5591 6.8864L22.4585 9.52019C22.2627 9.65108 22.0084 9.65274 21.811 9.52702L21.8091 9.52605C21.6144 9.39977 21.4984 9.16451 21.5044 8.92839V3.66765C21.5 3.3327 21.7545 3.00102 22.0991 2.98308L22.147 2.9821ZM22.7612 7.73991L25.0073 6.30144L22.7612 4.85905V7.73991ZM26.4907 6.58562L26.519 6.54655C26.5276 6.53279 26.5356 6.51762 26.5425 6.50261C26.5286 6.53283 26.5115 6.56097 26.4907 6.58562Z" fill="#8A8A8A"/>
</svg>
