<svg width="48" height="24" viewBox="0 0 48 24" fill="none" xmlns="http://www.w3.org/2000/svg">
<path fill-rule="evenodd" clip-rule="evenodd" d="M24.1494 13.8373C24.479 13.8375 24.7465 14.1054 24.7471 14.4349V21.9535L26.2578 20.4427C26.491 20.2097 26.87 20.2101 27.1035 20.4427C27.3368 20.6761 27.3368 21.055 27.1035 21.2884L24.5674 23.8246C24.509 23.8829 24.4411 23.9263 24.3691 23.9554C24.1534 24.0426 23.8966 23.9994 23.7217 23.8246L21.1855 21.2884C20.953 21.055 20.9525 20.6759 21.1855 20.4427C21.4187 20.2097 21.7978 20.2101 22.0312 20.4427L23.5508 21.9623V14.4349C23.5513 14.1054 23.8198 13.8375 24.1494 13.8373ZM23.9551 0.00229721C24.0223 -0.00278013 24.0902 0.00402894 24.1543 0.022805L24.2178 0.045266L29.5977 2.38023L29.667 2.41636C29.8212 2.51202 29.9185 2.67984 29.918 2.86363V9.57554C29.9164 9.78332 29.7896 9.97076 29.5977 10.0541L24.2178 12.389C24.0963 12.4414 23.96 12.4479 23.835 12.4085L23.7822 12.389L18.4023 10.0541C18.2106 9.9703 18.0836 9.7836 18.082 9.57554V2.86363C18.0814 2.65366 18.2084 2.46475 18.4023 2.38023L23.7822 0.045266C23.8364 0.0215937 23.8951 0.00711629 23.9551 0.00229721ZM24.1113 12.3275C24.1199 12.3253 24.1293 12.3252 24.1377 12.3226L24.1816 12.306C24.1589 12.3158 24.135 12.3215 24.1113 12.3275ZM19.1582 9.22886L23.4619 11.098V5.53941L19.1582 3.67027V9.22886ZM24.5381 5.53941V11.098L28.8418 9.22886V3.67027L24.5381 5.53941ZM19.9473 2.86363L24 4.62144L28.0527 2.86363L24 1.10093L19.9473 2.86363Z" fill="#8A8A8A"/>
</svg>
