<svg width="48" height="24" viewBox="0 0 48 24" fill="none" xmlns="http://www.w3.org/2000/svg">
<path d="M24 13.7999C24.3312 13.8 24.5996 14.0692 24.5996 14.4005V21.9464L26.1162 20.4298C26.3504 20.1957 26.7305 20.1959 26.9648 20.4298C27.1991 20.664 27.1991 21.0441 26.9648 21.2784L24.4189 23.8243C24.3311 23.912 24.2227 23.9674 24.1094 23.9893C24.0338 24.0039 23.9554 24.004 23.8799 23.9893C23.7667 23.9673 23.658 23.9119 23.5703 23.8243L21.0254 21.2784C20.7915 21.0441 20.7914 20.664 21.0254 20.4298C21.2595 20.196 21.6388 20.1962 21.873 20.4298L23.3994 21.9571V14.4005C23.3994 14.0692 23.6687 13.8 24 13.7999ZM31.6309 7.62939e-05C32.379 0.000170143 33 0.5993 33 1.32039V11.88C33 12.601 32.379 13.2002 31.6309 13.2003H16.3691C15.6211 13.2 15 12.601 15 11.88V1.32039C15 0.599386 15.6211 0.000313691 16.3691 7.62939e-05H31.6309ZM16.1738 9.91805V11.88C16.1738 11.994 16.2509 12.0683 16.3691 12.0684H31.6309C31.7492 12.0683 31.8262 11.994 31.8262 11.88V10.2657L28.4697 7.67879L25.7002 9.51668C25.4938 9.65074 25.1963 9.63839 25.0029 9.48738L21.2363 6.55281L16.1738 9.91805ZM16.3691 1.13191C16.2509 1.1321 16.1738 1.20636 16.1738 1.32039V8.53914L20.9248 5.37996C21.0041 5.32563 21.0973 5.29142 21.1934 5.28035C21.3478 5.26414 21.5079 5.31009 21.6279 5.40437L25.3945 8.3448L28.1699 6.50594C28.3763 6.37187 28.6738 6.38423 28.8672 6.53523L31.8262 8.81648V1.32039C31.8262 1.20627 31.7492 1.13199 31.6309 1.13191H16.3691ZM25.3701 2.63972C26.3351 2.63993 27.1306 3.40693 27.1309 4.33699C27.1309 5.26721 26.3352 6.03405 25.3701 6.03426C24.4048 6.03426 23.6084 5.26734 23.6084 4.33699C23.6086 3.40681 24.405 2.63972 25.3701 2.63972ZM25.3701 3.77156C25.0393 3.77156 24.7834 4.01822 24.7832 4.33699C24.7832 4.65594 25.0392 4.9034 25.3701 4.9034C25.7009 4.9032 25.957 4.65582 25.957 4.33699C25.9568 4.01834 25.7007 3.77176 25.3701 3.77156Z" fill="#8A8A8A"/>
</svg>
