<svg xmlns="http://www.w3.org/2000/svg" viewBox="0 0 13.1843 13.1843" fill="currentColor">
  <path d="M8.34588 10.0382L7.33061 9.77324V4.93042L8.41739 4.6553C9.01323 4.50402 9.51372 4.38075 9.53753 4.38551C9.55662 4.38551 9.57091 5.7165 9.57091 7.34649V10.308L9.46603 10.3033C9.4041 10.3033 8.89879 10.1799 8.34588 10.0377V10.0382Z" />
  <path d="M3.57042 8.84174C3.57042 7.20084 3.58489 5.85504 3.60902 5.85504C3.62828 5.85028 4.13451 5.97501 4.74199 6.12733L5.83646 6.40381L5.82681 8.83273L5.81233 11.2611L4.82879 11.5142C4.2888 11.6521 3.78257 11.781 3.71024 11.7954L3.57042 11.829V8.84174Z" />
  <path d="M10.9097 6.39124C10.9097 0.994158 10.9145 0.704271 10.9965 0.728196C11.0399 0.742542 11.469 0.851917 11.9463 0.970849C12.4236 1.09457 12.8961 1.21291 12.9973 1.23681L13.1757 1.28463L13.1661 6.40079L13.1516 11.5218L12.1729 11.7692C11.6377 11.9067 11.1315 12.0304 11.0543 12.0501L10.9097 12.083V6.39124Z" />
  <path d="M0 6.40858C0 3.61112 0.01430 1.32257 0.0381504 1.32257C0.0571983 1.32257 0.55768 1.44635 1.15352 1.59405L2.24029 1.86974V6.40382C2.24029 8.8915 2.23074 10.9331 2.22121 10.9331C2.20692 10.9331 1.70166 11.0617 1.10108 11.2142L0 11.494V6.40858Z" />
</svg>
