<svg width="48" height="24" viewBox="0 0 48 24" fill="none" xmlns="http://www.w3.org/2000/svg">
<g clip-path="url(#clip0_1814_3710)">
<path d="M33.8497 -0.249939C35.1752 -0.249939 36.2501 0.824968 36.2501 2.15045V21.3497C36.2501 22.6752 35.1752 23.7501 33.8497 23.7501H14.6505C13.325 23.7501 12.2501 22.6752 12.2501 21.3497V2.15045C12.2501 0.824969 13.325 -0.249939 14.6505 -0.249939H33.8497ZM14.6505 0.950256C13.9877 0.950256 13.4503 1.48771 13.4503 2.15045V21.3497L13.4512 21.4122C13.4835 22.0461 14.0085 22.5499 14.6505 22.5499H15.4053L15.4883 22.0518C15.7713 20.3596 16.5752 18.7843 17.8047 17.5547C18.6381 16.7215 19.6301 16.0834 20.71 15.671C20.2483 15.3849 19.8172 15.0448 19.4268 14.6544C18.0945 13.322 17.3462 11.516 17.3438 9.63287V9.63092L17.3458 9.45514C17.3909 7.63476 18.1343 5.89806 19.4249 4.60651V4.60553C20.7581 3.27349 22.5659 2.52549 24.4503 2.52545C26.2756 2.52558 28.0289 3.22752 29.3487 4.48248L29.4747 4.60553L29.4756 4.60651C30.8076 5.93967 31.5556 7.74672 31.5557 9.63092C31.5557 11.5152 30.8078 13.3231 29.4756 14.6563L29.4747 14.6573C29.0845 15.0471 28.6529 15.3862 28.1915 15.6719C29.2705 16.0845 30.2621 16.7221 31.0948 17.5547C32.3243 18.7844 33.1282 20.3596 33.4112 22.0518L33.4942 22.5499H33.8497L33.9122 22.5489C34.5255 22.5176 35.0176 22.0255 35.0489 21.4122L35.0499 21.3497V2.15045C35.0499 1.50853 34.5461 0.983541 33.9122 0.951233L33.8497 0.950256H14.6505ZM23.6622 16.3253C23.129 16.3258 22.6025 16.3881 22.0909 16.5049L27.835 22.2501H31.2296L25.3057 16.3262C25.2829 16.326 25.2602 16.3253 25.2374 16.3253H23.6622ZM20.8145 16.9258C20.068 17.254 19.378 17.7113 18.7774 18.2833L22.7442 22.2501H26.1378L20.8145 16.9258ZM17.9796 19.1827C17.396 19.9665 16.9828 20.861 16.7618 21.8087C16.7897 21.6887 16.8195 21.5693 16.8536 21.4512L17.6534 22.2501H21.0469L17.9796 19.1827ZM16.7227 21.9796L16.6719 22.2501C16.6927 22.1259 16.718 22.0026 16.7452 21.8799C16.7378 21.9132 16.7296 21.9462 16.7227 21.9796ZM32.0089 21.3321C31.6716 20.2368 31.0724 19.2288 30.2471 18.4034C29.4211 17.5773 28.4119 16.976 27.3155 16.6387L32.0089 21.3321ZM18.544 9.63092C18.546 11.1968 19.1681 12.6983 20.2755 13.8057C21.3827 14.9131 22.8842 15.5352 24.4503 15.5372C24.4718 15.5372 24.4932 15.5355 24.5147 15.5352L18.545 9.56549C18.5447 9.58729 18.544 9.60909 18.544 9.63092ZM19.9161 5.84576C19.3698 6.50035 18.9752 7.26249 18.753 8.07721L26.004 15.3272C26.8186 15.105 27.5799 14.7103 28.2344 14.1641L19.9161 5.84576ZM23.0547 3.89264C22.226 4.09409 21.4479 4.47378 20.7755 5.00787L29.0723 13.3047C29.6065 12.6322 29.9862 11.8544 30.1876 11.0255L23.0547 3.89264ZM30.3526 9.49323C30.3172 7.97732 29.7015 6.53084 28.627 5.45514C27.5514 4.38034 26.1041 3.76402 24.588 3.72858L30.3526 9.49323ZM18.5977 8.83893C18.6157 8.70579 18.6382 8.57356 18.6651 8.44244C18.6382 8.57356 18.6157 8.70579 18.5977 8.83893Z" fill="#8A8A8A"/>
</g>
<defs>
<clipPath id="clip0_1814_3710">
<rect width="24" height="24" fill="white" transform="translate(12)"/>
</clipPath>
</defs>
</svg>
