<svg width="512" height="512" viewBox="0 0 512 512" fill="none" xmlns="http://www.w3.org/2000/svg">
<g clip-path="url(#clip0_1483_16770)">
<path d="M154.091 448C244.8 448 303.808 400.64 303.808 329.387C303.808 274.133 267.925 239.019 203.755 224.469L162.581 212.288C126.443 204.288 105.344 194.688 110.315 170.155C114.453 149.739 126.805 138.219 155.584 138.219C246.997 138.219 280.875 170.155 280.875 170.155V93.3547C280.875 93.3547 247.893 64 155.584 64C68.544 64 21.3333 108.16 21.3333 176.491C21.3333 231.744 54.0587 263.893 120.427 279.147L127.552 280.917C137.643 283.989 151.275 288.064 168.427 293.12C202.347 301.12 211.072 309.611 211.072 335.061C211.072 358.315 186.539 371.541 154.112 371.541C60.608 371.541 21.3333 324.928 21.3333 324.928V410.027C21.3333 410.027 45.9093 448 154.091 448Z" fill="url(#paint0_linear_1483_16770)"/>
<path d="M434.645 442.24C466.752 442.24 490.667 419.349 490.667 388.352C490.667 356.693 467.435 334.464 434.645 334.464C402.539 334.464 379.307 356.693 379.307 388.352C379.307 420.011 402.539 442.24 434.645 442.24Z" fill="#E80000"/>
</g>
<defs>
<linearGradient id="paint0_linear_1483_16770" x1="14145.1" y1="64" x2="14145.1" y2="38464" gradientUnits="userSpaceOnUse">
<stop stop-color="#9D39FF"/>
<stop offset="1" stop-color="#A380FF"/>
</linearGradient>
<clipPath id="clip0_1483_16770">
<rect width="512" height="512" fill="white"/>
</clipPath>
</defs>
</svg>
