<svg width="48" height="24" viewBox="0 0 48 24" fill="none" xmlns="http://www.w3.org/2000/svg">
<path fill-rule="evenodd" clip-rule="evenodd" d="M29.0245 11.721C29.2587 11.9553 29.2588 12.3354 29.0245 12.5696L26.4796 15.1155C26.2454 15.3497 25.8653 15.3494 25.631 15.1155C25.3967 14.8812 25.3967 14.5012 25.631 14.2669L27.1485 12.7493L19.6007 12.7493C19.2693 12.7493 19.0001 12.4811 19.0001 12.1497C19.0001 11.8184 19.2693 11.5501 19.6007 11.5501L27.1573 11.5501L25.631 10.0238C25.3966 9.78943 25.3966 9.40944 25.631 9.17512C25.8653 8.94106 26.2454 8.94089 26.4796 9.17512L29.0245 11.721Z" fill="#8A8A8A"/>
<path d="M9.76953 17C10.1092 17.0002 10.3847 17.2755 10.3848 17.6152C10.3848 17.955 10.1093 18.2303 9.76953 18.2305H0.615234C0.275436 18.2304 0 17.9551 0 17.6152C8.11821e-05 17.2755 0.275486 17.0001 0.615234 17H9.76953ZM14.3848 14C14.7245 14.0001 14.9999 14.2755 15 14.6152C15 14.9551 14.7246 15.2304 14.3848 15.2305H0.615234C0.275436 15.2304 0 14.9551 0 14.6152C8.11499e-05 14.2755 0.275486 14.0001 0.615234 14H14.3848ZM14.3848 11C14.7245 11.0001 14.9999 11.2755 15 11.6152C15 11.9551 14.7246 12.2304 14.3848 12.2305H0.615234C0.275436 12.2304 0 11.9551 0 11.6152C8.11499e-05 11.2755 0.275486 11.0001 0.615234 11H14.3848ZM14.3848 8C14.7245 8.00008 14.9999 8.27549 15 8.61523C15 8.95505 14.7246 9.23038 14.3848 9.23047H0.615234C0.275436 9.23039 0 8.95505 0 8.61523C8.11821e-05 8.27549 0.275486 8.00008 0.615234 8H14.3848ZM14.3848 5C14.7245 5.00008 14.9999 5.27549 15 5.61523C15 5.95505 14.7246 6.23038 14.3848 6.23047H0.615234C0.275436 6.23039 0 5.95505 0 5.61523C8.11821e-05 5.27549 0.275486 5.00008 0.615234 5H14.3848Z" fill="#8A8A8A"/>
<path fill-rule="evenodd" clip-rule="evenodd" d="M45.4553 12.1787C45.7605 11.9441 46.2061 11.9917 46.4407 12.2969C46.5586 12.4378 47.5432 13.7278 47.5432 16.0264C47.5432 18.3257 46.5581 19.616 46.4407 19.7334C46.206 20.0386 45.7605 20.0852 45.4553 19.8506C45.1504 19.6159 45.1042 19.1704 45.3616 18.8662C45.4321 18.7717 46.136 17.7859 46.136 16.0264C46.136 14.2669 45.4316 13.2814 45.3381 13.1641C45.1038 12.8589 45.1502 12.4133 45.4553 12.1787ZM33.7004 4.99902C36.3747 4.99902 38.5814 7.15789 38.6282 9.83203V9.90234L40.1995 12.249C40.4816 12.6714 40.5754 13.1641 40.4582 13.6094C40.2704 14.3132 39.6131 14.829 38.8625 14.8291H38.6282V16.2373C38.6281 17.1518 37.9001 17.8798 36.9856 17.8799L35.2034 17.8789L34.8284 19.0049C34.734 19.2861 34.4992 19.4965 34.218 19.5205C34.1007 19.5205 34.0072 19.5204 33.8899 19.4736C33.561 19.3325 33.3968 18.9118 33.5139 18.5361L33.9592 17.2695C34.1233 16.8003 34.5687 16.4717 35.0618 16.4717H36.9856C37.1028 16.4716 37.2199 16.3783 37.22 16.2373V13.8906C37.2202 13.6324 37.4314 13.4219 37.6897 13.4219H38.8625C39.0502 13.4217 39.1432 13.2342 39.05 13.0703L37.4543 10.6768C37.2905 10.4423 37.22 10.161 37.22 9.87988C37.1972 7.95622 35.6484 6.40729 33.7248 6.40723H33.7004C33.3487 6.40699 33.044 6.14825 32.9973 5.82031C32.9508 5.3752 33.2782 4.99928 33.7004 4.99902ZM42.3577 14.1016C42.639 13.8203 43.0846 13.8447 43.343 14.126C43.8121 14.6428 44.0465 15.3226 44.0227 16.0264C44.0465 16.7301 43.8121 17.4108 43.343 17.9268C43.0855 18.1852 42.639 18.1852 42.3577 17.9268C42.1471 17.6445 42.1002 17.1991 42.3577 16.917C42.7094 16.3773 42.7094 15.6739 42.3577 15.1113C42.3563 15.1113 42.3342 15.11 42.3342 15.0869C42.0529 14.8056 42.0763 14.3829 42.3577 14.1016Z" fill="#8A8A8A"/>
</svg>
