<svg width="24" height="24" viewBox="0 0 24 24" fill="none" xmlns="http://www.w3.org/2000/svg">
<path d="M7 10.3334L6.89314 9.69219L6.35 9.78272V10.3334H7ZM15.65 13C15.65 12.641 15.359 12.35 15 12.35C14.641 12.35 14.35 12.641 14.35 13H15H15.65ZM12.1069 10.1412C12.461 10.0822 12.7002 9.74726 12.6412 9.39316C12.5821 9.03906 12.2472 8.79984 11.8931 8.85886L12 9.50002L12.1069 10.1412ZM17.7169 10.6415L17.1195 10.3855V10.3855L17.7169 10.6415ZM18.8234 8.05975L18.2259 7.80371L18.2259 7.80371L18.8234 8.05975ZM19.0597 7.8234L18.8037 7.22596V7.22596L19.0597 7.8234ZM21.6415 6.71693L21.8975 7.31438V7.31438L21.6415 6.71693ZM21.6415 5.8897L21.3855 6.48715V6.48715L21.6415 5.8897ZM19.0597 4.78323L18.8037 5.38068L18.8037 5.38068L19.0597 4.78323ZM18.8234 4.54688L18.2259 4.80293V4.80293L18.8234 4.54688ZM17.7169 1.96512L18.3144 1.70907V1.70907L17.7169 1.96512ZM16.8897 1.96512L16.2922 1.70907V1.70907L16.8897 1.96512ZM15.7832 4.54688L15.1858 4.29083V4.29083L15.7832 4.54688ZM15.5469 4.78323L15.2908 4.18579V4.18579L15.5469 4.78323ZM12.9651 5.8897L13.2212 6.48715V6.48715L12.9651 5.8897ZM12.9651 6.71693L12.7091 7.31438V7.31438L12.9651 6.71693ZM15.5469 7.8234L15.2908 8.42085V8.42085L15.5469 7.8234ZM15.7832 8.05975L15.1858 8.3158V8.3158L15.7832 8.05975ZM16.8897 10.6415L17.4871 10.3855V10.3855L16.8897 10.6415ZM7 19H7.65V10.3334H7H6.35V19H7ZM7 19H6.35C6.35 19.7456 5.74558 20.35 5 20.35V21V21.65C6.46355 21.65 7.65 20.4636 7.65 19H7ZM5 21V20.35C4.25442 20.35 3.65 19.7456 3.65 19H3H2.35C2.35 20.4636 3.53645 21.65 5 21.65V21ZM3 19H3.65C3.65 18.2544 4.25442 17.65 5 17.65V17V16.35C3.53644 16.35 2.35 17.5365 2.35 19H3ZM5 17V17.65C5.74558 17.65 6.35 18.2544 6.35 19H7H7.65C7.65 17.5365 6.46355 16.35 5 16.35V17ZM15 17.6667H14.35C14.35 18.4123 13.7456 19.0167 13 19.0167V19.6667V20.3167C14.4636 20.3167 15.65 19.1302 15.65 17.6667H15ZM13 19.6667V19.0167C12.2544 19.0167 11.65 18.4123 11.65 17.6667H11H10.35C10.35 19.1302 11.5364 20.3167 13 20.3167V19.6667ZM11 17.6667H11.65C11.65 16.9211 12.2544 16.3167 13 16.3167V15.6667V15.0167C11.5364 15.0167 10.35 16.2031 10.35 17.6667H11ZM13 15.6667V16.3167C13.7456 16.3167 14.35 16.9211 14.35 17.6667H15H15.65C15.65 16.2031 14.4636 15.0167 13 15.0167V15.6667ZM15 13H14.35V17.6667H15H15.65V13H15ZM7 10.3334L7.10686 10.9745L12.1069 10.1412L12 9.50002L11.8931 8.85886L6.89314 9.69219L7 10.3334ZM17.7169 10.6415L18.3144 10.8976L19.4208 8.3158L18.8234 8.05975L18.2259 7.80371L17.1195 10.3855L17.7169 10.6415ZM19.0597 7.8234L19.3158 8.42085L21.8975 7.31438L21.6415 6.71693L21.3855 6.11949L18.8037 7.22596L19.0597 7.8234ZM21.6415 5.8897L21.8975 5.29226L19.3158 4.18579L19.0597 4.78323L18.8037 5.38068L21.3855 6.48715L21.6415 5.8897ZM18.8234 4.54688L19.4208 4.29083L18.3144 1.70907L17.7169 1.96512L17.1195 2.22117L18.2259 4.80293L18.8234 4.54688ZM16.8897 1.96512L16.2922 1.70907L15.1858 4.29083L15.7832 4.54688L16.3807 4.80293L17.4871 2.22117L16.8897 1.96512ZM15.5469 4.78323L15.2908 4.18579L12.7091 5.29226L12.9651 5.8897L13.2212 6.48715L15.8029 5.38068L15.5469 4.78323ZM12.9651 6.71693L12.7091 7.31438L15.2908 8.42085L15.5469 7.8234L15.8029 7.22596L13.2211 6.11949L12.9651 6.71693ZM15.7832 8.05975L15.1858 8.3158L16.2922 10.8976L16.8897 10.6415L17.4871 10.3855L16.3807 7.80371L15.7832 8.05975ZM15.5469 7.8234L15.2908 8.42085C15.2436 8.40062 15.206 8.363 15.1858 8.3158L15.7832 8.05975L16.3807 7.80371C16.2694 7.54409 16.0625 7.33722 15.8029 7.22596L15.5469 7.8234ZM15.7832 4.54688L15.1858 4.29083C15.206 4.24363 15.2436 4.20602 15.2908 4.18579L15.5469 4.78323L15.8029 5.38068C16.0625 5.26941 16.2694 5.06255 16.3807 4.80293L15.7832 4.54688ZM19.0597 4.78323L19.3158 4.18579C19.363 4.20602 19.4006 4.24363 19.4208 4.29083L18.8234 4.54688L18.2259 4.80293C18.3372 5.06254 18.5441 5.26941 18.8037 5.38068L19.0597 4.78323ZM18.8234 8.05975L19.4208 8.3158C19.4006 8.363 19.363 8.40062 19.3158 8.42085L19.0597 7.8234L18.8037 7.22596C18.5441 7.33722 18.3372 7.54409 18.2259 7.80371L18.8234 8.05975ZM17.7169 1.96512L18.3144 1.70907C17.9334 0.820155 16.6732 0.820152 16.2922 1.70907L16.8897 1.96512L17.4871 2.22117C17.4179 2.38279 17.1887 2.38279 17.1195 2.22117L17.7169 1.96512ZM21.6415 6.71693L21.8975 7.31438C22.7865 6.93341 22.7865 5.67322 21.8975 5.29226L21.6415 5.8897L21.3855 6.48715C21.2238 6.41788 21.2238 6.18875 21.3855 6.11949L21.6415 6.71693ZM17.7169 10.6415L17.1195 10.3855C17.1887 10.2238 17.4179 10.2238 17.4871 10.3855L16.8897 10.6415L16.2922 10.8976C16.6732 11.7865 17.9334 11.7865 18.3144 10.8976L17.7169 10.6415ZM12.9651 5.8897L12.7091 5.29226C11.8201 5.67322 11.8201 6.93341 12.7091 7.31438L12.9651 6.71693L13.2211 6.11949C13.3828 6.18876 13.3828 6.41788 13.2212 6.48715L12.9651 5.8897Z" fill="#8A8A8A"/>
</svg>
