<svg width="48" height="24" viewBox="0 0 48 24" fill="none" xmlns="http://www.w3.org/2000/svg">
<path d="M19 2.40039C20.4359 2.40039 21.5996 3.56406 21.5996 5V9H22.4004V5C22.4004 3.56406 23.5641 2.40039 25 2.40039H33C34.4359 2.40039 35.5996 3.56406 35.5996 5V19C35.5996 20.4359 34.4359 21.5996 33 21.5996H25C23.5641 21.5996 22.4004 20.4359 22.4004 19V15H21.5996V19C21.5996 20.4359 20.4359 21.5996 19 21.5996H15C13.5641 21.5996 12.4004 20.4359 12.4004 19V5C12.4004 3.56406 13.5641 2.40039 15 2.40039H19ZM15 4C14.4477 4 14 4.44772 14 5V19C14 19.5523 14.4477 20 15 20H19L19.1025 19.9951C19.6067 19.9438 20 19.5177 20 19V15H19C18.4477 15 18 14.5523 18 14V10C18 9.44772 18.4477 9 19 9H20V5C20 4.48232 19.6067 4.05621 19.1025 4.00488L19 4H15ZM25 4C24.4477 4 24 4.44772 24 5V9H25C25.5523 9 26 9.44772 26 10V14C26 14.5523 25.5523 15 25 15H24V19C24 19.5523 24.4477 20 25 20H33L33.1025 19.9951C33.6067 19.9438 34 19.5177 34 19V5C34 4.48232 33.6067 4.05621 33.1025 4.00488L33 4H25Z" fill="#8A8A8A"/>
</svg>
