<svg width="48" height="24" viewBox="0 0 48 24" fill="none" xmlns="http://www.w3.org/2000/svg">
<path fill-rule="evenodd" clip-rule="evenodd" d="M27.0245 11.721C27.2587 11.9553 27.2588 12.3354 27.0245 12.5696L24.4796 15.1155C24.2454 15.3497 23.8653 15.3494 23.631 15.1155C23.3967 14.8812 23.3967 14.5012 23.631 14.2669L25.1485 12.7493L17.6007 12.7493C17.2693 12.7493 17.0001 12.4811 17.0001 12.1497C17.0001 11.8184 17.2693 11.5501 17.6007 11.5501L25.1573 11.5501L23.631 10.0238C23.3966 9.78943 23.3966 9.40944 23.631 9.17512C23.8653 8.94106 24.2454 8.94089 24.4796 9.17512L27.0245 11.721Z" fill="#8A8A8A"/>
<path d="M11.7002 5.11523C12.418 5.11532 12.9999 5.69721 13 6.41504V16.8154C12.9999 17.4884 12.4884 18.0418 11.833 18.1084L11.7002 18.1152H1.2998C0.58201 18.1151 0.000105634 17.5332 0 16.8154V6.41504C0.00010567 5.69724 0.582009 5.11536 1.2998 5.11523H11.7002ZM1.61133 6.11523C1.27382 6.11523 1 6.38906 1 6.72656V16.5039L1.00098 16.5352C1.01736 16.858 1.28438 17.1152 1.61133 17.1152H2.21875L2.23438 17.0215C2.2781 16.7553 2.34514 16.494 2.43359 16.2412C2.49287 16.0719 2.67829 15.9818 2.84766 16.041C3.01696 16.1003 3.10596 16.2858 3.04688 16.4551C2.97203 16.6689 2.91558 16.8901 2.87793 17.1152H11.2598C11.2221 16.8901 11.1657 16.6689 11.0908 16.4551C11.0317 16.2857 11.1207 16.1003 11.29 16.041C11.4594 15.9819 11.6448 16.0719 11.7041 16.2412C11.7759 16.4463 11.8325 16.6569 11.875 16.8711C11.9465 16.7765 11.9926 16.6613 11.999 16.5352L12 16.5039V6.72656C12 6.39978 11.7435 6.13284 11.4209 6.11621L11.3887 6.11523H1.61133ZM3.89355 14.1768C4.03366 14.065 4.23755 14.0877 4.34961 14.2275C4.46159 14.3678 4.43904 14.5726 4.29883 14.6846C4.17833 14.7809 4.06266 14.8846 3.95312 14.9961C3.79051 15.1616 3.64424 15.3407 3.51465 15.5303C3.41337 15.6784 3.21068 15.7165 3.0625 15.6152C2.91465 15.514 2.87664 15.3121 2.97754 15.1641C3.12866 14.943 3.30037 14.7342 3.49023 14.541L3.58691 14.4453C3.68536 14.351 3.78792 14.2612 3.89355 14.1768ZM9.78809 14.2275C9.9002 14.0876 10.105 14.0648 10.2451 14.1768C10.3858 14.2891 10.5198 14.4111 10.6475 14.541C10.8373 14.7342 11.009 14.943 11.1602 15.1641C11.261 15.3121 11.223 15.514 11.0752 15.6152C10.927 15.7165 10.7243 15.6784 10.623 15.5303C10.4934 15.3406 10.3462 15.1616 10.1836 14.9961C10.0742 14.8849 9.95915 14.7807 9.83887 14.6846C9.69877 14.5725 9.6761 14.3677 9.78809 14.2275ZM3.86719 12.3652C4.01994 12.2712 4.22029 12.319 4.31445 12.4717C4.4436 12.6811 4.59609 12.8772 4.77051 13.0547C4.82117 13.1062 4.87418 13.1554 4.92773 13.2031C4.97248 13.2431 5.00242 13.2934 5.01953 13.3467C5.07536 13.3521 5.13103 13.3719 5.17969 13.4072C5.23802 13.4496 5.29764 13.49 5.3584 13.5283C5.46222 13.5938 5.52049 13.7118 5.50879 13.834C5.49704 13.9562 5.41715 14.061 5.30273 14.1055C5.15842 14.1616 5.01769 14.2274 4.88086 14.3008C4.72274 14.3855 4.5253 14.326 4.44043 14.168C4.35766 14.0137 4.41306 13.8225 4.5625 13.7344C4.53882 13.7221 4.51594 13.707 4.49512 13.6885C4.43084 13.6312 4.36743 13.5716 4.30664 13.5098C4.09786 13.2973 3.91506 13.0628 3.76074 12.8125C3.66688 12.6598 3.71454 12.4594 3.86719 12.3652ZM9.82422 12.4717C9.91844 12.3191 10.1188 12.2722 10.2715 12.3662C10.4243 12.4604 10.4721 12.6607 10.3779 12.8135C10.2244 13.0626 10.0424 13.2951 9.83496 13.5068C9.833 13.5089 9.83111 13.5117 9.8291 13.5137C9.76904 13.5746 9.70701 13.6339 9.64355 13.6904C9.62301 13.7086 9.60046 13.7232 9.57715 13.7354C9.72606 13.8236 9.77988 14.014 9.69727 14.168C9.61238 14.3261 9.41594 14.3856 9.25781 14.3008C9.12111 14.2274 8.98011 14.1625 8.83594 14.1064C8.72164 14.062 8.64171 13.957 8.62988 13.835C8.61816 13.7128 8.67644 13.5938 8.78027 13.5283C8.84105 13.49 8.90064 13.4496 8.95898 13.4072C9.0074 13.3721 9.06263 13.3531 9.11816 13.3477C9.13534 13.2944 9.16708 13.244 9.21191 13.2041C9.26504 13.1568 9.31692 13.1077 9.36719 13.0566L9.36816 13.0557L9.43262 12.9873C9.58035 12.828 9.71129 12.655 9.82422 12.4717ZM3.66992 9.52051C3.84436 9.56274 3.95138 9.73865 3.90918 9.91309C3.85316 10.1446 3.82132 10.3833 3.81543 10.625V10.6465C3.81536 10.6527 3.81488 10.6589 3.81445 10.665C3.81478 10.6717 3.81551 10.6788 3.81543 10.6855L3.81445 10.7109C3.81501 10.9596 3.84297 11.2057 3.89648 11.4443C3.93576 11.6195 3.82551 11.7937 3.65039 11.833C3.47541 11.8721 3.30201 11.7619 3.2627 11.5869C3.19856 11.3011 3.16544 11.0067 3.16504 10.709V10.6777C3.16512 10.6712 3.16556 10.6646 3.16602 10.6582C3.16572 10.6519 3.16497 10.6451 3.16504 10.6387L3.16602 10.6133V10.6094C3.17305 10.321 3.21047 10.036 3.27734 9.75977C3.31961 9.58537 3.4955 9.47829 3.66992 9.52051ZM10.4883 9.58203C10.6632 9.5431 10.8367 9.65322 10.876 9.82812C10.9399 10.1142 10.9726 10.409 10.9727 10.707C10.9727 11.0052 10.94 11.3007 10.876 11.5869C10.8367 11.7617 10.6632 11.8719 10.4883 11.833C10.3131 11.7938 10.202 11.6195 10.2412 11.4443C10.2948 11.2044 10.3232 10.9571 10.3232 10.707C10.3232 10.4572 10.2948 10.2104 10.2412 9.9707C10.202 9.79554 10.3131 9.6212 10.4883 9.58203ZM8.64453 7.4209C8.73858 7.26802 8.93892 7.2204 9.0918 7.31445C9.33139 7.46188 9.55613 7.63606 9.76172 7.83496C9.76275 7.83596 9.76461 7.83688 9.76562 7.83789L9.7832 7.85645C9.78798 7.8612 9.79246 7.86612 9.79688 7.87109C9.80128 7.87502 9.8063 7.87862 9.81055 7.88281L9.83203 7.9043C10.0408 8.11695 10.2236 8.35111 10.3779 8.60156C10.472 8.75437 10.4243 8.9547 10.2715 9.04883C10.1187 9.14288 9.91834 9.09517 9.82422 8.94238C9.69581 8.73398 9.5443 8.53913 9.37109 8.3623L9.33887 8.33008C9.33425 8.32599 9.32963 8.32177 9.3252 8.31738L9.31055 8.30176C9.13882 8.1356 8.9507 7.99006 8.75098 7.86719C8.59838 7.77312 8.55074 7.57366 8.64453 7.4209ZM4.9873 7.35156C5.13831 7.25497 5.33868 7.29845 5.43555 7.44922C5.53224 7.60025 5.48874 7.80156 5.33789 7.89844C5.13483 8.02844 4.94427 8.18205 4.77148 8.35742L4.76953 8.35938C4.60066 8.53136 4.45167 8.72078 4.3252 8.92285C4.22988 9.07474 4.02997 9.12055 3.87793 9.02539C3.72595 8.93021 3.67948 8.73021 3.77441 8.57812C3.92535 8.33699 4.10291 8.11092 4.30469 7.90527L4.38477 7.8252C4.57083 7.64639 4.77331 7.48857 4.9873 7.35156ZM7.06836 6.74023C7.35486 6.74023 7.63866 6.77195 7.91406 6.83398C8.08913 6.87344 8.19859 7.04758 8.15918 7.22266C8.11974 7.39759 7.94643 7.50792 7.77148 7.46875C7.54259 7.41719 7.30642 7.39062 7.06836 7.39062C6.8226 7.39066 6.57958 7.4187 6.34375 7.47363C6.16899 7.51426 5.99481 7.40523 5.9541 7.23047C5.91352 7.05579 6.02167 6.88163 6.19629 6.84082C6.48006 6.77473 6.77257 6.74027 7.06836 6.74023Z" fill="#8A8A8A"/>
<path d="M44.203 5C46.2974 5 48.01 6.71671 48.01 8.84956V14.3804C48.01 16.5133 46.2974 18.23 44.203 18.23H34.807C32.7125 18.23 31 16.5133 31 14.3804V8.84956C31 6.71671 32.7125 5 34.807 5H44.203ZM34.807 6.37812C33.4315 6.37812 32.3499 7.48086 32.3499 8.84956V14.3804C32.3499 15.7491 33.4315 16.8519 34.807 16.8519H44.203C45.5785 16.8519 46.6601 15.7491 46.6601 14.3804V8.84956C46.6601 7.48086 45.5785 6.37812 44.203 6.37812H34.807ZM37.5598 8.12949C37.6752 8.13322 37.7884 8.16994 37.8862 8.23544L42.193 11.0009C42.4194 11.1419 42.5025 11.403 42.5025 11.615C42.5025 11.8269 42.419 12.0878 42.1927 12.2288L37.8865 14.9946C37.6809 15.132 37.4135 15.1341 37.2063 15.002L37.2046 15.0009C37 14.8683 36.8785 14.6208 36.8848 14.3727V8.84956C36.88 8.49772 37.1469 8.14891 37.5089 8.13007L37.5598 8.12949ZM38.2041 13.1249L40.5626 11.6144L38.2041 10.0996V13.1249ZM42.1753 11.8255C42.1606 11.8574 42.1424 11.887 42.1205 11.913L42.1506 11.8717C42.1598 11.8571 42.168 11.8414 42.1753 11.8255Z" fill="#8A8A8A"/>
</svg>
