<svg width="49" height="24" viewBox="0 0 49 24" fill="none" xmlns="http://www.w3.org/2000/svg">
<path fill-rule="evenodd" clip-rule="evenodd" d="M26.5243 11.7208C26.7584 11.955 26.7583 12.3351 26.5243 12.5694L23.9794 15.1153C23.7452 15.3495 23.3651 15.3493 23.1308 15.1153C22.8965 14.881 22.8965 14.501 23.1308 14.2667L24.6474 12.7501L17.0995 12.7501C16.7683 12.7499 16.4999 12.4807 16.4999 12.1495C16.5001 11.8184 16.7685 11.5501 17.0995 11.5499L24.6571 11.5499L23.1308 10.0235C22.8965 9.7892 22.8965 9.40919 23.1308 9.17489C23.3651 8.94127 23.7453 8.94083 23.9794 9.17489L26.5243 11.7208Z" fill="#8A8A8A"/>
<path d="M4.50779 3.61371C4.6735 3.55748 4.85537 3.56703 5.0156 3.64203L6.14353 4.16938L6.9199 3.685L6.99509 3.64496C7.17632 3.56122 7.38691 3.56099 7.57029 3.64692L8.95798 4.29633C9.2306 4.42419 9.34839 4.74924 9.22068 5.02192C9.09287 5.29443 8.76771 5.4121 8.49509 5.28461L7.30857 4.72797L6.5449 5.20551V6.97211H9.32127C9.55299 6.97221 9.76687 7.08954 9.89158 7.27973L9.93943 7.36567L11.2588 10.1918C11.2714 10.2189 11.282 10.2474 11.291 10.2758L11.3125 10.3627L11.9902 14.2407C12.042 14.5373 11.8435 14.8206 11.5469 14.8725C11.2505 14.924 10.9681 14.7254 10.916 14.4291L10.247 10.6049L9.06052 8.06293H6.5449V11.6079C6.54489 11.6553 6.53579 11.7007 6.52439 11.7446H7.03318C7.26977 11.7446 7.48688 11.8665 7.61033 12.0629L7.6572 12.1518L8.89548 14.9711C8.9258 15.0402 8.94492 15.1138 8.95115 15.1889L9.26951 19.0629C9.29388 19.3627 9.07125 19.6259 8.77146 19.6508C8.47137 19.6755 8.20837 19.4519 8.18357 19.1518L7.86912 15.3471L6.7656 12.8344H5.52048L4.12693 15.3715L3.81541 19.1518C3.79062 19.4519 3.52762 19.6755 3.22752 19.6508C2.92759 19.626 2.70508 19.3628 2.72947 19.0629L3.04685 15.1957L3.05662 15.1245C3.06994 15.0542 3.09436 14.9862 3.12888 14.9233L4.68064 12.0981L4.73045 12.02C4.85779 11.8482 5.05991 11.7448 5.27732 11.7446H5.47361C5.46224 11.7007 5.45409 11.6553 5.45408 11.6079V8.06293H3.24412L1.74509 10.6323L1.08103 14.1127C1.02439 14.4084 0.738116 14.6018 0.44236 14.5454C0.146978 14.4885 -0.0465728 14.2032 0.00974259 13.9077L0.687477 10.3598L0.718727 10.2485C0.732186 10.2126 0.748186 10.1772 0.767555 10.144L2.42088 7.31C2.54303 7.10073 2.76744 6.97221 3.00974 6.97211H5.45408V5.05121L4.72654 4.71039L3.50388 5.28461C3.23123 5.41225 2.90614 5.2945 2.7783 5.02192C2.65052 4.74922 2.76835 4.4242 3.04099 4.29633L4.43748 3.64203L4.50779 3.61371Z" fill="#8A8A8A"/>
<path d="M44.7027 5C46.7971 5 48.5097 6.71671 48.5097 8.84956V14.3804C48.5097 16.5133 46.7971 18.23 44.7027 18.23H35.3067C33.2122 18.23 31.4997 16.5133 31.4997 14.3804V8.84956C31.4997 6.71671 33.2122 5 35.3067 5H44.7027ZM35.3067 6.37812C33.9312 6.37812 32.8496 7.48086 32.8496 8.84956V14.3804C32.8496 15.7491 33.9312 16.8519 35.3067 16.8519H44.7027C46.0781 16.8519 47.1597 15.7491 47.1597 14.3804V8.84956C47.1597 7.48086 46.0781 6.37812 44.7027 6.37812H35.3067ZM38.0595 8.12949C38.1749 8.13322 38.2881 8.16994 38.3859 8.23544L42.6927 11.0009C42.9191 11.1419 43.0022 11.403 43.0022 11.615C43.0022 11.8269 42.9187 12.0878 42.6924 12.2288L38.3862 14.9946C38.1806 15.132 37.9132 15.1341 37.706 15.002L37.7043 15.0009C37.4997 14.8683 37.3782 14.6208 37.3845 14.3727V8.84956C37.3797 8.49772 37.6466 8.14891 38.0086 8.13007L38.0595 8.12949ZM38.7038 13.1249L41.0623 11.6144L38.7038 10.0996V13.1249ZM42.675 11.8255C42.6603 11.8574 42.6421 11.887 42.6201 11.913L42.6503 11.8717C42.6595 11.8571 42.6677 11.8414 42.675 11.8255Z" fill="#8A8A8A"/>
</svg>
