<svg xmlns="http://www.w3.org/2000/svg" fill="none" viewBox="0 0 16 16"><g stroke="currentColor" stroke-linecap="round" stroke-width="1.3" clip-path="url(#a)"><path d="m14.6685 5.7416.6425-2.57c.2028-.811-.4106-1.5967-1.2466-1.5967H2.5782a1.285 1.285 0 0 0-1.2467.9733l-.6425 2.57c-.2027.8111.4107 1.5968 1.2467 1.5968h11.4861a1.285 1.285 0 0 0 1.2467-.9734Zm0 7.7102.6425-2.5701c.2028-.811-.4106-1.5967-1.2466-1.5967h-5.061a1.285 1.285 0 0 0-1.2467.9734l-.6425 2.5701c-.2028.811.4106 1.5966 1.2466 1.5966h5.061a1.285 1.285 0 0 0 1.2467-.9733Zm-10.2802 0 .6425-2.5701c.2027-.811-.4107-1.5967-1.2467-1.5967H2.5782a1.285 1.285 0 0 0-1.2467.9734L.689 12.8285c-.2027.811.4107 1.5966 1.2467 1.5966h1.206a1.285 1.285 0 0 0 1.2466-.9733Z"/></g><defs><clipPath id="a"><path fill="currentColor" d="M0 0h16v16H0z"/></clipPath></defs></svg>
