<svg width="512" height="512" viewBox="0 0 512 512" fill="none" xmlns="http://www.w3.org/2000/svg">
<g clip-path="url(#clip0_1485_17631)">
<g clip-path="url(#clip1_1485_17631)">
<path d="M227.84 506.88C124.8 494.72 93.7729 356.352 165.607 289.203C177.434 278.144 199.424 260.659 215.04 266.24L219.751 272.896C217.626 366.95 308.608 382.234 373.581 330.675C468.864 255.104 456.218 110.438 357.376 44.416L353.255 35.84C349.875 32.4864 351.309 31.4624 355.815 33.28C524.621 110.08 558.362 329.421 416.051 450.637C370.637 489.318 287.079 519.168 227.815 506.88H227.84Z" fill="#004BE5"/>
<path d="M286.72 12.7999C281.165 13.1071 285.927 14.8735 300.979 18.0991L302.08 20.4799C307.866 19.6607 319.488 21.6319 317.44 28.1599C315.776 29.7215 316.39 31.7695 316.774 31.7951C342.707 34.7903 358.963 89.7791 357.683 114.432C354.509 176.026 307.405 198.528 257.178 216.806C239.13 224.742 220.493 247.91 222.694 263.654C223.744 270.848 219.008 272.281 215.014 266.214C96.9729 303.616 107.725 481.997 227.814 506.854C216.986 508.083 207.232 504.269 197.094 501.734L199.45 499.891C190.771 498.97 184.013 496.179 179.174 491.494C174.336 492.365 167.526 491.187 166.374 486.374C52.8129 442.368 35.5585 274.381 119.578 192.486C160 146.022 100.89 88.7551 54.8097 124.058L48.6145 122.854C55.5521 108.16 70.0161 91.9295 81.8689 80.5887C134.221 30.5151 215.091 1.74071 286.72 12.7999Z" fill="#9DD9F2"/>
<path d="M307.2 17.9199C318.182 20.7871 324.557 20.5055 335.36 25.5999C341.939 27.1871 350.003 30.1055 353.28 35.8399C467.123 103.322 476.774 272.41 363.315 344.115C290.048 390.4 207.334 358.144 215.04 266.24C217.395 265.498 221.107 264.064 222.72 263.68L226.611 257.536C286.387 252.851 341.325 243.917 366.336 180.096C389.453 121.088 362.854 66.2783 317.44 28.1599C311.859 25.0111 308.326 22.8351 302.08 20.4799C300.134 18.3039 301.85 17.4591 307.2 17.9199Z" fill="#00B3FE"/>
<path d="M48.6401 122.88C81.9457 89.3952 140.928 116.198 138.266 162.458C136.704 189.798 102.81 215.885 89.9073 242.227C48.3073 327.091 80.4865 443.93 166.4 486.4C169.011 489.19 167.296 490.061 161.28 488.96C51.9169 442.65 -2.91833 345.754 8.01287 226.893C10.4705 200.192 29.7729 141.85 48.6401 122.88Z" fill="#004BE5"/>
<path d="M179.2 491.52C186.112 494.336 212.071 501.299 197.12 501.76C187.418 499.354 182.835 497.229 174.08 494.08C171.623 491.443 173.338 490.598 179.2 491.52Z" fill="#3B7FEA"/>
<path d="M286.72 12.8C295.655 14.1824 299.52 15.8976 307.2 17.92L302.08 20.48C294.656 17.664 287.155 15.2832 279.066 15.3344C278.144 11.136 282.803 13.1072 286.72 12.8Z" fill="#41C3FC"/>
<path d="M355.84 33.2799L353.28 35.8399C348.339 32.9215 340.045 27.8015 335.36 25.5999C344.013 24.4479 349.875 30.5663 355.84 33.2799Z" fill="#1872ED"/>
<path d="M179.2 491.52L174.08 494.08C169.267 492.339 165.888 490.906 161.28 488.96L166.4 486.4C169.6 487.987 175.335 489.933 179.2 491.52Z" fill="#1A61E7"/>
<path d="M317.44 28.1599C400.589 75.0847 400.41 198.349 316.595 243.635C281.395 262.656 257.869 255.027 222.72 263.68C214.374 265.242 217.446 257.587 218.803 253.363C235.443 201.626 287.872 209.152 321.203 179.098C362.906 141.491 361.651 82.3295 326.502 40.8319C325.12 39.2191 304.64 27.2383 317.44 28.1343V28.1599Z" fill="#E8E8EA"/>
</g>
</g>
<defs>
<clipPath id="clip0_1485_17631">
<rect width="512" height="512" fill="white"/>
</clipPath>
<clipPath id="clip1_1485_17631">
<rect width="512" height="512" fill="white"/>
</clipPath>
</defs>
</svg>
