<svg width="24" height="24" viewBox="0 0 24 24" fill="none" xmlns="http://www.w3.org/2000/svg">
<path d="M14 9.96651L11.9427 7.90918C11.6926 7.65922 11.3536 7.5188 11 7.5188C10.6464 7.5188 10.3074 7.65922 10.0573 7.90918L4 13.9665M5 21.9999L7 19.9999M7 19.9999H4C3.46957 19.9999 2.96086 19.7892 2.58579 19.4142C2.21071 19.0391 2 18.5304 2 17.9999V16.9999M7 19.9999L5 17.9999M16.6001 10.1607L20.8005 12.561C20.9827 12.6662 21.1341 12.8175 21.2394 12.9997C21.3448 13.1819 21.4003 13.3886 21.4005 13.5991V18.3995C21.4003 18.61 21.3448 18.8167 21.2394 18.9989C21.1341 19.1811 20.9827 19.3324 20.8005 19.4376L16.6001 21.8379C16.4176 21.9432 16.2107 21.9986 16 21.9986C15.7894 21.9986 15.5824 21.9432 15.4 21.8379L11.1995 19.4376C11.0173 19.3324 10.8659 19.1811 10.7606 18.9989C10.6553 18.8167 10.5997 18.61 10.5995 18.3995V16.4999M16 15.9994L21.2206 12.9991M16 15.9994L15 15.4246M16 15.9994L16 21.9999M3.33333 1.96655H12.6667C13.403 1.96655 14 2.56351 14 3.29989V12.6332C14 13.3696 13.403 13.9666 12.6667 13.9666H3.33333C2.59695 13.9666 2 13.3696 2 12.6332V3.29989C2 2.56351 2.59695 1.96655 3.33333 1.96655ZM7.33333 5.96655C7.33333 6.70293 6.73638 7.29989 6 7.29989C5.26362 7.29989 4.66667 6.70293 4.66667 5.96655C4.66667 5.23017 5.26362 4.63322 6 4.63322C6.73638 4.63322 7.33333 5.23017 7.33333 5.96655Z" stroke="#8A8A8A" stroke-width="1.3" stroke-linecap="round" stroke-linejoin="round"/>
</svg>
