<svg width="48" height="24" viewBox="0 0 48 24" fill="none" xmlns="http://www.w3.org/2000/svg">
<path fill-rule="evenodd" clip-rule="evenodd" d="M27.0246 11.7208C27.2588 11.955 27.2586 12.3351 27.0246 12.5694L24.4797 15.1153C24.2455 15.3495 23.8654 15.3493 23.6311 15.1153C23.3968 14.881 23.3968 14.501 23.6311 14.2667L25.1477 12.7501L17.5998 12.7501C17.2686 12.7499 17.0002 12.4807 17.0002 12.1495C17.0004 11.8184 17.2688 11.5501 17.5998 11.5499L25.1574 11.5499L23.6311 10.0235C23.3968 9.7892 23.3968 9.40919 23.6311 9.17489C23.8654 8.94127 24.2456 8.94083 24.4797 9.17489L27.0246 11.7208Z" fill="#8A8A8A"/>
<path d="M9.76953 17C10.1092 17.0002 10.3847 17.2755 10.3848 17.6152C10.3848 17.955 10.1093 18.2303 9.76953 18.2305H0.615234C0.275436 18.2304 0 17.9551 0 17.6152C8.11821e-05 17.2755 0.275486 17.0001 0.615234 17H9.76953ZM14.3848 14C14.7245 14.0001 14.9999 14.2755 15 14.6152C15 14.9551 14.7246 15.2304 14.3848 15.2305H0.615234C0.275436 15.2304 0 14.9551 0 14.6152C8.11499e-05 14.2755 0.275486 14.0001 0.615234 14H14.3848ZM14.3848 11C14.7245 11.0001 14.9999 11.2755 15 11.6152C15 11.9551 14.7246 12.2304 14.3848 12.2305H0.615234C0.275436 12.2304 0 11.9551 0 11.6152C8.11499e-05 11.2755 0.275486 11.0001 0.615234 11H14.3848ZM14.3848 8C14.7245 8.00008 14.9999 8.27549 15 8.61523C15 8.95505 14.7246 9.23038 14.3848 9.23047H0.615234C0.275436 9.23039 0 8.95505 0 8.61523C8.11821e-05 8.27549 0.275486 8.00008 0.615234 8H14.3848ZM14.3848 5C14.7245 5.00008 14.9999 5.27549 15 5.61523C15 5.95505 14.7246 6.23038 14.3848 6.23047H0.615234C0.275436 6.23039 0 5.95505 0 5.61523C8.11821e-05 5.27549 0.275486 5.00008 0.615234 5H14.3848Z" fill="#8A8A8A"/>
<path fill-rule="evenodd" clip-rule="evenodd" d="M37.0859 4.00189C37.1671 3.99576 37.2488 4.00459 37.3262 4.02729L37.4023 4.05463L43.8926 6.87104H43.8936C44.1275 6.97305 44.2801 7.20169 44.2793 7.45502V15.5527C44.2776 15.8036 44.1245 16.0294 43.8926 16.1298L37.4023 18.9462C37.2557 19.0095 37.0914 19.0181 36.9404 18.9706L36.877 18.9462L30.3867 16.1298H30.3857C30.1544 16.0287 30.0017 15.8038 30 15.5527V7.45502C29.9992 7.20161 30.1527 6.973 30.3867 6.87104L36.877 4.05463C36.9425 4.02597 37.0134 4.00768 37.0859 4.00189ZM37.1895 18.8886C37.2005 18.8876 37.2116 18.8873 37.2227 18.8857C37.2116 18.8874 37.2006 18.8876 37.1895 18.8886ZM37.2871 18.871C37.2932 18.8694 37.2996 18.869 37.3057 18.8671L37.3291 18.8574C37.3152 18.8625 37.3013 18.8671 37.2871 18.871ZM31.1895 15.207L36.5986 17.5566V17.5546L31.1895 15.206V15.207ZM37.6807 17.5546V17.5566L43.0889 15.207V15.206L37.6807 17.5546ZM31.2979 15.1347L36.4902 17.3896V10.6826L31.2979 8.42768V15.1347ZM37.7881 10.6826V17.3896L42.9814 15.1347V8.42768L37.7881 10.6826ZM37.1397 9.6933L31.9795 7.45502L31.9785 7.456L37.1397 9.69525L42.3008 7.456L42.2988 7.45502L37.1397 9.6933ZM32.25 7.45404L37.1397 9.57611L42.0293 7.45404L37.1397 5.32807L32.25 7.45404ZM37.0947 4.11029C37.0342 4.11511 36.9748 4.13018 36.9199 4.15424L30.4297 6.97064C30.2824 7.03481 30.1749 7.1584 30.1309 7.30463C30.1752 7.15906 30.2828 7.03655 30.4297 6.9726L36.9199 4.15619C36.9749 4.13212 37.0342 4.11608 37.0947 4.11127C37.1855 4.10444 37.2763 4.12047 37.3594 4.15619L43.8496 6.9726C43.9965 7.03656 44.1041 7.15905 44.1484 7.30463C44.1044 7.15838 43.9969 7.03482 43.8496 6.97064L37.3594 4.15424C37.2763 4.11851 37.1855 4.10346 37.0947 4.11029Z" fill="#8A8A8A"/>
</svg>
