<svg width="24" height="24" viewBox="0 0 24 24" fill="none" xmlns="http://www.w3.org/2000/svg">
<path d="M10.7795 12.999L16 15.9993M16 15.9993L21.2205 12.999M16 15.9993L16 21.9999M11.3333 2H2M14 6H2M8 9.93327L2 9.93327M5 22L7 20M7 20H4C3.46957 20 2.96086 19.7893 2.58579 19.4142C2.21071 19.0391 2 18.5304 2 18V14M7 20L5 18M21.4005 13.599C21.4003 13.3886 21.3448 13.1819 21.2394 12.9997C21.1341 12.8175 20.9827 12.6662 20.8005 12.5609L16.6001 10.1607C16.4176 10.0554 16.2107 9.99992 16 9.99992C15.7893 9.99992 15.5824 10.0554 15.3999 10.1607L11.1995 12.5609C11.0173 12.6662 10.8659 12.8175 10.7606 12.9997C10.6552 13.1819 10.5997 13.3886 10.5995 13.599V18.3995C10.5997 18.61 10.6552 18.8167 10.7606 18.9989C10.8659 19.1811 11.0173 19.3324 11.1995 19.4376L15.3999 21.8378C15.5824 21.9432 15.7893 21.9986 16 21.9986C16.2107 21.9986 16.4176 21.9432 16.6001 21.8378L20.8005 19.4376C20.9827 19.3324 21.1341 19.1811 21.2394 18.9989C21.3448 18.8167 21.4003 18.61 21.4005 18.3995V13.599Z" stroke="#8A8A8A" stroke-width="1.3" stroke-linecap="round" stroke-linejoin="round"/>
</svg>
