<svg width="48" height="24" viewBox="0 0 48 24" fill="none" xmlns="http://www.w3.org/2000/svg">
<path fill-rule="evenodd" clip-rule="evenodd" d="M39.9463 4.1015C40.0274 4.09537 40.1092 4.10421 40.1865 4.12689L40.2627 4.15424L46.7529 6.97064H46.7539C46.9879 7.07265 47.1404 7.3013 47.1396 7.55463V15.6523C47.1379 15.9032 46.9848 16.129 46.7529 16.2294L40.2627 19.0458C40.1161 19.1091 39.9517 19.1177 39.8008 19.0703L39.7373 19.0458L33.2471 16.2294H33.2461C33.0148 16.1283 32.8621 15.9033 32.8604 15.6523V7.55463C32.8596 7.30126 33.0131 7.07263 33.2471 6.97064L39.7373 4.15424C39.8028 4.12559 39.8738 4.10729 39.9463 4.1015ZM40.1475 18.9706C40.1535 18.969 40.16 18.9686 40.166 18.9667L40.1895 18.957C40.1755 18.9621 40.1616 18.9667 40.1475 18.9706ZM16.6309 4.99994C17.379 5.00003 18 5.59916 18 6.32025V16.8798C18 17.6009 17.379 18.2 16.6309 18.2001H1.36914C0.621115 18.1999 0 17.6008 0 16.8798V6.32025C0 5.59925 0.621115 5.00018 1.36914 4.99994H16.6309ZM34.0498 15.3066L39.459 17.6562V17.6542L34.0498 15.3056V15.3066ZM40.541 17.6542V17.6562L45.9492 15.3066V15.3056L40.541 17.6542ZM34.1582 15.2343L39.3506 17.4892V10.7822L34.1582 8.52728V15.2343ZM40.6484 10.7822V17.4892L45.8418 15.2343V8.52728L40.6484 10.7822ZM1.17383 14.9179V16.8798C1.17383 16.9939 1.25087 17.0682 1.36914 17.0683H16.6309C16.7492 17.0682 16.8262 16.9939 16.8262 16.8798V15.2656L13.4697 12.6786L10.7002 14.5165C10.4938 14.6506 10.1963 14.6382 10.0029 14.4872L6.23633 11.5527L1.17383 14.9179ZM1.36914 6.13177C1.25093 6.13196 1.17383 6.20622 1.17383 6.32025V13.539L5.9248 10.3798C6.00416 10.3255 6.09726 10.2913 6.19336 10.2802C6.34773 10.264 6.50794 10.309 6.62793 10.4033L10.3945 13.3447L13.1699 11.5058C13.3763 11.3717 13.6738 11.3841 13.8672 11.5351L16.8262 13.8154V6.32025C16.8262 6.20613 16.7492 6.13185 16.6309 6.13177H1.36914ZM10.3701 7.63959C11.3351 7.6398 12.1307 8.40673 12.1309 9.33685C12.1309 10.2671 11.3352 11.0339 10.3701 11.0341C9.40483 11.0341 8.6084 10.2672 8.6084 9.33685C8.60853 8.40661 9.40491 7.63959 10.3701 7.63959ZM10.3701 8.77142C10.0393 8.77142 9.78333 9.01801 9.7832 9.33685C9.7832 9.65581 10.0392 9.90326 10.3701 9.90326C10.7009 9.90306 10.957 9.65568 10.957 9.33685C10.9569 9.01814 10.7008 8.77162 10.3701 8.77142ZM40 9.79291L34.8398 7.55463L34.8389 7.5556L40 9.79486L45.1611 7.5556L45.1592 7.55463L40 9.79291ZM35.1104 7.55365L40 9.67572L44.8896 7.55365L40 5.42767L35.1104 7.55365ZM39.9551 4.2099C39.8946 4.21472 39.8352 4.22981 39.7803 4.25384L33.29 7.07025C33.1795 7.11842 33.0918 7.20022 33.0361 7.29974L33.1025 7.20795C33.1533 7.15111 33.2166 7.1042 33.29 7.0722L39.7803 4.2558C39.8352 4.23175 39.8946 4.2157 39.9551 4.21088C40.0458 4.20405 40.1367 4.2201 40.2197 4.2558L46.71 7.0722C46.8568 7.13616 46.9645 7.25865 47.0088 7.40424C46.9647 7.25799 46.8573 7.13442 46.71 7.07025L40.2197 4.25384C40.1367 4.21814 40.0458 4.20306 39.9551 4.2099Z" fill="#8A8A8A"/>
<path fill-rule="evenodd" clip-rule="evenodd" d="M30.0245 11.721C30.2587 11.9553 30.2588 12.3354 30.0245 12.5696L27.4796 15.1155C27.2454 15.3497 26.8653 15.3494 26.631 15.1155C26.3967 14.8812 26.3967 14.5012 26.631 14.2669L28.1485 12.7493L20.6007 12.7493C20.2693 12.7493 20.0001 12.4811 20.0001 12.1497C20.0001 11.8184 20.2693 11.5501 20.6007 11.5501L28.1573 11.5501L26.631 10.0238C26.3966 9.78943 26.3966 9.40944 26.631 9.17512C26.8653 8.94106 27.2454 8.94089 27.4796 9.17512L30.0245 11.721Z" fill="#8A8A8A"/>
</svg>
