<svg width="24" height="24" viewBox="0 0 24 24" fill="none" xmlns="http://www.w3.org/2000/svg">
<path d="M12.3333 11.0334H3M15 15.0334H3M11.0667 18.9667H3M17.7169 10.6415L18.8234 8.05972C18.8689 7.95352 18.9535 7.86889 19.0597 7.82337L21.6415 6.7169C22.0051 6.56105 22.0051 6.04552 21.6415 5.88967L19.0597 4.7832C18.9535 4.73769 18.8689 4.65306 18.8234 4.54685L17.7169 1.96509C17.5611 1.60144 17.0455 1.60144 16.8897 1.96509L15.7832 4.54685C15.7377 4.65306 15.6531 4.73768 15.5469 4.7832L12.9651 5.88967C12.6015 6.04552 12.6015 6.56105 12.9651 6.7169L15.5469 7.82337C15.6531 7.86889 15.7377 7.95352 15.7832 8.05972L16.8897 10.6415C17.0455 11.0051 17.5611 11.0051 17.7169 10.6415Z" stroke="white" stroke-width="1.3" stroke-linecap="round"/>
</svg>
