<svg width="24" height="24" viewBox="0 0 24 24" fill="none" xmlns="http://www.w3.org/2000/svg">
<path d="M10 14.5V20.6667C10 21.403 10.597 22 11.3333 22H20.6667C21.403 22 22 21.403 22 20.6667V11.3333C22 10.597 21.403 10 20.6667 10H17.5M11.3333 2H2M14 6H2M10.0667 9.93327H2M5 22L7 20M7 20H4C3.46957 20 2.96086 19.7893 2.58579 19.4142C2.21071 19.0391 2 18.5304 2 18V14M7 20L5 18M14 13.3333L18 16L14 18.6667V13.3333Z" stroke="#8A8A8A" stroke-width="1.3" stroke-linecap="round" stroke-linejoin="round"/>
</svg>
