<svg width="48" height="24" viewBox="0 0 48 24" fill="none" xmlns="http://www.w3.org/2000/svg">
<path fill-rule="evenodd" clip-rule="evenodd" d="M27.1894 12.2595C27.1675 12.3727 27.1128 12.4813 27.0254 12.5691L24.4795 15.115C24.2452 15.3493 23.8652 15.3492 23.6309 15.115C23.3965 14.8807 23.3965 14.5007 23.6309 14.2664L25.1475 12.7498L17.6006 12.7498C17.2693 12.7498 17.0002 12.4814 17 12.1501C17 11.8188 17.2692 11.5496 17.6006 11.5496L25.1582 11.5496L23.6309 10.0232C23.3968 9.78892 23.3968 9.4098 23.6309 9.17553C23.8652 8.94163 24.2453 8.94135 24.4795 9.17553L27.0254 11.7205C27.113 11.8081 27.1674 11.9169 27.1894 12.03C27.2041 12.1056 27.204 12.1839 27.1894 12.2595Z" fill="#8A8A8A"/>
<path d="M9.76953 17C10.1092 17.0002 10.3847 17.2755 10.3848 17.6152C10.3848 17.955 10.1093 18.2303 9.76953 18.2305H0.615234C0.275436 18.2304 0 17.9551 0 17.6152C8.11821e-05 17.2755 0.275486 17.0001 0.615234 17H9.76953ZM14.3848 14C14.7245 14.0001 14.9999 14.2755 15 14.6152C15 14.9551 14.7246 15.2304 14.3848 15.2305H0.615234C0.275436 15.2304 0 14.9551 0 14.6152C8.11499e-05 14.2755 0.275486 14.0001 0.615234 14H14.3848ZM14.3848 11C14.7245 11.0001 14.9999 11.2755 15 11.6152C15 11.9551 14.7246 12.2304 14.3848 12.2305H0.615234C0.275436 12.2304 0 11.9551 0 11.6152C8.11499e-05 11.2755 0.275486 11.0001 0.615234 11H14.3848ZM14.3848 8C14.7245 8.00008 14.9999 8.27549 15 8.61523C15 8.95505 14.7246 9.23038 14.3848 9.23047H0.615234C0.275436 9.23039 0 8.95505 0 8.61523C8.11821e-05 8.27549 0.275486 8.00008 0.615234 8H14.3848ZM14.3848 5C14.7245 5.00008 14.9999 5.27549 15 5.61523C15 5.95505 14.7246 6.23038 14.3848 6.23047H0.615234C0.275436 6.23039 0 5.95505 0 5.61523C8.11821e-05 5.27549 0.275486 5.00008 0.615234 5H14.3848Z" fill="#8A8A8A"/>
<path d="M44.203 5C46.2974 5 48.01 6.71671 48.01 8.84956V14.3804C48.01 16.5133 46.2974 18.23 44.203 18.23H34.807C32.7125 18.23 31 16.5133 31 14.3804V8.84956C31 6.71671 32.7125 5 34.807 5H44.203ZM34.807 6.37812C33.4315 6.37812 32.3499 7.48086 32.3499 8.84956V14.3804C32.3499 15.7491 33.4315 16.8519 34.807 16.8519H44.203C45.5785 16.8519 46.6601 15.7491 46.6601 14.3804V8.84956C46.6601 7.48086 45.5785 6.37812 44.203 6.37812H34.807ZM37.5598 8.12949C37.6752 8.13322 37.7884 8.16994 37.8862 8.23544L42.193 11.0009C42.4194 11.1419 42.5025 11.403 42.5025 11.615C42.5025 11.8269 42.419 12.0878 42.1927 12.2288L37.8865 14.9946C37.6809 15.132 37.4135 15.1341 37.2063 15.002L37.2046 15.0009C37 14.8683 36.8785 14.6208 36.8848 14.3727V8.84956C36.88 8.49772 37.1469 8.14891 37.5089 8.13007L37.5598 8.12949ZM38.2041 13.1249L40.5626 11.6144L38.2041 10.0996V13.1249ZM42.1753 11.8255C42.1606 11.8574 42.1424 11.887 42.1205 11.913L42.1506 11.8717C42.1598 11.8571 42.168 11.8414 42.1753 11.8255Z" fill="#8A8A8A"/>
</svg>
