<svg width="48" height="24" viewBox="0 0 48 24" fill="none" xmlns="http://www.w3.org/2000/svg">
<path fill-rule="evenodd" clip-rule="evenodd" d="M15.0673 9.58008C15.1981 9.5263 15.3505 9.52641 15.4814 9.58008C15.5519 9.60647 15.613 9.6505 15.662 9.69922L18.3896 12.4072C18.6023 12.6184 18.6021 12.9596 18.3896 13.1709C18.2802 13.2743 18.1439 13.3281 18.0019 13.3281C17.8598 13.328 17.7235 13.2795 17.6142 13.1709L15.8193 11.3887V19.291C15.8194 20.1845 16.5562 20.9158 17.456 20.916H30.5478C31.4476 20.9159 32.1834 20.1845 32.1835 19.291V18.208C32.1835 17.9111 32.4287 17.6671 32.7275 17.666C33.0265 17.6667 33.2714 17.9109 33.2714 18.208V19.291C33.2713 20.7857 32.0492 21.9998 30.5439 22H17.4511C15.946 21.9996 14.7237 20.7856 14.7236 19.291V11.3887L12.9286 13.1709C12.7159 13.3818 12.3717 13.382 12.1591 13.1709C11.9469 12.9598 11.9469 12.6184 12.1591 12.4072L14.8876 9.69922C14.9417 9.64553 15.0021 9.60748 15.0673 9.58008ZM28.4355 7.2998C28.8027 7.3 29.1003 7.55337 29.1005 7.86621V9.37793C29.1002 9.69065 28.8026 9.94407 28.4355 9.94434C28.0681 9.94434 27.7697 9.69081 27.7695 9.37793V8.43359H24.665V16.3662H26.2177C26.585 16.3663 26.8824 16.6198 26.8827 16.9326C26.8827 17.2456 26.5851 17.4999 26.2177 17.5H21.7831C21.4156 17.5 21.1181 17.2457 21.1181 16.9326C21.1184 16.6198 21.4158 16.3662 21.7831 16.3662H23.3349V8.43359H20.2304V9.37793C20.2301 9.69077 19.9327 9.94427 19.5654 9.94434C19.1981 9.94425 18.9006 9.69076 18.9003 9.37793V7.86621C18.9005 7.55331 19.198 7.29989 19.5654 7.2998H28.4355ZM30.5488 2.5C32.0541 2.50024 33.2763 3.71416 33.2763 5.20898V13.1113L35.0712 11.3291C35.2839 11.1179 35.628 11.1179 35.8407 11.3291C36.0531 11.5403 36.0533 11.8816 35.8407 12.0928H35.8447L33.1171 14.8008C33.0681 14.8494 33.0069 14.8936 32.9365 14.9199C32.8713 14.9472 32.8007 14.9638 32.7294 14.9639C32.659 14.9638 32.5868 14.9473 32.5214 14.9199C32.456 14.8925 32.3959 14.8545 32.3417 14.8008L29.6132 12.0928C29.4008 11.8817 29.4011 11.5404 29.6132 11.3291C29.8259 11.1179 30.17 11.1179 30.3827 11.3291L32.1777 13.1113V5.20898C32.1777 4.31525 31.441 3.58398 30.5409 3.58398H17.455C16.5553 3.58438 15.8193 4.31549 15.8193 5.20898V6.29199C15.8191 6.58944 15.573 6.83398 15.2734 6.83398C14.9741 6.83359 14.7286 6.5892 14.7284 6.29199V5.20898C14.7284 3.71427 15.9508 2.50043 17.456 2.5H30.5488Z" fill="#8A8A8A"/>
</svg>
