<svg width="48" height="24" viewBox="0 0 48 24" fill="none" xmlns="http://www.w3.org/2000/svg">
<path d="M46.6309 5C47.379 5.00009 48 5.59922 48 6.32031V16.8799C48 17.601 47.379 18.2001 46.6309 18.2002H31.3691C30.6211 18.2 30 17.6009 30 16.8799V6.32031C30 5.59931 30.6211 5.00024 31.3691 5H46.6309ZM31.1738 14.918V16.8799C31.1738 16.9939 31.2509 17.0682 31.3691 17.0684H46.6309C46.7492 17.0682 46.8262 16.994 46.8262 16.8799V15.2656L43.4697 12.6787L40.7002 14.5166C40.4938 14.6507 40.1963 14.6383 40.0029 14.4873L36.2363 11.5527L31.1738 14.918ZM31.3691 6.13184C31.2509 6.13202 31.1738 6.20628 31.1738 6.32031V13.5391L35.9248 10.3799C36.0041 10.3255 36.0973 10.2913 36.1934 10.2803C36.3477 10.2641 36.5079 10.3091 36.6279 10.4033L40.3945 13.3447L43.1699 11.5059C43.3763 11.3718 43.6738 11.3841 43.8672 11.5352L46.8262 13.8154V6.32031C46.8262 6.20619 46.7492 6.13191 46.6309 6.13184H31.3691ZM40.3701 7.63965C41.3351 7.63986 42.1307 8.40684 42.1309 9.33691C42.1309 10.2671 41.3352 11.034 40.3701 11.0342C39.4048 11.0342 38.6084 10.2673 38.6084 9.33691C38.6086 8.40671 39.4049 7.63965 40.3701 7.63965ZM40.3701 8.77148C40.0393 8.77148 39.7834 9.01812 39.7832 9.33691C39.7832 9.65587 40.0392 9.90332 40.3701 9.90332C40.7009 9.90312 40.957 9.65574 40.957 9.33691C40.9569 9.01825 40.7007 8.77168 40.3701 8.77148Z" fill="#8A8A8A"/>
<path fill-rule="evenodd" clip-rule="evenodd" d="M27.0246 11.7207C27.2588 11.9549 27.2586 12.335 27.0246 12.5693L24.4797 15.1152C24.2455 15.3494 23.8654 15.3492 23.6311 15.1152C23.3968 14.8809 23.3968 14.5009 23.6311 14.2666L25.1477 12.75L17.5998 12.75C17.2686 12.7497 17.0002 12.4806 17.0002 12.1494C17.0004 11.8183 17.2688 11.55 17.5998 11.5498L25.1574 11.5498L23.6311 10.0234C23.3968 9.78908 23.3968 9.40907 23.6311 9.17477C23.8654 8.94115 24.2456 8.94071 24.4797 9.17477L27.0246 11.7207Z" fill="#8A8A8A"/>
<path d="M9.76953 17C10.1092 17.0002 10.3847 17.2755 10.3848 17.6152C10.3848 17.955 10.1093 18.2303 9.76953 18.2305H0.615234C0.275436 18.2304 0 17.9551 0 17.6152C8.11821e-05 17.2755 0.275486 17.0001 0.615234 17H9.76953ZM14.3848 14C14.7245 14.0001 14.9999 14.2755 15 14.6152C15 14.9551 14.7246 15.2304 14.3848 15.2305H0.615234C0.275436 15.2304 0 14.9551 0 14.6152C8.11499e-05 14.2755 0.275486 14.0001 0.615234 14H14.3848ZM14.3848 11C14.7245 11.0001 14.9999 11.2755 15 11.6152C15 11.9551 14.7246 12.2304 14.3848 12.2305H0.615234C0.275436 12.2304 0 11.9551 0 11.6152C8.11499e-05 11.2755 0.275486 11.0001 0.615234 11H14.3848ZM14.3848 8C14.7245 8.00008 14.9999 8.27549 15 8.61523C15 8.95505 14.7246 9.23038 14.3848 9.23047H0.615234C0.275436 9.23039 0 8.95505 0 8.61523C8.11821e-05 8.27549 0.275486 8.00008 0.615234 8H14.3848ZM14.3848 5C14.7245 5.00008 14.9999 5.27549 15 5.61523C15 5.95505 14.7246 6.23038 14.3848 6.23047H0.615234C0.275436 6.23039 0 5.95505 0 5.61523C8.11821e-05 5.27549 0.275486 5.00008 0.615234 5H14.3848Z" fill="#8A8A8A"/>
</svg>
