<svg width="24" height="24" viewBox="0 0 24 24" fill="none" xmlns="http://www.w3.org/2000/svg">
<path d="M22 18L19.9427 15.9426C19.6926 15.6927 19.3536 15.5522 19 15.5522C18.6464 15.5522 18.3074 15.6927 18.0573 15.9426L12 22M10 17V20.6667C10 21.403 10.597 22 11.3333 22H20.6667C21.403 22 22 21.403 22 20.6667V11.3333C22 10.597 21.403 10 20.6667 10H17M11.3333 2H2M14 6H2M10.0667 9.93327H2M5 18L7 20L5 22M7 20H4C3.46957 20 2.96086 19.7893 2.58579 19.4142C2.21071 19.0391 2 18.5304 2 18V14" stroke="currentColor" stroke-width="1.3" stroke-linecap="round" stroke-linejoin="round"/>
</svg>
