<svg width="24" height="24" viewBox="0 0 24 24" fill="none" xmlns="http://www.w3.org/2000/svg">
<path d="M11.3333 2H2M14 6H2M8 9.93327L2 9.93327" stroke="currentColor" stroke-width="1.3" stroke-linecap="round" stroke-linejoin="round"/>
<path d="M5 18L7 20L5 22M7 20H4C3.46957 20 2.96086 19.7893 2.58579 19.4142C2.21071 19.0391 2 18.5304 2 18L2 14" stroke="currentColor" stroke-width="1.3" stroke-linecap="round" stroke-linejoin="round"/>
<path d="M18.4 15.1251C18.7894 15.6658 19 16.3235 19 16.9994C19 17.6753 18.7894 18.3329 18.4 18.8737M20.4184 20.9754C20.9198 20.4532 21.3176 19.8334 21.5889 19.1512C21.8603 18.469 22 17.7378 22 16.9993C22 16.2609 21.8603 15.5297 21.5889 14.8475C21.3176 14.1653 20.9198 13.5455 20.4184 13.0233M15.4 12.4398C15.3999 12.3528 15.375 12.2678 15.3285 12.1955C15.282 12.1231 15.216 12.0668 15.1388 12.0335C15.0616 12.0002 14.9766 11.9915 14.8946 12.0084C14.8126 12.0254 14.7373 12.0672 14.6782 12.1287L12.6478 14.2423C12.5694 14.3244 12.4762 14.3894 12.3735 14.4337C12.2708 14.478 12.1607 14.5006 12.0496 14.5003H10.6C10.4409 14.5003 10.2883 14.5661 10.1757 14.6833C10.0632 14.8005 10 14.9594 10 15.1251V18.8737C10 19.0394 10.0632 19.1983 10.1757 19.3155C10.2883 19.4326 10.4409 19.4984 10.6 19.4984H12.0496C12.1607 19.4981 12.2708 19.5207 12.3735 19.565C12.4762 19.6093 12.5694 19.6744 12.6478 19.7565L14.6776 21.8707C14.7367 21.9324 14.8122 21.9745 14.8943 21.9915C14.9764 22.0085 15.0616 21.9998 15.1389 21.9664C15.2163 21.933 15.2824 21.8765 15.3289 21.804C15.3753 21.7314 15.4001 21.6461 15.4 21.5589V12.4398Z" stroke="currentColor" stroke-width="1.3" stroke-linecap="round" stroke-linejoin="round"/>
</svg>
