<svg width="48" height="24" viewBox="0 0 48 24" fill="none" xmlns="http://www.w3.org/2000/svg">
<path fill-rule="evenodd" clip-rule="evenodd" d="M26.3697 9.5C26.4578 9.50289 26.5441 9.53066 26.6187 9.58008L29.9107 11.6699C30.0837 11.7765 30.1471 11.9746 30.1471 12.1348C30.147 12.2949 30.0827 12.4921 29.9098 12.5986L26.6187 14.6895C26.4617 14.7931 26.2574 14.7941 26.0992 14.6943L26.0982 14.6934C25.9419 14.5931 25.8483 14.4063 25.8531 14.2188V10.0439C25.8496 9.77812 26.0541 9.51424 26.3307 9.5H26.3697ZM26.8619 13.2754L28.6646 12.1338L26.8619 10.9893V13.2754Z" fill="#8A8A8A"/>
<path d="M20.2002 20V19C20.2002 18.5582 20.5582 18.2002 21 18.2002C21.4418 18.2002 21.7998 18.5582 21.7998 19V20C21.7998 20.1105 21.8895 20.2002 22 20.2002H34C34.1105 20.2002 34.2002 20.1105 34.2002 20V4C34.2002 3.88954 34.1105 3.7998 34 3.7998H22C21.8895 3.7998 21.7998 3.88954 21.7998 4V5C21.7998 5.44183 21.4418 5.7998 21 5.7998C20.5582 5.7998 20.2002 5.44183 20.2002 5V4C20.2002 3.00589 21.0059 2.2002 22 2.2002H34C34.9941 2.2002 35.7998 3.00589 35.7998 4V20C35.7998 20.9941 34.9941 21.7998 34 21.7998H22C21.0059 21.7998 20.2002 20.9941 20.2002 20Z" fill="#8A8A8A"/>
<path d="M15.5 4.2002C17.3225 4.2002 18.7998 5.67746 18.7998 7.5C18.7998 8.12126 18.6276 8.70206 18.3291 9.19824L20 10.8691L24.4346 6.43457C24.747 6.12219 25.253 6.12219 25.5654 6.43457C25.8778 6.74698 25.8778 7.25301 25.5654 7.56543L21.1309 12L25.5654 16.4346C25.8778 16.747 25.8778 17.253 25.5654 17.5654C25.253 17.8778 24.747 17.8778 24.4346 17.5654L20 13.1309L18.3291 14.8008C18.6278 15.2971 18.7998 15.8784 18.7998 16.5C18.7998 18.3225 17.3225 19.7998 15.5 19.7998C13.6775 19.7998 12.2002 18.3225 12.2002 16.5C12.2002 14.6775 13.6775 13.2002 15.5 13.2002C16.1211 13.2002 16.7022 13.3716 17.1982 13.6699L18.8691 12L17.1982 10.3291C16.7021 10.6276 16.1213 10.7998 15.5 10.7998C13.6775 10.7998 12.2002 9.32254 12.2002 7.5C12.2002 5.67746 13.6775 4.2002 15.5 4.2002ZM15.5 14.7998C14.5611 14.7998 13.7998 15.5611 13.7998 16.5C13.7998 17.4389 14.5611 18.2002 15.5 18.2002C16.4389 18.2002 17.2002 17.4389 17.2002 16.5C17.2002 15.5611 16.4389 14.7998 15.5 14.7998ZM15.5 5.7998C14.5611 5.7998 13.7998 6.56112 13.7998 7.5C13.7998 8.43888 14.5611 9.2002 15.5 9.2002C16.4389 9.2002 17.2002 8.43888 17.2002 7.5C17.2002 6.56112 16.4389 5.7998 15.5 5.7998Z" fill="#8A8A8A"/>
</svg>
