<svg width="512" height="512" viewBox="0 0 512 512" fill="none" xmlns="http://www.w3.org/2000/svg">
<g clip-path="url(#clip0_1485_17765)">
<g clip-path="url(#clip1_1485_17765)">
<path fill-rule="evenodd" clip-rule="evenodd" d="M270.101 101.376C270.22 101.184 270.257 100.952 270.205 100.732C270.153 100.512 270.016 100.322 269.824 100.203C269.694 100.128 269.547 100.092 269.397 100.096H138.581C137.874 100.104 137.178 99.9274 136.56 99.5831C135.943 99.2388 135.426 98.739 135.061 98.1333L90.56 22.4426C90.5118 22.3577 90.4813 22.2638 90.4702 22.1667C90.4592 22.0696 90.4679 21.9713 90.4958 21.8777C90.5237 21.784 90.5702 21.697 90.6325 21.6218C90.6949 21.5466 90.7718 21.4847 90.8587 21.44C90.9631 21.3795 91.0797 21.343 91.2 21.3333C208.363 21.3333 320.171 21.3333 426.581 21.376C471.147 21.376 505.493 54.2293 511.979 98.1333C512.149 99.456 511.573 100.096 510.272 100.096H367.979C367.229 100.102 366.493 100.301 365.842 100.675C365.192 101.048 364.649 101.584 364.267 102.229C334.101 153.643 304.107 204.693 274.283 255.36C268.309 265.429 254.656 268.587 244.992 262.656C240.939 260.181 237.376 256.171 234.283 250.688C228.253 239.958 221.98 229.367 215.467 218.923C210.731 211.328 210.475 203.84 214.72 196.48C233.064 164.693 251.532 132.977 270.123 101.333L270.101 101.376Z" fill="#F6D85A"/>
<path fill-rule="evenodd" clip-rule="evenodd" d="M229.803 362.368C241.963 383.104 271.083 381.909 282.901 361.771L405.333 152.832C405.572 152.387 405.93 152.017 406.367 151.765C406.804 151.512 407.303 151.387 407.808 151.403H498.048C498.411 151.403 498.688 151.701 498.645 152.043C498.645 152.149 498.624 152.256 498.581 152.32C443.008 246.869 386.965 342.315 330.475 438.613C303.104 485.355 239.211 492.309 198.656 458.816C192.085 453.397 184.469 443.307 175.851 428.587C121.984 336.341 67.0934 242.773 11.1574 147.797C-11.52 109.333 2.11203 63.5947 36.544 36.864C37.6747 35.9893 38.5707 36.16 39.296 37.3547C101.269 142.955 164.779 251.285 229.803 362.368Z" fill="#B6B6B6"/>
</g>
</g>
<defs>
<clipPath id="clip0_1485_17765">
<rect width="512" height="512" fill="white"/>
</clipPath>
<clipPath id="clip1_1485_17765">
<rect width="512" height="512" fill="white"/>
</clipPath>
</defs>
</svg>
