<svg width="48" height="24" viewBox="0 0 48 24" fill="none" xmlns="http://www.w3.org/2000/svg">
<path d="M24 3.5C25.8185 3.5 27.3211 4.84815 27.5645 6.59961H32.1465C32.4433 5.86686 33.1608 5.34961 34 5.34961C35.1046 5.34961 36 6.24504 36 7.34961C36 8.45418 35.1046 9.34961 34 9.34961C33.1996 9.34961 32.511 8.87846 32.1914 8.19922H27.4277C27.2589 8.72603 26.9714 9.1989 26.5977 9.58887C28.953 10.1459 30.6331 11.4509 31.7705 13.002C33.2609 15.0345 33.7998 17.4569 33.7998 19.0996C33.7998 19.5414 33.4418 19.8994 33 19.8994C32.5582 19.8994 32.2002 19.5414 32.2002 19.0996C32.2002 17.7425 31.7389 15.6646 30.4795 13.9473C29.2477 12.2678 27.2324 10.8994 24 10.8994C21.9205 10.8994 19.8668 11.5934 18.3438 12.9473C16.8354 14.288 15.7998 16.3167 15.7998 19.0996C15.7998 19.5414 15.4418 19.8994 15 19.8994C14.5582 19.8994 14.2002 19.5414 14.2002 19.0996C14.2002 15.8825 15.4146 13.4112 17.2812 11.752C18.4714 10.6941 19.9073 9.98433 21.4238 9.61133C21.0395 9.21718 20.7443 8.73614 20.5723 8.19922H15.8086C15.489 8.87846 14.8004 9.34961 14 9.34961C12.8954 9.34961 12 8.45418 12 7.34961C12 6.24504 12.8954 5.34961 14 5.34961C14.8392 5.34961 15.5567 5.86686 15.8535 6.59961H20.4355C20.6789 4.84815 22.1815 3.5 24 3.5ZM24 5.09961C22.8954 5.09961 22 5.99504 22 7.09961C22 8.20418 22.8954 9.09961 24 9.09961C25.1046 9.09961 26 8.20418 26 7.09961C26 5.99504 25.1046 5.09961 24 5.09961Z" fill="#8A8A8A"/>
</svg>
