<svg width="512" height="512" viewBox="0 0 512 512" fill="none" xmlns="http://www.w3.org/2000/svg">
<g clip-path="url(#clip0_1485_17574)">
<path d="M490.667 261.227C490.667 241.92 489.067 227.84 485.632 213.227H260.779V300.331H392.747C390.101 321.963 375.744 354.56 343.808 376.469L343.36 379.371L414.443 433.344L419.349 433.813C464.619 392.896 490.667 332.651 490.667 261.227Z" fill="#4285F4"/>
<path d="M260.8 490.667C325.44 490.667 379.712 469.803 419.371 433.813L343.808 376.469C323.584 390.293 296.448 399.936 260.8 399.936C230.751 399.939 201.455 390.534 177.022 373.042C152.59 355.549 134.246 330.847 124.565 302.4L121.749 302.635L47.8294 358.699L46.8694 361.344C86.2507 437.995 167.147 490.667 260.8 490.667Z" fill="#34A853"/>
<path d="M124.587 302.4C119.34 287.489 116.621 271.807 116.544 256C116.544 239.829 119.488 224.192 124.245 209.6L124.117 206.464L49.28 149.504L46.8267 150.656C30.097 183.253 21.3588 219.361 21.3334 256C21.3334 293.803 30.6347 329.536 46.8694 361.344L124.587 302.4Z" fill="#FBBC05"/>
<path d="M260.8 112.064C305.771 112.064 336.085 131.093 353.387 147.008L420.949 82.3466C379.456 44.5439 325.44 21.3333 260.8 21.3333C167.125 21.3333 86.2507 74.0053 46.8694 150.656L124.309 209.6C134.073 181.155 152.473 156.468 176.942 138.983C201.41 121.498 230.726 112.087 260.8 112.064Z" fill="#EB4335"/>
</g>
<defs>
<clipPath id="clip0_1485_17574">
<rect width="512" height="512" fill="white"/>
</clipPath>
</defs>
</svg>
