<svg width="24" height="24" viewBox="0 0 24 24" fill="none" xmlns="http://www.w3.org/2000/svg">
<path d="M11 21H5C3.89543 21 3 20.1046 3 19V5C3 3.89543 3.89543 3 5 3H19C20.1046 3 21 3.89543 21 5V13M15 12L9 8V16L10.7141 14.8573M13.0283 14.5459C12.9995 14.4735 12.9925 14.3943 13.0082 14.318C13.0239 14.2418 13.0616 14.1718 13.1167 14.1167C13.1718 14.0616 13.2418 14.0239 13.318 14.0082C13.3943 13.9925 13.4735 13.9995 13.5459 14.0283L20.7456 16.8282C20.8228 16.8584 20.8887 16.9118 20.9342 16.981C20.9798 17.0502 21.0027 17.1319 20.9998 17.2147C20.9969 17.2976 20.9683 17.3774 20.918 17.4433C20.8678 17.5092 20.7983 17.5579 20.7192 17.5826L17.9641 18.4369C17.8398 18.4754 17.7267 18.5435 17.6347 18.6355C17.5427 18.7275 17.4746 18.8406 17.4361 18.9649L16.5826 21.7192C16.5579 21.7983 16.5092 21.8678 16.4433 21.918C16.3774 21.9683 16.2976 21.9969 16.2147 21.9998C16.1319 22.0027 16.0502 21.9798 15.981 21.9342C15.9118 21.8887 15.8584 21.8228 15.8282 21.7456L13.0283 14.5459Z" stroke="currentColor" stroke-width="1.3" stroke-linecap="round" stroke-linejoin="round"/>
</svg>
