<svg width="48" height="24" viewBox="0 0 48 24" fill="none" xmlns="http://www.w3.org/2000/svg">
<g clip-path="url(#clip0_1684_13484)">
<path d="M33.8497 -0.25C35.1752 -0.25 36.2501 0.824907 36.2501 2.15039V21.3496C36.2501 22.6751 35.1752 23.75 33.8497 23.75H14.6505C13.325 23.75 12.2501 22.6751 12.2501 21.3496V2.15039C12.2501 0.824908 13.325 -0.25 14.6505 -0.25H33.8497ZM14.6505 0.950195C13.9877 0.950195 13.4503 1.48765 13.4503 2.15039V21.3496L13.4512 21.4121C13.4835 22.046 14.0085 22.5498 14.6505 22.5498H33.8497L33.9122 22.5488C34.5255 22.5176 35.0176 22.0254 35.0489 21.4121L35.0499 21.3496V2.15039C35.0499 1.50847 34.5461 0.98348 33.9122 0.951172L33.8497 0.950195H14.6505Z" fill="#8A8A8A"/>
<path d="M22.6997 3.49707L22.7156 2.99733L22.7031 2.99692L22.6905 2.99715L22.6997 3.49707ZM23.3794 3.71582L23.1032 4.13275L23.1113 4.13786L23.3794 3.71582ZM32.351 9.41504L32.0829 9.83712L32.0887 9.84071L32.351 9.41504ZM32.9956 10.6807H33.4956V10.6805L32.9956 10.6807ZM32.351 11.9463L32.0885 11.5207L32.0829 11.5243L32.351 11.9463ZM23.3803 17.6465L23.1121 17.2244L23.1045 17.2295L23.3803 17.6465ZM21.9633 17.6621L21.6633 18.0621L21.6796 18.0743L21.6968 18.0851L21.9633 17.6621ZM21.9594 17.6592L22.2594 17.2592L22.2448 17.2482L22.2295 17.2384L21.9594 17.6592ZM21.2934 16.3643L21.7934 16.3772V16.3643H21.2934ZM21.2934 4.98145H21.7935L21.7934 4.97457L21.2934 4.98145ZM22.5932 3.49902L22.5841 2.99911L22.5757 2.99926L22.5674 2.99969L22.5932 3.49902ZM24.019 13.5889H23.519V14.4818L24.2803 14.0151L24.019 13.5889ZM28.9321 10.5771L29.1934 11.0034L29.8879 10.5777L29.1939 10.1512L28.9321 10.5771ZM24.019 7.55762L24.2808 7.13164L23.519 6.66344V7.55762H24.019ZM22.6639 2.99764C22.3878 3.00271 22.1681 3.23064 22.1731 3.50673C22.1782 3.78283 22.4061 4.00254 22.6822 3.99747L22.6731 3.49756L22.6639 2.99764ZM22.629 3.99845C22.9051 3.99339 23.1248 3.76546 23.1198 3.48936C23.1147 3.21327 22.8868 2.99355 22.6107 2.99862L22.6198 3.49854L22.629 3.99845ZM21.8412 3.20094C21.597 3.32993 21.5037 3.63244 21.6327 3.8766C21.7617 4.12076 22.0642 4.21412 22.3083 4.08512L22.0748 3.64303L21.8412 3.20094ZM21.8554 4.62252C21.9506 4.36331 21.8177 4.07599 21.5585 3.98078C21.2993 3.88557 21.0119 4.01851 20.9167 4.27772L21.3861 4.45012L21.8554 4.62252ZM20.7934 5.93001C20.7934 6.20616 21.0173 6.43001 21.2934 6.43001C21.5696 6.43001 21.7934 6.20616 21.7934 5.93001H21.2934H20.7934ZM21.7934 7.82715C21.7934 7.55101 21.5696 7.32715 21.2934 7.32715C21.0173 7.32715 20.7934 7.55101 20.7934 7.82715H21.2934H21.7934ZM20.7934 9.72428C20.7934 10.0004 21.0173 10.2243 21.2934 10.2243C21.5696 10.2243 21.7934 10.0004 21.7934 9.72428H21.2934H20.7934ZM21.7934 11.6214C21.7934 11.3453 21.5696 11.1214 21.2934 11.1214C21.0173 11.1214 20.7934 11.3453 20.7934 11.6214H21.2934H21.7934ZM20.7934 13.5186C20.7934 13.7947 21.0173 14.0186 21.2934 14.0186C21.5696 14.0186 21.7934 13.7947 21.7934 13.5186H21.2934H20.7934ZM21.7934 15.4157C21.7934 15.1395 21.5696 14.9157 21.2934 14.9157C21.0173 14.9157 20.7934 15.1395 20.7934 15.4157H21.2934H21.7934ZM20.844 16.8527C20.9055 17.1219 21.1736 17.2903 21.4428 17.2288C21.712 17.1673 21.8804 16.8992 21.8189 16.63L21.3314 16.7414L20.844 16.8527ZM22.0474 17.081C21.8646 16.874 21.5487 16.8543 21.3416 17.037C21.1346 17.2197 21.1149 17.5357 21.2976 17.7428L21.6725 17.4119L22.0474 17.081ZM21.6604 18.0599C21.8813 18.2256 22.1947 18.1808 22.3604 17.9599C22.5261 17.739 22.4813 17.4256 22.2604 17.2599L21.9604 17.6599L21.6604 18.0599ZM22.2624 17.2614C22.0415 17.0957 21.7281 17.1405 21.5624 17.3614C21.3967 17.5823 21.4415 17.8957 21.6624 18.0614L21.9624 17.6614L22.2624 17.2614ZM22.1689 18.2949C22.4347 18.3697 22.7108 18.2148 22.7856 17.949C22.8604 17.6832 22.7055 17.4071 22.4397 17.3323L22.3043 17.8136L22.1689 18.2949ZM22.8968 17.3273C22.6327 17.4079 22.484 17.6874 22.5646 17.9515C22.6453 18.2156 22.9248 18.3643 23.1889 18.2837L23.0429 17.8055L22.8968 17.3273ZM24.3961 17.5935C24.6291 17.4454 24.698 17.1364 24.5499 16.9033C24.4018 16.6702 24.0928 16.6014 23.8597 16.7495L24.1279 17.1715L24.3961 17.5935ZM25.3549 15.7994C25.1218 15.9475 25.0529 16.2565 25.201 16.4896C25.3491 16.7227 25.6581 16.7915 25.8912 16.6434L25.623 16.2214L25.3549 15.7994ZM27.3863 15.6934C27.6194 15.5453 27.6882 15.2363 27.5401 15.0032C27.392 14.7702 27.083 14.7013 26.85 14.8494L27.1181 15.2714L27.3863 15.6934ZM28.3451 13.8994C28.112 14.0475 28.0431 14.3565 28.1912 14.5895C28.3393 14.8226 28.6483 14.8915 28.8814 14.7434L28.6133 14.3214L28.3451 13.8994ZM30.3765 13.7933C30.6096 13.6453 30.6785 13.3363 30.5304 13.1032C30.3823 12.8701 30.0733 12.8012 29.8402 12.9493L30.1084 13.3713L30.3765 13.7933ZM31.3353 11.9993C31.1023 12.1474 31.0334 12.4564 31.1815 12.6895C31.3296 12.9225 31.6386 12.9914 31.8716 12.8433L31.6035 12.4213L31.3353 11.9993ZM33.009 12.0373C33.1911 11.8297 33.1704 11.5138 32.9627 11.3317C32.7551 11.1496 32.4392 11.1703 32.2571 11.378L32.6331 11.7076L33.009 12.0373ZM32.4671 10.9413C32.4079 11.211 32.5785 11.4777 32.8483 11.5369C33.118 11.5961 33.3846 11.4254 33.4439 11.1557L32.9555 11.0485L32.4671 10.9413ZM33.4439 10.2057C33.3847 9.93596 33.1181 9.76525 32.8484 9.8244C32.5786 9.88356 32.4079 10.1502 32.4671 10.4199L32.9555 10.3128L33.4439 10.2057ZM32.2573 9.98332C32.4394 10.1909 32.7553 10.2116 32.9629 10.0295C33.1705 9.84735 33.1911 9.53145 33.009 9.32386L32.6332 9.65359L32.2573 9.98332ZM31.8715 8.51806C31.6384 8.36999 31.3294 8.43891 31.1814 8.672C31.0333 8.90509 31.1022 9.21408 31.3353 9.36215L31.6034 8.9401L31.8715 8.51806ZM29.84 8.41228C30.0731 8.56035 30.3821 8.49143 30.5302 8.25834C30.6782 8.02525 30.6093 7.71626 30.3762 7.56819L30.1081 7.99023L29.84 8.41228ZM28.8809 6.61832C28.6479 6.47025 28.3389 6.53917 28.1908 6.77226C28.0427 7.00535 28.1117 7.31434 28.3447 7.46241L28.6128 7.04036L28.8809 6.61832ZM26.8495 6.51254C27.0826 6.66061 27.3915 6.59169 27.5396 6.3586C27.6877 6.12551 27.6188 5.81652 27.3857 5.66845L27.1176 6.09049L26.8495 6.51254ZM25.8904 4.71858C25.6573 4.57051 25.3483 4.63943 25.2002 4.87252C25.0522 5.10561 25.1211 5.4146 25.3542 5.56267L25.6223 5.14062L25.8904 4.71858ZM23.8589 4.6128C24.092 4.76087 24.401 4.69195 24.549 4.45886C24.6971 4.22577 24.6282 3.91678 24.3951 3.76871L24.127 4.19075L23.8589 4.6128ZM24.519 12.835C24.519 12.5588 24.2952 12.335 24.019 12.335C23.7429 12.335 23.519 12.5588 23.519 12.835H24.019H24.519ZM23.519 11.3271C23.519 11.6033 23.7429 11.8271 24.019 11.8271C24.2952 11.8271 24.519 11.6033 24.519 11.3271H24.019H23.519ZM24.519 9.81934C24.519 9.54319 24.2952 9.31934 24.019 9.31934C23.7429 9.31934 23.519 9.54319 23.519 9.81934H24.019H24.519ZM23.519 8.31152C23.519 8.58767 23.7429 8.81152 24.019 8.81152C24.2952 8.81152 24.519 8.58767 24.519 8.31152H24.019H23.519ZM24.9855 8.73848C25.2207 8.88307 25.5287 8.80957 25.6733 8.5743C25.8179 8.33904 25.7443 8.03111 25.5091 7.88652L25.2473 8.3125L24.9855 8.73848ZM27.9656 9.39629C27.7304 9.2517 27.4224 9.3252 27.2778 9.56046C27.1333 9.79572 27.2068 10.1037 27.442 10.2482L27.7038 9.82227L27.9656 9.39629ZM27.4425 10.9038C27.2071 11.0481 27.1332 11.356 27.2775 11.5914C27.4219 11.8268 27.7297 11.9007 27.9651 11.7564L27.7038 11.3301L27.4425 10.9038ZM25.5086 13.2622C25.744 13.1179 25.8179 12.8101 25.6736 12.5746C25.5292 12.3392 25.2214 12.2653 24.986 12.4097L25.2473 12.8359L25.5086 13.2622ZM22.6997 3.49707L22.6905 2.99715L22.6639 2.99764L22.6731 3.49756L22.6822 3.99747L22.7088 3.99699L22.6997 3.49707ZM22.6198 3.49854L22.6107 2.99862L22.5841 2.99911L22.5932 3.49902L22.6024 3.99894L22.629 3.99845L22.6198 3.49854ZM22.5932 3.49902L22.5674 2.99969C22.304 3.01334 22.0588 3.08599 21.8412 3.20094L22.0748 3.64303L22.3083 4.08512C22.4046 4.03426 22.5088 4.00407 22.6191 3.99835L22.5932 3.49902ZM21.3861 4.45012L20.9167 4.27772C20.8346 4.50143 20.7901 4.74267 20.7935 4.98832L21.2934 4.98145L21.7934 4.97457C21.7918 4.8582 21.8129 4.73825 21.8554 4.62252L21.3861 4.45012ZM21.2934 4.98145H20.7934V5.93001H21.2934H21.7934V4.98145H21.2934ZM21.2934 7.82715H20.7934V9.72428H21.2934H21.7934V7.82715H21.2934ZM21.2934 11.6214H20.7934V13.5186H21.2934H21.7934V11.6214H21.2934ZM21.2934 15.4157H20.7934V16.3643H21.2934H21.7934V15.4157H21.2934ZM21.2934 16.3643L20.7936 16.3513C20.7892 16.5213 20.8068 16.6899 20.844 16.8527L21.3314 16.7414L21.8189 16.63C21.7998 16.5463 21.7911 16.4612 21.7933 16.3772L21.2934 16.3643ZM21.6725 17.4119L21.2976 17.7428C21.4105 17.8706 21.5415 17.9851 21.6894 18.08L21.9594 17.6592L22.2295 17.2384C22.1632 17.1959 22.102 17.143 22.0474 17.081L21.6725 17.4119ZM21.9594 17.6592L21.6594 18.0592L21.6604 18.0599L21.9604 17.6599L22.2604 17.2599L22.2594 17.2592L21.9594 17.6592ZM21.9624 17.6614L21.6624 18.0614L21.6633 18.0621L21.9633 17.6621L22.2633 17.2621L22.2624 17.2614L21.9624 17.6614ZM21.9633 17.6621L21.6968 18.0851C21.8453 18.1787 22.0046 18.2487 22.1689 18.2949L22.3043 17.8136L22.4397 17.3323C22.3664 17.3117 22.2958 17.2806 22.2299 17.2391L21.9633 17.6621ZM23.0429 17.8055L23.1889 18.2837C23.3519 18.2339 23.5095 18.1605 23.6562 18.0635L23.3803 17.6465L23.1045 17.2295C23.0394 17.2725 22.9694 17.3051 22.8968 17.3273L23.0429 17.8055ZM23.3803 17.6465L23.6485 18.0685L24.3961 17.5935L24.1279 17.1715L23.8597 16.7495L23.1122 17.2245L23.3803 17.6465ZM25.623 16.2214L25.8912 16.6434L27.3863 15.6934L27.1181 15.2714L26.85 14.8494L25.3549 15.7994L25.623 16.2214ZM28.6133 14.3214L28.8814 14.7434L30.3765 13.7933L30.1084 13.3713L29.8402 12.9493L28.3451 13.8994L28.6133 14.3214ZM31.6035 12.4213L31.8716 12.8433L32.6192 12.3683L32.351 11.9463L32.0829 11.5243L31.3353 11.9993L31.6035 12.4213ZM32.351 11.9463L32.6136 12.3718C32.7675 12.2769 32.8988 12.163 33.009 12.0373L32.6331 11.7076L32.2571 11.378C32.2095 11.4323 32.1538 11.4805 32.0885 11.5208L32.351 11.9463ZM32.9555 11.0485L33.4439 11.1557C33.4794 10.994 33.4956 10.8332 33.4956 10.6807H32.9956H32.4956C32.4956 10.7632 32.4867 10.8521 32.4671 10.9413L32.9555 11.0485ZM32.9956 10.6807L33.4956 10.6805C33.4955 10.5281 33.4793 10.3674 33.4439 10.2057L32.9555 10.3128L32.4671 10.4199C32.4867 10.5091 32.4955 10.5981 32.4956 10.6808L32.9956 10.6807ZM32.6332 9.65359L33.009 9.32386C32.8988 9.19814 32.7674 9.08428 32.6133 8.98937L32.351 9.41504L32.0887 9.84071C32.1541 9.88097 32.2097 9.92906 32.2573 9.98332L32.6332 9.65359ZM32.351 9.41504L32.6191 8.99299L31.8715 8.51806L31.6034 8.9401L31.3353 9.36215L32.0829 9.83708L32.351 9.41504ZM30.1081 7.99023L30.3762 7.56819L28.8809 6.61832L28.6128 7.04036L28.3447 7.46241L29.84 8.41228L30.1081 7.99023ZM27.1176 6.09049L27.3857 5.66845L25.8904 4.71858L25.6223 5.14062L25.3542 5.56267L26.8495 6.51254L27.1176 6.09049ZM24.127 4.19075L24.3951 3.76871L23.6475 3.29378L23.3794 3.71582L23.1113 4.13786L23.8589 4.6128L24.127 4.19075ZM23.3794 3.71582L23.6555 3.29896C23.3764 3.1141 23.0509 3.00804 22.7156 2.99733L22.6997 3.49707L22.6837 3.99682C22.8291 4.00146 22.9751 4.04778 23.1033 4.13268L23.3794 3.71582ZM24.019 13.5889H24.519V12.835H24.019H23.519V13.5889H24.019ZM24.019 11.3271H24.519V9.81934H24.019H23.519V11.3271H24.019ZM24.019 8.31152H24.519V7.55762H24.019H23.519V8.31152H24.019ZM24.019 7.55762L23.7572 7.9836L24.9855 8.73848L25.2473 8.3125L25.5091 7.88652L24.2808 7.13164L24.019 7.55762ZM27.7038 9.82227L27.442 10.2482L28.6703 11.0031L28.9321 10.5771L29.1939 10.1512L27.9656 9.39629L27.7038 9.82227ZM28.9321 10.5771L28.6708 10.1509L27.4425 10.9038L27.7038 11.3301L27.9651 11.7564L29.1934 11.0034L28.9321 10.5771ZM25.2473 12.8359L24.986 12.4097L23.7577 13.1626L24.019 13.5889L24.2803 14.0151L25.5086 13.2622L25.2473 12.8359Z" fill="#8A8A8A"/>
</g>
<defs>
<clipPath id="clip0_1684_13484">
<rect width="48" height="24" fill="white"/>
</clipPath>
</defs>
</svg>
