<svg width="24" height="24" viewBox="0 0 24 24" fill="none" xmlns="http://www.w3.org/2000/svg">
<path d="M18 21V17.8889H21.5M6 21V17.8889H2.5M2.5 17.8889V20C2.5 20.5523 2.94772 21 3.5 21H9.5V19.5M2.5 17.8889V10.1111M2.5 10.1111V8C2.5 7.44771 2.94772 7 3.5 7L6 7V10.1111H2.5ZM21.5 10.1111L21.5 8C21.5 7.44771 21.0523 7 20.5 7L18 7V10.1111H21.5ZM21.5 10.1111V17.8889M21.5 17.8889L21.5 20C21.5 20.5523 21.0523 21 20.5 21L14.5 21V19.5M8.5 13.8889H15.5M12 17V13.8889M8.5 6.11111H15.5M12 6.11111V3M15.5 6.11111L15.5 3L8.5 3V17L15.5 17L15.5 13.8889M15.5 6.11111V13.8889" stroke="#8A8A8A" stroke-width="1.3" stroke-linecap="round" stroke-linejoin="round"/>
</svg>
