<svg width="48" height="24" viewBox="0 0 48 24" fill="none" xmlns="http://www.w3.org/2000/svg">
<path d="M31.5 5.25659V2.25659C31.5 1.01534 30.4913 0.0065918 29.25 0.0065918H15.75C14.5087 0.0065918 13.5 1.01534 13.5 2.25659V5.25659C13.5 6.49785 14.5087 7.50659 15.75 7.50659H29.25C30.4913 7.50659 31.5 6.49785 31.5 5.25659Z" fill="#8A8A8A"/>
<path d="M21.75 15.0066C20.5087 15.0066 19.5 16.0153 19.5 17.2566V21.7434C19.5 22.9846 20.5087 23.9934 21.75 23.9934C22.9913 23.9934 24 22.9846 24 21.7434V17.2566C24 16.0153 22.9913 15.0066 21.75 15.0066Z" fill="#8A8A8A"/>
<path d="M33 3.5127V9.00654C33 9.41998 32.6634 9.75654 32.25 9.75654H23.25C22.0087 9.75654 21 10.7653 21 12.0065V13.5825C21.2419 13.5328 21.4931 13.5065 21.75 13.5065C22.0069 13.5065 22.2581 13.5328 22.5 13.5825V12.0065C22.5 11.5931 22.8366 11.2565 23.25 11.2565H32.25C33.4913 11.2565 34.5 10.2478 34.5 9.00654V5.63166C34.5 4.65478 33.8719 3.82206 33 3.5127Z" fill="#8A8A8A"/>
<path fill-rule="evenodd" clip-rule="evenodd" d="M14.3697 9.5C14.4578 9.50289 14.5441 9.53066 14.6187 9.58008L17.9107 11.6699C18.0837 11.7765 18.1471 11.9746 18.1471 12.1348C18.147 12.2949 18.0827 12.4921 17.9098 12.5986L14.6187 14.6895C14.4617 14.7931 14.2574 14.7941 14.0992 14.6943L14.0982 14.6934C13.9419 14.5931 13.8483 14.4063 13.8531 14.2188V10.0439C13.8496 9.77812 14.0541 9.51424 14.3307 9.5H14.3697ZM14.8619 13.2754L16.6646 12.1338L14.8619 10.9893V13.2754Z" fill="#8A8A8A"/>
</svg>
