<svg width="24" height="24" viewBox="0 0 24 24" fill="none" xmlns="http://www.w3.org/2000/svg">
<path d="M11 21H5C3.89543 21 3 20.1046 3 19V5C3 3.89543 3.89543 3 5 3H19C20.1046 3 21 3.89543 21 5V15M9 8L15 12L9 16V8ZM18.141 18.816L17.357 20.646C17.3313 20.7061 17.2884 20.7573 17.2339 20.7933C17.1793 20.8293 17.1154 20.8484 17.05 20.8484C16.9846 20.8484 16.9207 20.8293 16.8661 20.7933C16.8116 20.7573 16.7687 20.7061 16.743 20.646L15.958 18.816C15.9245 18.737 15.8618 18.6739 15.783 18.64L13.952 17.856C13.8919 17.8303 13.8407 17.7874 13.8047 17.7329C13.7687 17.6783 13.7496 17.6144 13.7496 17.549C13.7496 17.4836 13.7687 17.4197 13.8047 17.3651C13.8407 17.3106 13.8919 17.2677 13.952 17.242L15.783 16.457C15.8616 16.4233 15.9243 16.3606 15.958 16.282L16.743 14.451C16.7687 14.3909 16.8116 14.3397 16.8661 14.3037C16.9207 14.2677 16.9846 14.2486 17.05 14.2486C17.1154 14.2486 17.1793 14.2677 17.2339 14.3037C17.2884 14.3397 17.3313 14.3909 17.357 14.451L18.141 16.282C18.175 16.3608 18.238 16.4234 18.317 16.457L20.147 17.242C20.417 17.358 20.417 17.74 20.147 17.856L18.317 18.64C18.2378 18.6738 18.1748 18.7368 18.141 18.816Z" stroke="currentColor" stroke-width="1.3" stroke-linecap="round" stroke-linejoin="round"/>
</svg>
