<svg width="48" height="24" viewBox="0 0 48 24" fill="none" xmlns="http://www.w3.org/2000/svg">
<path d="M13.1625 8.91745L23.6625 14.1675C23.8744 14.2743 24.1256 14.2743 24.3375 14.1675L34.8375 8.91745C35.0878 8.78901 35.2453 8.5312 35.2453 8.24996C35.2453 7.96873 35.0878 7.7109 34.8375 7.58248L24.3375 2.33248C24.1256 2.2256 23.8744 2.2256 23.6625 2.33248L13.1625 7.58248C12.9122 7.71091 12.7547 7.96873 12.7547 8.24996C12.7547 8.5312 12.9122 8.78903 13.1625 8.91745ZM23.9999 3.84001L32.82 8.25001L23.9999 12.66L15.1799 8.25001L23.9999 3.84001ZM35.1674 11.6626C35.353 12.031 35.2049 12.4801 34.8374 12.6676L24.3374 17.9176C24.1255 18.0244 23.8743 18.0244 23.6624 17.9176L13.1624 12.6676C12.8258 12.4651 12.7021 12.0366 12.8802 11.687C13.0574 11.3363 13.4746 11.1816 13.8374 11.3326L23.9999 16.41L34.1625 11.3326C34.531 11.1469 34.9799 11.2951 35.1674 11.6626ZM35.1674 15.4126C35.353 15.781 35.2049 16.2301 34.8374 16.4176L24.3374 21.6676C24.1255 21.7744 23.8743 21.7744 23.6624 21.6676L13.1624 16.4176C12.8258 16.2151 12.7021 15.7866 12.8802 15.437C13.0574 15.0863 13.4746 14.9316 13.8374 15.0826L23.9999 20.16L34.1625 15.0826C34.531 14.8969 34.9799 15.0451 35.1674 15.4126Z" fill="#8A8A8A"/>
<path fill-rule="evenodd" clip-rule="evenodd" d="M23.3697 5.5C23.4578 5.50289 23.5441 5.53066 23.6187 5.58008L26.9107 7.66992C27.0837 7.77655 27.1471 7.9746 27.1471 8.13477C27.147 8.29491 27.0827 8.49205 26.9098 8.59863L23.6187 10.6895C23.4617 10.7931 23.2574 10.7941 23.0992 10.6943L23.0982 10.6934C22.9419 10.5931 22.8483 10.4063 22.8531 10.2188V6.04395C22.8496 5.77812 23.0541 5.51424 23.3307 5.5H23.3697ZM23.8619 9.27539L25.6646 8.13379L23.8619 6.98926V9.27539Z" fill="#8A8A8A"/>
</svg>
