<svg width="24" height="24" viewBox="0 0 24 24" fill="none" xmlns="http://www.w3.org/2000/svg">
<path d="M15 14V19.6667C15 20.403 14.403 21 13.6667 21H4.33333C3.59695 21 3 20.403 3 19.6667V10.3333C3 9.59695 3.59695 9 4.33333 9H10M17.7201 9.72006L16.0001 8.00007M12.0001 12L17.7201 6.28002M14.1333 6.13332L12 4M7 12.3333L11 15L7 17.6667V12.3333ZM17.3333 10.6667C17.3333 9.9303 17.9303 9.33334 18.6667 9.33334C19.403 9.33334 20 9.9303 20 10.6667C20 11.403 19.403 12 18.6667 12C17.9303 12 17.3333 11.403 17.3333 10.6667ZM17.3333 5.33336C17.3333 4.59698 17.9303 4.00003 18.6667 4.00003C19.403 4.00003 20 4.59698 20 5.33336C20 6.06974 19.403 6.66669 18.6667 6.66669C17.9303 6.66669 17.3333 6.06974 17.3333 5.33336Z" stroke="currentColor" stroke-width="1.3" stroke-linecap="round" stroke-linejoin="round"/>
</svg>
