<svg width="24" height="24" viewBox="0 0 24 24" fill="none" xmlns="http://www.w3.org/2000/svg">
<path d="M18 21V17.8889H21.5M6 21V17.8889H2.5M2.5 17.8889V20C2.5 20.5523 2.94772 21 3.5 21H9.5V19.5M2.5 17.8889V10.1111M2.5 10.1111V8C2.5 7.44771 2.94772 7 3.5 7L6 7V10.1111H2.5ZM14.5 19.5V21L20.5 21C21.0523 21 21.5 20.5523 21.5 20L21.5 17.8889V10.1111L21.5 8C21.5 7.44772 21.0523 7 20.5 7H20M21.5 10.1111H18V9M8.5 13.8889H15.5M12 17V13.8889M15.5 11L15.5 13.8889L15.5 17L8.5 17V3H10M15.3914 6.56744L14.6074 8.39744C14.5817 8.45753 14.5389 8.50874 14.4843 8.54472C14.4297 8.58071 14.3658 8.59989 14.3004 8.59989C14.2351 8.59989 14.1711 8.58071 14.1166 8.54472C14.062 8.50874 14.0192 8.45753 13.9934 8.39744L13.2084 6.56744C13.175 6.48842 13.1123 6.42537 13.0334 6.39144L11.2024 5.60744C11.1424 5.5817 11.0912 5.53888 11.0552 5.48431C11.0192 5.42974 11 5.36581 11 5.30044C11 5.23508 11.0192 5.17114 11.0552 5.11657C11.0912 5.062 11.1424 5.01919 11.2024 4.99344L13.0334 4.20844C13.1121 4.17476 13.1748 4.11209 13.2084 4.03344L13.9934 2.20244C14.0192 2.14236 14.062 2.09115 14.1166 2.05517C14.1711 2.01918 14.2351 2 14.3004 2C14.3658 2 14.4297 2.01918 14.4843 2.05517C14.5389 2.09115 14.5817 2.14236 14.6074 2.20244L15.3914 4.03344C15.4255 4.11222 15.4885 4.17488 15.5674 4.20844L17.3974 4.99344C17.6674 5.10944 17.6674 5.49144 17.3974 5.60744L15.5674 6.39144C15.4883 6.42524 15.4252 6.48829 15.3914 6.56744Z" stroke="currentColor" stroke-width="1.3" stroke-linecap="round" stroke-linejoin="round"/>
</svg>
