<svg width="48" height="24" viewBox="0 0 48 24" fill="none" xmlns="http://www.w3.org/2000/svg">
<path d="M25.5 22.7692C25.8314 22.7692 26.1 23.0448 26.1 23.3846C26.1 23.7245 25.8314 24 25.5 24H15.6C15.2686 24 15 23.7245 15 23.3846C15 23.0448 15.2686 22.7692 15.6 22.7692H25.5ZM32.4 19.3846C32.7314 19.3846 33 19.6601 33 20C33 20.3399 32.7314 20.6154 32.4 20.6154H15.6C15.2686 20.6154 15 20.3399 15 20C15 19.6601 15.2686 19.3846 15.6 19.3846H32.4ZM32.4 16C32.7314 16 33 16.2755 33 16.6154C33 16.9553 32.7314 17.2308 32.4 17.2308H15.6C15.2686 17.2308 15 16.9553 15 16.6154C15 16.2755 15.2686 16 15.6 16H32.4ZM28.9714 0C31.1878 0 33 1.79666 33 4.02885V9.81731C33 12.0495 31.1878 13.8462 28.9714 13.8462H19.0286C16.8122 13.8462 15 12.0495 15 9.81731V4.02885C15 1.79666 16.8122 0 19.0286 0H28.9714ZM19.0286 1.44231C17.5731 1.44231 16.4285 2.5964 16.4285 4.02885V9.81731C16.4285 11.2498 17.5731 12.4038 19.0286 12.4038H28.9714C30.4269 12.4038 31.5715 11.2498 31.5715 9.81731V4.02885C31.5715 2.5964 30.4269 1.44231 28.9714 1.44231H19.0286ZM21.9416 3.27524C22.0637 3.27914 22.1835 3.31757 22.287 3.38612L26.8444 6.28035C27.0841 6.42795 27.172 6.70125 27.172 6.92308C27.172 7.14486 27.0836 7.41786 26.8441 7.56551L22.2873 10.46C22.0698 10.6039 21.7868 10.6061 21.5675 10.4678L21.5657 10.4666C21.3492 10.3279 21.2206 10.0688 21.2273 9.8092V4.02885C21.2222 3.66062 21.5046 3.29556 21.8877 3.27584L21.9416 3.27524ZM22.6233 8.50331L25.1191 6.92248L22.6233 5.33714V8.50331ZM26.8257 7.14333C26.8102 7.17675 26.7909 7.20774 26.7677 7.23498L26.7996 7.19171C26.8093 7.17641 26.818 7.16002 26.8257 7.14333Z" fill="#8A8A8A"/>
</svg>
