<svg width="24" height="24" viewBox="0 0 24 24" fill="none" xmlns="http://www.w3.org/2000/svg">
<path d="M21 8V3H16M21 3L17 7M18 21H19C19.5304 21 20.0391 20.7893 20.4142 20.4142C20.7893 20.0391 21 19.5304 21 19M21 12V15M3 6V5C3 4.46957 3.21071 3.96086 3.58579 3.58579C3.96086 3.21071 4.46957 3 5 3M9 3H12M4.33333 9H13.6667C14.403 9 15 9.59695 15 10.3333V19.6667C15 20.403 14.403 21 13.6667 21H4.33333C3.59695 21 3 20.403 3 19.6667V10.3333C3 9.59695 3.59695 9 4.33333 9ZM7 12.3333L11 15L7 17.6667V12.3333Z" stroke="white" stroke-width="1.3" stroke-linecap="round" stroke-linejoin="round"/>
</svg>
