<svg width="24" height="24" viewBox="0 0 24 24" fill="none" xmlns="http://www.w3.org/2000/svg">
<path d="M12 3H12.65C12.65 2.64101 12.359 2.35 12 2.35V3ZM12 21V21.65C12.359 21.65 12.65 21.359 12.65 21H12ZM15 3V2.35H14.35V3H15ZM15 21H14.35V21.65H15V21ZM9 16H8.35V17.2145L9.36056 16.5408L9 16ZM9 8L9.36056 7.45917L8.35 6.78546V8H9ZM12 14L12.3606 14.5408C12.5414 14.4203 12.65 14.2173 12.65 14H12ZM12 10H12.65C12.65 9.78267 12.5414 9.57972 12.3606 9.45917L12 10ZM12.65 1C12.65 0.641015 12.359 0.35 12 0.35C11.641 0.35 11.35 0.641015 11.35 1L12 1L12.65 1ZM11.35 23C11.35 23.359 11.641 23.65 12 23.65C12.359 23.65 12.65 23.359 12.65 23H12H11.35ZM5 21V20.35C4.25442 20.35 3.65 19.7456 3.65 19H3H2.35C2.35 20.4636 3.53645 21.65 5 21.65V21ZM3 19H3.65V5H3H2.35V19H3ZM3 5H3.65C3.65 4.25442 4.25442 3.65 5 3.65V3V2.35C3.53645 2.35 2.35 3.53645 2.35 5H3ZM5 3V3.65H12V3V2.35H5V3ZM12 21V20.35H5V21V21.65H12V21ZM12 3H11.35V21H12H12.65V3H12ZM15 3V3.65H19.1538V3V2.35H15V3ZM19.1538 3V3.65C19.7665 3.65 20.35 4.20445 20.35 5H21H21.65C21.65 3.58641 20.5804 2.35 19.1538 2.35V3ZM21 5H20.35V19H21H21.65V5H21ZM21 19H20.35C20.35 19.7956 19.7665 20.35 19.1538 20.35V21V21.65C20.5804 21.65 21.65 20.4136 21.65 19H21ZM19.1538 21V20.35H15V21V21.65H19.1538V21ZM15 21H15.65V3H15H14.35V21H15ZM9 16H9.65V8H9H8.35V16H9ZM12 14L11.6394 13.4592L8.63944 15.4592L9 16L9.36056 16.5408L12.3606 14.5408L12 14ZM9 8L8.63944 8.54083L11.6394 10.5408L12 10L12.3606 9.45917L9.36056 7.45917L9 8ZM12 14H12.65V10H12H11.35V14H12ZM12 1L11.35 1L11.35 23H12H12.65L12.65 1L12 1Z" fill="white"/>
</svg>
