<svg width="24" height="24" viewBox="0 0 24 24" fill="none" xmlns="http://www.w3.org/2000/svg">
<path d="M8.5 21H5C3.89543 21 3 20.1046 3 19V5C3 3.89543 3.89543 3 5 3H19C20.1046 3 21 3.89543 21 5V8.5M18.5 13.7503L20.5 15.7503M9 8L15 12L9 16V8ZM21.5871 14.6562C21.8514 14.3919 22 14.0334 22 13.6596C22 13.2858 21.8516 12.9273 21.5873 12.6629C21.323 12.3986 20.9645 12.25 20.5907 12.25C20.2169 12.25 19.8584 12.3984 19.594 12.6627L12.921 19.3373C12.8049 19.453 12.719 19.5955 12.671 19.7523L12.0105 21.9283C11.9975 21.9715 11.9966 22.0175 12.0076 22.0612C12.0187 22.105 12.0414 22.1449 12.0734 22.1768C12.1053 22.2087 12.1453 22.2313 12.189 22.2423C12.2328 22.2533 12.2787 22.2523 12.322 22.2393L14.4985 21.5793C14.6551 21.5317 14.7976 21.4463 14.9135 21.3308L21.5871 14.6562Z" stroke="currentColor" stroke-width="1.3" stroke-linecap="round" stroke-linejoin="round"/>
</svg>
