<svg width="48" height="24" viewBox="0 0 48 24" fill="none" xmlns="http://www.w3.org/2000/svg">
<path fill-rule="evenodd" clip-rule="evenodd" d="M31.9397 11.4873C32.4279 11.112 33.1405 11.1866 33.5159 11.6748C33.7035 11.8989 35.2795 13.9636 35.2795 17.6426C35.2795 21.3215 33.7037 23.3863 33.5159 23.5742C33.1405 24.0625 32.428 24.1371 31.9397 23.7617C31.4514 23.3863 31.3763 22.6724 31.7883 22.1855C31.9014 22.034 33.0276 20.4576 33.0276 17.6426C33.0275 14.8279 31.902 13.2516 31.7522 13.0635C31.3768 12.5752 31.4514 11.8627 31.9397 11.4873ZM13.133 0C17.4116 6.51162e-05 20.9411 3.45385 21.0159 7.73242V7.84473L23.5305 11.5986C23.9821 12.2746 24.1313 13.0638 23.9436 13.7764C23.6429 14.9024 22.5917 15.7275 21.3909 15.7275H21.0159V17.9805C21.0157 19.4437 19.8512 20.6074 18.3879 20.6074L15.5373 20.6064L14.9368 22.4082C14.7857 22.8583 14.4102 23.1961 13.9602 23.2344C13.7725 23.2344 13.6225 23.234 13.4348 23.1592C12.9086 22.9333 12.6467 22.2593 12.8342 21.6582L13.5461 19.6309C13.8086 18.8804 14.5212 18.3557 15.3098 18.3555H18.3879C18.5755 18.3555 18.7628 18.2061 18.7629 17.9805V14.2266C18.7629 13.8131 19.1005 13.4757 19.5139 13.4756H21.3909C21.6914 13.4756 21.8412 13.1746 21.6916 12.9121L19.1389 9.08398C18.8765 8.70868 18.763 8.25866 18.7629 7.80859C18.7265 4.73068 16.2488 2.25195 13.1711 2.25195H13.133C12.57 2.25195 12.0819 1.83841 12.0071 1.31348C11.9325 0.600989 12.4572 0 13.133 0ZM26.9836 14.5635C27.4338 14.1135 28.1464 14.1515 28.5598 14.6016C29.3104 15.4285 29.6858 16.5166 29.6477 17.6426C29.6858 18.7686 29.3103 19.8581 28.5598 20.6836C28.1478 21.0971 27.4338 21.0971 26.9836 20.6836C26.6464 20.232 26.5716 19.52 26.9836 19.0684C27.5467 18.2047 27.5466 17.078 26.9836 16.1777C26.9836 16.1777 26.9455 16.1778 26.9455 16.1396C26.4954 15.6895 26.5335 15.0136 26.9836 14.5635Z" fill="#8A8A8A"/>
</svg>
