<svg width="24" height="24" viewBox="0 0 24 24" fill="none" xmlns="http://www.w3.org/2000/svg">
<path d="M16.7118 19.6941C17.6115 18.7943 18.1171 17.574 18.1175 16.3016C18.1178 15.0291 17.6129 13.8085 16.7137 12.9082M13.9198 17.902C14.1292 17.6927 14.295 17.4439 14.4076 17.1701C14.5203 16.8962 14.5775 16.6028 14.576 16.3067C14.5745 16.0106 14.5144 15.7178 14.399 15.4451C14.2836 15.1724 14.1153 14.9253 13.9038 14.718M19.7118 11.6941C20.6115 10.7943 21.1171 9.57403 21.1175 8.30156C21.1178 7.02909 20.6129 5.80854 19.7137 4.9082M16.9198 9.90205C17.1292 9.6927 17.295 9.44391 17.4076 9.17008C17.5203 8.89625 17.5775 8.6028 17.576 8.30671C17.5745 8.01062 17.5144 7.71776 17.399 7.44507C17.2836 7.17239 17.1153 6.92528 16.9038 6.71805M7.75606 21V18.1324L9.08496 18.2723C9.47184 18.2508 9.83795 18.0904 10.116 17.8205C10.3941 17.5507 10.5654 17.1895 10.5985 16.8035V12.8168C10.6031 11.8092 10.2073 10.841 9.4981 10.1252C8.78888 9.4094 7.82436 9.00468 6.81674 9.00004C5.80911 8.9954 4.84092 9.39123 4.12514 10.1005C3.40936 10.8097 3.00464 11.7742 3 12.7818C3 14.7402 3.45882 14.9178 3.69942 15.9642C3.86202 16.5961 3.86898 17.258 3.7197 17.8932L3 21M13.116 10.8205C13.3941 10.5507 13.5654 10.1895 13.5985 9.80348V5.81678C13.6031 4.80915 13.2073 3.84096 12.4981 3.12518C11.7889 2.4094 10.8244 2.00468 9.81674 2.00004C8.80911 1.9954 7.84092 2.39123 7.12514 3.10045C6.40936 3.80967 6.00464 4.77418 6 5.78181" stroke="currentColor" stroke-width="1.3" stroke-linecap="round" stroke-linejoin="round"/>
</svg>
