<svg width="512" height="512" viewBox="0 0 512 512" fill="none" xmlns="http://www.w3.org/2000/svg">
<g clip-path="url(#clip0_1483_16792)">
<path d="M259.402 2C268.253 6.96049 293.807 62.6864 297.334 63.5283C339.134 66.0996 385.508 59.7738 426.762 63.3463C430.425 63.6648 435.886 63.6648 438.617 66.3043L473.818 127.787L475.729 135.114C474.432 147.766 442.826 187.063 444.055 195.982L512 316.013V320.564C499.622 330.485 479.78 382.638 468.744 387.667C456.047 393.446 407.329 383.89 399.342 391.08L329.964 509.426H250.323C241.175 504.511 215.918 448.74 212.391 447.898C170.591 445.327 124.217 451.653 82.9631 448.08C79.2996 447.762 73.8385 447.762 71.108 445.122C59.7762 421.73 43.3247 400.296 33.9498 376.267C34.1318 365.959 60.4361 332.919 64.8049 320.427C65.6696 317.947 66.8529 315.944 65.6014 313.214L1.77485 203.878L0 190.863C8.96529 179.872 31.1055 128.242 40.9809 123.76C53.678 117.98 102.395 127.537 110.382 120.346L179.761 2H259.402ZM186.587 133.976C190.114 120.301 219.149 84.9858 218.421 73.8589C218.193 70.4002 188.794 15.7665 185.45 15.6982L180.125 21.7054L123.375 121.825C127.175 131.132 161.307 193.707 165.312 195.05L428.445 195.436C439.982 175.481 454.294 155.434 461.917 133.954H186.587V133.976ZM116.048 133.976H47.7845L184.312 377.45H113.773L81.9164 436.612H205.929L247.547 363.046L116.048 133.976ZM427.785 316.013H498.325L436.523 207.155L352.695 207.929L221.015 436.02C219.991 443.461 242.495 471.722 245.317 481.37L255.943 495.774L393.631 257.943C396.293 255.85 399.661 264.769 400.844 266.704C410.583 282.541 419.298 299.447 427.785 315.99V316.013Z" fill="#615CEC"/>
<path d="M186.587 133.977H461.917C454.317 155.457 440.005 175.504 428.445 195.46L165.312 195.073C161.307 193.753 127.175 131.178 123.375 121.849L180.125 21.7289L185.45 15.7217C188.794 15.7672 218.193 70.4236 218.421 73.8823C219.149 85.032 190.114 120.324 186.587 134V133.977Z" fill="#FDFDFE"/>
<path d="M427.785 316.013C419.321 299.47 410.606 282.541 400.844 266.726C399.661 264.815 396.316 255.895 393.631 257.966L255.943 495.796L245.317 481.393C242.472 471.745 219.991 443.506 221.015 436.043L352.695 207.951L436.523 207.178L498.325 316.035H427.785V316.013Z" fill="#FDFDFE"/>
<path d="M116.048 133.977L247.547 363.047L205.929 436.612H81.9164L113.773 377.45H184.312L47.7845 133.977H116.048Z" fill="#FDFDFE"/>
</g>
<defs>
<clipPath id="clip0_1483_16792">
<rect width="512" height="508" fill="white" transform="translate(0 2)"/>
</clipPath>
</defs>
</svg>
