<svg width="512" height="512" viewBox="0 0 512 512" fill="none" xmlns="http://www.w3.org/2000/svg">
<g clip-path="url(#clip0_1483_17263)">
<path d="M219.566 100.584L317.571 100.351C322.357 101.117 327.896 106.65 328.363 111.586C315.613 206.169 272.888 295.881 208.93 366.046C191.16 385.529 170.524 409.285 142.935 411.441C115.282 413.61 69.6647 413.376 41.8557 411.441C26.6802 410.389 13.8782 403.804 11.6084 387.282C6.74438 351.979 32.478 348.135 55.9158 332.068C114.154 292.167 160.537 233.523 184.986 167.047C190.161 152.98 195.401 124.094 201.524 113.612C204.948 107.741 212.821 101.714 219.579 100.571L219.566 100.584Z" fill="#B6B6B6"/>
<path d="M395.615 100.584C407.665 98.5321 471.221 98.4152 483.037 100.584C498.628 103.429 503.18 119.171 501.754 132.978C495.437 194.076 458.432 287.594 430.286 342.718C414.332 373.969 401.18 408.532 361.697 411.441C335.951 413.337 289.996 413.701 264.509 411.441C253.276 410.441 245.935 403.934 249.385 392.283C301.306 324.119 341.191 248.187 364.525 165.359C368.598 150.915 373.578 116.43 382.969 107.351C385.797 104.611 391.75 101.234 395.628 100.571L395.615 100.584Z" fill="#B6B6B6"/>
<path d="M31.8425 100.571L127.267 100.351C142.728 102.766 134.803 130.185 132.533 140.472C120.95 192.908 81.001 257.006 33.373 283.594C22.2702 289.79 14.1506 287.958 11.4527 274.658C15.0066 226.938 6.7833 172.489 11.4916 125.562C12.6979 113.547 20.4413 104.286 31.8425 100.571Z" fill="#B6B6B6"/>
</g>
<defs>
<clipPath id="clip0_1483_17263">
<rect width="492" height="314" fill="white" transform="translate(10 99)"/>
</clipPath>
</defs>
</svg>
