<?xml version="1.0" encoding="UTF-8"?>
<svg xmlns="http://www.w3.org/2000/svg" version="1.1" viewBox="0 0 595.3 130">
  <!-- Generator: Adobe Illustrator 28.7.1, SVG Export Plug-In . SVG Version: 1.2.0 Build 142)  -->
  <g>
    <g id="Layer_1">
      <g id="Group_458" fill="#C2BFB9">
        <path id="Path_3625" d="M16.4,109.7c4.4,0,8.6-.3,12.8-11L62.4,16.5h9.6l31.8,79.8c4.1,10.2,7.6,13.5,13,13.5v6.9h-36.7v-6.4c9-.5,12.8-3.5,9.2-13l-6.3-16.2h-36.8l-6,15.4c-3.4,8.7-1.8,13.8,7.6,13.8v6.4h-31.5v-6.9ZM79.8,72.6l-15.1-39.6-15.3,39.6h30.4Z"/>
        <path id="Path_3626" d="M126,113.8V26.4l-11.8-2.1v-4.9l20.8-8.3h3.7v47.2c7.8-9.3,13.9-13,22.8-13,16.7,0,28,13.1,28,32.7s-13.9,40.2-38.5,40.2c-8.5-.1-16.9-1.6-24.9-4.4M155.1,111.6c12.2,0,20.5-11.8,20.5-28.7s-7.5-27.1-20.6-27.1c-6.4,0-12.4,3-16.2,8.1v31.5c-.4,8.6,6.3,15.8,14.8,16.2.5,0,1,0,1.5,0"/>
        <path id="Path_3627" d="M209,110.9l-7.9,6.7h-2.8l-1.7-25.2h6.1c5.8,12.8,13.8,18.3,23.7,18.3s12.8-3.7,12.8-10.2-2.1-8.3-9.6-11.2l-12.4-4.7c-11.9-4.6-17.7-10.4-17.7-19.7s10.1-19.7,22.3-19.7c6-.2,11.8,2.3,15.7,6.9l7.9-6.4h2.6v22.6h-6.1c-5-12.5-11.2-15.6-18.2-15.6s-12.5,4-12.5,9.6,2.6,7.5,9.3,9.9l13.6,4.9c11,4,17,10.4,17,20s-9.2,21.1-23.2,21.1c-7,0-13.8-2.6-18.9-7.3"/>
        <path id="Path_3628" d="M271.6,97.6l.5-41.4h-11.9v-8.4h7.9l13.3-16.7h2.9v16.7h21.9v8.4h-21.9v38.5c0,8.7,4,13.3,11.6,13.3,4.4-.1,8.6-1.9,11.8-4.9l2.3,2.7c-3.8,7.1-10.9,11.7-18.9,12.2-11.6,0-19.6-6.3-19.4-20.5"/>
        <path id="Path_3629" d="M327.4,100.5v-39l-10.4-2.1v-4.6l18.2-8.3h4.9v13.1c9.6-10.7,14.7-13.6,19.9-13.6,4.2-.4,7.9,2.7,8.2,6.9,0,.2,0,.4,0,.6-.3,4.1-2.7,7.8-6.4,9.6l-11-6.3c-4.1,1.9-7.7,4.7-10.7,8.1v37c0,6.7,2.1,8.4,10.7,8.4h2.3v6.1h-36.8v-6.1c8.9,0,11.2-1.7,11.2-9.9"/>
        <path id="Path_3630" d="M409.6,106.5c-6.6,8.6-12.5,11.8-19.3,11.8-8.2.4-15.2-6-15.6-14.2,0-.5,0-.9,0-1.4,0-9,5.7-14.4,16.7-18.8l18-7v-6c0-9.3-4.4-14.8-13.1-14.8s-11.6,3.1-17.6,11.2l-5-3.4c8.6-13.9,18-18.5,27.4-18.5s21.1,8.9,21.1,23.7v33.3c0,3.5,1.2,6,5.2,6,2.6-.1,5-1.4,6.6-3.4l.9,3.8c-5.3,7.2-9,9.5-13.6,9.5-6.4-.2-11.5-5.4-11.6-11.8M396.6,107.9c4.8-.2,9.4-2.2,12.8-5.7v-17.3l-11.5,2.6c-7.3,1.8-10.7,6-10.7,11.6-.2,4.7,3.5,8.6,8.2,8.8.4,0,.7,0,1.1,0"/>
        <path id="Path_3631" d="M436.7,84.5c-.3-21.1,16.6-38.5,37.7-38.8,0,0,0,0,0,0,11.6,0,18.9,5,18.9,11.2-.5,4.3-4,7.6-8.3,7.8l-13.1-12.7c-12.4,1.5-22.5,12.1-22.5,28.3s7,26.1,23.2,26.1c8.7.3,16.7-4.7,20.3-12.5l3.8,3.2c-6.7,15.3-17.6,21.3-29.5,21.3-18.3,0-30.7-15.6-30.7-33.8"/>
        <path id="Path_3632" d="M513.3,97.6l.5-41.4h-11.9v-8.4h7.9l13.3-16.7h2.9v16.7h21.9v8.4h-21.9v38.5c0,8.7,4,13.3,11.6,13.3,4.4-.1,8.6-1.9,11.8-4.9l2.3,2.7c-3.8,7.1-10.9,11.7-18.9,12.2-11.6,0-19.6-6.3-19.4-20.5"/>
        <path id="Path_3633" d="M562.1,110.5c0-4.6,3.8-8.4,8.4-8.4,4.6,0,8.4,3.8,8.4,8.4,0,4.6-3.7,8.3-8.3,8.4-4.6.1-8.4-3.5-8.6-8.1,0-.1,0-.2,0-.3"/>
      </g>
    </g>
  </g>
</svg>