<svg width="125" height="23" viewBox="0 0 125 23" fill="none" xmlns="http://www.w3.org/2000/svg">
<path d="M102.624 13.5714H102.72L105.521 4.7427H109.112L104.492 17.6087C102.983 21.8406 101.427 22.4 99.2481 22.4C98.4106 22.4 97.6921 22.3513 97.2372 22.3027V19.5059L97.4957 19.5312C97.7832 19.562 98.1651 19.6032 98.7218 19.6032C99.8707 19.6032 100.326 19.1652 100.828 17.9005L100.996 17.5114L95.9202 4.7427H99.5359L102.624 13.5714Z" fill="#C2BFB9"/>
<path d="M6.34494 4.45081C10.3191 4.45087 11.8513 6.95585 12.3302 8.51244L9.07418 9.24216C8.79582 8.34683 8.13559 7.08628 6.50571 7.00832L6.34494 7.00484C4.57317 7.00484 3.42365 8.41543 3.42365 11.1881C3.42369 13.9606 4.5732 15.3713 6.34494 15.3713C8.16444 15.3713 8.85871 14.009 9.12207 12.866L12.5218 13.2795C11.9951 15.4197 10.3193 17.9248 6.34494 17.9249C2.41839 17.9249 6.38906e-05 15.3226 0 11.1881C0 7.05343 2.41834 4.45081 6.34494 4.45081Z" fill="#C2BFB9"/>
<path fill-rule="evenodd" clip-rule="evenodd" d="M33.1848 4.4528C37.0563 4.53422 39.6265 7.17738 39.3201 11.9178H30.0783C30.1263 14.0337 31.2519 15.5173 32.9996 15.5173C34.8431 15.5172 35.5373 14.3496 35.8007 13.5227L39.2009 13.7903C38.6981 15.6144 37.0219 17.9248 32.9996 17.9249C29.121 17.9249 26.6547 15.2983 26.6547 11.2124C26.6547 7.0777 29.0491 4.45081 32.9996 4.45081L33.1848 4.4528ZM32.9996 6.81025C31.2279 6.81025 30.246 8.12338 30.1262 9.70432H35.8965C35.7767 8.12342 34.7953 6.81029 32.9996 6.81025Z" fill="#C2BFB9"/>
<path d="M71.9332 4.45081C74.878 4.45081 77.129 5.95871 77.5359 8.19622L74.4474 8.63406C74.1924 7.40883 73.2402 6.75409 72.049 6.71444L71.9332 6.71295C70.7363 6.71296 69.874 7.24781 69.874 8.22055C69.874 9.16907 70.8078 9.41244 72.1008 9.65567L73.3939 9.85026C75.6682 10.2394 77.8711 10.9204 77.8711 13.8146C77.8711 16.6116 75.357 17.9248 72.0529 17.9249C68.7253 17.9249 66.4501 16.3684 66.0193 13.8632L69.1561 13.4254L69.1854 13.5669C69.5113 15.0012 70.5693 15.6632 72.0769 15.6632C73.5135 15.6632 74.4474 15.0307 74.4474 13.9362C74.4474 13.0364 73.5135 12.6713 72.0769 12.4281L70.6881 12.2097C68.653 11.8692 66.4982 11.1391 66.4982 8.36649C66.4983 5.9101 68.9644 4.45082 71.9332 4.45081Z" fill="#C2BFB9"/>
<path d="M112.823 17.6871H109.232V14.0385H112.823V17.6871Z" fill="#C2BFB9"/>
<path d="M116.914 17.6871H113.323V14.039H116.914V17.6871Z" fill="#C2BFB9"/>
<path d="M124.6 17.6871H117.382V14.039H124.6V17.6871Z" fill="#C2BFB9"/>
<path d="M83.5192 4.7427H86.1531V7.02916H83.5192V13.693C83.5192 14.8604 83.9504 14.9821 85.0038 14.9821C85.339 14.9821 85.7696 14.9822 86.0569 14.9578V17.6087C85.7454 17.6573 84.6924 17.6573 83.8784 17.6573C81.2928 17.6573 80.1674 17.0981 80.1674 14.5686V7.02916H78.156V4.7427H80.1674V1.14323H83.5192V4.7427Z" fill="#C2BFB9"/>
<path d="M55.8226 4.45081C58.121 4.45081 60.0604 5.88579 60.0604 9.14486V17.633H56.7325V10.0205C56.7325 7.95318 55.9182 7.19943 54.5296 7.19943C53.2366 7.19953 52.0638 8.31817 52.0638 10.6043V17.633H48.7115V10.0205C48.7115 7.95321 47.9216 7.19945 46.533 7.19943C45.24 7.19943 44.0666 8.31807 44.0666 10.6043V17.633H40.7148V4.7427H43.9229V6.46971H44.0187C44.8807 5.2293 46.1261 4.45081 47.826 4.45081C49.3822 4.45087 50.795 5.10777 51.513 6.56701C52.5428 5.35093 53.7876 4.45086 55.8226 4.45081Z" fill="#C2BFB9"/>
<path d="M16.9677 6.44539H17.0635C17.9493 5.20501 19.2662 4.45085 21.0139 4.45081C23.3603 4.45081 25.3714 5.88579 25.3714 9.14486V17.6087H22.0436V10.0205C22.0436 7.95328 21.1817 7.19951 19.6496 7.19943C18.3088 7.19943 16.9677 8.46404 16.9677 10.7746V17.6087H13.6159V0H16.9677V6.44539Z" fill="#C2BFB9"/>
<path d="M65.0639 17.6087H61.7121V4.7427H65.0639V17.6087Z" fill="#C2BFB9"/>
<path d="M94.6844 4.45578C94.9211 4.46603 95.1545 4.49342 95.3338 4.54811V7.73407C95.0226 7.68543 94.5196 7.63677 94.0173 7.63677C92.1019 7.6368 90.6895 8.4884 90.6895 11.1151V17.6087H87.3372V4.7427H90.5458V6.71295H90.6411C91.3116 5.39959 92.5809 4.45081 94.4484 4.45081L94.6844 4.45578Z" fill="#C2BFB9"/>
<path d="M65.0639 2.94272H61.7121V0H65.0639V2.94272Z" fill="#C2BFB9"/>
</svg>
