<svg width="105" height="15" viewBox="0 0 105 15" fill="none" xmlns="http://www.w3.org/2000/svg">
<path d="M19.539 0.0285426C22.6544 -0.0351846 25.988 0.0279171 29.1212 0.0264352L32.1742 0.0199332C32.9185 0.018159 33.8039 -0.0152019 34.5256 0.11456C35.3509 0.266315 36.1211 0.634326 36.7577 1.18105C37.6967 1.97593 38.2784 3.11376 38.3729 4.3405C38.4839 5.82246 37.9664 7.19079 36.8332 8.15921C36.5415 8.40857 35.9614 8.79166 35.7424 9.04646C35.7383 9.43601 36.8893 11.0059 37.1467 11.4269C37.4643 11.9465 38.4111 11.7772 38.9199 11.7756C39.3943 11.7772 39.8685 11.793 40.342 11.8229C40.4037 12.5345 40.3634 13.9093 40.3517 14.664C39.0437 14.7314 37.3846 14.6838 36.0336 14.6838C34.657 14.6837 32.979 14.7319 31.644 14.6624C31.6103 14.2318 31.6332 13.4746 31.6327 13.02L31.6361 11.814C32.1247 11.7835 32.5976 11.8061 33.0846 11.7834C33.319 11.7725 33.4799 11.7405 33.5165 11.4949C33.4337 11.2769 33.1746 10.9388 33.0331 10.747C32.7459 10.3576 32.5042 9.90935 32.142 9.58871C31.967 9.43386 31.4996 9.39602 31.2878 9.39494C29.871 9.38766 28.4576 9.39504 27.0412 9.40171C26.4322 9.40545 25.8162 9.39617 25.2105 9.46037C25.198 9.95812 24.9581 11.8037 25.6817 11.7886C26.5399 11.7706 27.404 11.7843 28.2643 11.8099C28.2959 12.6677 28.2852 13.8088 28.2613 14.6625C27.0013 14.7337 25.3367 14.6856 24.0277 14.6841C22.6169 14.6825 20.913 14.7327 19.5435 14.6627C19.5121 13.7618 19.5376 12.7254 19.539 11.8145C20.0584 11.7729 21.8513 11.8658 22.1261 11.6122C22.2789 11.0808 22.2133 8.34042 22.2097 7.6769C22.206 6.9765 22.2904 3.60502 22.0911 3.13566C21.8255 2.99389 19.9813 3.03216 19.5159 3.00974C19.4729 2.62606 19.453 0.3621 19.539 0.0285426ZM25.1781 6.41333C25.7864 6.42789 26.403 6.43338 27.0112 6.4283C29.3214 6.40892 31.6425 6.48496 33.9495 6.40241C34.0841 6.39759 34.5121 6.16284 34.6315 6.08213C35.0228 5.71678 35.2992 5.35081 35.3173 4.7881C35.3308 4.32373 35.1606 3.87283 34.8436 3.53331C34.4239 3.08989 33.9742 2.99621 33.3906 2.99441C30.7387 2.98624 28.0784 3.00441 25.4273 3.02022C25.2542 3.04728 25.2743 3.01516 25.1877 3.12383C25.1324 3.75496 25.1485 5.73442 25.1781 6.41333Z" fill="#C2BFB9"/>
<path d="M50.2724 0.138631C51.6828 0.03579 53.2496 0.182878 54.6625 0.122495C56.7584 0.0329492 58.1473 0.23673 59.6382 1.82499C61.3824 3.68336 61.5311 5.19749 61.5316 7.61398C61.5332 8.59624 61.528 9.57851 61.5157 10.5607C61.5127 10.8878 61.4609 11.4889 61.627 11.7565C61.8023 11.9292 64.2099 11.9103 64.6493 11.9184C64.6509 12.866 64.6478 13.8136 64.6391 14.7611C63.7008 14.8175 62.2832 14.7743 61.2886 14.7733C59.5065 14.7717 57.6654 14.7977 55.8904 14.7644C55.8576 13.8841 55.8771 12.8157 55.892 11.9268C56.3996 11.897 58.1832 11.9618 58.435 11.7296C58.6047 11.3174 58.598 9.85935 58.4298 9.4396C58.1735 9.22562 57.086 9.31059 56.6785 9.31623C55.7853 9.3153 48.7631 9.24582 48.3863 9.39335C48.275 9.53964 48.2383 9.77249 48.2404 9.94037C48.2611 11.6716 47.8088 11.991 49.9209 11.8975C50.1037 11.8895 50.661 11.9185 50.8594 11.9251C50.9014 12.7546 50.8803 13.9221 50.861 14.7637C50.0044 14.8179 48.6992 14.7732 47.7992 14.7732L42.1365 14.7669C42.1124 13.8551 42.1244 12.8371 42.14 11.9221C42.7563 11.9001 44.5286 11.9586 44.9981 11.8351C45.043 11.8233 45.0865 11.8065 45.1277 11.7851C45.1698 11.7632 45.2281 11.6483 45.2321 11.6095C45.5513 8.48866 44.4939 5.07258 46.6263 2.39668C47.5759 1.20517 48.672 0.362 50.2724 0.138631ZM55.8069 6.37984C56.2334 6.38256 57.2317 6.32251 57.6008 6.39251C59.4224 6.73786 58.1325 4.41869 57.5218 3.82117C57.1583 3.46885 56.7077 3.22021 56.2155 3.10105C55.5844 2.94746 52.2657 2.99145 51.4515 3.00183C51.3418 3.00391 51.2319 3.00822 51.1221 3.01476C50.2804 3.08849 49.7204 3.39435 49.1449 4.0204C48.8448 4.34691 48.0275 5.86061 48.3348 6.28005C48.8624 6.47634 54.8163 6.38015 55.8069 6.37984Z" fill="#C2BFB9"/>
<path d="M66.1008 0.132078C67.4815 0.0948407 69.0088 0.126689 70.3982 0.126274L82.7239 0.124817C83.3335 0.124915 84.5481 0.0906206 85.1084 0.193006C85.2351 0.383285 85.1848 4.29567 85.1618 4.8387L82.2455 4.84347C82.1717 4.37331 82.2558 3.44598 82.0697 3.11536C82.0035 3.09915 81.9364 3.08718 81.8692 3.07952C81.153 2.99854 72.2869 2.97826 72.0639 3.06634C72.0337 3.07839 71.9855 3.12886 71.9578 3.15083C71.7579 3.52942 71.9947 4.54083 71.8983 5.04801C71.8814 5.21615 71.8947 5.68477 72.0527 5.78369C72.4966 6.06094 73.6589 5.94967 74.1921 5.9527L78.3526 5.97392C78.488 5.97259 78.6126 5.9569 78.7177 6.0434C78.8084 6.24682 78.7966 8.46194 78.7074 8.77012C78.2993 9.11434 72.3674 8.65905 72.0398 9.01363C71.8799 9.32283 71.8573 11.4816 71.9209 11.7506C72.1834 11.9303 74.4105 11.9116 74.8474 11.9209C74.8597 12.8671 74.8607 13.8133 74.8504 14.7595C73.9742 14.8203 72.4085 14.7764 71.4569 14.7732C69.7091 14.7674 67.8562 14.8074 66.1218 14.7628C66.0777 14.1145 66.0895 12.5701 66.1223 11.9225C66.6253 11.8922 68.4592 11.9381 68.774 11.7648C68.9098 11.2104 68.916 3.76877 68.7852 3.15653C68.5156 2.97876 66.5478 3.00636 66.091 2.9977C66.0746 2.15515 66.0464 0.952851 66.1008 0.132078Z" fill="#C2BFB9"/>
<path d="M0 3.97075C0.680008 2.4775 1.72004 1.09533 3.30995 0.49908C3.73281 0.343706 4.17582 0.249971 4.62537 0.220763C5.88343 0.131726 17.0718 0.0347761 17.432 0.19913C17.4429 0.204062 17.4534 0.209482 17.4639 0.215036C17.5863 0.617033 17.5561 4.23071 17.5217 4.84327L14.4665 4.84676C14.4511 4.57601 14.4351 3.33928 14.2915 3.1986C14.1017 3.13857 13.8405 3.10635 13.6413 3.10753C10.8734 3.12384 8.12437 3.13586 5.3552 3.16177C4.03315 3.17415 3.10523 4.28538 2.72969 5.46977C2.44858 6.35631 2.58788 7.38144 2.55855 8.30232C2.53008 9.63214 3.18983 11.1025 4.41563 11.7148C4.93376 11.9737 5.57212 11.9398 6.13799 11.9348C8.63538 11.9151 11.1334 11.9289 13.6307 11.9075C13.8341 11.9057 14.0499 11.8752 14.2419 11.8084C14.4871 11.6127 14.4224 10.4672 14.473 10.0944C14.9745 10.0805 17.1263 10.0064 17.4428 10.1774C17.6064 10.5158 17.5389 14.096 17.5232 14.7353C14.5846 14.7664 11.6458 14.7797 8.707 14.775C7.45695 14.7749 6.20151 14.7635 4.95241 14.7698C2.61924 14.7814 0.911018 13.0104 0 11.0108V3.97075Z" fill="#C2BFB9"/>
<path d="M105 0.127759V4.84265L102.537 4.8407C102.524 4.57401 102.556 3.11933 102.308 3.10405C101.561 3.05828 98.278 2.90385 97.7617 3.1579C97.63 3.63603 97.65 11.2212 97.7817 11.7547C98.077 11.9306 100.223 11.9104 100.712 11.9221C100.78 12.5649 100.734 14.0796 100.726 14.7638C99.8423 14.8242 98.1319 14.779 97.1696 14.7744C95.4085 14.766 93.4956 14.8141 91.7519 14.7607C91.7058 14.02 91.7155 12.6763 91.755 11.9299C92.2841 11.8996 94.2175 11.9179 94.5492 11.7937C94.7056 11.5281 94.6933 4.01885 94.6338 3.22394C94.4123 2.94404 90.2026 2.98239 89.9437 3.13285C89.7483 3.44251 89.7724 4.42536 89.7606 4.83963L86.826 4.84542C86.7767 3.83337 86.7685 1.13399 86.8301 0.135563C88.7768 0.0695231 91.0501 0.126784 93.0168 0.126836L105 0.127759Z" fill="#C2BFB9"/>
</svg>
