<svg width="118" height="22" viewBox="0 0 118 22" fill="none" xmlns="http://www.w3.org/2000/svg">
<path d="M13.0298 0C13.03 1.33223 13.0823 3.05715 13.0203 4.35674C12.5297 4.40883 12.0611 4.39599 11.5697 4.39984C9.20775 4.41837 6.83709 4.37161 4.47602 4.40663C4.47935 4.47148 4.491 4.57304 4.47011 4.63014C4.50477 5.73869 4.52926 7.37998 4.47277 8.47402C4.47914 8.53726 4.49478 8.63703 4.48015 8.69487C6.52067 8.8156 8.81129 8.6622 10.8741 8.73886C10.9067 10.0161 10.9269 11.7943 10.8809 13.0738C8.91015 13.2295 6.50525 13.0238 4.47188 13.1369C4.47661 13.2056 4.4903 13.3077 4.46952 13.3687C4.50565 14.4103 4.52334 16.0974 4.47513 17.1432L4.48842 17.3416C4.92992 17.4348 6.22159 17.4012 6.73735 17.4004L10.6232 17.3942C11.3704 17.3932 12.2867 17.3668 13.0153 17.4272C13.0649 18.8228 13.0311 20.3622 13.0274 21.7683H0V0H13.0298Z" fill="#C2BFB9"/>
<path d="M28.9816 0C29.6882 0.472806 30.3169 0.809757 30.4166 1.78273C30.5559 3.14391 30.5099 5.12562 30.4644 6.50056C29.5433 6.55432 27.0931 6.59113 26.2083 6.48786C26.1383 6.55342 26.1721 6.54075 26.0761 6.5419C25.9394 6.30164 25.9933 4.72191 26.0566 4.41106C25.0069 4.34402 22.8858 4.37764 21.7937 4.4087C21.6985 5.48716 21.767 7.57495 21.7733 8.71672C23.3169 8.73062 24.8608 8.73205 26.4044 8.72085C27.8463 8.71837 29.7895 8.36939 30.3563 10.1581C30.4227 10.4794 30.4805 10.843 30.4827 11.1712C30.4998 13.7868 30.4908 16.4035 30.4871 19.0192C30.4866 19.3602 30.4337 19.6526 30.4033 19.9794C30.3023 21.063 29.7051 21.1984 28.9943 21.7683H18.9183C18.8277 21.6461 18.7602 21.6535 18.6522 21.5741C17.9823 21.0811 17.6231 20.832 17.4326 20.032C17.3996 19.8865 17.3935 19.8353 17.3003 19.7157C17.2138 18.6643 17.2794 16.6781 17.2867 15.594C17.2612 15.4679 17.2567 15.3394 17.3198 15.2326L17.4169 15.4618L17.478 15.4889L17.5471 15.1889C18.9397 15.2079 20.3325 15.2037 21.7249 15.1759C21.8084 15.9193 21.7461 16.6513 21.7775 17.3841C22.2776 17.3946 25.7281 17.4316 26.082 17.3706C25.9175 16.2884 26.1722 14.199 26.0188 13.0894C24.7334 13.1336 23.4596 13.123 22.1082 13.1151C21.0343 13.1088 19.1306 13.2867 18.1955 12.6202C17.9119 12.4182 17.4843 11.7548 17.4633 11.4065C17.4064 11.2039 17.2645 11.0063 17.2908 10.8145C17.2246 8.97126 17.3079 7.0791 17.2764 5.23098C17.2595 4.24575 17.2648 3.21037 17.2929 2.22649C17.2951 2.24676 17.4457 1.70297 17.4571 1.65843C17.4876 1.59418 17.5087 1.43756 17.5781 1.30029C17.8952 0.672774 18.3737 0.41943 18.8527 0H28.9816Z" fill="#C2BFB9"/>
<path d="M46.4198 0C47.6718 0.899999 47.8824 1.08409 47.7918 2.72901C47.731 3.83475 47.8975 5.22667 47.7691 6.30865L47.7328 6.48048C47.5838 6.54671 47.2595 6.56281 47.0971 6.55312C45.9297 6.48345 44.7504 6.58741 43.591 6.53451C43.5603 6.5326 43.5093 6.32802 43.4977 6.29064C43.5445 6.12646 43.5402 5.29844 43.5414 5.07184L43.5405 4.90797C43.5395 4.73649 43.5308 4.55004 43.4534 4.42464C43.3127 4.3605 39.6586 4.39856 39.2372 4.42022C39.2346 5.54116 39.3017 7.62032 39.2227 8.65767C39.8819 8.77575 40.8548 8.72141 41.5473 8.7306C43.044 8.75047 44.5873 8.68661 46.0811 8.74152C48.0574 9.07225 47.7898 10.6883 47.7912 12.2335L47.7927 15.4922L47.7906 18.4807C47.7898 19.0263 47.8107 19.7717 47.7369 20.2956C47.6406 20.9796 46.8796 21.3767 46.4304 21.7683H36.3121C36.2027 21.6149 36.1134 21.6327 35.9738 21.5357C35.4292 21.1576 35.1345 20.9382 34.9687 20.2924C34.6904 19.5446 34.7691 16.1426 34.8167 15.1904C36.2579 15.1823 37.6992 15.1826 39.1404 15.1919C39.2267 15.6996 39.3276 16.8692 39.1858 17.3694C40.237 17.4621 42.3595 17.3889 43.5119 17.4104C43.5949 16.2224 43.5334 14.3279 43.5243 13.1009C41.5274 13.1176 39.5169 13.1161 37.5218 13.1107C36.7968 13.0849 36.0163 13.0516 35.4972 12.4773C35.0872 12.0412 34.8084 11.3444 34.8046 10.7424C34.786 7.85839 34.7995 4.96898 34.796 2.08477C34.7955 1.55989 35.288 0.746369 35.7131 0.426639C35.9237 0.268216 36.1019 0.195041 36.308 0H46.4198Z" fill="#C2BFB9"/>
<path d="M65.3009 0C65.3014 1.3829 65.3416 2.98525 65.2911 4.35024C64.7422 4.42078 64.1999 4.39321 63.6492 4.40102C61.3208 4.43408 58.966 4.34497 56.6399 4.4152C56.5222 5.10504 56.5466 7.89558 56.6075 8.64675C58.371 8.91365 61.2956 8.57726 63.155 8.75451C63.1619 9.33031 63.2364 12.8048 63.09 12.9914C62.4245 13.2103 57.8158 13.0747 56.6399 13.1346C56.5319 13.8193 56.5356 16.6111 56.6157 17.339C57.2675 17.4335 58.3879 17.3993 59.0861 17.3983L63.2055 17.393C63.7303 17.3926 64.8035 17.3652 65.2864 17.4568C65.3277 18.8678 65.3055 20.3516 65.3032 21.7683H52.2658C52.2263 20.3012 52.2575 18.6949 52.2587 17.2176L52.2575 3.29826C52.2575 2.27844 52.2221 0.986496 52.2826 0H65.3009Z" fill="#C2BFB9"/>
<path d="M69.709 15.9277C69.7095 16.8548 69.8347 20.9048 69.6665 21.5699L69.6585 21.7683H69.577C69.5012 19.154 69.5705 16.1626 69.5699 13.5128L69.5764 0H69.7169L69.709 15.9277Z" fill="#C2BFB9"/>
<path d="M81.279 0C82.0553 0.525496 82.5295 0.826058 82.7116 1.85212C82.8281 2.50704 82.7847 3.43871 82.7824 4.12614L82.7721 7.6237L82.783 21.7683H78.3371C78.309 21.0093 78.3119 20.1751 78.3274 19.4155C78.4256 14.4355 78.2023 9.37025 78.3424 4.39689C77.0235 4.39391 75.3819 4.36073 74.0784 4.41726C73.9687 6.15742 74.0513 8.78053 74.0518 10.5718L74.0583 21.7683H69.8049C69.7745 20.9202 69.7819 20.0099 69.7922 19.1574C69.8674 12.7851 69.6826 6.36743 69.8049 0H81.279Z" fill="#C2BFB9"/>
<path d="M98.6817 0C99.245 0.426776 100.072 0.950614 100.076 1.71305C100.082 2.69656 100.198 4.9897 100.101 5.87906C100.108 6.08496 100.138 6.32456 100.048 6.50617C99.3623 6.64648 96.5942 6.5453 95.7918 6.52743C95.7591 5.867 95.7855 5.10108 95.7614 4.40634C94.6379 4.39042 93.2518 4.37205 92.0758 4.40604L91.5862 4.42405L91.5157 4.78899L91.5234 4.90679C91.6004 6.42571 91.5939 17.0774 91.4593 17.3723C92.8277 17.4476 94.3649 17.3785 95.7505 17.3995C95.7999 16.7033 95.7632 15.8196 95.8556 15.1854C96.3432 15.1902 99.8544 15.1482 100.029 15.2796C100.318 16.4092 100.014 18.9486 100.065 20.2064C100.093 20.8885 98.912 21.4413 98.6817 21.7683H88.6216C88.5188 21.6378 87.6483 21.2069 87.4019 20.784C87.159 20.3662 87.1188 20.0112 87.1073 19.5173C87.0774 18.1858 87.0901 16.8285 87.0896 15.4969L87.0907 3.82617C87.089 1.84144 86.7898 1.18487 88.5549 0H98.6817Z" fill="#C2BFB9"/>
<path d="M117.6 4.31363C117.046 4.47618 109.809 4.45517 108.864 4.39453C108.808 5.53308 108.812 7.56345 108.857 8.71702C110.286 8.73247 111.715 8.73471 113.144 8.72351C113.709 8.72259 114.886 8.69262 115.41 8.77223C115.43 9.38599 115.515 12.6365 115.34 12.9828C114.816 13.2169 109.892 13.0772 108.863 13.1343C108.813 14.2134 108.806 16.3023 108.861 17.3847C110.832 17.4316 112.839 17.3716 114.811 17.3915C115.45 17.398 117.074 17.346 117.6 17.4671V21.7683H104.542C104.501 21.3743 104.548 19.6198 104.549 19.1359V4.65465C104.548 3.29906 104.486 1.29018 104.57 0H117.6V4.31363Z" fill="#C2BFB9"/>
<path d="M48.0177 10.366L48 10.4894C48.106 10.8938 48.0982 19.744 48.0038 20.0249C47.9833 20.0942 47.9735 20.1302 47.9409 20.1958L47.8721 20.1374C47.806 19.7354 47.8297 18.9655 47.8299 18.5327L47.8326 12.1983C47.832 11.8575 47.7421 10.4752 47.9374 10.2993L48.0177 10.366Z" fill="#C2BFB9"/>
<path d="M48.0186 1.90172C48.1014 2.28871 48.0969 6.19803 48.0053 6.44033C47.9765 6.42888 47.9313 6.38877 47.9046 6.3677C47.8471 5.53577 47.9104 4.49595 47.8922 3.6437C47.8847 3.29234 47.8659 2.12203 47.9079 1.84975L47.997 1.82702L48.0186 1.90172Z" fill="#C2BFB9"/>
</svg>
