<svg width="112" height="28" viewBox="0 0 112 28" fill="none" xmlns="http://www.w3.org/2000/svg">
<path d="M1.5957 17.817C3.69189 16.4064 7.3321 17.0969 7.55859 20.0836C7.58658 20.4531 6.45849 20.344 6.18555 20.3327C5.96977 19.6873 5.77309 19.0165 5.11035 18.6842C4.62989 18.4334 3.65135 18.3878 3.14453 18.5875C1.07658 19.4025 1.20578 22.7177 1.72168 24.4889C2.26915 26.3682 5.01635 26.8701 5.88086 25.0075C6.0083 24.7329 6.05658 24.4125 6.17578 24.1286C6.50036 24.1282 7.3031 24.0834 7.52441 24.2682C7.61792 24.5443 7.44298 25.0189 7.36621 25.2995C7.10376 26.2586 6.32648 26.9393 5.4082 27.2506C4.29866 27.6348 3.08141 27.5571 2.0293 27.0358C1.14643 26.5981 0.659771 25.8665 0.333008 24.9694C0.122708 24.392 0.130897 23.9849 0 23.5026V21.0866C0.196852 19.9558 0.437258 18.5967 1.5957 17.817ZM53.1299 17.2887C54.7195 17.2249 57.2377 17.2509 58.8428 17.2946C58.8936 17.6725 58.8858 18.195 58.8896 18.5885C58.4309 18.5991 57.1202 18.5138 56.7832 18.6784C56.5907 19.2086 56.7143 24.9294 56.7012 25.9635C57.3115 26.0355 58.3463 26.0203 58.9971 26.0329C59.0162 26.3528 59.1073 27.0861 58.8896 27.2955C57.027 27.3444 54.8659 27.3129 52.9961 27.2946C52.9483 26.4991 52.8036 25.8576 53.873 25.987C54.2992 26.0386 54.84 26.004 55.2666 25.9655C55.2808 24.5316 55.2855 23.0968 55.2822 21.6627C55.2833 20.72 55.3154 19.5164 55.2246 18.6002L53.1221 18.5875C53.0907 18.2326 53.0851 17.6359 53.1299 17.2887ZM105.285 17.5036C105.308 17.1728 106.421 17.2696 106.635 17.3317C106.839 17.5475 106.762 20.0643 106.762 20.4733L106.758 25.9811C108.191 26.0966 110.476 26.0124 111.999 26.027V27.2995C109.824 27.3019 107.44 27.353 105.281 27.2858C105.218 26.5626 105.239 25.5946 105.238 24.86L105.237 20.9879C105.237 19.8339 105.207 18.6529 105.285 17.5036ZM20.4912 17.2858C20.7956 17.2786 21.6685 17.1833 21.8975 17.3854C22.0944 17.5633 25.1329 25.9661 25.1709 26.4821C25.1816 26.6278 25.2167 27.1046 25.1279 27.1959C24.9563 27.3726 24.2788 27.3038 24.04 27.3024C23.2594 25.7778 24.0544 25.2667 21.9883 25.3112C19.1076 25.3302 19.3109 24.5721 18.377 27.2916C18.0195 27.3103 17.6041 27.298 17.2412 27.2946C17.164 25.9011 17.4182 25.6026 17.8887 24.3034L19.0859 21.0006C19.3234 20.35 20.2038 17.6973 20.4912 17.2858ZM90.2217 17.2848C90.6306 17.2756 91.335 17.2094 91.6621 17.4088C92.0334 17.9079 94.4317 25.0333 94.8594 26.111C94.9452 26.3274 94.8976 27.0086 94.8828 27.2829C94.54 27.317 94.132 27.3034 93.7832 27.3014C93.5251 26.8065 93.3021 25.9291 93.0566 25.3375C92.6875 25.2963 92.0724 25.3117 91.6826 25.3112C88.5159 25.3312 89.2471 24.5885 88.1074 27.2907C87.8165 27.3172 87.3294 27.2985 87.0215 27.2946C86.8925 26.0797 87.1656 25.6213 87.5674 24.4987L88.6426 21.5436L89.6221 18.7907C89.7719 18.375 90.0106 17.6435 90.2217 17.2848ZM37.0312 17.2799C38.511 17.3393 40.6843 16.9842 41.8408 18.112C42.8495 19.0957 42.8196 21.2352 41.7979 22.2008C40.8214 23.1237 39.4334 23.0364 38.1992 23.0319L36.7695 23.0329C36.7926 23.892 36.7224 24.7923 36.7539 25.6598C36.7717 26.152 36.7747 26.7973 36.7109 27.2789C36.2886 27.3152 35.7169 27.2998 35.2822 27.2995C35.2023 26.4171 35.1417 17.9324 35.3047 17.2897C35.7095 17.2667 36.581 17.2658 37.0312 17.2799ZM69.6465 17.2897C72.0831 17.2385 74.5744 17.2857 77.0127 17.3073C77.4726 17.3113 77.3108 18.2762 77.2812 18.5875C76.316 18.6225 75.1651 18.5937 74.1846 18.5954C74.1255 20.4074 74.1542 22.3273 74.1553 24.1481C74.1607 25.0894 74.204 26.3762 74.1318 27.2887C73.6763 27.3149 73.1655 27.2987 72.7051 27.2936C72.6302 26.57 72.6684 25.1765 72.6689 24.4254C72.6782 22.4854 72.6762 20.5452 72.6631 18.6051C71.8357 18.5497 70.454 18.5901 69.584 18.5905C69.555 18.215 69.4906 17.6283 69.6465 17.2897ZM21.1553 19.4381C20.725 20.6171 19.8516 22.8393 19.5557 23.9801C20.0997 23.9872 20.6731 24.0041 21.2148 23.9957C21.5252 23.9987 22.582 24.0618 22.7607 23.8922C22.6724 23.4685 21.3351 19.5786 21.1553 19.4381ZM90.8926 19.443C90.4868 20.703 89.5903 22.8344 89.2939 23.984C89.8441 23.9885 90.4134 24.0007 90.9619 23.9957C91.3286 24.0009 92.2191 24.06 92.4854 23.8707C92.5264 23.6107 91.0566 19.5485 90.8926 19.443ZM41.0645 19.7194C40.7984 18.1626 37.9962 18.5908 36.7705 18.5973C36.7443 19.6028 36.7298 20.7187 36.7607 21.7213C37.7672 21.7305 39.9759 21.9269 40.6816 21.3297C41.0596 20.7893 41.1812 20.4024 41.0645 19.7194ZM73.2061 0.0142985C74.8651 -0.0867242 76.5199 0.32037 77.1533 2.11098C77.2359 2.34452 77.3113 2.85518 77.2402 3.09438C77.0155 3.28801 76.2433 3.21119 75.9004 3.20375C75.6073 2.06803 75.3333 1.49742 74.0684 1.3307C72.2776 1.10311 71.3939 2.43018 71.2314 4.05922C71.0652 5.73128 71.0934 8.65233 73.3008 8.97231C74.1927 9.10154 74.6898 8.90479 75.3789 8.36098C75.7485 7.9516 75.7185 7.30647 75.9629 7.07192C76.3052 6.8989 76.8833 7.00012 77.2861 7.03188C77.2752 7.80702 77.1354 8.44037 76.6455 9.07387C76.1304 9.72541 75.3797 10.1473 74.5557 10.2477C71.7902 10.5977 70.0457 9.23429 69.7607 6.43324C69.4802 3.67814 69.8217 0.436516 73.2061 0.0142985ZM38.127 0.12758C38.5849 0.126875 38.9048 0.130173 39.3584 0.178361C39.6108 0.649753 40.1121 2.15508 40.3193 2.73598C40.8524 4.24799 41.3972 5.75607 41.9541 7.25942C42.1631 7.83897 42.8095 9.4753 42.5469 10.0348C42.2861 10.2621 41.8312 10.1766 41.4785 10.1559C41.2446 9.63861 40.9575 8.77132 40.7461 8.20278C40.2633 8.17438 39.6233 8.19127 39.1289 8.19008C38.5981 8.19473 37.6603 8.19489 37.1855 8.17153C35.8534 8.10606 36.4432 9.28509 35.7881 10.0602C35.6248 10.2526 34.9964 10.174 34.708 10.1608C34.6886 9.93601 34.6128 9.2157 34.6963 8.97524C35.7068 6.07118 36.7466 3.11047 37.8535 0.244767C37.8874 0.157168 38.0448 0.144723 38.127 0.12758ZM3.17578 0.131486C4.42662 0.12836 5.99123 0.0052569 6.95312 0.956681C7.98365 1.97637 7.96967 4.00392 6.94043 5.02211C5.95814 5.99343 4.57771 5.91266 3.30859 5.90883C2.82977 5.91277 2.35092 5.9147 1.87207 5.91371C1.86739 6.56833 1.93286 9.66662 1.7832 10.0504C1.51286 10.2455 0.751991 10.1732 0.388672 10.1618C0.271319 8.37707 0.394298 6.19434 0.34668 4.36781C0.329543 3.71094 0.310016 0.633133 0.417969 0.15883C0.609945 0.150838 0.802021 0.145438 0.994141 0.142228L3.17578 0.131486ZM109.599 0.134416C110.258 0.117296 111.074 0.108199 111.727 0.163713C111.753 0.479856 111.84 1.11747 111.699 1.38735C111.427 1.53371 107.139 1.47234 106.484 1.47133L106.475 4.39516C107.822 4.43548 110.253 4.31239 111.455 4.43813C111.511 4.83036 111.486 5.33827 111.454 5.7311C110.166 5.79716 108.364 5.74752 107.042 5.74867C106.819 5.74806 106.69 5.73758 106.518 5.85414C106.441 6.19075 106.477 8.35862 106.479 8.85707C107.223 8.86595 111.329 8.78931 111.682 8.92836C111.774 9.13231 111.836 9.89485 111.693 10.0641C111.404 10.2421 105.823 10.1679 105.017 10.1676C104.908 8.71627 105 6.50268 104.985 4.95766C104.974 3.74301 104.918 1.2821 105.022 0.142228C106.519 0.0818419 108.094 0.173512 109.599 0.134416ZM38.6357 2.27602C38.4146 2.67334 38.2778 3.1036 38.1328 3.53285C37.7621 4.62998 37.3316 5.72183 36.9844 6.82582C37.516 6.83255 38.0655 6.8473 38.5957 6.84145C39.143 6.83833 39.7602 6.84901 40.3018 6.8268C39.9291 5.85944 39.5965 4.93178 39.2656 3.95082C39.1717 3.67227 38.7642 2.48668 38.6357 2.27602ZM5.82031 1.86293C5.017 1.22477 2.89617 1.49478 1.88379 1.47133C1.82901 2.4197 1.86923 3.55802 1.8623 4.53188C2.97444 4.54534 4.9044 4.72976 5.79492 4.20278C6.31226 3.63528 6.3972 2.32166 5.82031 1.86293Z" fill="#C2BFB9"/>
</svg>
