<svg width="114" height="23" viewBox="0 0 114 23" fill="none" xmlns="http://www.w3.org/2000/svg">
<path d="M59.7261 19.7973C59.7261 21.2999 60.3252 22.0063 61.7621 22.0063C63.1991 22.0063 63.7905 21.2999 63.7905 19.7973V16.8824H64.7098V19.5511C64.7098 21.9979 63.6425 22.7617 61.7621 22.7617C59.8817 22.7617 58.8063 21.9979 58.8063 19.5511V16.8824H59.7261V19.7973Z" fill="#C2BFB9"/>
<path d="M88.2206 16.7512C90.0927 16.7513 91.3324 17.5068 91.349 18.6973H90.4045C90.4127 17.9584 89.5177 17.5146 88.2696 17.5146C86.9233 17.5146 86.2004 17.835 86.2004 18.4097C86.2004 19.8713 91.4883 18.3443 91.4883 20.98C91.4881 22.154 90.1824 22.7617 88.2943 22.7617C86.3566 22.7616 85.125 21.9733 85.1494 20.8155H86.0853C86.0771 21.5463 86.9724 21.9978 88.2287 21.9978C89.7391 21.9896 90.5603 21.6778 90.5604 21.0209C90.5604 19.3295 85.2561 20.9633 85.2558 18.5167C85.2558 17.359 86.4717 16.7512 88.2206 16.7512Z" fill="#C2BFB9"/>
<path d="M25.8672 22.3676L28.6832 16.8824H29.8165L26.7865 22.63H24.9393L21.9093 16.8824H23.0426L25.8672 22.3676Z" fill="#C2BFB9"/>
<path d="M37.4926 17.6463H33.174V19.3624H37.4189V20.0602H33.174V21.8666H37.4926V22.63H32.2541V16.8824H37.4926V17.6463Z" fill="#C2BFB9"/>
<path d="M46.0695 21.5134V16.8824H46.9889V22.63H46.0448L41.4633 18.0076V22.63H40.5435V16.8824H41.4794L46.0695 21.5134Z" fill="#C2BFB9"/>
<path d="M56.2693 17.6463H53.3463V22.63H52.427V17.6463H49.5121V16.8824H56.2693V17.6463Z" fill="#C2BFB9"/>
<path fill-rule="evenodd" clip-rule="evenodd" d="M72.3161 16.8824C73.5067 16.8824 74.1638 17.5231 74.1638 18.4017C74.1637 19.3212 73.4244 19.8468 72.3161 19.8468H71.7081C73.0301 19.937 73.5643 20.758 74.5821 22.63H73.5805C72.5131 20.7169 72.2256 20.1258 71.1338 20.1258H68.7694L68.777 22.63H67.8577V16.8824H72.3161ZM68.7694 19.3376H72.0285C72.8987 19.3376 73.2439 19.0175 73.244 18.5495C73.244 17.9255 72.8827 17.6544 72.0285 17.6544H68.7608L68.7694 19.3376Z" fill="#C2BFB9"/>
<path d="M82.4683 17.6463H78.1492V19.3624H82.3942V20.0602H78.1492V21.8666H82.4683V22.63H77.2299V16.8824H82.4683V17.6463Z" fill="#C2BFB9"/>
<path d="M6.82474 0C10.6948 4.35571e-05 12.5148 1.24639 12.5148 1.24639V3.24338C12.5148 3.24338 10.6948 1.65668 6.9683 1.65663C4.07267 1.65663 2.17477 2.33495 2.17477 3.61749C2.17519 7.145 13.5522 3.35015 13.5525 9.15639C13.5525 11.688 10.9865 13.041 6.95119 13.041C2.69336 13.041 0.0167388 11.2525 0 11.2413V9.33892C0 9.33892 3.01305 11.2367 6.75677 11.2385C9.99295 11.2385 11.5455 10.7091 11.5455 9.2486C11.5453 5.47073 0.14838 9.46271 0.148312 3.86753C0.148312 1.33587 3.03945 0 6.82474 0Z" fill="#C2BFB9"/>
<path d="M113.4 1.95088H103.178V5.3516H111.851V7.061H103.178V11.1101H113.4V12.7677H101.186V0.293297H113.4V1.95088Z" fill="#C2BFB9"/>
<path fill-rule="evenodd" clip-rule="evenodd" d="M41.5959 0.293297C44.1736 0.293325 45.7748 1.89222 45.7748 3.82142C45.7721 6.16157 43.9928 7.33195 41.5931 7.33195H35.2204V12.7667H33.2476V0.293297H41.5959ZM35.2175 5.62256H41.1476C42.9965 5.62256 43.7788 5.08577 43.7788 3.80954C43.7796 2.53432 42.9973 1.96799 41.1476 1.96799H35.2175V5.62256Z" fill="#C2BFB9"/>
<path d="M65.2223 5.34162H74.1286V0.284741H76.1208V12.7577H74.1286V6.99778H65.2223V12.7577H63.2295V0.284741H65.2223V5.34162Z" fill="#C2BFB9"/>
<path d="M81.6388 12.7577H79.6466V0.284741H81.6388V12.7577Z" fill="#C2BFB9"/>
<path fill-rule="evenodd" clip-rule="evenodd" d="M94.0372 0.270955C96.6238 0.270955 98.0511 1.66293 98.0511 3.57138C98.051 5.56913 96.3736 6.71066 94.0372 6.71066L92.7171 6.72872V6.7639C95.589 6.95987 96.7305 8.69061 98.9424 12.7577H96.7125C94.3941 8.60131 93.5165 7.31681 91.1617 7.31674H87.1444L87.1611 12.7577H85.1627V0.270955H94.0372ZM87.1444 5.6045H93.4135C95.304 5.60445 96.0536 4.90875 96.0536 3.89177C96.0536 2.53619 95.2684 1.94711 93.4135 1.94707H87.1264L87.1444 5.6045Z" fill="#C2BFB9"/>
<path fill-rule="evenodd" clip-rule="evenodd" d="M56.5869 0.284741C59.1648 0.284762 60.7658 1.88318 60.7658 3.81239C60.7633 6.15432 58.9847 7.32241 56.584 7.32245H50.2113V12.7568H48.2386V0.284741H56.5869ZM50.2113 5.61495H56.1415C57.9902 5.61495 58.7726 5.07773 58.7726 3.80241C58.7726 2.52713 57.9902 1.96087 56.1415 1.96086H50.2113V5.61495Z" fill="#C2BFB9"/>
<path fill-rule="evenodd" clip-rule="evenodd" d="M31.3638 12.7506H29.1187L27.2182 9.18919H18.8124L16.9076 12.7506H14.6458L17.5712 7.56773V7.55632H17.5783L21.6874 0.284741H24.3399L31.3638 12.7506ZM19.6847 7.55632H26.3468L23.0203 1.31675L19.6847 7.55632Z" fill="#C2BFB9"/>
</svg>
