<svg width="122" height="23" viewBox="0 0 122 23" fill="none" xmlns="http://www.w3.org/2000/svg">
<path d="M23.0498 2.08858C19.7947 2.09487 16.472 2.12329 13.2206 2.08944L19.5173 14.6881C20.6762 17.0087 21.9537 19.455 23.0556 21.7839C22.537 22.0518 21.7501 22.4192 21.2755 22.7035H21.1798C19.1216 18.6948 17.1673 14.5864 15.1189 10.569C14.2784 8.92062 13.4613 7.16352 12.5891 5.54081L12.586 22.7035H10.477L10.4773 11.7188C10.4775 9.68092 10.5065 7.56743 10.4584 5.53586L1.879 22.7035H1.78627C1.37028 22.4447 0.456336 22.0205 0 21.7985V21.6561C0.298159 21.359 1.90123 17.9578 2.20881 17.3451L9.82774 2.08739C6.60428 2.14206 3.23535 2.09182 0 2.0922V0H23.0537L23.0498 2.08858Z" fill="#C2BFB9"/>
<path d="M94.2751 16.0714C94.8228 16.0509 95.6125 16.4099 95.8079 16.974C95.859 17.1221 95.8464 17.3599 95.7353 17.4778C94.9441 17.4744 95.3563 17.2157 94.7999 16.742C94.4876 16.4761 93.7085 16.688 93.5059 16.9783C93.4182 17.1046 93.386 17.261 93.4152 17.4116C93.5741 18.2024 95.8371 17.9368 95.9443 19.0356C96.0388 20.0007 95.4829 20.4916 94.5864 20.6572C93.442 20.6721 92.873 20.2825 92.6806 19.144C93.7787 19.1232 93.1278 19.501 93.8006 19.9861C94.2084 20.2804 95.5531 19.9466 95.3158 19.1757C95.1965 18.7889 94.6712 18.6885 94.3185 18.5928C93.1658 18.3725 92.2635 17.7413 93.1024 16.5256C93.254 16.3062 93.6447 16.1662 93.9224 16.1013C94.0398 16.0869 94.1572 16.0769 94.2751 16.0714Z" fill="#C2BFB9"/>
<path fill-rule="evenodd" clip-rule="evenodd" d="M87.03 16.125C88.0473 16.1227 89.6049 15.8493 90.0745 16.9793C90.2104 17.3105 90.2109 17.6818 90.076 18.0132C89.8962 18.4453 89.6243 18.6292 89.2175 18.7984L90.2889 20.6066C90.0818 20.6103 89.6828 20.6442 89.5274 20.5412L88.591 18.8506L87.6132 18.8521L87.6107 20.6034L87.03 20.6085V16.125ZM89.3618 16.9662C88.8692 16.6146 88.1866 16.7062 87.6137 16.7043V18.3109C88.2129 18.2761 88.895 18.3981 89.3535 18.0764C89.6078 17.7357 89.7646 17.2535 89.3618 16.9662Z" fill="#C2BFB9"/>
<path d="M74.945 16.1241C75.3893 16.1093 75.4195 16.0599 75.6924 16.4364C76.4349 17.4613 77.1779 18.4863 77.9208 19.511C77.8838 18.4414 77.912 17.2058 77.9116 16.1238C78.0699 16.1213 78.3398 16.0998 78.4733 16.1611C78.5576 17.3417 78.4913 19.3624 78.4899 20.6053C78.3773 20.6083 78.2209 20.6266 78.1123 20.6022C77.8794 20.5501 75.7956 17.5604 75.516 17.1475C75.5374 17.5867 75.5457 20.2559 75.4946 20.5576C75.3523 20.6301 75.1131 20.6075 74.9455 20.6044L74.945 16.1241Z" fill="#C2BFB9"/>
<path fill-rule="evenodd" clip-rule="evenodd" d="M63.5806 16.1239C64.5886 16.1281 66.1603 15.8447 66.6154 16.9954C66.7479 17.3335 66.7405 17.7104 66.5949 18.0429C66.4161 18.4445 66.1481 18.6404 65.752 18.7915L66.8117 20.606C66.553 20.6109 66.344 20.618 66.0848 20.59C65.7954 20.0237 65.4349 19.428 65.1304 18.8499L64.1569 18.853L64.1564 20.6057L63.5801 20.6027L63.5806 16.1239ZM65.9084 18.0546C66.8258 16.6747 64.9638 16.6908 64.1555 16.7031L64.1545 18.3049C64.7752 18.285 65.4324 18.402 65.9084 18.0546Z" fill="#C2BFB9"/>
<path fill-rule="evenodd" clip-rule="evenodd" d="M51.7406 16.1269C52.5533 16.1266 53.6914 15.9686 54.3052 16.4693C54.5941 16.7039 54.7754 17.0454 54.8085 17.4159C54.9055 18.4316 54.1839 18.9529 53.2568 19.029L52.3268 19.0155C52.3268 19.364 52.3555 20.2741 52.3 20.5673C52.1752 20.6234 51.8907 20.6075 51.7402 20.6076L51.7406 16.1269ZM53.953 16.9717C53.4839 16.6501 52.8641 16.7142 52.3263 16.7152L52.3268 18.435C52.8451 18.4403 53.5789 18.5221 53.973 18.1933C54.2682 17.8073 54.4061 17.2823 53.953 16.9717Z" fill="#C2BFB9"/>
<path fill-rule="evenodd" clip-rule="evenodd" d="M58.5497 16.1283C58.6715 16.1251 59.0277 16.1108 59.0525 16.1591C59.5056 17.049 60.6432 19.8474 60.9526 20.6056L60.3222 20.6069C60.1088 20.0731 59.9032 19.5364 59.7054 18.9968L59.2557 18.9939L57.9637 18.9952L57.3439 20.6039L56.7155 20.6089L58.5497 16.1283ZM58.807 16.8857C58.6043 17.3937 58.4026 17.9099 58.1931 18.4144L58.9634 18.4048L59.4506 18.4026C59.3634 18.1838 58.9078 16.9853 58.807 16.8857Z" fill="#C2BFB9"/>
<path d="M72.2907 16.1257L72.2888 16.7052L70.9475 16.7019V20.6017L70.3639 20.6083L70.3634 16.6974L69.0397 16.7083L69.0358 16.1253L72.2907 16.1257Z" fill="#C2BFB9"/>
<path d="M81.6099 16.1299C82.3422 16.0911 83.4564 16.1258 84.2169 16.1259L84.2179 16.7058L82.1906 16.7014V18.0281C82.558 18.0232 83.8613 17.985 84.155 18.0495C84.2237 18.1934 84.2023 18.4296 84.1989 18.5961L82.1941 18.5926C82.1756 19.0168 82.1921 19.5898 82.1911 20.0252C82.8376 19.9896 83.5504 20.0059 84.2033 20.0093L84.2038 20.6012L81.6114 20.6039L81.6099 16.1299Z" fill="#C2BFB9"/>
<path fill-rule="evenodd" clip-rule="evenodd" d="M98.048 2.01512C101.256 1.6316 104.166 3.92364 104.545 7.13201C104.924 10.3404 102.628 13.2476 99.4195 13.6222C96.2171 13.9961 93.3168 11.7055 92.9382 8.50345C92.5602 5.30137 94.8467 2.39791 98.048 2.01512ZM98.6867 3.10704C96.0788 3.1376 93.9916 5.28081 94.0306 7.88864C94.0691 10.4965 96.2186 12.5769 98.8266 12.5301C101.423 12.4836 103.492 10.3453 103.453 7.74895C103.415 5.15252 101.284 3.07662 98.6867 3.10704Z" fill="#C2BFB9"/>
<path d="M56.334 2.23936L56.3354 7.25333C56.3374 8.25301 56.4163 9.6123 56.1474 10.5587C55.2582 13.6866 51.1053 14.6067 48.8433 12.3446C48.2999 11.7962 47.9137 11.1118 47.7254 10.3629C47.5005 9.45968 47.5651 7.80546 47.5654 6.80158L47.5691 2.24145L49.4849 2.24193L49.4795 8.18762C49.4776 9.16714 49.4898 10.3964 50.2425 11.0251C52.1474 12.6169 54.6429 11.2013 54.4202 8.74805C54.3774 8.27888 54.4144 7.46752 54.4139 7.02125L54.4149 2.23912L56.334 2.23936Z" fill="#C2BFB9"/>
<path d="M64.2963 2.24198C64.4346 2.60897 64.5974 2.98453 64.7523 3.34541C66.1905 6.68834 67.541 10.0817 68.9997 13.4146C68.6109 13.4031 68.1783 13.4146 67.7866 13.4166C67.3427 12.3577 66.9111 11.1524 66.4823 10.0707C65.6556 8.00572 64.8181 5.94491 63.9704 3.88842C63.9002 3.7518 63.8032 3.46465 63.7462 3.31049C63.4787 4.19435 62.7523 5.83983 62.3714 6.78616C61.4749 8.9828 60.6101 11.1921 59.7765 13.4133C59.3853 13.4134 58.9824 13.4254 58.5907 13.432L63.1572 2.24117L64.2963 2.24198Z" fill="#C2BFB9"/>
<path fill-rule="evenodd" clip-rule="evenodd" d="M71.6301 2.24031C72.8651 2.25193 74.1007 2.22964 75.3357 2.23708C75.7045 2.23929 76.0758 2.23642 76.4417 2.28679C76.8475 2.33928 77.2431 2.45454 77.6134 2.62845C79.856 3.69654 80.1371 6.73413 78.1517 8.17892C77.7108 8.49963 77.3459 8.63518 76.8344 8.81442C77.685 10.1576 78.7934 12.0261 79.568 13.4145C79.1047 13.4104 78.6414 13.4155 78.1786 13.4297L75.6593 8.91114C74.6878 8.9184 73.7168 8.91904 72.7453 8.91319L72.7472 13.4206C72.3969 13.4055 71.9843 13.4234 71.6291 13.4305L71.6301 2.24031ZM77.6153 3.93647C76.8548 3.20318 75.7304 3.2863 74.7623 3.29212C74.0948 3.29205 73.4059 3.31248 72.7453 3.29174L72.7482 7.88555C73.3845 7.8645 74.0242 7.87144 74.6605 7.8787C75.6919 7.89049 76.8388 7.97424 77.6534 7.19857C78.54 6.24858 78.5785 4.86534 77.6153 3.93647Z" fill="#C2BFB9"/>
<path fill-rule="evenodd" clip-rule="evenodd" d="M85.6478 2.23698C86.2003 2.23632 86.9369 2.21451 87.465 2.2867C87.8694 2.33854 88.2636 2.45389 88.6324 2.6285C90.8706 3.69892 91.1668 6.75605 89.1347 8.20509C88.7079 8.50973 88.3523 8.64067 87.8578 8.8129L90.6016 13.422C90.149 13.4092 89.6477 13.4173 89.1917 13.4154L88.9598 13.012C88.342 11.7801 87.3681 10.1562 86.6729 8.91086C85.7024 8.92129 84.7319 8.92301 83.7609 8.91614L83.7584 13.413C83.3945 13.411 83.0145 13.4228 82.6491 13.4286L82.6476 2.24102L85.6478 2.23698ZM89.3369 5.58386C89.2385 3.46873 87.4743 3.19518 85.7711 3.29355C85.1918 3.32701 84.3348 3.30925 83.7604 3.29512L83.7619 7.88569C84.4386 7.85368 85.165 7.87691 85.8442 7.87818C86.9671 7.88032 87.6848 7.96626 88.6105 7.253C89.0821 6.7754 89.3676 6.24411 89.3369 5.58386Z" fill="#C2BFB9"/>
<path fill-rule="evenodd" clip-rule="evenodd" d="M36.6959 2.2405C38.0088 2.23962 41.1262 2.08233 42.1825 2.44885C43.071 2.75713 43.818 3.37736 44.2302 4.22851C44.6343 5.08458 44.6874 6.06475 44.3782 6.95954C44.0294 7.95825 43.3762 8.54797 42.4479 8.99488C43.2341 10.4347 44.1699 11.9925 44.9966 13.4126C44.2553 13.4093 43.5139 13.4123 42.7725 13.4216C42.6669 13.375 40.7449 9.78423 40.4665 9.2744C39.8363 9.29482 39.2057 9.29505 38.5756 9.27502L38.5742 13.4089C37.9485 13.4032 37.3228 13.4096 36.6973 13.4282L36.6959 2.2405ZM42.6604 5.66365C42.5015 3.61229 40.0352 4.19297 38.6077 4.11636C38.5295 4.47411 38.5793 6.90255 38.5753 7.43461C39.7802 7.38691 41.3058 7.66269 42.1911 6.95226C42.5306 6.55729 42.7023 6.20474 42.6604 5.66365Z" fill="#C2BFB9"/>
<path d="M107.485 2.24083L110.416 11.7167C111.247 9.42164 112.937 4.86395 113.836 2.33171C113.871 2.31265 113.901 2.29626 113.926 2.28261C113.993 2.27922 114.106 2.26986 114.165 2.29626C114.177 2.30151 114.235 2.33516 114.238 2.34103C115.238 4.99759 116.839 9.22764 117.773 11.7282C118.689 8.61534 119.661 5.32554 120.647 2.24083L121.8 2.2406V2.32586C121.717 2.4931 121.511 3.18662 121.446 3.39579L118.316 13.4202C118.001 13.409 117.609 13.4225 117.287 13.4247C117 12.5099 116.52 11.3168 116.181 10.4001L114.048 4.62407C113.126 7.44773 111.905 10.5943 110.885 13.4162L109.871 13.4258C109.707 12.9473 109.552 12.452 109.402 11.9688C108.394 8.72176 107.293 5.49167 106.305 2.23965L107.485 2.24083Z" fill="#C2BFB9"/>
<path d="M34.0608 2.2406L34.0592 4.08982L30.9074 4.08301L30.9068 13.4006L29.0442 13.4035L29.0456 4.07811L25.884 4.08896L25.8833 2.23907L34.0608 2.2406Z" fill="#C2BFB9"/>
</svg>
