<svg fill="none" height="57" viewBox="0 0 204 57" width="204" xmlns="http://www.w3.org/2000/svg"><path d="m200.532 10.2276s-3.948 0-6.81 0c-2.861 0-5.268 1.9199-6.002 4.5334l-3.595 12.4615c-.147.4891-.609.8468-1.145.8468h-1.27c-.66 0-1.196-.5329-1.196-1.1899 0-.1168.015-.2263.052-.3358l3.603-12.5053c.073-.2628.117-.5329.117-.8176 0-1.6499-1.343-2.9858-3.001-2.9858h-6.773c-2.861 0-5.276 1.9273-6.002 4.548l-3.412 11.8483c-.147.4891-.602.8541-1.145.8541h-1.306c-.66 0-1.196-.5329-1.196-1.1899 0-.1168.015-.2263.044-.3286l.521-1.8031c.066-.2409.096-.4964.096-.7592 0-1.6499-1.343-2.9858-3.002-2.9858h-4.013c-.661 0-1.196-.5329-1.196-1.1899 0-.1096.014-.219.044-.3213l.755-2.6207c.162-.5475.668-.9418 1.27-.9418h3.896c2.84 0 5.232-1.8907 5.988-4.4677l2.025-7.01549c.073-.26281.117-.54021.117-.82492 0-1.64985-1.342-2.9857887-3.001-2.9857887h-6.684c-2.84 0-5.232 1.8907487-5.988 4.4750287l-1.372 4.75974c-.154.55481-.668.95633-1.27.95633h-3.984c-2.854 0-5.254 1.9053-5.995 4.5115l-3.419 11.8629c-.14.5037-.602.876-1.152.876h-1.306c-.661 0-1.196-.5329-1.196-1.1899 0-.1095.014-.2191.044-.3213l.521-1.7958c.066-.2482.102-.5037.102-.7738 0-1.6499-1.342-2.9858-3.001-2.9858h-3.984c-.66 0-1.196-.5329-1.196-1.1899 0-.1242.015-.241.051-.3505l1.387-4.8254c.073-.2628.117-.5402.117-.8249 0-1.6499-1.342-2.9858-3.001-2.9858h-6.772c-2.847 0-5.247 1.898-5.988 4.4896l-1.387 4.8182c-.139.5037-.601.8687-1.152.8687h-1.328c-.66 0-1.196-.5329-1.196-1.1899 0-.1095.015-.2191.044-.3213l1.387-4.8181c.081-.2701.125-.5548.125-.8541 0-1.6499-1.343-2.9858-3.001-2.9858h-16.3928c-2.8617 0-5.2684 1.92-6.0022 4.5334l-6.3544 22.0321c-.1395.5037-.6017.8833-1.1594.8833h-1.3134c-.6604 0-1.1961-.5329-1.1961-1.1899 0-.1023.0147-.2045.0367-.2994l3.4414-11.9504c.0807-.2701.1247-.5548.1247-.8468 0-1.6499-1.3428-2.9858-3.0011-2.9858h-4.0577c-.6604 0-1.1961-.5329-1.1961-1.1899 0-.1095.0147-.2191.044-.3286l1.3795-4.7962c.0881-.2774.1321-.5694.1321-.876 0-1.6499-1.3428-2.9858-3.0011-2.9858h-6.78c-2.8324 0-5.2245 1.8834-5.9802 4.4604l-1.3649 4.7306c-.1467.5621-.6603.9782-1.2767.9782h-3.9697c-2.8617 0-5.2685 1.9199-6.0022 4.5334l-3.4194 11.8702c-.1394.5037-.6017.8687-1.152.8687h-1.174c-.6604 0-1.1961-.5329-1.1961-1.1899 0-.1095.0147-.2191.044-.3286l.4917-1.7155c.0807-.2701.1247-.5548.1247-.8541 0-1.6572-1.3501-3.0004-3.0158-3.0004h-13.516c-.7264.0073-1.3208-.5767-1.3208-1.2995 0-.1314.022-.2555.0514-.3723l3.6395-12.6147c.1541-.5548.6677-.9637 1.2694-.9637l13.5674-.0146c2.8617 0 5.2758-1.9199 6.0022-4.5407l2.0399-7.03009c.066-.24821.1027-.51832.1027-.78842 0-1.64985-1.3428-2.98579-3.0011-2.98579h-16.4144c-2.847 0-5.2538 1.90535-5.9949 4.49693l-1.3795 4.79624c-.1614.54751-.6677.94903-1.2694.94903h-3.9403c-2.82506 0-5.2098 1.8688-5.97292 4.4312l-4.967614 17.2358c-.0733764.2555-.110066.5329-.110066.8103 0 1.6572 1.35013 3.0004 3.01579 3.0004h3.8743c.72643 0 1.32078.584 1.32078 1.3141 0 .1241-.01467.2482-.05136.365l-1.37215 4.7524c-.06604.2555-.11007.5183-.11007.7884 0 1.6499 1.3428 2.9858 3.00112 2.9858l16.42179-.0146c2.8543 0 5.2611-1.9126 5.9948-4.5188l.4697-1.6426c.1394-.5037.6016-.876 1.152-.876h1.174c.6604 0 1.196.5329 1.196 1.19 0 .1168-.0146.2263-.0513.3358l-.499 1.7228c-.0734.2555-.11.5183-.11.7957 0 1.6499 1.3428 2.9858 3.0011 2.9858h4.0797c.6604 0 1.1961.5329 1.1961 1.19 0 .1168-.0147.2263-.0514.3358l-1.4088 4.8765c-.0734.2555-.1101.5183-.1101.7957 0 1.6499 1.3428 2.9858 3.0011 2.9858h6.78c2.8397 0 5.2318-1.8907 5.9876-4.475l1.3648-4.7378c.1467-.5622.6604-.971 1.2768-.971h3.9403c2.8323 0 5.2318-1.8834 5.9802-4.4604l.4843-1.6864c.1394-.511.6017-.8833 1.1593-.8833h1.3135c.6604 0 1.196.5329 1.196 1.19 0 .1095-.0146.219-.044.3212l-.4916 1.6936c-.0734.2628-.1174.5402-.1174.8249 0 1.6499 1.3428 2.9858 3.0011 2.9858h6.736c2.8397.0073 5.2318-1.8761 5.9875-4.4604l4.3293-15.0311c.1467-.4965.6017-.8615 1.152-.8615h1.2694c.6604 0 1.1961.533 1.1961 1.19 0 .1168-.0147.2263-.0441.3358l-4.3365 15.0457c-.0734.2555-.1101.5256-.1101.803 0 1.6499 1.3428 2.9858 3.0011 2.9858h6.7873c2.832 0 5.217-1.8761 5.98-4.4458l4.337-15.053c.139-.4965.602-.8688 1.152-.8688h1.284c.66 0 1.196.533 1.196 1.19 0 .1168-.015.2263-.044.3285l-4.329 15.0238c-.074.2628-.118.5402-.118.8322 0 1.6499 1.343 2.9858 3.001 2.9858h6.788c2.847 0 5.246-1.898 5.987-4.4896l3.427-11.8775c.147-.4964.602-.8541 1.152-.8541h1.306c.661 0 1.196.5329 1.196 1.19 0 .1168-.014.2336-.051.3358l-6.362 22.0758c-.073.2555-.11.5329-.11.8103 0 1.6499 1.343 2.9858 3.001 2.9858h6.773c2.847 0 5.254-1.9053 5.995-4.4969l4.3-14.9289c.161-.5476.667-.9491 1.269-.9491h3.896c2.833 0 5.217-1.8761 5.981-4.4531l.491-1.7009c.14-.5038.602-.8761 1.152-.8761h1.306c.661 0 1.196.5329 1.196 1.19 0 .1095-.014.2117-.044.3139l-.491 1.7155c-.074.2628-.118.5402-.118.8249 0 1.6499 1.343 2.9858 3.001 2.9858l13.634.0146c.66 0 1.196.5329 1.196 1.19 0 .1168-.015.2336-.051.3358l-.771 2.6719c-.139.5037-.602.8687-1.152.8687h-4.094c-2.855 0-5.254 1.9053-5.995 4.5042l-2.003 6.9571c-.081.2701-.125.5475-.125.8468 0 1.6499 1.343 2.9858 3.001 2.9858h6.773c2.847 0 5.246-1.898 5.987-4.4896l1.387-4.8035c.132-.5111.602-.8834 1.159-.8834h4.139c2.832 0 5.217-1.8761 5.98-4.4531l7.888-27.3831c.081-.2628.117-.5475.117-.8395 0-1.6499-1.342-2.9858-3.001-2.9858zm-141.3976 16.8051-3.7202 12.9068c-.1467.4891-.609.8395-1.1447.8395h-1.2621c-.6603 0-1.196-.5329-1.196-1.19 0-.1022.0147-.2044.0367-.2993l3.7202-12.8921c.1394-.5038.6017-.8688 1.152-.8688h1.2548c.6604 0 1.196.533 1.196 1.19 0 .1095-.0147.219-.044.3212z" fill="#f2ff59"/></svg>