<svg width="147" height="159" viewBox="0 0 147 159" fill="none" xmlns="http://www.w3.org/2000/svg">
<path d="M116.437 118.915C116.712 117.983 116.863 117 116.863 115.967C116.863 110.25 112.252 105.615 106.564 105.615H60.4108C57.9301 105.64 55.9006 103.625 55.9006 101.131C55.9006 100.678 55.9759 100.25 56.0761 99.8468L68.504 56.3212C69.0302 54.4069 70.7841 52.9963 72.8387 52.9963L119.168 52.946C128.94 52.946 137.182 46.3214 139.664 37.2788L146.63 13.0223C146.854 12.1658 146.98 11.2338 146.98 10.3019C146.98 4.60938 142.395 0 136.733 0H80.6814C70.9594 0 62.7409 6.57416 60.2104 15.5159L55.4998 32.0647C54.9485 33.9539 53.2197 35.3392 51.1651 35.3392H37.7098C28.0631 35.3392 19.9198 41.7875 17.3139 50.6287L0.375936 110.098C0.125241 110.98 0 111.937 0 112.894C0 118.612 4.61042 123.247 10.2981 123.247H23.5278C26.0085 123.247 28.038 125.262 28.038 127.781C28.038 128.209 27.988 128.637 27.8627 129.04L23.1771 145.438C22.9515 146.32 22.8012 147.226 22.8012 148.158C22.8012 153.851 27.3866 158.461 33.0492 158.461L89.1253 158.409C98.8722 158.409 107.091 151.81 109.596 142.819L116.412 118.94L116.437 118.915Z" fill="#F2FF59"/>
</svg>
