<svg width="142" height="142" viewBox="0 0 142 142" fill="none" xmlns="http://www.w3.org/2000/svg">
<rect width="142" height="142" rx="33" fill="#211927"/>
<path d="M91.7457 90.1697C91.8788 89.7195 91.9514 89.2449 91.9514 88.7461C91.9514 85.9841 89.7244 83.7452 86.9768 83.7452H64.6819C63.4836 83.7574 62.5032 82.784 62.5032 81.5794C62.5032 81.3604 62.5396 81.1536 62.588 80.9589L68.5914 59.9335C68.8456 59.0088 69.6928 58.3274 70.6853 58.3274L93.065 58.3031C97.7854 58.3031 101.767 55.103 102.966 50.7349L106.331 39.0176C106.439 38.6039 106.5 38.1537 106.5 37.7035C106.5 34.9537 104.285 32.7271 101.55 32.7271H74.4738C69.7775 32.7271 65.8075 35.9028 64.5851 40.2222L62.3096 48.2162C62.0433 49.1288 61.2082 49.798 60.2157 49.798H53.716C49.0561 49.798 45.1224 52.9129 43.8636 57.1837L35.6816 85.911C35.5605 86.3369 35.5 86.7993 35.5 87.2616C35.5 90.0236 37.7271 92.2625 40.4746 92.2625H46.8653C48.0636 92.2625 49.044 93.2359 49.044 94.4526C49.044 94.6595 49.0198 94.8663 48.9593 95.061L46.6959 102.982C46.5869 103.408 46.5143 103.846 46.5143 104.296C46.5143 107.046 48.7293 109.273 51.4647 109.273L78.5527 109.248C83.261 109.248 87.231 106.06 88.4414 101.717L91.7336 90.1818L91.7457 90.1697Z" fill="#F2FF59"/>
</svg>
