<svg width="204" height="57" viewBox="0 0 204 57" fill="none" xmlns="http://www.w3.org/2000/svg">
<path d="M200.532 10.2276C200.532 10.2276 196.584 10.2276 193.722 10.2276C190.861 10.2276 188.454 12.1475 187.72 14.761L184.125 27.2225C183.978 27.7116 183.516 28.0693 182.98 28.0693H181.71C181.05 28.0693 180.514 27.5364 180.514 26.8794C180.514 26.7626 180.529 26.6531 180.566 26.5436L184.169 14.0383C184.242 13.7755 184.286 13.5054 184.286 13.2207C184.286 11.5708 182.943 10.2349 181.285 10.2349H174.512C171.651 10.2349 169.236 12.1622 168.51 14.7829L165.098 26.6312C164.951 27.1203 164.496 27.4853 163.953 27.4853H162.647C161.987 27.4853 161.451 26.9524 161.451 26.2954C161.451 26.1786 161.466 26.0691 161.495 25.9668L162.016 24.1637C162.082 23.9228 162.112 23.6673 162.112 23.4045C162.112 21.7546 160.769 20.4187 159.11 20.4187H155.097C154.436 20.4187 153.901 19.8858 153.901 19.2288C153.901 19.1192 153.915 19.0098 153.945 18.9075L154.7 16.2868C154.862 15.7393 155.368 15.345 155.97 15.345H159.866C162.706 15.345 165.098 13.4543 165.854 10.8773L167.879 3.86181C167.952 3.599 167.996 3.3216 167.996 3.03689C167.996 1.38704 166.654 0.0511013 164.995 0.0511013H158.311C155.471 0.0511013 153.079 1.94185 152.323 4.52613L150.951 9.28587C150.797 9.84068 150.283 10.2422 149.681 10.2422H145.697C142.843 10.2422 140.443 12.1475 139.702 14.7537L136.283 26.6166C136.143 27.1203 135.681 27.4926 135.131 27.4926H133.825C133.164 27.4926 132.629 26.9597 132.629 26.3027C132.629 26.1932 132.643 26.0836 132.673 25.9814L133.194 24.1856C133.26 23.9374 133.296 23.6819 133.296 23.4118C133.296 21.7619 131.954 20.426 130.295 20.426H126.311C125.651 20.426 125.115 19.8931 125.115 19.2361C125.115 19.1119 125.13 18.9951 125.166 18.8856L126.553 14.0602C126.626 13.7974 126.67 13.52 126.67 13.2353C126.67 11.5854 125.328 10.2495 123.669 10.2495H116.897C114.05 10.2495 111.65 12.1475 110.909 14.7391L109.522 19.5573C109.383 20.061 108.921 20.426 108.37 20.426H107.042C106.382 20.426 105.846 19.8931 105.846 19.2361C105.846 19.1266 105.861 19.017 105.89 18.9148L107.277 14.0967C107.358 13.8266 107.402 13.5419 107.402 13.2426C107.402 11.5927 106.059 10.2568 104.401 10.2568H88.0082C85.1465 10.2568 82.7398 12.1768 82.006 14.7902L75.6516 36.8223C75.5121 37.326 75.0499 37.7056 74.4922 37.7056H73.1788C72.5184 37.7056 71.9827 37.1727 71.9827 36.5157C71.9827 36.4134 71.9974 36.3112 72.0194 36.2163L75.4608 24.2659C75.5415 23.9958 75.5855 23.7111 75.5855 23.4191C75.5855 21.7692 74.2427 20.4333 72.5844 20.4333H68.5267C67.8663 20.4333 67.3306 19.9004 67.3306 19.2434C67.3306 19.1339 67.3453 19.0243 67.3746 18.9148L68.7541 14.1186C68.8422 13.8412 68.8862 13.5492 68.8862 13.2426C68.8862 11.5927 67.5434 10.2568 65.8851 10.2568H59.1051C56.2727 10.2568 53.8806 12.1402 53.1249 14.7172L51.76 19.4478C51.6133 20.0099 51.0997 20.426 50.4833 20.426H46.5136C43.6519 20.426 41.2451 22.3459 40.5114 24.9594L37.092 36.8296C36.9526 37.3333 36.4903 37.6983 35.94 37.6983H34.766C34.1056 37.6983 33.5699 37.1654 33.5699 36.5084C33.5699 36.3989 33.5846 36.2893 33.6139 36.1798L34.1056 34.4643C34.1863 34.1942 34.2303 33.9095 34.2303 33.6102C34.2303 31.953 32.8802 30.6098 31.2145 30.6098H17.6985C16.9721 30.6171 16.3777 30.0331 16.3777 29.3103C16.3777 29.1789 16.3997 29.0548 16.4291 28.938L20.0686 16.3233C20.2227 15.7685 20.7363 15.3596 21.338 15.3596L34.9054 15.345C37.7671 15.345 40.1812 13.4251 40.9076 10.8043L42.9475 3.77421C43.0135 3.526 43.0502 3.25589 43.0502 2.98579C43.0502 1.33594 41.7074 0 40.0491 0H23.6347C20.7877 0 18.3809 1.90535 17.6398 4.49693L16.2603 9.29317C16.0989 9.84068 15.5926 10.2422 14.9909 10.2422H11.0506C8.22554 10.2422 5.8408 12.111 5.07768 14.6734L0.110066 31.9092C0.0366896 32.1647 0 32.4421 0 32.7195C0 34.3767 1.35013 35.7199 3.01579 35.7199H6.89009C7.61652 35.7199 8.21087 36.3039 8.21087 37.034C8.21087 37.1581 8.1962 37.2822 8.15951 37.399L6.78736 42.1514C6.72132 42.4069 6.67729 42.6697 6.67729 42.9398C6.67729 44.5897 8.02009 45.9256 9.67841 45.9256L26.1002 45.911C28.9545 45.911 31.3613 43.9984 32.095 41.3922L32.5647 39.7496C32.7041 39.2459 33.1663 38.8736 33.7167 38.8736H34.8907C35.5511 38.8736 36.0867 39.4065 36.0867 40.0636C36.0867 40.1804 36.0721 40.2899 36.0354 40.3994L35.5364 42.1222C35.463 42.3777 35.4264 42.6405 35.4264 42.9179C35.4264 44.5678 36.7692 45.9037 38.4275 45.9037H42.5072C43.1676 45.9037 43.7033 46.4366 43.7033 47.0937C43.7033 47.2105 43.6886 47.32 43.6519 47.4295L42.2431 52.306C42.1697 52.5615 42.133 52.8243 42.133 53.1017C42.133 54.7516 43.4758 56.0875 45.1341 56.0875H51.9141C54.7538 56.0875 57.1459 54.1968 57.9017 51.6125L59.2665 46.8747C59.4132 46.3125 59.9269 45.9037 60.5433 45.9037H64.4836C67.3159 45.9037 69.7154 44.0203 70.4638 41.4433L70.9481 39.7569C71.0875 39.2459 71.5498 38.8736 72.1074 38.8736H73.4209C74.0813 38.8736 74.6169 39.4065 74.6169 40.0636C74.6169 40.1731 74.6023 40.2826 74.5729 40.3848L74.0813 42.0784C74.0079 42.3412 73.9639 42.6186 73.9639 42.9033C73.9639 44.5532 75.3067 45.8891 76.965 45.8891H83.701C86.5407 45.8964 88.9328 44.013 89.6885 41.4287L94.0178 26.3976C94.1645 25.9011 94.6195 25.5361 95.1698 25.5361H96.4392C97.0996 25.5361 97.6353 26.0691 97.6353 26.7261C97.6353 26.8429 97.6206 26.9524 97.5912 27.0619L93.2547 42.1076C93.1813 42.3631 93.1446 42.6332 93.1446 42.9106C93.1446 44.5605 94.4874 45.8964 96.1457 45.8964H102.933C105.765 45.8964 108.15 44.0203 108.913 41.4506L113.25 26.3976C113.389 25.9011 113.852 25.5288 114.402 25.5288H115.686C116.346 25.5288 116.882 26.0618 116.882 26.7188C116.882 26.8356 116.867 26.9451 116.838 27.0473L112.509 42.0711C112.435 42.3339 112.391 42.6113 112.391 42.9033C112.391 44.5532 113.734 45.8891 115.392 45.8891H122.18C125.027 45.8891 127.426 43.9911 128.167 41.3995L131.594 29.522C131.741 29.0256 132.196 28.6679 132.746 28.6679H134.052C134.713 28.6679 135.248 29.2008 135.248 29.8579C135.248 29.9747 135.234 30.0915 135.197 30.1937L128.835 52.2695C128.762 52.525 128.725 52.8024 128.725 53.0798C128.725 54.7297 130.068 56.0656 131.726 56.0656H138.499C141.346 56.0656 143.753 54.1603 144.494 51.5687L148.794 36.6398C148.955 36.0922 149.461 35.6907 150.063 35.6907H153.959C156.792 35.6907 159.176 33.8146 159.94 31.2376L160.431 29.5367C160.571 29.0329 161.033 28.6606 161.583 28.6606H162.889C163.55 28.6606 164.085 29.1935 164.085 29.8506C164.085 29.9601 164.071 30.0623 164.041 30.1645L163.55 31.88C163.476 32.1428 163.432 32.4202 163.432 32.7049C163.432 34.3548 164.775 35.6907 166.433 35.6907L180.067 35.7053C180.727 35.7053 181.263 36.2382 181.263 36.8953C181.263 37.0121 181.248 37.1289 181.212 37.2311L180.441 39.903C180.302 40.4067 179.839 40.7717 179.289 40.7717H175.195C172.34 40.7717 169.941 42.677 169.2 45.2759L167.197 52.233C167.116 52.5031 167.072 52.7805 167.072 53.0798C167.072 54.7297 168.415 56.0656 170.073 56.0656H176.846C179.693 56.0656 182.092 54.1676 182.833 51.576L184.22 46.7725C184.352 46.2614 184.822 45.8891 185.379 45.8891H189.518C192.35 45.8891 194.735 44.013 195.498 41.436L203.386 14.0529C203.467 13.7901 203.503 13.5054 203.503 13.2134C203.503 11.5635 202.161 10.2276 200.502 10.2276H200.532ZM59.1344 27.0327L55.4142 39.9395C55.2675 40.4286 54.8052 40.779 54.2695 40.779H53.0074C52.3471 40.779 51.8114 40.2461 51.8114 39.589C51.8114 39.4868 51.8261 39.3846 51.8481 39.2897L55.5683 26.3976C55.7077 25.8938 56.17 25.5288 56.7203 25.5288H57.9751C58.6355 25.5288 59.1711 26.0618 59.1711 26.7188C59.1711 26.8283 59.1564 26.9378 59.1271 27.04L59.1344 27.0327Z" fill="#211927"/>
</svg>
