<svg width="148" height="159" viewBox="0 0 148 159" fill="none" xmlns="http://www.w3.org/2000/svg">
<path d="M116.653 119.135C116.929 118.202 117.08 117.217 117.08 116.183C117.08 110.454 112.461 105.811 106.762 105.811H60.523C58.0377 105.836 56.0044 103.817 56.0044 101.319C56.0044 100.865 56.0798 100.436 56.1802 100.032L68.6312 56.4258C69.1584 54.508 70.9155 53.0947 72.9739 53.0947L119.389 53.0443C129.179 53.0443 137.437 46.4074 139.924 37.348L146.903 13.0464C147.127 12.1884 147.253 11.2547 147.253 10.321C147.253 4.61794 142.659 0 136.987 0H80.8312C71.0912 0 62.8574 6.58636 60.3222 15.5448L55.6028 32.1242C55.0505 34.017 53.3185 35.4049 51.2601 35.4049H37.7798C28.1152 35.4049 19.9568 41.8651 17.346 50.7227L0.376634 110.303C0.125474 111.186 0 112.145 0 113.104C0 118.832 4.61899 123.476 10.3173 123.476H23.5715C26.0568 123.476 28.0901 125.495 28.0901 128.018C28.0901 128.447 28.0399 128.876 27.9144 129.28L23.2202 145.708C22.9941 146.591 22.8435 147.5 22.8435 148.433C22.8435 154.137 27.4374 158.755 33.1106 158.755L89.2908 158.704C99.0558 158.704 107.29 152.092 109.8 143.084L116.628 119.16L116.653 119.135Z" fill="#211927"/>
</svg>
