<svg width="20" height="12" viewBox="0 0 20 12" fill="none" xmlns="http://www.w3.org/2000/svg">
<path d="M20 1C20 1.55228 19.5523 2 19 2H17.5C16.6716 2 16 2.67157 16 3.5C16 4.32843 16.6716 5 17.5 5H19C19.5523 5 20 5.44772 20 6C20 6.55228 19.5523 7 19 7H7.5C6.67157 7 6 7.67157 6 8.5C6 9.32843 6.67157 10 7.5 10H19C19.5523 10 20 10.4477 20 11C20 11.5523 19.5523 12 19 12H1C0.447715 12 0 11.5523 0 11C0 10.4477 0.447715 10 1 10H2.5C3.32843 10 4 9.32843 4 8.5C4 7.67157 3.32843 7 2.5 7H1C0.447715 7 0 6.55228 0 6C0 5.44772 0.447715 5 1 5H12.5C13.3284 5 14 4.32843 14 3.5C14 2.67157 13.3284 2 12.5 2H1C0.447716 2 0 1.55228 0 1C0 0.447715 0.447715 0 1 0H19C19.5523 0 20 0.447715 20 1Z" fill="#211927"/>
</svg>
