<svg width="275" height="275" viewBox="0 0 275 275" fill="none" xmlns="http://www.w3.org/2000/svg">
<rect width="274.66" height="274.66" rx="63.5555" fill="#211927"/>
<path d="M177.456 174.409C177.713 173.538 177.854 172.621 177.854 171.656C177.854 166.313 173.546 161.983 168.232 161.983H125.108C122.791 162.006 120.894 160.124 120.894 157.794C120.894 157.37 120.965 156.97 121.058 156.594L132.67 115.926C133.162 114.137 134.801 112.819 136.72 112.819L180.008 112.772C189.138 112.772 196.84 106.582 199.158 98.1335L205.666 75.4696C205.877 74.6695 205.994 73.7987 205.994 72.9279C205.994 67.6091 201.71 63.3022 196.419 63.3022H144.048C134.965 63.3022 127.286 69.4448 124.921 77.7996L120.52 93.2618C120.005 95.0269 118.389 96.3213 116.47 96.3213H103.898C94.8846 96.3213 87.276 102.346 84.8412 110.607L69.0152 166.172C68.7811 166.996 68.6641 167.89 68.6641 168.784C68.6641 174.127 72.9717 178.457 78.2861 178.457H90.6472C92.9649 178.457 94.8612 180.34 94.8612 182.693C94.8612 183.093 94.8144 183.494 94.6973 183.87L90.3194 199.191C90.1087 200.015 89.9683 200.862 89.9683 201.733C89.9683 207.052 94.2525 211.359 99.5434 211.359L151.938 211.312C161.045 211.312 168.724 205.145 171.065 196.744L177.432 174.433L177.456 174.409Z" fill="#F2FF59"/>
</svg>
