<svg width="213" height="252" viewBox="0 0 213 252" fill="none" xmlns="http://www.w3.org/2000/svg">
<path d="M113.891 241.07C114.663 240.74 115.378 240.339 116.018 239.858C119.563 237.196 119.19 233.305 115.185 231.166L82.5103 213.57C80.7481 212.649 80.5683 210.948 82.1141 209.787C82.3951 209.576 82.7135 209.405 83.0339 209.255L118.439 193.433C119.996 192.739 122.105 192.742 123.552 193.515L156.203 210.912C163.084 214.586 172.995 214.602 180.347 211.325L197.65 203.799C203.417 201.279 204.58 194.765 199.211 191.703L161.926 171.792C155.081 168.137 145.219 168.107 137.894 171.318L124.319 177.251C122.76 177.923 120.684 177.918 119.237 177.145L109.763 172.086C102.971 168.459 93.2401 168.399 85.9246 171.535L40.2587 191.485C34.7284 194.099 32.5998 199.828 38.9002 204.268L45.2838 207.677C47.0303 208.61 47.2102 210.311 45.6488 211.484C45.3833 211.683 45.0826 211.864 44.7446 212.004L31.2805 217.876C30.5753 218.202 29.9073 218.567 29.3296 219.001C25.8007 221.651 26.1718 225.521 30.1589 227.65L70.1782 249.187C77.041 252.852 86.9186 252.87 94.2571 249.626L113.858 241.072L113.891 241.07Z" fill="#F2FF59"/>
<path d="M104.261 118.957C104.273 117.985 104.096 117.016 103.841 116.059C102.429 110.759 97.068 108.263 92.0768 110.485L51.5756 128.509C49.405 129.501 47.1266 128.426 46.511 126.114C46.3991 125.694 46.3594 125.268 46.3478 124.855L46.5093 79.6575C46.4985 77.6776 47.6894 75.6852 49.4924 74.8828L90.1351 56.7436C98.7103 52.9274 104.316 43.5678 104.261 34.2174V9.01374C104.247 8.13187 104.245 7.21909 104.015 6.35524C102.609 1.07876 97.4477 -1.40313 92.4785 0.808285L43.2922 22.6974C34.7611 26.494 29.172 35.7971 29.1585 45.0737L29.11 62.2525C29.0926 64.2188 27.9174 66.1781 26.1144 66.9804L14.3071 72.235C5.84186 76.0022 0.104287 85.151 2.96039e-05 94.3635V156.109C-0.00222287 157.024 0.124117 157.961 0.360394 158.848C1.77184 164.148 6.96164 166.643 11.9528 164.422L23.5623 159.255C25.7391 158.287 28.0175 159.362 28.6393 161.697C28.745 162.093 28.8067 162.51 28.7962 162.932L28.7324 179.961C28.7521 180.867 28.844 181.766 29.0741 182.63C30.4793 187.906 35.6409 190.388 40.6101 188.177L89.8059 166.231C98.3591 162.425 104.282 153.098 104.261 143.785V118.99V118.957Z" fill="#F2FF59"/>
<path d="M212.999 155.785C213.007 154.849 212.925 153.795 212.663 152.613C211.209 146.063 205.925 138.562 200.86 135.857L159.759 113.908C157.556 112.757 155.236 109.484 154.603 106.628C154.487 106.108 154.445 105.654 154.432 105.24L154.436 61.2966C154.418 59.3542 155.621 58.5727 157.451 59.5498L198.696 81.525C207.398 86.1723 213.089 82.505 212.999 73.3274V48.857C212.982 47.9834 212.86 46.9755 212.624 45.908C211.177 39.3878 205.921 31.9276 200.879 29.2345L150.963 2.57821C142.306 -2.04523 136.658 1.57626 136.677 10.6146L136.689 27.3292C136.678 29.2308 135.491 29.9954 133.661 29.0182L121.679 22.6193C113.088 18.0316 107.475 21.5446 107.402 30.4318L107.435 90.4925C107.436 91.3831 107.568 92.4198 107.811 93.5161C109.265 100.065 114.548 107.566 119.614 110.271L131.395 116.563C133.604 117.743 135.924 121.016 136.564 123.901C136.673 124.391 136.737 124.858 136.728 125.26L136.724 141.813C136.747 142.716 136.844 143.683 137.08 144.75C138.528 151.271 143.783 158.731 148.825 161.424L198.75 188.034C207.43 192.67 213.053 189.019 212.999 179.911V155.802V155.785Z" fill="#F2FF59"/>
</svg>
