<svg width="62" height="94.14" viewBox="0 0 62 80" preserveAspectRatio="none" fill="none" xmlns="http://www.w3.org/2000/svg">
<path d="M22.9346 0C33.456 0.000149153 39.6242 8.20368 36.7305 18.3115L33.9385 28.0635C32.7454 32.2159 35.8674 36.3555 40.1826 36.3555C42.9814 36.3555 45.4493 34.5653 46.3311 31.9268L47.7129 27.002C49.4225 20.9287 55.812 16 62 16V64H48.5342C42.3461 64 38.7182 59.0713 40.4199 52.998L40.8398 51.5L40.8301 51.4922C42.0104 47.3146 38.8756 43.1751 34.5352 43.1748C31.6287 43.1748 29.0515 45.1048 28.252 47.9111L24.3047 61.6885H24.2793C21.3855 71.7964 10.5089 80 0 80V0H22.9346Z" fill="#F2FF59"/>
</svg>
