<svg width="87.7" height="95.23" viewBox="0 0 87.7 95.23" preserveAspectRatio="none" fill="none" xmlns="http://www.w3.org/2000/svg">
<path d="M87.6679 0C75.187 0 62.2689 9.77836 58.8171 21.8272L54.0387 38.5685C53.1343 41.7321 50.2553 43.8966 46.9843 43.8966C42.1156 43.8966 38.5883 39.2042 39.9299 34.4967L43.5475 21.8272C47.0145 9.77836 39.6736 0 27.1927 0H0V95.2254C12.4809 95.2254 25.399 85.4471 28.8508 73.3982L33.5839 56.7932C34.4883 53.6296 37.3674 51.465 40.6383 51.465C45.5222 51.465 49.0343 56.1574 47.6928 60.865L44.1053 73.3982C40.6685 85.4471 47.9942 95.2254 60.4902 95.2254H87.6829V0H87.6679Z" fill="#F2FF59"/>
</svg>
