<svg width="37" height="48" viewBox="0 0 37 48" fill="none" xmlns="http://www.w3.org/2000/svg">
<path d="M37 48H23.3135C17.0346 47.9999 13.3532 43.0774 15.0801 37.0127L16.7461 31.1621C17.458 28.6708 15.5955 26.1868 13.0205 26.1865C12.1061 26.1865 11.4659 26.9844 11.2399 27.8705L9.74121 33.748C8.5757 38.3031 4.21923 42 0 42V6H9.18164C13.4008 6.00006 15.8743 9.69691 14.7139 14.252L14.0983 16.6643C13.497 19.0203 13.9592 22.0946 16.3906 22.0947C18.125 22.0946 19.6625 20.9366 20.1396 19.2529L22.4951 10.9873H22.5107C24.2377 4.92254 30.7286 1.98986e-06 37 0V48Z" fill="#F2FF59"/>
</svg>
