<svg width="170" height="36" viewBox="0 0 170 36" fill="none" xmlns="http://www.w3.org/2000/svg">
<path d="M82.3421 0.00446627C82.1744 0.0266512 81.9992 0.0110747 81.8302 0.0227314C81.5279 0.0435753 81.2244 0.081875 80.9262 0.13815C79.6582 0.377421 78.4637 1.00373 77.6073 1.98531C77.0092 2.67075 76.5948 3.49706 76.3296 4.3657C76.0905 5.14861 75.9945 5.95395 75.9591 6.76804C75.8686 8.85015 76.373 11.1464 77.9201 12.6363C79.4002 14.0618 81.5241 14.4979 83.5076 14.2352C84.1722 14.1472 84.8282 13.9702 85.4354 13.6813C85.8427 13.4875 86.2292 13.245 86.579 12.9592C88.3661 11.4987 88.9423 9.10962 88.8883 6.88871C88.8684 6.07292 88.774 5.26191 88.5459 4.4754C88.2652 3.50803 87.7852 2.59349 87.1009 1.85367C86.2014 0.881172 84.9455 0.287878 83.6492 0.0955586C83.3135 0.0457628 82.9755 0.0107807 82.6362 0.0107807C82.5382 0.0107807 82.4398 -0.00845883 82.3421 0.00446627ZM0 13.9641H2.21104L2.37917 13.9528L2.46518 13.7228L3.21336 11.3753L3.47449 10.5416H8.48472C8.57972 10.5416 8.80365 10.4996 8.88316 10.5529C8.9351 10.5876 8.95237 10.7149 8.97123 10.7719L9.95149 13.7337C9.97118 13.7932 9.98539 13.9012 10.0297 13.9465C10.0633 13.9809 10.1509 13.9641 10.1947 13.9641H12.4167L7.61673 0.53732L7.52196 0.32455L7.35198 0.317929H5.11915L4.95572 0.335518L4.83135 0.657986L0 13.9641ZM19.6053 0.317929V13.9641H21.7945V3.79529H21.8054L24.2861 8.7316L24.9396 10.026L25.1138 10.377L25.2072 10.5303L25.3453 10.5416H27.2078L27.3533 10.5303L27.4283 10.399L30.576 4.32183L30.8565 3.76238H30.8674V13.9641H33.0676V0.317929H30.6714C30.6215 0.317929 30.5248 0.299315 30.4823 0.3292C30.4338 0.363295 30.4059 0.463232 30.38 0.515378C30.307 0.662353 30.2298 0.807117 30.1568 0.954162C29.8974 1.4762 29.6209 1.98969 29.3617 2.51184C28.7187 3.80701 28.0735 5.11043 27.3896 6.38411C27.1702 6.79255 26.9772 7.21526 26.7578 7.62367C26.6204 7.87964 26.4273 8.16663 26.3473 8.44638H26.3255L26.0232 7.82112L22.5814 0.943192L22.3636 0.504408L22.2668 0.3292L22.0668 0.317929H19.6053ZM40.2562 13.9641H42.4672L42.6353 13.9528L42.7213 13.7228L43.4695 11.3753L43.7307 10.5416H48.7409C48.8359 10.5416 49.0598 10.4996 49.1393 10.5529C49.1913 10.5876 49.2085 10.7149 49.2274 10.7719L50.2076 13.7337C50.2273 13.7932 50.2416 13.9012 50.2858 13.9465C50.3194 13.9809 50.4071 13.9641 50.4509 13.9641H52.6728L47.8729 0.53732L47.7781 0.32455L47.6081 0.317929H45.3753L45.2119 0.335518L45.0875 0.657986L40.2562 13.9641ZM59.8723 0.317929V2.24858H66.9629C66.7583 2.56035 66.5115 2.85091 66.2863 3.14808C65.8935 3.6667 65.5029 4.18714 65.11 4.70576C64.0008 6.16994 62.8998 7.64038 61.7905 9.10456C61.2539 9.81295 60.7268 10.5294 60.1836 11.2327C60.0127 11.4538 59.8446 11.6776 59.6777 11.9018C59.6123 11.9896 59.4983 12.0929 59.4646 12.198C59.4154 12.3514 59.4584 12.5851 59.4584 12.7465V13.9641H69.3591V12.1651L69.3416 12.0447L69.2066 12.0334H61.8546C62.3164 11.4474 62.7533 10.8402 63.204 10.2454C64.4074 8.65689 65.5957 7.05635 66.8066 5.47364C67.4024 4.69494 67.9802 3.90206 68.5795 3.12614C68.7643 2.88692 68.9457 2.64462 69.1263 2.40215C69.1956 2.30911 69.3205 2.19655 69.3535 2.08403C69.3997 1.92662 69.3591 1.69985 69.3591 1.53555V0.317931L59.8723 0.317929ZM96.8718 0.317931V13.9641H99.0611V3.67462H99.072L99.231 3.95983L99.5534 4.49734L104.762 13.2072L105.076 13.7337L105.219 13.9528L105.422 13.9641H107.818V0.317929H105.629V10.6074L99.952 1.11871L99.6187 0.55926L99.4708 0.329204L99.268 0.317933L96.8718 0.317931ZM82.1025 2.02135C82.4674 1.97798 82.8628 2.02305 83.2244 2.07307C83.549 2.11799 83.8711 2.213 84.172 2.34268C84.3869 2.43534 84.5925 2.55426 84.7819 2.69202C86.2745 3.77742 86.5343 5.86329 86.4597 7.57979C86.3965 9.03281 86.0675 10.6542 84.8364 11.5768C84.6039 11.751 84.3524 11.8907 84.0848 12.0021C83.7506 12.1412 83.3872 12.2233 83.0283 12.262C81.8598 12.388 80.6144 12.1729 79.7281 11.3414C79.1794 10.8266 78.8311 10.1106 78.6373 9.38978C78.4847 8.82248 78.4134 8.24183 78.388 7.65658C78.3192 6.07403 78.4903 4.21199 79.6646 3.02928C80.0966 2.59415 80.6514 2.29742 81.2421 2.1487C81.527 2.07696 81.8129 2.05578 82.1025 2.02135ZM6.18656 2.50088C6.3047 2.68998 6.34842 2.95948 6.42282 3.17002C6.60183 3.67658 6.76662 4.18824 6.94563 4.6948C7.26501 5.59858 7.56614 6.50898 7.87854 7.41525L8.1944 8.3367C8.24413 8.48097 8.32098 8.63535 8.34313 8.78645H4.05176C4.07834 8.60775 4.16916 8.41936 4.22938 8.24894C4.32716 7.97226 4.41479 7.69194 4.51256 7.41525C4.80837 6.57819 5.08511 5.73326 5.36963 4.89225C5.55651 4.33986 5.74227 3.7871 5.93229 3.23584C6.01114 3.00711 6.05888 2.70524 6.18656 2.50088ZM46.4427 2.50088C46.5609 2.68996 46.6046 2.95949 46.679 3.17002C46.858 3.67659 47.0228 4.18823 47.2018 4.6948C47.5211 5.59858 47.8223 6.50898 48.1347 7.41525L48.4505 8.3367C48.5003 8.48097 48.5771 8.63535 48.5993 8.78645H44.3079C44.3345 8.60775 44.4253 8.41936 44.4855 8.24894C44.5833 7.97226 44.6709 7.69194 44.7687 7.41525C45.0645 6.57818 45.3413 5.73326 45.6258 4.89225C45.8127 4.33986 45.9984 3.78711 46.1884 3.23584C46.2673 3.00712 46.315 2.70522 46.4427 2.50088ZM30.7912 22.1693C30.54 22.3185 30.2759 22.4575 29.9852 22.5046C29.4295 22.5945 28.8321 22.4147 28.286 22.3238C27.7965 22.2423 27.2996 22.2036 26.8048 22.1914C24.4413 22.1331 22.1643 23.4016 20.932 25.4273C19.2885 28.129 19.6182 31.9411 21.9579 34.1362C22.6203 34.7576 23.4142 35.239 24.267 35.5446C26.9581 36.5093 29.9489 35.8326 32.4032 34.5321C32.3813 34.4041 32.3065 34.2809 32.2621 34.1591C32.1855 33.9485 32.1216 33.7315 32.0764 33.5119C31.9687 32.9882 31.9784 32.4641 31.9784 31.9323C31.9784 31.4011 31.9711 30.8582 32.1137 30.3417C32.2007 30.0265 32.3442 29.7342 32.5267 29.4641C32.6298 29.3116 32.8029 29.1458 32.8606 28.9705H28.3514C28.3953 29.0855 28.4953 29.1886 28.5661 29.2886C28.7198 29.5057 28.8797 29.7253 28.9907 29.9687C29.3243 30.7007 29.2445 31.5753 29.2445 32.3601V32.9634C29.2445 33.0335 29.2664 33.1486 29.238 33.2132C29.206 33.2858 29.0096 33.3238 28.9396 33.3473C28.6311 33.4509 28.3136 33.523 27.992 33.5697C26.5587 33.7777 25.0628 33.3742 24.1232 32.2065C22.4268 30.098 22.8484 26.2512 25.3997 25.0007C25.7684 24.82 26.1595 24.6945 26.5651 24.6312C27.8393 24.4322 29.2059 24.7924 30.301 25.4542C30.5545 25.6073 30.793 25.7845 31.0199 25.9749C31.1497 26.0838 31.291 26.245 31.4447 26.3158L31.3169 25.4712L31.0136 23.5405L30.8647 22.5862L30.7912 22.1693ZM149.011 22.1959C148.836 22.2191 148.654 22.2088 148.477 22.226C148.126 22.2603 147.773 22.3189 147.432 22.4094C145.842 22.8304 144.44 23.8219 143.532 25.2079C141.919 27.6723 142.013 31.0876 143.82 33.4241C144.245 33.9739 144.758 34.4544 145.33 34.8464C145.963 35.2808 146.679 35.5954 147.421 35.7866C148.269 36.0053 149.168 36.0478 150.035 35.9331C150.708 35.8439 151.368 35.6476 151.984 35.3624C154.472 34.2122 156.002 31.5147 155.883 28.784C155.841 27.8089 155.618 26.8457 155.195 25.9648C154.375 24.2583 152.841 22.9799 151.037 22.4577C150.567 22.3217 150.086 22.2458 149.599 22.2122C149.409 22.1991 149.201 22.1709 149.011 22.1959ZM66.4728 31.8445L66.579 32.4807L67.0563 35.267L67.1698 35.9142C67.4504 35.7823 67.6831 35.606 67.9976 35.5569C68.4273 35.4897 68.8615 35.5836 69.2829 35.6685C69.7849 35.7697 70.2866 35.8742 70.7968 35.9233C72.4951 36.0868 74.3533 35.5566 75.3567 34.0713C75.6582 33.6251 75.8641 33.1146 75.9407 32.5795C75.9894 32.2388 75.9976 31.8904 75.9564 31.5483C75.9203 31.2484 75.8522 30.9526 75.7437 30.6708C75.198 29.2519 73.7554 28.5448 72.4524 27.9816C71.8979 27.7419 71.3333 27.5194 70.8077 27.2184C70.4752 27.0281 70.1345 26.7978 69.9221 26.4694C69.5761 25.9343 69.6557 25.1592 70.1324 24.7271C70.4071 24.4781 70.8006 24.3505 71.1671 24.3415C72.275 24.3141 73.3609 24.8351 74.2822 25.41C74.6397 25.6331 74.9723 25.9127 75.3387 26.1184L74.818 23.376L74.6198 22.3229C74.4736 22.3492 74.3334 22.4597 74.1951 22.5154C73.9804 22.6019 73.7497 22.6328 73.5198 22.63C72.9915 22.6237 72.4707 22.4506 71.9513 22.3698C71.1211 22.2407 70.294 22.2249 69.4789 22.4592C68.6406 22.7002 67.8691 23.2065 67.3597 23.9245C66.3756 25.3112 66.4548 27.3835 67.6386 28.6304C68.6715 29.7183 70.1059 30.1446 71.4067 30.7997C72.0129 31.1049 72.7779 31.5143 72.9157 32.2504C73.1142 33.3105 72.06 33.9945 71.1236 33.9945C69.8273 33.9945 68.6901 33.4173 67.6382 32.6964C67.2431 32.4256 66.8776 32.0984 66.4728 31.8445ZM160.491 31.8445L161.188 35.9142C161.505 35.7765 161.748 35.5872 162.103 35.5444C162.498 35.4968 162.904 35.5885 163.29 35.6663C163.796 35.7682 164.301 35.8739 164.815 35.9233C166.536 36.089 168.405 35.542 169.407 34.0275C169.703 33.5817 169.905 33.0576 169.968 32.5246C170.011 32.1668 170.012 31.8071 169.964 31.4496C169.928 31.1825 169.858 30.9226 169.763 30.6708C169.232 29.2509 167.766 28.5414 166.471 27.9816C165.891 27.7308 165.293 27.5011 164.75 27.1737C164.416 26.9722 164.098 26.735 163.896 26.3926C163.597 25.8874 163.702 25.1483 164.129 24.7482C164.408 24.4866 164.807 24.3508 165.185 24.3415C166.355 24.3126 167.49 24.8891 168.453 25.5047C168.76 25.7007 169.048 25.9264 169.357 26.1184L169.17 25.1202L168.638 22.3229C168.488 22.3498 168.344 22.4635 168.202 22.5204C167.992 22.6049 167.763 22.6327 167.538 22.63C166.993 22.6235 166.451 22.4442 165.915 22.3605C165.093 22.232 164.269 22.2333 163.464 22.4702C162.617 22.7199 161.845 23.2441 161.341 23.9793C160.381 25.3787 160.506 27.4169 161.679 28.6524C162.7 29.7282 164.138 30.1518 165.425 30.7997C166.014 31.0964 166.775 31.4951 166.926 32.2065C166.954 32.3387 166.96 32.4676 166.951 32.6014C166.887 33.4846 165.982 33.9945 165.174 33.9945C163.835 33.9945 162.678 33.3868 161.591 32.6489C161.22 32.3969 160.879 32.0671 160.491 31.8445ZM1.16542 22.3229V32.5027C1.16542 33.1182 1.18156 33.7491 1.00832 34.3456C0.896637 34.7301 0.659642 35.0576 0.413883 35.3657C0.304466 35.5029 0.138074 35.6446 0.0653503 35.8045H4.62902C4.30364 35.3253 3.88571 34.955 3.69319 34.3894C3.46073 33.7066 3.52895 32.9386 3.52895 32.2284V28.6633H3.53985L3.98488 29.2996L7.30842 33.9507H7.31931C8.19136 32.8112 9.00373 31.6179 9.83994 30.4514C10.113 30.0705 10.3854 29.6889 10.6618 29.3105C10.8123 29.1046 11.0074 28.8921 11.1206 28.6633H11.1314V32.1736C11.1314 32.8651 11.2016 33.6085 11.0038 34.2797C10.8969 34.6426 10.7106 34.9605 10.4779 35.256C10.3432 35.4271 10.1323 35.6066 10.0423 35.8045H15.0634C14.9456 35.6251 14.7878 35.4679 14.6544 35.2999C14.4343 35.0228 14.2424 34.7269 14.1276 34.3894C13.9276 33.802 13.9633 33.1579 13.9633 32.5466V22.3229H13.1355C13.0587 22.3229 12.8874 22.2908 12.8253 22.3405C12.755 22.3967 12.704 22.5023 12.6517 22.5752C12.5338 22.7397 12.4175 22.9055 12.2981 23.0688C11.8843 23.6352 11.4784 24.2081 11.0724 24.7801C10.2784 25.8987 9.47536 27.011 8.67617 28.1258C8.44564 28.4474 8.21838 28.7717 7.98497 29.0911C7.84228 29.2864 7.67614 29.4827 7.55894 29.6945L7.15429 29.135L2.4243 22.5094L2.28628 22.3342L1.96054 22.3229H1.16542ZM38.6006 22.3229V32.6014C38.6006 33.1404 38.632 33.6999 38.4871 34.2249C38.3824 34.6041 38.1967 34.9366 37.9557 35.2451C37.819 35.4201 37.6032 35.6028 37.5114 35.8045H42.0751C41.7522 35.3289 41.3347 34.961 41.1422 34.4004C40.9062 33.7133 40.975 32.9434 40.975 32.2284V28.6633H40.9859C41.0508 28.8008 41.1627 28.9237 41.2505 29.0473C41.4352 29.3072 41.6218 29.5658 41.806 29.8261C42.3925 30.6549 42.9811 31.4829 43.5765 32.3052C43.8478 32.6799 44.1145 33.0582 44.3826 33.4351C44.4962 33.5947 44.6112 33.8308 44.7654 33.9507L48.1075 29.3105L48.5775 28.6633V32.1626C48.5775 32.8712 48.6444 33.6256 48.439 34.3127C48.3291 34.68 48.1258 35.0025 47.8892 35.2999C47.7642 35.457 47.5715 35.6218 47.4883 35.8045H52.5095C52.3992 35.6367 52.2516 35.4895 52.1261 35.3328C51.9006 35.0515 51.7013 34.754 51.5803 34.4114C51.3709 33.8182 51.4094 33.1655 51.4094 32.5466V22.3229H50.5816C50.5036 22.3229 50.3346 22.291 50.2708 22.3405C50.2005 22.395 50.1475 22.5027 50.0961 22.5752C49.979 22.7402 49.8599 22.9037 49.7429 23.0688C49.3714 23.5937 48.9965 24.1167 48.6194 24.6375C47.8177 25.7449 47.0277 26.861 46.2312 27.9722L45.4143 29.1131C45.2804 29.2998 45.1068 29.4883 45.005 29.6945L44.5834 29.1131L40.1674 22.9262L39.8687 22.5094L39.7315 22.3342L39.4066 22.3229H38.6006ZM80.9044 22.3778L80.731 23.4637L80.3163 26.0087C80.5362 25.8825 80.7332 25.6978 80.9371 25.5467C81.2473 25.3168 81.5798 25.108 81.9283 24.9422C82.889 24.4852 83.9083 24.5059 84.9453 24.5059V32.7769C84.9453 33.3156 84.9475 33.8723 84.7763 34.3894C84.6633 34.7306 84.4652 35.0333 84.2416 35.3109C84.1127 35.4708 83.9474 35.6263 83.8452 35.8045H89.106C88.9938 35.6239 88.8321 35.4654 88.6987 35.2999C88.4842 35.0337 88.2906 34.7379 88.1802 34.4114C88.005 33.8933 88.0059 33.3394 88.0059 32.7989V24.5059C89.0552 24.5059 90.0868 24.4863 91.0556 24.9584C91.4256 25.1388 91.7708 25.3672 92.1012 25.6125C92.2737 25.7406 92.4429 25.9124 92.6349 26.0087L92.0821 22.6301L92.0293 22.389L91.8289 22.3778L80.9044 22.3778ZM96.5778 22.3778C96.6759 22.5936 96.9041 22.781 97.0474 22.9701C97.3344 23.349 97.5431 23.7486 97.6276 24.2207C97.753 24.9212 97.6996 25.6613 97.6996 26.3707V29.9029C97.6996 30.9382 97.7032 31.9365 98.0746 32.9195C98.4121 33.8131 99.0234 34.5981 99.8235 35.1168C100.682 35.6733 101.698 35.9358 102.71 35.9805C104.607 36.0641 106.568 35.4314 107.632 33.7422C108.081 33.0298 108.336 32.2108 108.415 31.3728C108.461 30.8866 108.439 30.3915 108.439 29.9029V26.4036C108.439 25.7031 108.391 24.9801 108.498 24.2865C108.57 23.8181 108.763 23.4006 109.048 23.025C109.155 22.8826 109.27 22.7456 109.384 22.6081C109.443 22.5361 109.522 22.4632 109.561 22.3778H105.062C105.185 22.5917 105.386 22.7749 105.537 22.9701C105.785 23.2902 105.972 23.6379 106.066 24.0342C106.167 24.4626 106.163 24.9023 106.163 25.3395V29.6396C106.163 30.3354 106.199 31.0336 106.022 31.7129C105.922 32.0951 105.757 32.4626 105.517 32.7769C105.003 33.4518 104.17 33.7625 103.342 33.7421C103.049 33.7349 102.749 33.6924 102.47 33.5996C102.264 33.5309 102.074 33.4363 101.893 33.3144C100.569 32.4213 100.76 30.5796 100.76 29.1899V25.3066C100.76 24.8849 100.76 24.4582 100.857 24.0451C100.952 23.6395 101.143 23.2868 101.397 22.9591C101.542 22.7716 101.752 22.5885 101.86 22.3778L96.5778 22.3778ZM114.255 22.3778C114.353 22.535 114.492 22.6726 114.608 22.8165C114.849 23.1155 115.076 23.4335 115.195 23.8038C115.445 24.5818 115.355 25.4547 115.355 26.261V32.6233C115.355 33.1862 115.375 33.7547 115.22 34.3017C115.113 34.6779 114.899 35.0086 114.658 35.3109C114.536 35.4645 114.347 35.6256 114.266 35.8045H118.677C119.437 35.8045 120.209 35.8434 120.965 35.7698C122.087 35.6604 123.206 35.2941 124.156 34.678C124.998 34.1322 125.715 33.4079 126.238 32.5466C127.383 30.6613 127.53 28.1811 126.614 26.1732C126.301 25.4866 125.862 24.8745 125.332 24.3413C124.858 23.8642 124.282 23.4501 123.677 23.1601C122.82 22.7503 121.919 22.5033 120.975 22.4125C120.216 22.3394 119.44 22.3778 118.677 22.3778H114.255ZM132.325 22.3778C132.643 22.8463 133.059 23.2099 133.254 23.7599C133.527 24.5321 133.436 25.4223 133.436 26.2281V32.5904C133.436 33.1508 133.451 33.7234 133.303 34.2688C133.2 34.6497 132.992 34.9825 132.749 35.289C132.616 35.4576 132.443 35.618 132.336 35.8045H137.596C137.503 35.6413 137.352 35.5013 137.235 35.3548C136.992 35.0517 136.771 34.7309 136.652 34.3565C136.41 33.5909 136.496 32.725 136.496 31.9323V25.5918C136.496 25.0288 136.477 24.4495 136.632 23.9025C136.74 23.5207 136.951 23.1898 137.196 22.8824C137.32 22.7255 137.515 22.5613 137.596 22.3778H132.325ZM148.913 24.2896C150.341 24.1199 151.535 25.1778 152.065 26.4255C152.247 26.8532 152.374 27.3051 152.45 27.7638C152.508 28.1164 152.546 28.4714 152.561 28.8279C152.572 29.0721 152.562 29.3194 152.551 29.5628C152.482 31.166 151.882 33.0728 150.242 33.6839C150.014 33.7686 149.776 33.8349 149.534 33.8611C149.169 33.9006 148.804 33.8943 148.445 33.8144C147.229 33.5439 146.425 32.4777 146.048 31.3399C145.915 30.9372 145.827 30.5209 145.773 30.1003C145.728 29.7532 145.711 29.4081 145.711 29.0582C145.711 27.3564 146.181 25.2977 147.889 24.5372C148.218 24.3907 148.559 24.3317 148.913 24.2896ZM118.427 33.7532V24.5278C119.019 24.5278 119.624 24.4922 120.213 24.5516C121.055 24.6365 121.881 24.9621 122.533 25.5089C123.833 26.5984 124.217 28.3545 123.984 29.9797C123.807 31.2213 123.197 32.4169 122.13 33.1094C121.6 33.4534 120.983 33.6661 120.355 33.7294C119.719 33.7934 119.065 33.7532 118.427 33.7532Z" fill="#4D3762"/>
</svg>
