<svg width="52" height="64" viewBox="0 0 52 64" fill="none" xmlns="http://www.w3.org/2000/svg">
<path d="M50.3711 21.8353C46.1108 24.4706 43.4795 28.9882 43.4795 34.0078C43.4795 39.6549 46.8627 44.8 52 46.9333C50.9976 50.1961 49.494 53.2078 47.6145 55.9686C44.8578 59.8588 41.9759 63.8745 37.7157 63.8745C33.4554 63.8745 32.2024 61.3647 27.1904 61.3647C22.3036 61.3647 20.5494 64 16.5398 64C12.5301 64 9.77349 60.3608 6.64096 55.8431C2.50602 49.5686 0.125301 42.2902 0 34.6353C0 22.2118 8.01928 15.5608 16.0386 15.5608C20.2988 15.5608 23.8072 18.3216 26.4386 18.3216C28.9446 18.3216 32.9542 15.4353 37.7157 15.4353C42.7277 15.3098 47.4892 17.6941 50.3711 21.8353ZM35.4602 10.1647C37.5904 7.6549 38.7181 4.51765 38.8434 1.2549C38.8434 0.878431 38.8434 0.376471 38.7181 0C35.0843 0.376471 31.7012 2.13333 29.3205 4.89412C27.1904 7.27843 25.9373 10.2902 25.812 13.5529C25.812 13.9294 25.812 14.3059 25.9373 14.6824C26.188 14.6824 26.5639 14.8078 26.8145 14.8078C30.1976 14.5569 33.3301 12.8 35.4602 10.1647Z" fill="#4D3762"/>
</svg>
