<svg width="162" height="17" viewBox="0 0 162 17" fill="none" xmlns="http://www.w3.org/2000/svg">
<path d="M0.145075 16.3507L14.2657 7.49409H21.6162C21.858 7.49409 22.0514 7.68874 22.0514 7.93206C22.0514 8.12671 21.9547 8.22403 21.858 8.2727L14.8944 12.4577C14.4591 12.7497 14.2657 13.285 14.2657 13.6743V16.3021H23.1153V0.973258C23.1153 0.681281 22.8735 0.437966 22.535 0.437966H14.1206L0 9.24596V16.3507H0.145075Z" fill="#4D3762"/>
<path d="M116.06 16.3507H128.778V12.8957H120.074V10.0246H127.086V6.56949H120.074V3.89303H128.778V0.437966H116.06V16.3507Z" fill="#4D3762"/>
<path d="M36.172 0.437966L30.0789 16.3507H34.2377L35.3016 13.3823H42.0718L43.0873 16.3507H47.3912L41.298 0.437966H36.172ZM36.5106 9.9759L38.735 3.74705L40.9112 9.9759H36.5106Z" fill="#4D3762"/>
<path d="M69.7811 3.89303V16.3507H73.7948V3.89303H78.8725V0.437966H64.6551V3.89303H69.7811Z" fill="#4D3762"/>
<path d="M58.8521 10.2192C58.8521 12.2631 57.5948 13.139 55.4187 13.139C53.3393 13.139 51.9852 12.2631 51.9852 10.2192V0.389303H47.9715V10.7058C47.9715 15.2802 52.0336 16.74 55.467 16.74C58.8521 16.74 62.9142 15.3288 62.9142 10.7058V0.389303H58.9005L58.8521 10.2192Z" fill="#4D3762"/>
<path d="M162 0.437966H157.213L151.458 6.91013V0.437966H147.445V16.3507H151.458V10.3165L156.923 16.3507H162L154.65 8.51601L162 0.437966Z" fill="#4D3762"/>
<path d="M106.582 0.437966H99.183V16.3507H106.582C112.24 16.3507 113.787 14.2096 113.787 8.2727C113.787 2.67646 112.288 0.437966 106.582 0.437966ZM106.388 12.8957H103.197V3.89303H106.388C108.903 3.89303 109.677 4.57431 109.677 8.2727C109.677 11.6304 108.855 12.8957 106.388 12.8957Z" fill="#4D3762"/>
<path d="M140.965 6.9588L137.289 6.52083C135.162 6.27752 134.581 5.74222 134.581 5.01228C134.581 4.18501 135.694 3.45507 137.821 3.45507C139.901 3.45507 140.965 4.23367 141.158 5.40158H145.123C144.93 2.09251 142.125 0 138.063 0C133.227 0 130.761 1.94652 130.761 5.40158C130.761 8.17537 132.405 9.53793 135.742 9.87857L139.465 10.2679C140.868 10.4139 141.545 10.9978 141.545 11.6791C141.545 12.5064 140.578 13.2363 138.305 13.2363C135.645 13.2363 134.581 12.555 134.436 11.1925H130.568C130.761 14.8422 133.131 16.74 138.208 16.74C142.851 16.74 145.414 14.6962 145.414 11.6304C145.365 8.90532 143.818 7.29944 140.965 6.9588Z" fill="#4D3762"/>
<path d="M88.254 0C82.4993 0 79.5495 3.55239 79.5495 8.32136C79.5495 13.139 82.5477 16.6914 88.254 16.6914C94.0086 16.6914 97.0068 13.139 97.0068 8.32136C97.0068 3.55239 94.0086 0 88.254 0ZM88.254 13.139C85.2558 13.139 83.6599 11.2898 83.6599 8.32136C83.6599 5.40158 85.3041 3.55239 88.254 3.55239C91.2522 3.55239 92.848 5.40158 92.848 8.32136C92.8964 11.3385 91.2522 13.139 88.254 13.139Z" fill="#4D3762"/>
</svg>
