<svg width="64" height="64" viewBox="0 0 64 64" fill="none" xmlns="http://www.w3.org/2000/svg">
<path d="M32.0001 0C14.3391 0 0 14.3369 0 32.0001C0 49.6633 14.318 64.0001 32.0001 64.0001C49.6822 64.0001 64.0001 49.6842 64.0001 32.0001C64.0001 14.3158 49.6822 0 32.0001 0ZM19.3431 19.3685H37.5927L34.8175 23.8105H16.5677L19.3431 19.3685ZM49.8504 41.5369L47.075 37.1159H38.9804L41.7556 32.6737H44.3207L41.2301 27.7264L32.6097 41.5369H9.5874L15.138 32.6737H11.0592L13.8345 28.2317H31.6216L28.8462 32.6737H20.3522L17.5769 37.1159H30.1289L41.2091 19.3685L55.0646 41.558H49.8293L49.8504 41.5369Z" fill="#4D3762"/>
</svg>
