<svg width="98" height="57" viewBox="0 0 98 57" fill="none" xmlns="http://www.w3.org/2000/svg">
<path fill-rule="evenodd" clip-rule="evenodd" d="M35.7505 54.0985C42.0675 52.2197 48.0025 48.8596 48.0025 48.8596H51.5536C47.1011 51.1966 43.2642 52.9096 39.916 54.1094C52.2396 53.624 64.0295 48.8751 64.0295 48.8751H65.098C65.098 48.8751 52.1971 55.1561 37.6142 54.8781C29.4198 57.4037 24.3815 56.5789 20.2067 54.4058C14.063 51.2078 15.8543 40.7796 15.8543 40.7796H16.9069C17.0483 42.0156 15.5871 50.6518 30.6241 53.5098C32.2973 53.8277 34.0166 54.0155 35.7505 54.0985ZM33.7246 54.6428C33.2051 54.5889 32.6848 54.5255 32.1641 54.4521C17.8339 52.4318 16.4496 45.1849 16.3024 41.9805C14.8763 53.0911 21.5607 55.6605 29.2572 55.3174C30.6822 55.2538 32.1973 55.0063 33.7246 54.6428ZM67.4863 8.21279C69.9213 8.408 72.3345 8.81123 74.6985 9.41777C74.3767 7.5614 73.3276 5.90287 71.7759 4.79851C65.805 0.426465 53.1877 2.71301 41.1517 8.73812C36.9844 10.837 33.0099 13.2871 29.2729 16.0609C30.3886 15.474 31.5198 14.9177 32.6983 14.4079C37.8521 12.1833 43.3202 10.5611 49.181 9.38706C53.9891 8.4291 61.1856 7.68764 67.4863 8.21279ZM27.0575 17.8067V17.8221H25.4546C30.2117 13.7406 35.4189 10.1962 40.9789 7.25502C54.0205 0.380112 68.1621 -2.43158 75.2955 2.4658C78.2811 4.50494 79.4437 7.47133 79.1453 10.9629C81.1407 11.8434 83.0262 13.002 84.5503 14.5315C85.5266 15.4905 86.3339 16.6026 86.9388 17.8221H85.1947C85.1947 17.8221 84.1419 16.1073 83.0419 15.0259C81.8483 13.8639 80.4879 12.8801 79.0038 12.106C78.7052 13.8982 78.0453 15.8293 77.0711 17.8221H73.1273C74.3528 15.1186 74.9657 12.585 74.8085 10.3912C65.208 7.42498 53.1091 9.2789 49.1339 10.0204C44.2158 10.932 38.8734 12.4151 32.8083 14.9486C30.3414 15.9684 27.0575 17.8067 27.0575 17.8067Z" fill="#5C4276"/>
<path fill-rule="evenodd" clip-rule="evenodd" d="M9.78913 23.1212H12.5861V36.3921H11.5018C11.3228 36.39 11.1442 36.3745 10.9675 36.3457C10.7685 36.3116 10.5772 36.2436 10.4019 36.1448C10.2173 36.0382 10.0611 35.8899 9.9463 35.7124C9.8267 35.4831 9.76728 35.2283 9.77342 34.9708V30.2125H2.81264V36.4075H0V23.1367H2.82836V29.0229H9.78913V23.1212ZM64.8937 36.4075V36.3921H63.8411C63.6567 36.3907 63.4729 36.3753 63.291 36.3457C63.0853 36.3188 62.8873 36.2504 62.7097 36.1448C62.5297 36.0376 62.3789 35.8892 62.2698 35.7124C62.1376 35.4872 62.0724 35.2304 62.0812 34.9708V26.1956L56.3145 36.4075H55.576L49.6523 26.1183V36.4075H48.2068V23.1367H51.0037L56.6288 32.9623L62.1441 23.1367H64.8937V36.4075ZM82.5864 36.4075V36.3921H80.858C80.4902 36.4098 80.125 36.324 79.8052 36.1448C79.5102 35.9421 79.2767 35.6646 79.1295 35.3416L74.4785 26.3655L72.1059 30.8305H75.7985L76.5055 32.19H71.3831L69.1361 36.4075H67.4863L74.7142 22.8431H75.5313L82.5864 36.4075ZM97.2464 23.1367V23.1212H97.9849V36.3921H97.7963C97.2778 36.3921 96.7435 36.423 96.3508 36.0676L86.8288 26.3965V36.4075H85.179V23.1367H86.986L96.3665 32.4217V23.8629C96.3621 23.733 96.3946 23.6045 96.4608 23.4921C96.5227 23.4001 96.603 23.3213 96.6963 23.2603C96.7803 23.2021 96.8774 23.1649 96.9792 23.1521C97.0678 23.1403 97.1571 23.135 97.2464 23.1367ZM23.3021 22.8431L30.3257 36.423H28.5973C28.2295 36.4407 27.8644 36.3549 27.5445 36.1758C27.2495 35.973 27.0161 35.6955 26.8689 35.3725L25.2505 32.2054H20.1124L20.8352 30.8459H24.5435L22.2336 26.381L16.8912 36.4075H15.2413L22.4693 22.8431H23.3021ZM35.8251 24.2953V29.3163H37.1293C37.1293 29.3163 38.4177 29.3317 39.2662 28.8684C40.1147 28.4049 40.6962 27.7405 40.6962 26.7518C40.6848 25.7722 40.0692 24.8977 39.1406 24.5425C38.6812 24.363 38.189 24.2787 37.6949 24.2953H35.8251ZM41.4346 35.3416L37.2708 30.3361H35.8251V36.4075H33.0126V23.1367H38.1821C38.1821 23.1367 40.319 23.1058 41.7175 23.7856C43.1159 24.4653 43.7129 25.4387 43.7129 26.6591C43.7129 27.8795 42.9587 29.3317 40.2875 30.0579L45.6771 36.3921H43.5243C43.188 36.3815 42.8547 36.3242 42.5346 36.2221C42.0002 36.0521 41.4346 35.3416 41.4346 35.3416Z" fill="#5C4276"/>
<path d="M38.025 41.3358L37.2236 43.0661H38.8263L38.025 41.3358ZM39.832 44.5647H39.5333L38.9363 43.2979H37.1136L36.5166 44.5647H36.218L37.9464 40.8723H38.1035L39.832 44.5647ZM74.0386 41.4594C73.6321 41.2295 73.1719 41.1072 72.7029 41.104C71.7918 41.1127 71.0602 41.8459 71.0688 42.7416C71.0776 43.6376 71.8232 44.357 72.7344 44.3483C73.2043 44.337 73.6635 44.2097 74.0701 43.9777V44.2711C73.6651 44.4895 73.2118 44.6061 72.7501 44.611C71.6189 44.611 70.7704 43.8078 70.7704 42.7262C70.7719 42.2188 70.9808 41.7332 71.3502 41.3788C71.7197 41.0243 72.2184 40.8306 72.7344 40.8414C73.1915 40.8534 73.6409 40.9586 74.0543 41.1504V41.4594H74.0386ZM76.7412 41.104C75.832 41.1125 75.1014 41.8427 75.1071 42.7364C75.1129 43.6303 75.8529 44.3512 76.7621 44.3483C77.6712 44.3455 78.4066 43.6201 78.4068 42.7262C78.4058 42.2936 78.2297 41.879 77.9171 41.5747C77.6045 41.2702 77.1811 41.1008 76.7412 41.104ZM76.7255 44.611C75.6743 44.578 74.8461 43.7192 74.8687 42.6853C74.8911 41.6514 75.7559 40.8282 76.8076 40.8395C77.8592 40.8506 78.7056 41.6923 78.7052 42.7262C78.7033 43.2363 78.4921 43.7241 78.1193 44.0789C77.7467 44.4337 77.244 44.6257 76.7255 44.611ZM82.8221 40.8877H83.1048V44.5647H82.8221V41.3049H82.8064L81.3921 43.0198L79.978 41.3049H79.9623V44.5647H79.6794V40.8877H79.9623L81.3921 42.6026L82.8221 40.8877ZM84.5191 42.6026H85.2104C85.9017 42.6026 86.1689 42.2783 86.1689 41.8611C86.1689 41.444 85.9017 41.1195 85.2418 41.1195H84.5191V42.6026ZM85.2575 40.8877C86.1375 40.8877 86.483 41.3358 86.483 41.8611C86.483 42.3401 86.2003 42.8498 85.2418 42.8498H84.5348V44.5647H84.2519V40.8877H85.2575ZM88.2115 41.3358L87.4101 43.0661H89.0128L88.2115 41.3358ZM90.0184 44.5647H89.7198L89.1228 43.2979H87.3001L86.7031 44.5647H86.4045L88.1329 40.8723H88.29L90.0184 44.5647ZM94.1037 44.5647H93.8682L91.0241 41.3512V44.5647H90.7412V40.8877H90.9769L93.8053 44.1011V40.8877H94.1037V44.5647ZM96.5392 42.5871V44.5647H96.2565V42.5871L94.7952 40.8877H95.1565L96.3979 42.3401L97.6391 40.8877H98.0006L96.5392 42.5871ZM43.8701 43.5451C43.6815 43.0661 42.346 42.8498 42.1888 42.0929C42.1447 41.9314 42.1394 41.7622 42.1731 41.5985C42.2831 40.9959 42.8173 40.7796 43.4929 40.7796C44.0272 40.7796 44.7657 40.9032 44.7657 41.7066V41.9693H43.8229V41.7375C43.8329 41.6446 43.7997 41.5525 43.7327 41.4863C43.6656 41.4204 43.5717 41.3878 43.4772 41.3976C43.3141 41.3784 43.1632 41.4862 43.1316 41.6448C43.1157 41.7108 43.1157 41.7795 43.1316 41.8457C43.2416 42.2783 44.6714 42.5099 44.8286 43.2824C44.8633 43.4818 44.8633 43.6855 44.8286 43.885C44.7343 44.5029 44.1687 44.7346 43.4929 44.7346C42.7858 44.7346 42.1259 44.4874 42.1259 43.6532V43.3751H43.1316V43.7305C43.1291 43.8268 43.1692 43.9195 43.2416 43.9847C43.3139 44.0499 43.4112 44.0812 43.5086 44.0702C43.6775 44.0985 43.8383 43.9886 43.8701 43.8232C43.9015 43.7329 43.9015 43.6352 43.8701 43.5451ZM56.1104 43.5451C55.9218 43.0661 54.6018 42.8498 54.4291 42.1083C54.385 41.9469 54.3797 41.7776 54.4134 41.6139C54.5077 41.0113 55.0576 40.795 55.7175 40.795C56.2518 40.795 56.9746 40.9186 56.9746 41.7221V42.0156H56.0475V41.7839C56.0575 41.691 56.0243 41.5986 55.9572 41.5327C55.89 41.4668 55.7962 41.4342 55.7017 41.444C55.5385 41.4247 55.3878 41.5325 55.3562 41.6912C55.3399 41.7518 55.3399 41.8157 55.3562 41.8766C55.466 42.2938 56.8803 42.5253 57.0374 43.2979C57.0716 43.4972 57.0716 43.7009 57.0374 43.9005C56.9431 44.5029 56.4088 44.7346 55.7175 44.7346C55.0261 44.7346 54.3662 44.4874 54.3662 43.6687V43.3906H55.3719V43.7459C55.3719 43.9468 55.5132 44.0702 55.7489 44.0702C55.9178 44.0985 56.0786 43.9886 56.1104 43.8232C56.1339 43.7318 56.1339 43.6363 56.1104 43.5451ZM63.9354 43.8696L63.8725 40.8877H64.7996V44.5492H63.4639L62.5211 41.4748L62.5682 44.5492H61.6412V40.8877H63.0397L63.9354 43.8696ZM46.9968 41.1658L46.4784 44.5956H45.457L46.1484 40.8877H47.8296L48.5211 44.5956H47.5155L46.9968 41.1658ZM52.4964 41.1658L51.8522 44.5956H50.8937L50.2495 41.1658L50.2181 44.5956H49.2753L49.3539 40.8877H50.8937L51.365 43.7923L51.8522 40.8877H53.3763L53.4706 44.5956H52.5121L52.4964 41.1658ZM59.2686 44.0395C59.439 44.0533 59.5934 43.941 59.6301 43.7769C59.6429 43.7316 59.6483 43.6847 59.6458 43.6378V40.9032H60.6041V43.8078C60.5414 44.5029 59.9756 44.7192 59.2843 44.7192C58.593 44.7192 58.0429 44.5029 57.9645 43.8078C57.9645 43.7614 57.9488 43.6378 57.9488 43.5605V40.9032H58.9071V43.6378C58.9037 43.6847 58.909 43.7318 58.9228 43.7769C58.9474 43.9417 59.1001 44.0578 59.2686 44.0395ZM67.125 44.0086C67.3103 44.0331 67.4828 43.911 67.5177 43.7305C67.5307 43.6853 67.5361 43.6384 67.5334 43.5914V43.0507H67.1407V42.5099H68.4762V43.4987C68.4772 43.5815 68.4718 43.664 68.4605 43.7459C68.3976 44.4256 67.8006 44.6574 67.1407 44.6574C66.4808 44.6574 65.8836 44.4101 65.8207 43.7459C65.809 43.664 65.8039 43.5815 65.805 43.4987V41.9384C65.805 41.8766 65.8207 41.753 65.8207 41.6912C65.8993 40.9959 66.4808 40.7796 67.1407 40.7796C67.8006 40.7796 68.3976 40.9959 68.4605 41.6912C68.4697 41.7733 68.4697 41.8562 68.4605 41.9384V42.062H67.5177V41.8611C67.5181 41.8144 67.5129 41.7677 67.502 41.7221C67.4625 41.553 67.3002 41.44 67.125 41.4594C66.9513 41.4462 66.7928 41.5566 66.7478 41.7221C66.7342 41.7776 66.7288 41.8349 66.7321 41.892V43.576C66.7296 43.6229 66.735 43.6698 66.7478 43.715C66.7708 43.8978 66.9387 44.0286 67.125 44.0086Z" fill="#5C4276"/>
</svg>
