<svg width="64" height="64" viewBox="0 0 64 64" fill="none" xmlns="http://www.w3.org/2000/svg">
<path d="M32.0892 0.000172855L25.2041 19.3042L29.8845 19.3057C33.256 19.3067 34.6908 21.965 33.6291 24.942L26.783 44.1367H19.894L27.4262 23.0162H23.8791L16.3476 44.1367H9.39908L24.8539 0.800758C10.6215 4.04761 0 16.7825 0 31.9988C0 46.9783 10.2925 59.552 24.1908 63.0382L39.805 19.1966H51.1132C53.452 19.1966 56.3937 20.7737 55.1225 24.3631L48.7735 42.2905C47.9625 44.5804 46.0347 45.0445 44.499 45.0445H37.5473L30.8049 63.9755C31.2019 63.99 31.5996 64 31.9999 64C49.6729 64 64 49.6733 64 31.9994C64 14.3555 49.7209 0.048001 32.0882 0L32.0892 0.000172855ZM45.4109 22.9645L38.8528 41.3738H42.3451L48.9044 22.9645H45.4109Z" fill="#5C4276"/>
</svg>
