<svg width="152" height="10" viewBox="0 0 152 10" fill="none" xmlns="http://www.w3.org/2000/svg">
<path fill-rule="evenodd" clip-rule="evenodd" d="M147.888 4.54103C147.888 2.60302 147.032 1.78601 145.04 1.78601H126.894V7.35304H145.04C147.013 7.35304 147.888 6.46004 147.888 4.54103ZM152.001 4.54103C152.001 7.35304 149.544 8.93005 147.236 8.93005H123.004V0.228001H147.255C149.563 0.228001 152.001 1.72901 152.001 4.54103ZM78.9504 1.78601H100.987V0.228001H76.7542C74.4464 0.228001 71.9896 1.74801 71.9896 4.54103C71.9896 7.35304 74.4464 8.93005 76.7542 8.93005H101.005V7.37204H78.9504C76.9776 7.37204 76.1028 6.46004 76.1028 4.54103C76.1028 2.60302 76.9403 1.78601 78.9504 1.78601ZM6.49545 7.33404C4.69012 7.33404 3.88982 6.55504 3.88982 4.80703V0.209001H0V4.80703C0 7.46704 2.32645 8.91105 4.50401 8.91105H28.0849V7.35304L6.49545 7.33404ZM60.1527 0.228001V7.37204H41.7644C39.9591 7.37204 39.1588 6.59304 39.1588 4.84503V0.228001H35.269V4.82603C35.269 7.48604 37.5954 8.93005 39.773 8.93005H64.0425V0.228001H60.1527ZM110.106 9.12005H113.884V0H110.106V9.12005Z" fill="#4D3762"/>
</svg>
