<svg width="134" height="37" viewBox="0 0 134 37" fill="none" xmlns="http://www.w3.org/2000/svg">
<path d="M126.84 17.2267L134.001 36.1802C131.902 35.8924 129.762 35.4813 127.622 35.1524L123.589 24.6683L119.432 34.289C117.415 33.9601 115.399 33.8367 113.341 33.5901L120.625 17.0212L114.041 0H120.173L123.877 9.49731L127.828 0H134.001L126.84 17.2267ZM109.226 0H103.67V32.85C105.48 32.9734 107.374 33.0556 109.226 33.2612V0ZM98.8956 32.48C93.8335 32.1511 88.7715 31.8222 83.6271 31.7399V0H89.2653V26.3951C92.5166 26.4774 95.7678 26.724 98.8956 26.8885V32.48ZM77.5773 18.5013H69.8401V31.3699H64.2431V0H80.0878V5.6326H69.8401V12.8275H77.5773V18.5013ZM54.7362 5.6326V31.6577C52.8431 31.6577 50.9088 31.6577 49.0568 31.7399V5.6326H43.2128V0H60.6214V5.6326H54.7362ZM37.1219 18.7891C34.6526 18.7891 31.6894 18.7891 29.5905 18.9124V27.2996C32.9241 27.053 36.2165 26.8063 39.5912 26.6829V32.11L23.9522 33.3434V0H39.5912V5.6326H29.5905V13.2387C31.7717 13.2387 35.1464 13.1153 37.1219 13.1153V18.7891ZM5.76171 15.6233V35.358C3.74511 35.6046 1.93429 35.8924 0 36.1802V0H5.39131L12.7581 20.557V0H18.4375V33.8367C16.4209 34.1657 14.4043 34.289 12.2642 34.5768L5.76171 15.6233Z" fill="#4D3762"/>
</svg>
