<svg width="152" height="16" viewBox="0 0 152 16" fill="none" xmlns="http://www.w3.org/2000/svg">
<path d="M4.43281 3.52349H8.38328C9.61244 3.52349 10.1515 4.08285 10.1515 5.38666C10.1515 6.69149 9.61244 7.25287 8.38328 7.25287H4.43281V3.52349ZM0 15.2522H4.43281V10.3194H10.0426C13.6161 10.3194 14.7353 7.83251 14.7353 5.38666C14.7353 2.58988 13.4499 0.456918 9.83538 0.456918H0V15.2522ZM16.6176 15.2522H21.0519V0.456918H16.6176V15.2522ZM22.5223 15.2522H28.0176L30.8508 10.7764L33.6836 15.2522H39.1758L33.4019 7.56323L38.5633 0.456918H33.2914L30.8508 4.43479L28.4097 0.456918H23.1379L28.2982 7.56323L22.5223 15.2522ZM39.4383 7.8528C39.4383 13.987 43.4065 15.7066 48.1002 15.7066C52.796 15.7066 56.7642 13.987 56.7642 7.8528C56.7637 1.72067 52.7955 0 48.1002 0C43.4065 0 39.4383 1.72067 39.4383 7.8528ZM44.1346 7.8528C44.1346 4.76594 45.7356 3.31557 48.0997 3.31557C50.4856 3.31557 52.0684 4.76594 52.0684 7.8528C52.0684 10.961 50.4856 12.3895 48.0997 12.3895C45.7361 12.3895 44.1346 10.9615 44.1346 7.8528ZM58.7579 15.2522H62.9288V4.18579H62.9683L66.4694 15.2522H70.1199L73.624 4.18579H73.6605V15.2522H77.8339V0.456918H71.3516L68.3136 10.2155H68.2771L65.2402 0.456918H58.7579V15.2522ZM79.8281 7.8528C79.8281 13.987 83.7943 15.7066 88.491 15.7066C93.1863 15.7066 97.154 13.987 97.154 7.8528C97.1535 1.72067 93.1858 0 88.4905 0C83.7943 0 79.8281 1.72067 79.8281 7.8528ZM84.5223 7.8528C84.5223 4.76594 86.1254 3.31557 88.4905 3.31557C90.8759 3.31557 92.4587 4.76594 92.4587 7.8528C92.4587 10.961 90.8759 12.3895 88.4905 12.3895C86.1254 12.3895 84.5223 10.9615 84.5223 7.8528ZM99.1457 15.2522H103.432V5.90646H103.47L109.84 15.2517H114.739V0.456918H110.455V9.718H110.417L104.251 0.456918H99.1457V15.2522ZM117.424 15.2522H126.459C130.277 15.2522 133.368 13.6776 133.368 7.8533C133.368 2.92255 131.153 0.457425 127.035 0.457425H117.424V15.2522ZM121.858 3.77198H125.21C127.578 3.77198 128.787 5.07782 128.787 7.83251C128.787 9.86253 128.098 11.9346 125.563 11.9346H121.858V3.77198ZM134.674 7.8528C134.674 13.987 138.641 15.7066 143.339 15.7066C148.033 15.7066 152 13.987 152 7.8528C151.999 1.72067 148.033 0 143.338 0C138.641 0 134.674 1.72067 134.674 7.8528ZM139.37 7.8528C139.37 4.76594 140.972 3.31557 143.338 3.31557C145.722 3.31557 147.305 4.76594 147.305 7.8528C147.305 10.961 145.722 12.3895 143.338 12.3895C140.972 12.3895 139.37 10.9615 139.37 7.8528Z" fill="#4D3762"/>
</svg>
