<svg width="140" height="19" viewBox="0 0 140 19" fill="none" xmlns="http://www.w3.org/2000/svg">
<path d="M91.1909 5.7923H86.9427L88.6109 8.1785H90.7641L88.9601 18.3776H92.7233L94.5274 8.1785H99.2411L91.8116 2.25149L91.1909 5.7923Z" fill="#5C4276"/>
<path d="M17.5748 0H0.465556L0 2.67485H6.65358L3.86024 18.3776H7.62349L10.4168 2.67485H17.1092L17.5748 0Z" fill="#5C4276"/>
<path d="M22.3079 10.7571H15.7707C16.1587 9.46782 17.439 7.69741 19.7474 7.69741C22.2691 7.67817 22.5407 9.58328 22.3079 10.7571ZM20.3681 5.52289C15.5767 5.52289 12.5118 8.50564 11.9105 11.9887C11.2315 15.8374 13.6175 18.6662 18.4477 18.6662C20.6009 18.6662 22.6183 18.2621 24.2671 17.3577L24.7715 14.4904C23.1614 15.6257 21.1246 16.2608 19.3982 16.2608C16.9928 16.2608 15.0724 15.2601 15.3828 12.9894H25.334C25.4504 12.72 25.6056 12.2389 25.7026 11.6616C26.1875 8.87127 25.1982 5.52289 20.3681 5.52289Z" fill="#5C4276"/>
<path d="M36.9923 5.52289C34.6452 5.52289 32.8799 6.48507 32.0458 7.46649H31.9488L28.6317 5.52289C28.5153 6.61977 28.3407 8.10153 28.0886 9.54479L26.5367 18.3776H30.3L31.5996 10.9688C31.6578 10.6032 31.7936 10.2183 31.9488 9.96815C32.5114 8.98673 33.6946 8.10153 35.1883 8.10153C37.2445 8.10153 37.8071 9.48706 37.4967 11.2767L36.2746 18.3776H40.0378L41.3569 10.9111C42.0553 6.92767 39.5917 5.52289 36.9923 5.52289Z" fill="#5C4276"/>
<path d="M82.1707 5.52289C79.8235 5.52289 78.0583 6.48507 77.2242 7.46649H77.1272L73.8101 5.52289C73.6937 6.61977 73.5191 8.10153 73.2669 9.54479L71.7151 18.3776H75.4783L76.8168 10.9688C76.875 10.6032 77.0108 10.2183 77.166 9.96815C77.7285 8.98673 78.9118 8.10153 80.4055 8.10153C82.4617 8.10153 83.0242 9.48706 82.7139 11.2767L81.453 18.3776H85.2162L86.5353 10.9111C87.2336 6.92767 84.7701 5.52289 82.1707 5.52289Z" fill="#5C4276"/>
<path d="M67.5057 10.7571H60.9491C61.3371 9.46782 62.6173 7.69741 64.9257 7.69741C67.4475 7.67817 67.7191 9.58328 67.5057 10.7571ZM65.5465 5.52289C60.7551 5.52289 57.6902 8.50564 57.0889 11.9887C56.4099 15.8374 58.7959 18.6662 63.626 18.6662C65.7792 18.6662 67.7967 18.2621 69.4455 17.3577L69.9499 14.4904C68.3398 15.6257 66.303 16.2608 64.5766 16.2608C62.1712 16.2608 60.2508 15.2601 60.5611 12.9894H70.5124C70.6288 12.72 70.784 12.2389 70.881 11.6616C71.3659 8.87127 70.3766 5.52289 65.5465 5.52289Z" fill="#5C4276"/>
<path d="M42.9476 11.9117C42.2686 15.8182 45.0232 18.647 49.6787 18.647C51.541 18.647 53.7524 18.1274 54.5865 17.8003L55.1878 14.4326C53.8882 15.8374 52.1035 16.1261 50.8426 16.1261C48.2821 16.1261 46.3423 14.6443 46.7884 12.0657C47.1764 9.75647 49.3878 7.98606 52.2587 7.98606C53.4226 7.98606 55.0132 8.37094 56.0219 9.6795L56.6039 6.25415C55.7892 5.94625 54.4895 5.50365 52.5691 5.50365C47.351 5.52289 43.6071 8.15926 42.9476 11.9117Z" fill="#5C4276"/>
<path d="M116.35 8.46715C116.001 8.06304 115.613 7.428 115.38 6.96616H114.604C114.178 7.48573 113.557 8.06304 113.014 8.46715H116.35ZM115.574 10.0259H110.977L112.354 10.6417L112.102 11.8925H115.148L115.574 10.0259ZM117.766 9.73723L117.281 11.8925H118.31C119.008 11.8925 119.512 12.0465 119.376 12.8932C119.144 14.4326 118.717 16.5687 118.387 18.3776H112.8L112.335 16.7419H116.447C116.641 15.8759 116.874 14.7983 116.99 13.9323C117.029 13.6437 116.913 13.5282 116.622 13.5282H109.658L110.279 10.1798C109.774 10.4108 109.018 10.6609 108.281 10.7956L108.727 8.77505C110.026 8.46715 111.346 7.83212 112.16 6.94691H109.057L109.406 5.36895H113.247C113.46 5.08029 113.615 4.69542 113.712 4.42601H109.561L109.871 2.79031H111.365L110.841 0.384871H112.956L113.46 2.8288H114.197C114.43 2.02057 114.604 0.942933 114.624 0.0384871H116.777C116.738 0.942933 116.602 2.00133 116.408 2.8288H117.262C117.592 2.0783 117.941 1.1931 118.213 0.384871H120.366C120.075 1.13537 119.687 2.05906 119.338 2.8288H120.851L120.443 4.4645H115.943C115.865 4.73391 115.691 5.13802 115.555 5.40743H121.083L120.715 6.9854H117.495C118.193 8.00531 119.842 8.77505 121.122 9.04446L120.405 10.8341C119.493 10.6417 118.542 10.2183 117.766 9.73723ZM115.419 15.9336H108.3L108.009 14.3364H115.768V14.3557L115.419 15.9336ZM107.039 2.27074H105.992C105.817 3.2714 105.662 4.31055 105.449 5.38819H106.865L107.388 2.65561C107.466 2.34771 107.33 2.27074 107.039 2.27074ZM106.593 7.04313H105.138C104.925 8.12077 104.692 9.25614 104.459 10.3723H105.972L106.593 7.04313ZM109.522 1.69343C108.494 7.2933 107.563 12.8162 106.515 18.3968H104.401C104.828 16.2993 105.293 14.067 105.662 12.008H104.149C103.683 14.1632 103.198 16.3378 102.752 18.3968H100.638C102.422 12.7585 103.295 6.94691 104.304 0.538819H108.261C109.289 0.538819 109.697 0.712011 109.522 1.69343Z" fill="#5C4276"/>
<path d="M138.639 0.558062H128.843L129.27 2.40544H136.583C137.068 2.40544 137.3 2.46317 137.184 3.00199C136.912 4.50299 136.621 6.02323 136.33 7.50498H133.149L133.692 4.34904L131.462 3.05972L130.647 7.50498H128.28L127.97 9.35236H130.298C129.813 12.3543 129.231 15.4141 128.61 18.3968H131.151C131.733 15.3756 132.334 12.3543 132.839 9.35236H136.001C135.477 12.3736 134.895 15.4718 134.294 18.3968H138.775L139.551 16.5302H137.165C138.115 11.7578 139.085 6.79297 139.939 1.98208C140.132 0.962177 139.919 0.558062 138.639 0.558062ZM127.873 4.38753C127.562 2.92502 127.155 1.40478 126.825 0H124.459C124.769 1.44326 125.118 2.98275 125.39 4.38753H127.873ZM122.694 5.36895H127.097C126.651 8.27472 126.146 11.2382 125.584 14.1825C126.418 13.5667 127.31 12.8932 128.106 12.2004L127.64 14.8945C126.146 16.1453 124.09 17.6078 122.209 18.6662C123.023 14.8945 123.78 10.9111 124.323 7.21632H122.344L122.694 5.36895Z" fill="#5C4276"/>
</svg>
