<svg width="151" height="48" viewBox="0 0 151 48" fill="none" xmlns="http://www.w3.org/2000/svg">
<path d="M54.3983 15.028V25.7062C54.3983 30.042 57.3539 32.8056 61.6585 32.8056C66.1863 32.8056 68.9577 29.8912 68.9577 25.4138V15.028H65.1254V25.2187C65.1254 27.6601 63.8959 29.1741 61.6993 29.1741C59.292 29.1741 58.2308 27.433 58.2308 25.4138V15.028H54.3983ZM70.821 15.1755V32.6314H76.9251C80.3058 32.6314 83.1785 30.9071 83.1785 27.4872C83.1785 23.9175 80.0548 23.1263 80.0548 23.1263C80.0548 23.1263 82.3678 22.4838 82.3678 19.4298C82.3678 16.3778 79.4442 15.1755 76.9251 15.1755H70.821ZM74.6821 18.4911H76.535C77.821 18.4911 78.6438 19.1684 78.6438 20.347C78.6438 21.4013 77.9457 22.1968 76.6325 22.1968H74.6822L74.6821 18.4911ZM74.6821 24.9274H76.73C78.6558 24.9274 79.3235 25.9166 79.3235 27.0971C79.3235 28.4708 78.4597 29.2761 76.9251 29.2761H74.6822V24.9275L74.6821 24.9274ZM84.629 15.1743H88.481V32.6301H84.629V15.1743ZM126.66 32.6301H122.808V15.1743H134.9V18.7825H126.66V22.7808H134.168V25.7062H126.66V32.6301ZM136.314 15.1743V18.7825H141.287V32.6301H145.188V18.7825H150.064V15.1743H136.314ZM92.8785 26.8259L89.8184 29.0632C89.8184 29.0632 90.8758 32.9305 96.1768 32.9305C99.7069 32.9305 102.304 30.8704 102.304 27.2487C102.304 21.4121 94.1433 22.6503 94.1433 19.6487C94.1433 18.8587 94.8457 18.161 96.1422 18.161C98.2224 18.161 99.0129 20.2015 99.0129 20.2015L102.074 18.0533C102.074 18.0533 100.878 14.8664 96.2959 14.8664C92.53 14.8664 90.5296 17.2825 90.5296 19.7755C90.5296 25.7235 98.4532 24.4325 98.4532 27.5541C98.4532 28.6075 97.6231 29.3815 96.3303 29.3726C93.7688 29.3726 92.8785 26.8259 92.8785 26.8259ZM112.251 14.8584C107.715 14.8584 105.693 17.3207 105.693 17.3207L106.278 17.9058C106.278 17.9058 103.343 19.9904 103.343 24.467C103.343 29.6181 107.316 32.9267 112.272 32.9267C118.031 32.9267 121.299 28.6774 121.299 23.9001C121.299 18.8059 117.568 14.8584 112.251 14.8584ZM112.333 18.4818C115.409 18.4818 117.404 20.8326 117.404 23.8849C117.404 26.9056 115.433 29.3216 112.333 29.3216C109.271 29.3216 107.259 27.1833 107.259 24.3451C107.259 21.762 109.009 20.6363 109.009 20.6363L108.375 20.0024C108.375 20.0024 109.724 18.4818 112.333 18.4818ZM21.5432 0C6.78898 0 0.420489 13.1328 0.420489 13.1328L2.29511 14.4748C2.29511 14.4748 -0.0639514 18.961 0.00133032 24.7151C0.00133032 36.4616 9.35181 47.5268 23.1165 47.5268C35.6212 47.5268 45.9508 37.3488 45.9508 24.744C45.9508 8.30461 33.2024 0 21.5432 0ZM21.6712 4.00737C33.1987 4.00737 42.1437 13.2966 42.1437 24.0958C42.1437 35.5436 33.5336 43.5049 23.5005 43.5049C16.1163 43.5049 9.45504 37.8817 9.45504 30.1718C9.45504 25.7188 11.8219 22.6143 14.4741 20.9597L14.8622 21.3809C14.1364 21.9488 12.0668 25.2733 12.0668 28.5409C12.0668 34.6069 16.8237 38.808 22.8171 38.808C30.4516 38.808 35.5432 32.2965 35.5432 24.7358C35.5432 15.9391 27.7784 8.47099 18.4339 8.47099C13.2655 8.47099 8.87885 10.6937 6.3582 12.6559L5.96594 12.3009C9.26362 7.21623 14.9744 4.00737 21.6712 4.00737ZM18.2316 12.4226C24.1947 12.4226 30.0166 16.3676 31.4697 21.9672L30.9412 22.1674C28.332 18.7219 24.0566 15.8664 19.0079 15.8664C9.71774 15.8664 4.83881 24.3083 5.55505 31.359L5.00797 31.5593C5.00797 31.5593 3.98187 29.2952 3.98187 26.6105C3.98187 18.8359 10.3665 12.4226 18.2316 12.4226ZM22.1729 22.1798C24.9961 22.1798 27.2539 24.4681 27.2539 27.1844C27.2539 29.4323 25.8107 30.7644 25.8107 30.7644L27.5202 31.9598C27.5202 31.9598 25.8251 34.621 22.3649 34.621C19.0551 34.621 16.1278 31.9496 16.1278 28.3571C16.1278 24.6554 19.3119 22.1798 22.1729 22.1798Z" fill="#5C4276"/>
</svg>
