<svg width="512" height="512" viewBox="0 0 512 512" fill="none" xmlns="http://www.w3.org/2000/svg">
<g clip-path="url(#clip0_1471_12667)">
<g clip-path="url(#clip1_1471_12667)">
<path d="M0.307203 236.902C1.1008 227.43 4.48 211.021 6.5792 201.139C23.5008 121.805 83.0208 46.1824 160.691 20.3776V389.734H411.443C419.84 389.734 446.259 381.158 455.168 377.446C468.685 371.814 480.691 363.648 491.597 354.074C465.357 424.038 401.024 480.896 329.242 501.094C314.01 505.37 290.611 510.694 275.226 512H239.59C223.667 508.16 207.155 507.136 191.206 503.117C103.936 481.152 29.7984 406.63 8.704 318.925C5.0176 303.59 4.0704 287.744 0.307203 272.538C1.024 260.89 -0.665597 248.397 0.307203 236.877V236.902Z" fill="#8E4CFF"/>
<path d="M265.062 211.43H375.808C378.394 211.43 392.55 217.498 395.75 219.494C427.213 238.925 420.122 291.226 384.794 301.952C382.771 302.566 366.669 305.69 365.619 305.69H268.877L265.062 301.875V211.456V211.43Z" fill="#8E4CFF"/>
<path d="M265.062 137.549V48.4096H373.248C374.861 48.4096 384.205 53.8624 386.611 55.424C406.528 68.3776 414.49 96.5376 401.152 117.069C398.106 121.754 380.339 137.574 375.808 137.574H265.062V137.549Z" fill="#8E4CFF"/>
<path d="M489.062 147.738C496.128 167.706 505.523 187.264 506.906 208.845L491.674 192.282C477.773 180.736 460.928 174.003 443.29 170.624L489.062 147.738Z" fill="#8E4CFF"/>
</g>
</g>
<defs>
<clipPath id="clip0_1471_12667">
<rect width="512" height="512" fill="white"/>
</clipPath>
<clipPath id="clip1_1471_12667">
<rect width="512" height="512" fill="white"/>
</clipPath>
</defs>
</svg>
