<svg width="186" height="40" viewBox="0 0 186 40" fill="none" xmlns="http://www.w3.org/2000/svg">
<path d="M120.657 39.9998C119.874 39.9998 119.243 39.712 118.831 39.1672C118.408 38.6071 118.297 37.8256 118.528 37.0233L119.955 32.0604C120.427 30.4193 122.15 29.0843 123.796 29.0843H126.995C127.376 29.0843 127.71 28.8331 127.815 28.4686L128.367 26.5493C128.441 26.2923 128.389 26.0161 128.228 25.8027C128.067 25.5896 127.815 25.4643 127.547 25.4643L120.536 25.4655C120.496 25.4601 120.46 25.4576 120.42 25.4576H118.057C117.275 25.4576 116.643 25.1698 116.231 24.625C115.808 24.0649 115.698 23.2834 115.929 22.4816L116.204 21.5232C116.278 21.2666 116.226 20.9904 116.065 20.777C115.904 20.564 115.652 20.4386 115.384 20.4386H114.479C114.099 20.4386 113.764 20.6898 113.66 21.0548L113.249 22.4816C112.778 24.1226 111.055 25.4576 109.409 25.4576H106.218C105.838 25.4576 105.504 25.708 105.398 26.0717L104.491 29.2014C104.487 29.2134 104.477 29.2454 104.474 29.2574L103.179 33.7296C103.173 33.7449 103.165 33.7695 103.161 33.7853L102.224 37.0225C101.752 38.6648 100.029 39.9998 98.3834 39.9998H93.4068C92.624 39.9998 91.9925 39.712 91.5809 39.1672C91.1577 38.6075 91.0473 37.826 91.278 37.0238L95.4491 22.5958C95.4543 22.5808 95.4639 22.5509 95.4684 22.5356L95.7599 21.5241C95.834 21.2675 95.7828 20.9909 95.6217 20.7774C95.4605 20.564 95.2082 20.4386 94.9404 20.4386H94.0448C93.6648 20.4386 93.3308 20.6894 93.2255 21.0532L91.4098 27.327C91.4044 27.3424 91.3965 27.3673 91.3921 27.3827L90.7069 29.7508C90.235 31.3935 88.5121 32.7289 86.8663 32.7289H81.8897C81.1067 32.7289 80.4752 32.4411 80.0636 31.8964C79.6405 31.3358 79.53 30.5543 79.7609 29.7525L82.785 19.2817C82.8591 19.0251 82.8079 18.7486 82.6469 18.5347C82.4858 18.3213 82.2335 18.1959 81.9655 18.1959H81.0644C80.6841 18.1959 80.3497 18.4471 80.2448 18.8117L78.9554 23.2892C78.9502 23.3042 78.9423 23.3287 78.9379 23.344L77.0822 29.7508C76.6096 31.3935 74.8868 32.7289 73.2412 32.7289H68.2646C67.4818 32.7289 66.8503 32.4411 66.4387 31.8964C66.0154 31.3362 65.9051 30.5547 66.1358 29.7525L67.5628 24.7895C67.5682 24.7745 67.5759 24.7509 67.5803 24.7355L69.1623 19.273C69.2367 19.0164 69.1857 18.7394 69.0247 18.526C68.8636 18.3125 68.611 18.1867 68.3431 18.1867H67.4505C67.0706 18.1867 66.7366 18.4375 66.6313 18.8013L66.502 19.2481C66.4974 19.2609 66.4876 19.2913 66.4838 19.3041L63.5741 29.3467C63.5697 29.36 63.5591 29.3924 63.5554 29.4057L63.4561 29.7541C62.9847 31.3935 61.2618 32.7289 59.616 32.7289H54.6394C53.8566 32.7289 53.2251 32.4411 52.8136 31.8963C52.3903 31.3362 52.2799 30.5547 52.5106 29.7524L52.7849 28.7982C52.8587 28.5416 52.8073 28.2655 52.6462 28.052C52.4851 27.839 52.2329 27.7136 51.9652 27.7136H51.0633C50.6835 27.7136 50.3494 27.964 50.244 28.3281L49.832 29.7508C49.3596 31.3935 47.6367 32.7289 45.9909 32.7289H42.7657C42.3853 32.7289 42.0507 32.9801 41.946 33.3447L40.8881 37.0233C40.4165 38.6648 38.6937 39.9997 37.0477 39.9997H32.0711C31.2881 39.9997 30.6566 39.712 30.245 39.1672C29.8218 38.607 29.7114 37.8255 29.9423 37.0233L30.8651 33.8135C30.9389 33.5569 30.8875 33.2808 30.7264 33.0673C30.5653 32.8543 30.3131 32.7289 30.0454 32.7289H27.3894C26.6068 32.7289 25.9753 32.4411 25.5633 31.8963C25.1402 31.3362 25.0296 30.5547 25.2604 29.7528L25.5348 28.7982C25.6085 28.5416 25.557 28.2655 25.3959 28.052C25.2348 27.839 24.9827 27.7136 24.7149 27.7136H23.8103C23.4299 27.7136 23.0955 27.9648 22.9906 28.3294L22.5812 29.7524C22.1095 31.3939 20.3866 32.7289 18.7408 32.7289L11.9242 32.7409L6.93303 32.7413C6.15022 32.7413 5.51874 32.4536 5.10714 31.9088C4.68408 31.3486 4.57352 30.5671 4.80424 29.7653L5.73091 26.5426C5.8048 26.2856 5.75338 26.0095 5.59225 25.796C5.43111 25.583 5.17899 25.4576 4.91122 25.4576H2.24691C1.4641 25.4576 0.83262 25.1698 0.421025 24.625C-0.00203944 24.0649 -0.112603 23.2834 0.118117 22.4816L2.59903 13.884C2.60359 13.8711 2.61382 13.8387 2.61775 13.8259L3.41868 11.0566C3.42597 11.0367 3.4322 11.0172 3.43804 10.9968L3.65332 10.2473C4.12508 8.60628 5.84774 7.27087 7.49352 7.27087H10.6813C11.0616 7.27087 11.3962 7.01966 11.501 6.65509L12.5551 2.98933C13.0269 1.34786 14.7497 0.0128838 16.3957 0.0128838L23.2278 0H28.2033C28.9861 0 29.6176 0.28778 30.0292 0.832556C30.4524 1.39272 30.5628 2.17421 30.3321 2.97645L28.9051 7.93985C28.4331 9.58089 26.7102 10.9159 25.0644 10.9159L18.2324 10.9283H15.046C14.6658 10.9283 14.3314 11.1795 14.2263 11.5437L12.8207 16.4216C12.8155 16.4369 12.8076 16.4615 12.8032 16.4768L11.5701 20.7355C11.4955 20.9926 11.5467 21.2695 11.7083 21.4834C11.8694 21.6964 12.1216 21.8218 12.3893 21.8218C12.39 21.8218 16.9039 21.8131 16.9039 21.8131H21.8794C22.6622 21.8131 23.2937 22.1009 23.7053 22.6456C24.1286 23.2058 24.2389 23.9873 24.0082 24.7895L23.724 25.7787C23.6501 26.0353 23.7016 26.3114 23.8627 26.5248C24.0238 26.7379 24.276 26.8633 24.5437 26.8633H25.4484C25.8285 26.8633 26.1629 26.6121 26.2681 26.2479L26.8046 24.3864C26.8098 24.371 28.795 17.5199 28.795 17.5199C29.2672 15.8772 30.99 14.5423 32.636 14.5423H35.8127C36.1931 14.5423 36.5277 14.291 36.6324 13.926L37.6873 10.2565C38.1595 8.6155 39.8826 7.2801 41.5282 7.2801H46.5045C47.2874 7.2801 47.9188 7.56788 48.3304 8.11265C48.7537 8.67282 48.8643 9.45431 48.6336 10.2561L47.7131 13.4576C47.6392 13.7142 47.6906 13.9904 47.8518 14.2038C48.0129 14.4169 48.265 14.5423 48.5328 14.5423H51.2377C52.0205 14.5423 52.652 14.83 53.0636 15.3748C53.4869 15.935 53.5973 16.7165 53.3664 17.5187L50.9831 25.7778C50.909 26.0345 50.9602 26.311 51.1213 26.5245C51.2823 26.7379 51.5346 26.8633 51.8026 26.8633H52.6987C53.0786 26.8633 53.4128 26.6125 53.5182 26.2483L54.6401 22.3667C54.6441 22.3551 54.6541 22.3239 54.6576 22.3123L57.5676 12.2693C57.573 12.2535 57.5811 12.2281 57.5857 12.2124L58.1533 10.2487C58.6255 8.60641 60.3483 7.271 61.9941 7.271H73.7802C74.5628 7.271 75.1943 7.55916 75.6061 8.10398C76.0294 8.66372 76.14 9.44521 75.9093 10.247L74.9861 13.4573C74.9122 13.7143 74.9637 13.9904 75.1248 14.2034C75.2859 14.4169 75.538 14.5423 75.8058 14.5423H76.7354C77.1158 14.5423 77.4504 14.2911 77.5551 13.9265L78.6103 10.2566C79.0822 8.61555 80.8051 7.28014 82.4509 7.28014H87.4275C88.2103 7.28014 88.8418 7.56792 89.2534 8.1127C89.6766 8.67286 89.787 9.45435 89.5563 10.2566L88.636 13.4577C88.5621 13.7143 88.6136 13.9904 88.7747 14.2039C88.9358 14.4169 89.188 14.5423 89.4557 14.5423H92.113C92.8958 14.5423 93.5272 14.8301 93.9388 15.3749C94.3619 15.935 94.4725 16.7165 94.2417 17.5183L93.9586 18.5037C93.8847 18.7603 93.9361 19.0364 94.0972 19.2499C94.2584 19.4629 94.5105 19.5883 94.7783 19.5883H95.6798C96.0595 19.5883 96.3935 19.3379 96.4991 18.9742L99.0284 10.2492C99.5006 8.60602 101.223 7.27104 102.869 7.27104H106.069C106.449 7.27104 106.783 7.01983 106.888 6.65526L107.946 2.97662C108.418 1.33515 110.141 0.000170083 111.787 0.000170083H116.763C117.546 0.000170083 118.178 0.28795 118.59 0.832726C119.013 1.39289 119.123 2.17438 118.892 2.97662L117.465 7.94002C116.993 9.58107 115.271 10.916 113.625 10.916H110.425C110.045 10.916 109.71 11.1673 109.606 11.5323L109.052 13.4577C108.978 13.7143 109.029 13.9905 109.191 14.2039C109.352 14.4169 109.604 14.5423 109.872 14.5423H112.548C113.33 14.5423 113.962 14.8301 114.374 15.3749C114.797 15.9346 114.907 16.7161 114.676 17.5184L114.393 18.5037C114.319 18.7604 114.371 19.0365 114.532 19.2499C114.693 19.463 114.945 19.5884 115.213 19.5884H116.118C116.498 19.5884 116.832 19.338 116.937 18.9738L119.463 10.2492C119.936 8.60645 121.658 7.27104 123.304 7.27104H128.281C129.064 7.27104 129.695 7.55882 130.107 8.1036C130.53 8.66377 130.64 9.44525 130.409 10.2475L128.163 18.0374C128.157 18.0528 128.15 18.0773 128.145 18.0931L127.904 18.9265C127.83 19.1835 127.881 19.4601 128.042 19.6735C128.203 19.8869 128.456 20.0123 128.724 20.0123H129.614C129.994 20.0123 130.328 19.7615 130.433 19.3978L133.08 10.2492C133.552 8.60649 135.275 7.27108 136.921 7.27108H141.898C142.68 7.27108 143.312 7.55925 143.724 8.10406C144.147 8.66381 144.257 9.4453 144.027 10.2475L138.392 29.7518C137.92 31.3941 136.197 32.7291 134.551 32.7291H131.352C130.971 32.7291 130.637 32.9803 130.532 33.3449L129.474 37.0236C129.002 38.665 127.279 40 125.634 40L120.657 39.9998ZM40.1893 18.1959C39.8093 18.1959 39.4752 18.4467 39.3698 18.8109L36.7146 27.9985C36.6405 28.2551 36.6915 28.5317 36.8526 28.7451C37.0138 28.9589 37.2661 29.0844 37.5341 29.0844H38.4349C38.8149 29.0844 39.1491 28.8336 39.2544 28.4694L41.9096 19.2818C41.9837 19.0252 41.9327 18.7486 41.7716 18.5352C41.6104 18.3213 41.3581 18.1959 41.0902 18.1959H40.1893Z" fill="#F0FF41"/>
<path d="M176.686 32.7331C176.428 32.7331 176.22 32.6381 176.083 32.4582C175.944 32.2734 175.907 32.0156 175.984 31.7506L176.454 30.1129C176.459 30.1021 176.467 30.0801 176.47 30.0689L176.686 29.3128C176.691 29.3015 176.7 29.2775 176.704 29.2658L176.918 28.513C176.924 28.5005 176.932 28.4794 176.936 28.4665L177.15 27.7132C177.155 27.7024 177.163 27.6808 177.166 27.6696L177.382 26.9135C177.388 26.9002 177.395 26.8824 177.399 26.8682L177.614 26.1138C177.619 26.103 177.627 26.0806 177.63 26.0693L177.846 25.314C177.85 25.3032 177.858 25.2812 177.862 25.27L178.078 24.5143C178.083 24.5022 178.091 24.4815 178.094 24.469L178.309 23.7145C178.314 23.7033 178.323 23.6797 178.326 23.668L178.541 22.9143C178.697 22.3733 179.266 21.9327 179.809 21.9327H181.451C181.465 21.9348 181.507 21.9373 181.507 21.9373L183.707 21.9356C183.965 21.9356 184.174 22.0307 184.31 22.2105C184.449 22.3953 184.486 22.6531 184.41 22.9177L184.105 23.9774C184.081 24.0621 184.098 24.153 184.151 24.2236C184.204 24.2937 184.287 24.3353 184.376 24.3353H185.259C185.517 24.3353 185.726 24.4304 185.861 24.6102C186.001 24.795 186.038 25.0524 185.961 25.3173L185.491 26.9551C185.486 26.9655 185.472 27.0016 185.469 27.0128L185.256 27.754C185.252 27.7644 185.238 27.8005 185.235 27.8117L185.022 28.5525C185.017 28.5629 185.003 28.6007 185 28.6119L184.788 29.3514C184.632 29.8933 184.063 30.3339 183.52 30.3339H182.464C182.339 30.3339 182.228 30.4169 182.194 30.5373L181.845 31.7506C181.689 32.2925 181.121 32.7331 180.577 32.7331L176.686 32.7331ZM181.608 25.5378C181.482 25.5378 181.372 25.6209 181.337 25.7413L181.219 26.1528C181.213 26.1644 181.206 26.1835 181.203 26.196L180.987 26.9526C180.982 26.9634 180.973 26.9866 180.97 26.9982L180.755 27.7523C180.75 27.7631 180.742 27.7868 180.738 27.798L180.523 28.552C180.518 28.5641 180.511 28.5832 180.507 28.5956L180.456 28.7733C180.432 28.858 180.449 28.949 180.503 29.0192C180.556 29.0893 180.639 29.1309 180.727 29.1309H181.027C181.152 29.1309 181.263 29.0478 181.297 28.9274L181.646 27.7136C181.651 27.7033 181.664 27.6667 181.667 27.6555L181.881 26.9147C181.885 26.9044 181.899 26.8682 181.902 26.857L182.115 26.1162C182.12 26.105 182.132 26.071 182.136 26.0585L182.183 25.8958C182.207 25.8111 182.19 25.7201 182.137 25.6495C182.084 25.5794 182.001 25.5378 181.912 25.5378H181.608ZM167.693 32.7331C167.435 32.7331 167.227 32.6381 167.091 32.4582C166.951 32.2734 166.915 32.0156 166.991 31.7506L167.462 30.1129C167.466 30.1025 167.476 30.0764 167.479 30.0652L167.81 28.9133C167.814 28.9025 167.825 28.8747 167.828 28.8634L168.158 27.7136C168.162 27.7028 168.173 27.675 168.176 27.6638L168.505 26.514C168.511 26.502 168.519 26.4787 168.523 26.4663L168.853 25.3144C168.858 25.3036 168.868 25.2762 168.871 25.265L169.201 24.1143C169.206 24.1023 169.216 24.0778 169.219 24.0653L169.549 22.9147C169.704 22.3732 170.273 21.9326 170.816 21.9326H172.458C172.713 21.9326 172.927 22.0302 173.061 22.2075C173.201 22.3923 173.237 22.6497 173.161 22.9147L172.69 24.5524C172.685 24.5628 172.676 24.5894 172.673 24.6002L172.342 25.752C172.338 25.7624 172.328 25.7906 172.324 25.8014L171.994 26.9521C171.989 26.9641 171.979 26.9907 171.975 27.0032L171.646 28.1517C171.642 28.163 171.632 28.1903 171.628 28.202L171.465 28.7734C171.441 28.8581 171.458 28.949 171.511 29.0192C171.564 29.0894 171.647 29.1309 171.736 29.1309H172.032C172.158 29.1309 172.268 29.0479 172.303 28.9274L172.422 28.5135C172.426 28.5027 172.435 28.4798 172.438 28.4686L172.654 27.7133C172.659 27.7012 172.667 27.6801 172.671 27.6672L172.886 26.9135C172.891 26.9015 172.899 26.8807 172.903 26.8678L173.118 26.1138C173.122 26.103 173.131 26.0797 173.134 26.0685L173.35 25.314C173.355 25.302 173.363 25.2812 173.366 25.2688L173.581 24.5143C173.586 24.5035 173.594 24.4819 173.597 24.4707L173.813 23.7146C173.818 23.7038 173.826 23.6818 173.829 23.6706L174.045 22.9144C174.201 22.3733 174.769 21.9328 175.313 21.9328H176.955C177.213 21.9328 177.421 22.0279 177.557 22.2077C177.697 22.3925 177.734 22.6499 177.657 22.9148L177.186 24.5526C177.182 24.5634 177.174 24.5845 177.171 24.5958L176.954 25.3528C176.949 25.3644 176.943 25.3827 176.939 25.3951L176.722 26.1529C176.717 26.1645 176.71 26.1837 176.707 26.1961L176.491 26.9527C176.486 26.9635 176.477 26.9868 176.474 26.9984L176.259 27.7524C176.254 27.7632 176.245 27.7865 176.242 27.7981L176.027 28.5522C176.022 28.5642 176.015 28.5829 176.011 28.5957L175.795 29.3519C175.791 29.3627 175.783 29.3843 175.779 29.3955L175.563 30.1516C175.559 30.1624 175.551 30.184 175.547 30.1952L175.331 30.9513C175.327 30.9621 175.319 30.985 175.315 30.9962L175.099 31.7511C174.944 32.2926 174.375 32.7332 173.832 32.7332L167.693 32.7331ZM158.701 32.7331C158.443 32.7331 158.234 32.6381 158.098 32.4582C157.959 32.2734 157.922 32.0156 157.998 31.7506L158.469 30.1129C158.474 30.1021 158.483 30.0776 158.486 30.066L158.701 29.3127C158.707 29.3007 158.713 29.2824 158.717 29.2699L158.933 28.513C158.938 28.5013 158.945 28.4822 158.949 28.4698L159.165 27.7132C159.171 27.6999 159.178 27.6821 159.182 27.6679L159.397 26.9134C159.402 26.9022 159.41 26.8794 159.414 26.8678L159.629 26.1137C159.634 26.1017 159.642 26.0813 159.645 26.0685L159.861 25.314C159.866 25.302 159.874 25.2808 159.877 25.2679L160.093 24.5142C160.098 24.5022 160.106 24.481 160.109 24.4681L160.325 23.7144C160.329 23.7036 160.337 23.6817 160.34 23.6704L160.556 22.9143C160.712 22.3732 161.281 21.9327 161.824 21.9327H167.962C168.217 21.9327 168.431 22.0302 168.565 22.2076C168.704 22.3924 168.741 22.6498 168.665 22.9147L168.194 24.5524C168.188 24.5645 168.181 24.5848 168.177 24.5977L167.962 25.3526C167.958 25.3617 167.95 25.3846 167.947 25.3941L167.73 26.1524C167.724 26.1648 167.716 26.1869 167.712 26.1997L167.498 26.9525C167.492 26.965 167.485 26.9853 167.481 26.9982L167.266 27.7523C167.261 27.7631 167.253 27.7863 167.249 27.7979L167.034 28.552C167.03 28.5624 167.022 28.5835 167.019 28.5948L166.802 29.3518C166.797 29.3634 166.791 29.3804 166.787 29.3929L166.57 30.1515C166.565 30.1636 166.557 30.1847 166.554 30.1976L166.338 30.9513C166.333 30.9633 166.325 30.9845 166.322 30.9974L166.107 31.7511C165.951 32.2925 165.383 32.7331 164.839 32.7331H158.701ZM163.623 25.5349C163.498 25.5349 163.387 25.618 163.353 25.7384L163.234 26.1524C163.228 26.1644 163.221 26.1848 163.217 26.1976L163.001 26.9525C162.996 26.9646 162.989 26.9853 162.985 26.9982L162.77 27.7523C162.764 27.7643 162.757 27.7842 162.753 27.7967L162.538 28.552C162.533 28.5628 162.526 28.584 162.522 28.5952L162.472 28.7738C162.447 28.858 162.465 28.949 162.518 29.0192C162.571 29.0893 162.654 29.1309 162.742 29.1309H163.04C163.165 29.1309 163.276 29.0478 163.31 28.9274L163.429 28.5134C163.435 28.5014 163.443 28.4789 163.447 28.4661L163.661 27.7133C163.666 27.702 163.675 27.6796 163.678 27.668L163.893 26.9135C163.898 26.9027 163.907 26.8795 163.91 26.8679L164.125 26.1138C164.131 26.1018 164.138 26.081 164.142 26.0681L164.192 25.8921C164.216 25.8074 164.199 25.7164 164.145 25.6462C164.092 25.5761 164.009 25.535 163.921 25.535L163.623 25.5349ZM151.134 32.7331C150.876 32.7331 150.668 32.6381 150.532 32.4582C150.392 32.2734 150.356 32.0156 150.432 31.7506L150.903 30.1129C150.908 30.1009 150.916 30.0801 150.92 30.0673L151.135 29.3128C151.14 29.3003 151.148 29.2791 151.152 29.2662L151.367 28.513C151.372 28.5018 151.38 28.4785 151.383 28.4673L151.598 27.7133C151.603 27.7025 151.612 27.6801 151.615 27.6688L151.83 26.9135C151.835 26.9027 151.843 26.8811 151.846 26.8699L152.062 26.1138C152.067 26.103 152.075 26.0818 152.078 26.0706L152.294 25.314C152.299 25.3032 152.307 25.2804 152.31 25.2691L152.526 24.5142C152.531 24.5038 152.538 24.4827 152.541 24.4714L152.758 23.7144C152.763 23.7024 152.771 23.682 152.774 23.6692L152.99 22.9143C153.145 22.3732 153.714 21.9327 154.257 21.9327H155.899C156.158 21.9327 156.366 22.0277 156.502 22.2076C156.641 22.3924 156.678 22.6498 156.602 22.9147L156.131 24.5524C156.126 24.5637 156.117 24.5873 156.114 24.599L155.899 25.3526C155.894 25.363 155.887 25.3842 155.883 25.3954L155.667 26.1528C155.662 26.1636 155.654 26.1869 155.65 26.1985L155.435 26.9525C155.43 26.965 155.422 26.9857 155.418 26.9986L155.203 27.7523C155.199 27.7635 155.19 27.7851 155.187 27.7967L154.971 28.5521C154.966 28.5641 154.958 28.5849 154.955 28.5973L154.905 28.7734C154.881 28.8581 154.898 28.949 154.951 29.0192C155.004 29.0894 155.087 29.1309 155.175 29.1309H156.883C157.141 29.1309 157.349 29.226 157.485 29.4058C157.625 29.5906 157.661 29.848 157.585 30.113L157.114 31.7507C156.959 32.2926 156.39 32.7331 155.847 32.7331H151.134ZM142.142 32.7331C141.884 32.7331 141.675 32.6381 141.539 32.4582C141.4 32.2734 141.363 32.0156 141.439 31.7506L141.91 30.1129C141.916 30.1009 141.924 30.0781 141.928 30.0652L142.142 29.3128C142.147 29.3015 142.156 29.2783 142.159 29.2671L142.374 28.513C142.379 28.5022 142.387 28.4798 142.39 28.4686L142.606 27.7133C142.612 27.7008 142.62 27.6796 142.623 27.6667L142.838 26.9135C142.842 26.9027 142.85 26.8811 142.854 26.8699L143.07 26.1138C143.076 26.1005 143.083 26.0826 143.086 26.0685L143.302 25.314C143.306 25.3032 143.315 25.2804 143.318 25.2692L143.534 24.5143C143.538 24.5035 143.546 24.4815 143.549 24.4703L143.765 23.7145C143.77 23.7042 143.777 23.6834 143.78 23.6726L143.997 22.9144C144.153 22.3733 144.721 21.9327 145.264 21.9327H151.403C151.661 21.9327 151.87 22.0278 152.005 22.2076C152.145 22.3924 152.182 22.6499 152.106 22.9148L151.635 24.5525C151.479 25.0944 150.91 25.535 150.367 25.535H147.064C146.939 25.535 146.828 25.618 146.794 25.7384L146.675 26.1524C146.67 26.1632 146.661 26.1869 146.658 26.1985L146.443 26.9526C146.437 26.9646 146.43 26.9833 146.427 26.9962L146.211 27.7523C146.206 27.7635 146.197 27.7876 146.193 27.7992L145.979 28.5521C145.974 28.5633 145.966 28.5853 145.963 28.5965L145.912 28.7734C145.888 28.8581 145.905 28.949 145.958 29.0192C146.011 29.0894 146.095 29.1309 146.183 29.1309H149.316C149.575 29.1309 149.783 29.226 149.919 29.4058C150.058 29.5906 150.095 29.848 150.019 30.113L149.548 31.7507C149.392 32.2926 148.824 32.7331 148.28 32.7331H142.142Z" fill="#F0FF41"/>
</svg>
