<svg width="278" height="78" viewBox="0 0 278 78" fill="none" xmlns="http://www.w3.org/2000/svg">
<path d="M232.151 77.1761C230.645 77.1761 229.43 76.6208 228.638 75.5697C227.823 74.4889 227.611 72.9811 228.055 71.4333L230.801 61.8576C231.708 58.6914 235.023 56.1157 238.19 56.1157H244.346C245.078 56.1157 245.721 55.631 245.923 54.9276L246.985 51.2245C247.127 50.7286 247.028 50.1958 246.718 49.784C246.408 49.373 245.923 49.131 245.407 49.131L231.917 49.1334C231.841 49.123 231.771 49.1181 231.694 49.1181H227.149C225.643 49.1181 224.428 48.5629 223.636 47.5118C222.822 46.431 222.609 44.9232 223.053 43.3762L223.583 41.5271C223.725 41.032 223.626 40.4992 223.316 40.0873C223.006 39.6763 222.521 39.4344 222.006 39.4344H220.265C219.532 39.4344 218.889 39.9191 218.687 40.6233L217.898 43.3762C216.991 46.5424 213.676 49.1181 210.509 49.1181H204.369C203.638 49.1181 202.995 49.6013 202.792 50.303L201.047 56.3415C201.04 56.3647 201.02 56.4264 201.013 56.4496L198.522 65.0783C198.511 65.1079 198.496 65.1552 198.487 65.1857L196.685 71.4316C195.777 74.6002 192.462 77.1761 189.295 77.1761H179.72C178.214 77.1761 176.999 76.6208 176.207 75.5697C175.393 74.4897 175.18 72.9819 175.624 71.4341L183.649 43.5966C183.659 43.5677 183.678 43.5101 183.687 43.4804L184.247 41.5288C184.39 41.0337 184.292 40.5001 183.982 40.0883C183.671 39.6764 183.186 39.4345 182.671 39.4345H180.947C180.216 39.4345 179.574 39.9183 179.371 40.6202L175.878 52.7251C175.867 52.7547 175.852 52.8028 175.844 52.8325L174.525 57.4016C173.617 60.571 170.302 63.1476 167.136 63.1476H157.56C156.054 63.1476 154.839 62.5923 154.047 61.5412C153.233 60.4596 153.02 58.9519 153.464 57.4048L159.283 37.2024C159.426 36.7073 159.327 36.1737 159.017 35.7611C158.707 35.3493 158.222 35.1074 157.706 35.1074H155.973C155.241 35.1074 154.597 35.5921 154.395 36.2955L151.915 44.9345C151.905 44.9634 151.889 45.0106 151.881 45.0403L148.311 57.4016C147.401 60.571 144.086 63.1476 140.92 63.1476H131.345C129.839 63.1476 128.624 62.5923 127.832 61.5412C127.017 60.4604 126.805 58.9526 127.249 57.4048L129.995 47.8291C130.005 47.8003 130.02 47.7546 130.028 47.7249L133.072 37.1855C133.215 36.6904 133.117 36.156 132.807 35.7442C132.497 35.3324 132.012 35.0896 131.496 35.0896H129.779C129.048 35.0896 128.405 35.5735 128.202 36.2754L127.954 37.1374C127.945 37.1623 127.926 37.2208 127.919 37.2456L122.32 56.6219C122.312 56.6475 122.291 56.71 122.284 56.7357L122.093 57.4079C121.186 60.5709 117.871 63.1475 114.705 63.1475H105.129C103.623 63.1475 102.408 62.5922 101.616 61.5411C100.802 60.4603 100.59 58.9525 101.033 57.4047L101.561 55.5636C101.703 55.0685 101.604 54.5357 101.294 54.1239C100.984 53.7129 100.499 53.4709 99.9839 53.4709H98.2486C97.518 53.4709 96.875 53.9541 96.6723 54.6567L95.8795 57.4015C94.9706 60.5709 91.6558 63.1475 88.4891 63.1475H82.2836C81.5518 63.1475 80.908 63.6322 80.7065 64.3356L78.6711 71.4332C77.7637 74.6002 74.4489 77.176 71.2819 77.176H61.7067C60.2001 77.176 58.9851 76.6207 58.1932 75.5696C57.3788 74.4888 57.1664 72.981 57.6107 71.4332L59.3861 65.2401C59.5283 64.745 59.4293 64.2123 59.1193 63.8004C58.8093 63.3894 58.3242 63.1475 57.809 63.1475H52.6987C51.1929 63.1475 49.9779 62.5922 49.1852 61.5411C48.3712 60.4603 48.1585 58.9525 48.6024 57.4055L49.1304 55.5636C49.2722 55.0685 49.1732 54.5357 48.8632 54.1239C48.5532 53.7129 48.068 53.4709 47.5528 53.4709H45.8123C45.0804 53.4709 44.437 53.9556 44.2351 54.659L43.4476 57.4047C42.5399 60.5717 39.225 63.1475 36.0584 63.1475L22.9428 63.1707L13.3395 63.1715C11.8334 63.1715 10.6184 62.6163 9.82643 61.5652C9.01243 60.4844 8.7997 58.9766 9.24362 57.4295L11.0266 51.2116C11.1688 50.7157 11.0698 50.1829 10.7598 49.7711C10.4498 49.3601 9.96467 49.1181 9.44946 49.1181H4.32319C2.81702 49.1181 1.60201 48.5629 0.810076 47.5118C-0.003924 46.431 -0.216654 44.9232 0.227265 43.3762L5.00068 26.7879C5.00946 26.7631 5.02915 26.7006 5.03669 26.6758L6.57773 21.3328C6.59176 21.2943 6.60374 21.2566 6.61498 21.2174L7.0292 19.7713C7.93689 16.6051 11.2514 14.0285 14.418 14.0285H20.5514C21.2832 14.0285 21.927 13.5438 22.1285 12.8404L24.1567 5.76766C25.0645 2.60058 28.3793 0.0248581 31.5463 0.0248581L44.6915 0H54.2647C55.7709 0 56.9859 0.555246 57.7778 1.60634C58.5922 2.68714 58.8045 4.19495 58.3606 5.7428L55.615 15.3192C54.7069 18.4855 51.392 21.0612 48.2254 21.0612L35.0802 21.0853H28.9493C28.2178 21.0853 27.5745 21.5699 27.3722 22.2726L24.6678 31.684C24.6578 31.7136 24.6425 31.7609 24.6342 31.7906L22.2615 40.0074C22.1181 40.5033 22.2166 41.0377 22.5274 41.4503C22.8375 41.8613 23.3226 42.1032 23.8378 42.1032C23.839 42.1032 32.5241 42.0864 32.5241 42.0864H42.0973C43.6034 42.0864 44.8184 42.6417 45.6104 43.6928C46.4248 44.7736 46.6371 46.2814 46.1932 47.8292L45.6464 49.7376C45.5042 50.2327 45.6032 50.7655 45.9132 51.1773C46.2232 51.5884 46.7083 51.8303 47.2235 51.8303H48.9641C49.6956 51.8303 50.3389 51.3456 50.5412 50.6429L51.5735 47.0513C51.5835 47.0217 55.4032 33.8032 55.4032 33.8032C56.3117 30.6337 59.6265 28.058 62.7936 28.058H68.9057C69.6376 28.058 70.2813 27.5733 70.4828 26.8691L72.5126 19.7891C73.4211 16.6229 76.7363 14.0463 79.9026 14.0463H89.4774C90.9836 14.0463 92.1986 14.6016 92.9905 15.6526C93.8049 16.7334 94.0176 18.2413 93.5737 19.7883L91.8027 25.9653C91.6606 26.4604 91.7595 26.9932 92.0695 27.405C92.3795 27.8161 92.8647 28.058 93.3799 28.058H98.5843C100.09 28.058 101.305 28.6132 102.097 29.6643C102.912 30.7451 103.124 32.2529 102.68 33.8008L98.0944 49.7361C97.9518 50.2312 98.0503 50.7648 98.3603 51.1766C98.67 51.5884 99.1555 51.8304 99.6711 51.8304H101.395C102.126 51.8304 102.769 51.3465 102.972 50.6438L105.131 43.1545C105.138 43.1321 105.158 43.072 105.164 43.0496L110.763 23.6725C110.774 23.642 110.789 23.5931 110.798 23.5627L111.89 19.7739C112.799 16.6053 116.114 14.0288 119.28 14.0288H141.957C143.463 14.0288 144.678 14.5847 145.47 15.6359C146.285 16.7159 146.498 18.2237 146.054 19.7707L144.278 25.9646C144.135 26.4605 144.234 26.9933 144.544 27.4043C144.854 27.8161 145.339 28.0581 145.855 28.0581H147.643C148.375 28.0581 149.019 27.5734 149.22 26.87L151.251 19.7892C152.159 16.6229 155.474 14.0464 158.64 14.0464H168.215C169.722 14.0464 170.937 14.6016 171.729 15.6527C172.543 16.7335 172.755 18.2413 172.311 19.7892L170.541 25.9654C170.399 26.4605 170.498 26.9933 170.808 27.4051C171.118 27.8161 171.603 28.0581 172.118 28.0581H177.231C178.737 28.0581 179.952 28.6133 180.744 29.6644C181.558 30.7452 181.77 32.253 181.326 33.8001L180.782 35.7012C180.639 36.1964 180.738 36.7291 181.048 37.141C181.358 37.552 181.844 37.7939 182.359 37.7939H184.093C184.824 37.7939 185.467 37.3108 185.67 36.609L190.536 19.7748C191.445 16.6046 194.76 14.0288 197.926 14.0288H204.082C204.814 14.0288 205.457 13.5441 205.659 12.8407L207.695 5.74313C208.603 2.57605 211.918 0.00032816 215.084 0.00032816H224.659C226.166 0.00032816 227.381 0.555575 228.173 1.60667C228.987 2.68746 229.2 4.19528 228.755 5.74313L226.01 15.3196C225.102 18.4858 221.787 21.0615 218.621 21.0615H212.464C211.733 21.0615 211.089 21.5462 210.887 22.2505L209.822 25.9655C209.68 26.4606 209.779 26.9934 210.089 27.4052C210.399 27.8162 210.884 28.0582 211.399 28.0582H216.548C218.054 28.0582 219.269 28.6134 220.061 29.6645C220.876 30.7445 221.088 32.2523 220.644 33.8001L220.099 35.7013C219.957 36.1964 220.056 36.7292 220.366 37.141C220.676 37.5521 221.161 37.794 221.676 37.794H223.417C224.148 37.794 224.791 37.3109 224.994 36.6083L229.853 19.7748C230.763 16.6054 234.078 14.0288 237.244 14.0288H246.819C248.326 14.0288 249.541 14.5841 250.333 15.6352C251.147 16.716 251.359 18.2238 250.915 19.7716L246.593 34.8016C246.582 34.8312 246.567 34.8786 246.558 34.909L246.095 36.517C245.953 37.0129 246.051 37.5465 246.361 37.9582C246.671 38.37 247.156 38.612 247.672 38.612H249.385C250.116 38.612 250.759 38.1282 250.961 37.4263L256.054 19.7749C256.963 16.6055 260.277 14.0289 263.444 14.0289H273.019C274.525 14.0289 275.74 14.5849 276.532 15.6361C277.347 16.7161 277.559 18.2239 277.115 19.7717L266.274 57.4035C265.365 60.5722 262.05 63.148 258.884 63.148H252.728C251.996 63.148 251.352 63.6327 251.151 64.3361L249.115 71.4337C248.208 74.6007 244.893 77.1765 241.726 77.1765L232.151 77.1761ZM77.3264 35.1074C76.5954 35.1074 75.9524 35.5912 75.7497 36.2939L70.641 54.0206C70.4984 54.5157 70.5965 55.0493 70.9066 55.4611C71.2166 55.8737 71.7021 56.1157 72.2177 56.1157H73.951C74.6821 56.1157 75.325 55.6319 75.5277 54.9292L80.6364 37.2025C80.779 36.7074 80.6809 36.1738 80.3709 35.762C80.0608 35.3494 79.5753 35.1074 79.0598 35.1074H77.3264Z" fill="#F0FF41"></path>
</svg>