<svg width="512" height="512" viewBox="0 0 512 512" fill="none" xmlns="http://www.w3.org/2000/svg">
<g clip-path="url(#clip0_1471_12732)">
<path fill-rule="evenodd" clip-rule="evenodd" d="M197.76 327.187L367.957 201.384C376.299 195.197 388.224 197.608 392.213 207.187C413.12 257.725 403.776 318.44 362.133 360.125C320.512 401.811 262.571 410.941 209.621 390.12L151.787 416.936C234.752 473.704 335.488 459.667 398.443 396.605C448.384 346.6 463.851 278.44 449.387 216.979L449.515 217.128C428.544 126.845 454.677 90.7493 508.181 16.9573C509.461 15.208 510.741 13.4586 512 11.6666L441.579 82.1733V81.96L197.696 327.229M162.624 357.757C103.061 300.797 113.344 212.669 164.139 161.832C201.707 124.221 263.275 108.861 317.013 131.432L374.72 104.765C362.726 95.9422 349.603 88.7672 335.701 83.432C300.753 69.1279 262.355 65.4777 225.337 72.9405C188.32 80.4032 154.335 98.6457 127.659 125.373C73.6213 179.475 56.6187 262.675 85.8027 333.672C107.605 386.728 71.872 424.253 35.8827 462.141C23.104 475.581 10.304 489 0 503.208L162.56 357.821" fill="#B6B6B6"/>
</g>
<defs>
<clipPath id="clip0_1471_12732">
<rect width="512" height="512" fill="white"/>
</clipPath>
</defs>
</svg>
