<svg width="512" height="512" viewBox="0 0 512 512" fill="none" xmlns="http://www.w3.org/2000/svg">
<g clip-path="url(#clip0_1484_17527)">
<g clip-path="url(#clip1_1484_17527)">
<path d="M512 0.256927V512H0.256958V0.256927H512ZM100.809 185.251H61.6616V327.263H87.5061V211.866L153.65 327.015L154.401 327.282C161.367 326.73 169.341 327.967 176.183 327.282C177.772 327.12 177.534 326.254 178.39 325.141L243.335 211.876V326.892C243.335 326.892 243.687 327.272 243.715 327.272H269.179V185.261H230.412L166.163 296.289L165.287 297.336C144.02 259.854 122.019 222.733 100.809 185.261V185.251ZM316.13 185.251H286.574L360.901 327.006L361.653 327.272L397.108 327.13L397.669 326.406C421.677 280.246 446.37 234.447 470.417 188.325C470.921 187.354 471.511 186.298 471.815 185.251H441.879L379.314 304.749L316.12 185.251H316.13Z" fill="#DAD9C5"/>
<path d="M0.256923 512H0V0H512V0.256923H0.256923V512Z" fill="#FEFEFE"/>
<path d="M100.809 185.251C122.019 222.724 144.029 259.844 165.287 297.327L166.163 296.28L230.412 185.251H269.179V327.263H243.715C243.715 327.263 243.335 326.911 243.335 326.882V211.866L178.39 325.131C177.543 326.245 177.772 327.12 176.183 327.272C169.341 327.957 161.367 326.72 154.401 327.272L153.649 327.006L87.506 211.857V327.253H61.6615V185.242H100.809V185.251Z" fill="#110D09"/>
<path d="M316.13 185.251L379.323 304.749L441.889 185.251H471.825C471.52 186.298 470.93 187.354 470.426 188.325C446.38 234.457 421.677 280.255 397.679 326.406L397.117 327.13L361.662 327.272L360.91 327.006L286.583 185.251H316.139H316.13Z" fill="#110D09"/>
</g>
</g>
<defs>
<clipPath id="clip0_1484_17527">
<rect width="512" height="512" fill="white"/>
</clipPath>
<clipPath id="clip1_1484_17527">
<rect width="512" height="512" fill="white"/>
</clipPath>
</defs>
</svg>
