<svg width="512" height="512" viewBox="0 0 512 512" fill="none" xmlns="http://www.w3.org/2000/svg">
<g clip-path="url(#clip0_1485_17548)">
<path fill-rule="evenodd" clip-rule="evenodd" d="M374.997 200.192C385.237 200.192 393.557 208.512 393.557 218.752V301.248L484.117 223.104C485.462 221.938 487.114 221.183 488.876 220.929C490.638 220.676 492.435 220.935 494.054 221.674C495.673 222.414 497.045 223.604 498.007 225.102C498.968 226.6 499.479 228.343 499.477 230.123V459.072C499.477 460.828 498.979 462.547 498.043 464.032C497.106 465.517 495.768 466.706 494.184 467.463C492.599 468.219 490.833 468.512 489.09 468.307C487.346 468.102 485.696 467.407 484.331 466.304L393.557 392.896V475.904C393.554 480.325 391.973 484.599 389.099 487.957L387.243 489.835C385.26 491.575 382.93 492.873 380.406 493.642C377.883 494.411 375.224 494.633 372.608 494.293L139.925 464.213V492.032C139.925 496.951 137.973 501.668 134.497 505.148C131.021 508.628 126.305 510.586 121.387 510.592H18.56C13.6413 510.592 8.9237 508.64 5.44363 505.163C1.96357 501.687 0.00565371 496.972 0 492.053L0 218.773C0 208.533 8.32 200.213 18.56 200.192H374.997ZM243.627 292.949H148.864C146.406 292.949 144.049 293.924 142.31 295.66C140.57 297.396 139.59 299.751 139.584 302.208V362.944C139.584 368.064 143.744 372.203 148.864 372.203H243.627C248.747 372.203 252.885 368.064 252.907 362.944V302.208C252.901 299.751 251.921 297.396 250.181 295.66C248.441 293.924 246.084 292.949 243.627 292.949ZM273.621 0C298.256 0 321.882 9.78611 339.301 27.2055C356.721 44.6249 366.507 68.2506 366.507 92.8853C366.507 117.52 356.721 141.146 339.301 158.565C321.882 175.985 298.256 185.771 273.621 185.771C248.987 185.771 225.361 175.985 207.941 158.565C190.522 141.146 180.736 117.52 180.736 92.8853C180.736 68.2506 190.522 44.6249 207.941 27.2055C225.361 9.78611 248.987 0 273.621 0ZM103.381 28.0107C113.545 28.0107 123.61 30.0126 133 33.9022C142.39 37.7918 150.923 43.4928 158.11 50.6798C165.297 57.8668 170.998 66.399 174.887 75.7893C178.777 85.1796 180.779 95.244 180.779 105.408C180.779 115.572 178.777 125.636 174.887 135.027C170.998 144.417 165.297 152.949 158.11 160.136C150.923 167.323 142.39 173.024 133 176.914C123.61 180.803 113.545 182.805 103.381 182.805C82.8543 182.805 63.168 174.651 48.6531 160.136C34.1383 145.621 25.984 125.935 25.984 105.408C25.984 84.881 34.1383 65.1946 48.6531 50.6798C63.168 36.165 82.8543 28.0107 103.381 28.0107Z" fill="url(#paint0_linear_1485_17548)"/>
</g>
<defs>
<linearGradient id="paint0_linear_1485_17548" x1="320" y1="21.3333" x2="-10.6667" y2="512" gradientUnits="userSpaceOnUse">
<stop stop-color="#E8632A" stop-opacity="0.996"/>
<stop offset="0.586" stop-color="#B465E6" stop-opacity="0.996"/>
<stop offset="1" stop-color="#979FD9" stop-opacity="0.996"/>
</linearGradient>
<clipPath id="clip0_1485_17548">
<rect width="512" height="512" fill="white"/>
</clipPath>
</defs>
</svg>
