<svg width="512" height="512" viewBox="0 0 512 512" fill="none" xmlns="http://www.w3.org/2000/svg">
<path fill-rule="evenodd" clip-rule="evenodd" d="M176.099 20.3503C195.763 12.2704 217.167 9.35603 238.275 11.8844C265.497 14.9876 289.753 26.584 311.04 46.5644C311.323 46.8398 311.672 47.0392 312.052 47.1439C312.433 47.2486 312.834 47.2553 313.218 47.1633C340.893 40.0143 370.19 42.6592 396.137 54.6492L397.417 55.2208L400.575 56.7997C427.733 70.5571 448.919 93.7756 460.137 122.077C465.826 135.959 468.685 150.414 468.739 165.495C469.147 176.792 467.922 187.898 465.064 198.814C464.912 199.365 464.907 199.947 465.05 200.502C465.193 201.056 465.48 201.563 465.881 201.971C482.051 218.467 492.776 238.148 498.085 260.987C505.952 299.805 497.894 334.757 473.939 365.926L470.236 370.444C454.369 388.598 433.544 401.72 410.32 408.2C409.815 408.349 409.353 408.616 408.974 408.981C408.595 409.346 408.31 409.797 408.142 410.296C402.943 425.295 397.689 438.144 387.971 450.965C363.47 483.25 327.51 501.216 286.949 500.998C254.636 500.835 225.971 489.021 201.008 465.556C200.631 465.197 200.163 464.946 199.655 464.831C199.147 464.716 198.617 464.741 198.122 464.903C187.56 468.305 176.889 468.822 165.374 468.686C146.978 468.535 128.86 464.187 112.399 455.974C95.159 447.427 80.1516 434.974 68.5715 419.606C64.4337 414.135 60.3231 408.963 57.3287 402.838C53.2029 394.433 49.8322 385.679 47.2564 376.678C41.8193 356.187 41.6975 334.648 46.9025 314.096C47.0617 313.614 47.1083 313.102 47.0386 312.599C46.9474 312.093 46.6885 311.633 46.3036 311.292C33.7183 298.568 24.0976 283.222 18.1286 266.35C14.173 255.958 11.8764 245.008 11.323 233.902C10.3314 219.273 11.6264 204.578 15.1613 190.348C24.3353 160.078 41.8936 136.313 67.782 119.055C73.5531 115.244 78.9976 112.25 84.1426 110.099C89.9954 107.649 95.8482 105.608 101.728 103.893C102.148 103.769 102.529 103.543 102.838 103.234C103.148 102.924 103.374 102.543 103.498 102.123C107.951 86.0836 115.62 71.1171 126.038 58.1335C139.194 41.4396 156.438 28.4251 176.099 20.3503ZM195.781 176.465C172.234 159.751 140.03 168.026 128.188 194.322C122.036 207.933 120.838 222.251 124.568 237.332L127.508 249.309L132.816 268.691C134.994 279.579 139.132 289.515 145.311 298.525L145.91 299.397C149.177 303.262 152.77 306.801 156.636 309.986C184.92 333.233 223.493 317.717 231.197 282.982L232.205 278.627L232.477 276.993C233.675 268.827 233.294 260.824 231.388 252.984C227.972 239.139 224.251 225.37 220.227 211.689C215.79 196.609 207.65 184.876 195.781 176.465ZM340.822 142.846C323.236 126.514 296.095 125.888 278.619 142.329C271.813 148.726 267.049 157.355 264.381 168.162C261.724 179.128 261.724 190.57 264.381 201.536L264.654 202.625L265.797 206.327C268.383 214.901 270.779 223.34 272.984 231.643C275.298 240.272 277.121 246.07 278.537 249.01C290.243 273.645 315.695 291.366 343.38 280.069C369.133 269.562 376.864 239.047 371.038 214.33C370.166 210.589 369.213 206.868 368.18 203.169C364.097 187.299 361.211 176.601 359.442 171.075C355.808 160.2 349.388 150.467 340.822 142.846Z" fill="url(#paint0_linear_1485_17562)"/>
<defs>
<linearGradient id="paint0_linear_1485_17562" x1="197.714" y1="11.0133" x2="316.396" y2="501.463" gradientUnits="userSpaceOnUse">
<stop stop-color="white"/>
<stop offset="1" stop-color="#6BB6FE"/>
</linearGradient>
</defs>
</svg>
