<svg width="512" height="512" viewBox="0 0 512 512" fill="none" xmlns="http://www.w3.org/2000/svg">
<g clip-path="url(#clip0_1485_17589)">
<g clip-path="url(#clip1_1485_17589)">
<path d="M439.616 47.9361C377.387 27.3281 323.861 71.0614 311.381 111.083C311.381 111.083 266.475 255.296 247.339 315.456C238.208 344.171 215.573 391.147 172.949 391.147C138.24 391.147 120.405 358.571 112.875 339.157L61.12 201.195C55.1253 186.667 61.3973 157.675 85.44 148.992C111.125 139.776 127.637 161.259 131.904 172.672L196.373 337.792C211.733 317.995 221.504 285.781 227.861 262.976L185.536 151.829C165.461 99.9681 112.363 76.3734 63.1893 94.5067C23.3599 109.184 -14.976 159.445 5.86662 222.613L59.2853 360C67.392 380.821 99.4133 448.811 171.819 448.811C258.709 448.811 291.307 374.72 309.397 316.16C318.443 286.869 368.043 128.491 368.043 128.491C375.253 104.832 404.523 98.0267 422.827 104C435.733 108.181 459.051 125.995 451.52 153.6C450.112 158.635 410.56 286.059 395.968 324.821C388.352 345.045 369.045 388.949 325.056 382.848C311.659 412.501 300.523 429.76 283.669 445.248C338.539 471.232 418.496 445.056 452.16 343.36C464.661 305.536 508.565 169.152 508.565 169.152C521.323 127.275 498.56 67.4347 439.616 47.9361Z" fill="url(#paint0_linear_1485_17589)"/>
</g>
</g>
<defs>
<linearGradient id="paint0_linear_1485_17589" x1="16.1919" y1="120.256" x2="557.973" y2="369.301" gradientUnits="userSpaceOnUse">
<stop stop-color="#40EDD8"/>
<stop offset="0.024" stop-color="#38E7E2"/>
<stop offset="0.084" stop-color="#28DAF7"/>
<stop offset="0.124" stop-color="#22D5FF"/>
<stop offset="0.36" stop-color="#1ABFFF"/>
<stop offset="0.85" stop-color="#0786FE"/>
<stop offset="0.909" stop-color="#047FFE"/>
</linearGradient>
<clipPath id="clip0_1485_17589">
<rect width="512" height="512" fill="white"/>
</clipPath>
<clipPath id="clip1_1485_17589">
<rect width="512" height="512" fill="white"/>
</clipPath>
</defs>
</svg>
