<svg viewBox="0 0 16 16" fill="none" xmlns="http://www.w3.org/2000/svg">
<path d="M4.91396 12.7428L5.41396 10.7428C5.57175 10.1116 5.09439 9.50024 4.44382 9.50024H2.50538C2.04651 9.50024 1.64652 9.81253 1.53523 10.2577L1.03523 12.2577C0.877446 12.8888 1.3548 13.5002 2.00538 13.5002H3.94382C4.40269 13.5002 4.80267 13.1879 4.91396 12.7428Z" stroke="currentColor" stroke-width="1.3" stroke-linecap="round"/>
<path d="M5.91396 6.74277L6.41396 4.74277C6.57175 4.11163 6.09439 3.50024 5.44382 3.50024H3.50538C3.04651 3.50024 2.64652 3.81253 2.53523 4.2577L2.03523 6.2577C1.87745 6.88885 2.3548 7.50024 3.00538 7.50024H4.94382C5.40269 7.50024 5.80267 7.18794 5.91396 6.74277Z" stroke="currentColor" stroke-width="1.3" stroke-linecap="round"/>
<path d="M10.914 12.7428L11.414 10.7428C11.5718 10.1116 11.0944 9.50024 10.4438 9.50024H8.50538C8.04651 9.50024 7.64652 9.81253 7.53523 10.2577L7.03523 12.2577C6.87745 12.8888 7.3548 13.5002 8.00538 13.5002H9.94382C10.4027 13.5002 10.8027 13.1879 10.914 12.7428Z" stroke="currentColor" stroke-width="1.3" stroke-linecap="round"/>
<path d="M12.2342 5.46739L11.5287 7.11354C11.4248 7.35597 11.0811 7.35597 10.9772 7.11354L10.2717 5.46739C10.2414 5.39659 10.185 5.34017 10.1141 5.30983L8.468 4.60433C8.22557 4.50044 8.22557 4.15675 8.468 4.05285L10.1141 3.34736C10.185 3.31701 10.2414 3.26059 10.2717 3.18979L10.9772 1.54364C11.0811 1.30121 11.4248 1.30121 11.5287 1.54364L12.2342 3.18979C12.2645 3.26059 12.3209 3.31701 12.3918 3.34736L14.0379 4.05285C14.2803 4.15675 14.2803 4.50044 14.0379 4.60433L12.3918 5.30983C12.3209 5.34017 12.2645 5.39659 12.2342 5.46739Z" stroke="currentColor" stroke-width="1.3" stroke-linecap="round"/>
</svg>