<svg viewBox="0 0 16 16" fill="none" xmlns="http://www.w3.org/2000/svg">
<path d="M8.99999 4H6.99999M8.99999 12H7.6231C5.02081 12 3.11138 9.55445 3.74252 7.02986L3.99999 6M13.6894 3.24254L13.1894 5.24254C13.0781 5.6877 12.6781 6 12.2192 6H10.2808C9.63019 6 9.15284 5.38861 9.31062 4.75746L9.81062 2.75746C9.92192 2.3123 10.3219 2 10.7808 2H12.7192C13.3698 2 13.8471 2.61139 13.6894 3.24254ZM6.68936 3.24254L6.18936 5.24254C6.07806 5.6877 5.67808 6 5.21921 6H3.28077C2.63019 6 2.15284 5.38861 2.31062 4.75746L2.81062 2.75746C2.92191 2.3123 3.3219 2 3.78077 2H5.71921C6.36978 2 6.84714 2.61139 6.68936 3.24254ZM13.6894 11.2425L13.1894 13.2425C13.0781 13.6877 12.6781 14 12.2192 14H10.2808C9.63019 14 9.15284 13.3886 9.31062 12.7575L9.81062 10.7575C9.92192 10.3123 10.3219 10 10.7808 10H12.7192C13.3698 10 13.8471 10.6114 13.6894 11.2425Z" stroke="currentColor" stroke-width="1.3" stroke-linecap="round"/>
</svg>
