<svg width="16" height="16" viewBox="0 0 16 16" fill="none" xmlns="http://www.w3.org/2000/svg">
<path d="M14 5V3C14 2.44772 13.5523 2 13 2H11C10.4477 2 10 2.44772 10 3V5C10 5.55228 10.4477 6 11 6H13C13.5523 6 14 5.55228 14 5Z" stroke="currentColor" stroke-width="1.3" stroke-linecap="round"/>
<path d="M6 5V3C6 2.44772 5.55228 2 5 2H3C2.44772 2 2 2.44772 2 3V5C2 5.55228 2.44772 6 3 6H5C5.55228 6 6 5.55228 6 5Z" stroke="currentColor" stroke-width="1.3" stroke-linecap="round"/>
<path d="M14 13V11C14 10.4477 13.5523 10 13 10H11C10.4477 10 10 10.4477 10 11V13C10 13.5523 10.4477 14 11 14H13C13.5523 14 14 13.5523 14 13Z" stroke="currentColor" stroke-width="1.3" stroke-linecap="round"/>
<path d="M10 4H6" stroke="currentColor" stroke-width="1.3" stroke-linecap="round"/>
<path d="M10 12H8C5.79086 12 4 10.2091 4 8V6" stroke="currentColor" stroke-width="1.3" stroke-linecap="round"/>
</svg>
