<svg xmlns="http://www.w3.org/2000/svg" width="1200" height="438" viewBox="0 0 1200 438" role="img"><title>Workflow graph and nested graphs</title><desc>Original node positions and connections. Notes and widget previews are available in the downloadable workflow.</desc><style>text{font-family:Arial,sans-serif;fill:#c2bfb9}.heading{font-size:20px;fill:#f0efed}.title{font-size:14px}.slot{font-size:12px}.node{fill:#2a2330;stroke:#7e7c78;stroke-width:1}.divider{stroke:#7e7c78;stroke-opacity:.5}.links{fill:none;stroke:#f2ff59;stroke-width:2;stroke-opacity:.55}</style><rect width="100%" height="100%" fill="#211927"/><g transform="translate(0 0)"><text x="32" y="36" class="heading">Workflow overview</text><g transform="translate(32 64) scale(0.6107578188660859) translate(670 -7774)"><g class="links"><path d="M-310.015625 7864 C-250.015625 7864,-330 7864,-270 7864"/><path d="M-0.015625 7864 C59.984375 7864,-40 7874,20 7874"/><path d="M419.640625 7854 C479.640625 7854,400 7844,460 7844"/></g><svg x="460" y="7804" width="699.984375" height="151.9375" overflow="hidden"><rect width="100%" height="100%" rx="8" class="node"/><path d="M0 26H699.984375" class="divider"/><text x="10" y="18" class="title">Save Video</text><g transform="translate(0 26)"><text x="10" y="19" text-anchor="start" class="slot">video</text><text x="689.984375" y="19" text-anchor="end" class="slot">video</text></g></svg><svg x="-640" y="7824" width="329.984375" height="495.984375" overflow="hidden"><rect width="100%" height="100%" rx="8" class="node"/><path d="M0 26H329.984375" class="divider"/><text x="10" y="18" class="title">Load Video</text><g transform="translate(0 26)"><text x="319.984375" y="19" text-anchor="end" class="slot">VIDEO</text></g></svg><svg x="-270" y="7824" width="269.984375" height="175.984375" overflow="hidden"><rect width="100%" height="100%" rx="8" class="node"/><path d="M0 26H269.984375" class="divider"/><text x="10" y="18" class="title">Video Slice</text><g transform="translate(0 26)"><text x="10" y="19" text-anchor="start" class="slot">video</text><text x="259.984375" y="19" text-anchor="end" class="slot">VIDEO</text></g></svg><svg x="20" y="7814" width="399.640625" height="488.859375" overflow="hidden"><rect width="100%" height="100%" rx="8" class="node"/><path d="M0 26H399.640625" class="divider"/><text x="10" y="18" class="title">Byte Dance2Reference Node V2</text><g transform="translate(0 26)"><text x="10" y="19" text-anchor="start" class="slot">model.reference_images.i</text><text x="10" y="39" text-anchor="start" class="slot">model.reference_videos.v</text><text x="10" y="59" text-anchor="start" class="slot">model.reference_videos.v</text><text x="10" y="79" text-anchor="start" class="slot">model.reference_audios.a</text><text x="10" y="99" text-anchor="start" class="slot">model.reference_assets.a</text><text x="389.640625" y="19" text-anchor="end" class="slot">VIDEO</text></g></svg></g></g></svg>
