<?xml version="1.0" encoding="UTF-8"?>
<svg id="Layer_1" xmlns="http://www.w3.org/2000/svg" version="1.1" viewBox="0 0 450 125.2">
  <!-- Generator: Adobe Illustrator 29.5.1, SVG Export Plug-In . SVG Version: 2.1.0 Build 141)  -->
  <defs>
    <style>
      .st0 {
        fill: #f3ff56;
      }

      .st1 {
        fill: #fff;
      }

      .st2 {
        opacity: .6;
      }

      .st3 {
        display: none;
      }
    </style>
  </defs>
  <g id="watermark" class="st3">
    <g>
      <g id="watermark1" data-name="watermark" class="st2">
        <g>
          <g>
            <g>
              <polygon class="st1" points="188.8 273.8 183.2 286.6 180.3 286.6 174.7 273.8 177.9 273.8 181.8 283 185.8 273.8 188.8 273.8"/>
              <path class="st1" d="M198.5,282.3h-7.5c.3,1.2,1.3,2,2.8,2s1.8-.3,2.5-1l1.5,1.7c-.9,1-2.3,1.6-4.1,1.6-3.4,0-5.6-2.1-5.6-5.1s2.3-5.1,5.3-5.1,5.1,1.9,5.1,5.1c0,.2,0,.5,0,.8M191,280.7h4.9c-.2-1.2-1.1-2.1-2.4-2.1-1.3,0-2.2.8-2.4,2.1"/>
              <path class="st1" d="M199.7,281.5c0-3,2.3-5.1,5.5-5.1s3.7.9,4.4,2.5l-2.2,1.2c-.5-.9-1.3-1.4-2.2-1.4-1.4,0-2.6,1-2.6,2.7s1.1,2.7,2.6,2.7,1.7-.4,2.2-1.4l2.2,1.2c-.7,1.6-2.3,2.5-4.4,2.5-3.2,0-5.5-2.1-5.5-5.1"/>
              <path class="st1" d="M217.8,286c-.6.4-1.4.6-2.3.6-2.3,0-3.7-1.2-3.7-3.5v-4.1h-1.5v-2.2h1.5v-2.4h2.9v2.4h2.5v2.2h-2.5v4c0,.8.5,1.3,1.2,1.3s.8-.1,1.2-.4l.8,2Z"/>
            </g>
            <path class="st1" d="M237.5,276.6v2.6c-.2,0-.4,0-.6,0-1.6,0-2.6.9-2.6,2.8v4.7h-2.9v-9.9h2.7v1.3c.7-1,1.9-1.5,3.4-1.5"/>
            <path class="st1" d="M238.3,285.1l1-2.2c1.1.8,2.7,1.3,4.2,1.3s2.5-.6,2.5-1.4c0-2.4-7.5-.8-7.5-5.5s1.8-4,5.4-4,3.3.4,4.5,1.1l-.9,2.3c-1.2-.7-2.4-1-3.6-1-1.8,0-2.4.7-2.4,1.5,0,2.4,7.5.7,7.5,5.5s-1.8,4-5.5,4c-2,0-4.1-.6-5.2-1.5"/>
            <path class="st1" d="M260.4,282.3h-7.5c.3,1.2,1.3,2,2.8,2s1.8-.3,2.5-1l1.5,1.7c-.9,1-2.3,1.6-4.1,1.6-3.4,0-5.6-2.1-5.6-5.1s2.3-5.1,5.3-5.1,5.1,1.9,5.1,5.1c0,.2,0,.5,0,.8M252.9,280.7h4.9c-.2-1.2-1.1-2.1-2.4-2.1-1.3,0-2.2.8-2.4,2.1"/>
            <path class="st1" d="M272,282.3h-7.5c.3,1.2,1.3,2,2.8,2s1.8-.3,2.5-1l1.5,1.7c-.9,1-2.3,1.6-4.1,1.6-3.4,0-5.6-2.1-5.6-5.1s2.3-5.1,5.3-5.1,5.1,1.9,5.1,5.1c0,.2,0,.5,0,.8M264.5,280.7h4.9c-.2-1.2-1.1-2.1-2.4-2.1-1.3,0-2.2.8-2.4,2.1"/>
            <polygon class="st1" points="278.2 282.8 276.8 284.1 276.8 286.6 274 286.6 274 273 276.8 273 276.8 280.7 281 276.8 284.4 276.8 280.3 280.9 284.8 286.6 281.3 286.6 278.2 282.8"/>
            <path class="st1" d="M231.6,288h0l-2.9-2.9c-.4.5-1,.9-1.5,1.3,0,0-.2.1-.3.2l3,3c.5.5,1.2.5,1.7,0,.5-.5.5-1.2,0-1.7"/>
            <path class="st1" d="M225,275.9c.2-.2.5-.3.8-.3s0,0,.1,0c-.2-.2-.5-.2-.8-.2s-.7.2-1,.5c0,0-.1,0-.2,0,0,0,0-.2,0-.3,0-.2-.1-.4-.3-.5,0,.1.1.3.1.4s0,.2,0,.3c-2.8.2-5,2.5-5,5.4s2.4,5.4,5.4,5.4,5.4-2.4,5.4-5.4c0-2.7-2-5-4.6-5.4M223,277.3c.4,0,.8.1,1.2.3.4-.2.8-.4,1.3-.4.7,0,1.3.3,1.8.8-.4-.4-1-.6-1.6-.6s-.9.1-1.2.3c0,0-.2,0-.2.1,0,0-.1,0-.2-.1-.4-.2-.8-.3-1.3-.3s-.6,0-.9.2c.3-.2.7-.3,1.1-.3M226.8,281.7c.1.3.2.6.2,1,0,1.5-1.2,2.8-2.8,2.8s-2.8-1.2-2.8-2.8,0-.7.2-1c-.6-.4-1-1.1-1-1.8,0-1.2,1-2.2,2.2-2.2s1.1.2,1.5.6c.4-.4.9-.6,1.5-.6,1.2,0,2.2,1,2.2,2.2s-.4,1.5-1,1.8"/>
            <path class="st1" d="M226.7,279.7c0,.5-.4.9-.9.9s-.9-.4-.9-.9.4-.9.9-.9.2,0,.3,0c0,0,0,.1,0,.2,0,.3.2.5.5.5s0,0,.1,0c0,0,0,.1,0,.2"/>
            <path class="st1" d="M223.3,279.7c0,.4-.3.7-.7.7s-.7-.3-.7-.7.3-.7.7-.7.1,0,.2,0c0,0,0,.1,0,.2,0,.2.2.4.4.4s0,0,.1,0c0,0,0,0,0,.1"/>
            <g>
              <g>
                <rect class="st1" x="217.9" y="280.4" width=".6" height=".6"/>
                <rect class="st1" x="229.8" y="280.4" width=".6" height=".6"/>
                <path class="st1" d="M230.2,280.7h-.1c0-3.2-2.6-5.9-5.9-5.9s-5.9,2.6-5.9,5.9h-.1c0-1.6.6-3.1,1.8-4.3s2.7-1.8,4.3-1.8,3.1.6,4.3,1.8c1.1,1.1,1.8,2.7,1.8,4.3"/>
              </g>
              <rect class="st1" x="223.9" y="274.4" width=".6" height=".6"/>
              <rect class="st1" x="219.9" y="274.7" width="8.4" height=".1"/>
              <path class="st1" d="M220.2,274.8c0,.1,0,.2-.2.2s-.2,0-.2-.2,0-.2.2-.2c.1,0,.2,0,.2.2"/>
              <path class="st1" d="M228.6,274.8c0,.1,0,.2-.2.2s-.2,0-.2-.2,0-.2.2-.2c.1,0,.2,0,.2.2"/>
            </g>
          </g>
          <path class="st1" d="M289.4,286c0,1.6-2.4,1.6-2.4,0,0-1.6,2.4-1.6,2.4,0Z"/>
          <g>
            <g>
              <path class="st1" d="M136.7,279.2l1.8,6.1,1.9-6.1h2.2l-2.8,8.1h-2.3l-.8-2.4-.7-2.7-.7,2.7-.8,2.4h-2.3l-2.8-8.1h2.2l1.9,6.1,1.8-6.1h1.8Z"/>
              <path class="st1" d="M151.7,279.2l1.8,6.1,1.9-6.1h2.2l-2.8,8.1h-2.3l-.8-2.4-.7-2.7-.7,2.7-.8,2.4h-2.3l-2.8-8.1h2.2l1.9,6.1,1.8-6.1h1.8Z"/>
              <path class="st1" d="M166.7,279.2l1.8,6.1,1.9-6.1h2.2l-2.8,8.1h-2.3l-.8-2.4-.7-2.7-.7,2.7-.8,2.4h-2.3l-2.8-8.1h2.2l1.9,6.1,1.8-6.1h1.8Z"/>
            </g>
            <path class="st1" d="M175.9,286.1c0,1.6-2.4,1.6-2.4,0,0-1.6,2.4-1.6,2.4,0Z"/>
            <path class="st1" d="M297.7,286c-.9.9-1.9,1.3-3.1,1.3-2.3,0-4.3-1.4-4.3-4.3s2-4.3,4.3-4.3,2,.3,2.9,1.2l-1.3,1.3c-.5-.4-1.1-.6-1.6-.6-1.3,0-2.3,1-2.3,2.4s1,2.4,2.3,2.4,1.3-.2,1.8-.7l1.3,1.3Z"/>
            <path class="st1" d="M306.8,283.1c0,2.3-1.6,4.2-4.2,4.2s-4.2-1.9-4.2-4.2,1.6-4.2,4.2-4.2c2.6,0,4.2,1.9,4.2,4.2ZM300.4,283.1c0,1.2.7,2.4,2.2,2.4s2.2-1.1,2.2-2.4-.9-2.4-2.2-2.4c-1.4,0-2.2,1.2-2.2,2.4Z"/>
            <path class="st1" d="M313.6,287.3v-4.3c0-1.1-.6-2-1.7-2s-1.7,1-1.7,2v4.3h-2v-8.1h1.9v1c.6-.8,1.5-1.1,2.3-1.1s1.9.4,2.4,1.5c.7-1.1,1.7-1.5,2.7-1.5,2.3,0,3.4,1.4,3.4,3.8v4.4h-2v-4.4c0-1.1-.4-2-1.5-2s-1.8.9-1.8,2v4.3h-2Z"/>
          </g>
        </g>
      </g>
      <g class="st2">
        <g>
          <path class="st1" d="M321,243.9c0-1.2-1-2.1-2.2-2.1-.9,0-.8.1-.8-.9,0-1.1,0-2.2,0-3.3,0-.4-.1-.7-.4-1-2.3-2.7-4.7-5.3-7-8-.1-.1-.3-.2-.4-.4h-18.6c-.8.3-1.1.9-1.1,1.7,0,3.7,0,7.5,0,11.2s0,.6-.5.6c-1.5-.1-2.5,1-2.5,2.5,0,3.5,0,7,0,10.4,0,1.6.9,2.4,2.5,2.4q.6,0,.6.6c0,2.2,0,4.4,0,6.7,0,1.2.6,1.8,1.8,1.8,8,0,16,0,24,0,1.2,0,1.8-.6,1.8-1.7,0-2.3,0-4.5,0-6.8,0-.5,0-.5.5-.5.3,0,.5,0,.8,0,1-.2,1.7-1,1.7-2.1,0-3.7,0-7.4,0-11.1ZM292.5,229.8h16c.5,0,.6,0,.6.6,0,2.2,0,4.5,0,6.7,0,.8.2,1.1,1.1,1.1,1.9,0,3.8,0,5.7,0,.5,0,.5,0,.5.5,0,.9,0,1.8,0,2.7,0,.5,0,.5-.5.5-3.9,0-7.8,0-11.7,0h-11.6c-.5,0-.6,0-.6-.6,0-3.6,0-7.2,0-10.9,0-.6,0-.6.6-.6ZM315.8,264.2c-3.9,0-7.8,0-11.6,0h-11.6c-.6,0-.6,0-.6-.6,0-2,0-4,0-6,0-.5,0-.5.5-.5,7.8,0,15.6,0,23.4,0,.5,0,.5,0,.5.5,0,2,0,4,0,6,0,.6,0,.6-.6.6Z"/>
          <g>
            <rect class="st1" x="302.4" y="229.7" width="1.8" height="1.1"/>
            <rect class="st1" x="300.7" y="230.7" width="1.8" height="1.1"/>
            <rect class="st1" x="302.4" y="231.8" width="1.8" height="1.1"/>
            <rect class="st1" x="300.7" y="232.8" width="1.8" height="1.1"/>
            <rect class="st1" x="302.4" y="233.9" width="1.8" height="1.1"/>
            <rect class="st1" x="300.7" y="234.9" width="1.8" height="1.1"/>
            <rect class="st1" x="302.4" y="236" width="1.8" height="1.1"/>
            <rect class="st1" x="300.7" y="237" width="1.8" height="1.1"/>
            <rect class="st1" x="302.4" y="238.1" width="1.8" height="1.1"/>
            <rect class="st1" x="300.7" y="239.1" width="1.8" height="1.1"/>
            <rect class="st1" x="302.4" y="240.2" width="1.8" height="1.1"/>
            <rect class="st1" x="300.7" y="241.3" width="1.8" height="1.1"/>
          </g>
        </g>
        <path class="st1" d="M162.6,243.9c0-1.2-1-2.1-2.2-2.1-.9,0-.8.1-.8-.9,0-1.1,0-2.2,0-3.3,0-.4-.1-.7-.4-1-2.3-2.7-4.7-5.3-7-8-.1-.1-.3-.2-.4-.4h-18.6c-.8.3-1.1.9-1.1,1.7,0,3.7,0,7.5,0,11.2s0,.6-.6.6c-1.5-.1-2.5,1-2.5,2.5,0,3.5,0,7,0,10.4,0,1.6.9,2.4,2.4,2.4q.6,0,.6.6c0,2.2,0,4.4,0,6.7,0,1.2.6,1.8,1.8,1.8,8,0,16,0,24,0,1.2,0,1.8-.6,1.8-1.7,0-2.3,0-4.5,0-6.8,0-.5,0-.5.5-.5.3,0,.5,0,.8,0,1-.2,1.7-1,1.7-2.1,0-3.7,0-7.4,0-11.1ZM134.2,229.8h16c.5,0,.6,0,.6.6,0,2.2,0,4.5,0,6.7,0,.8.2,1.1,1.1,1.1,1.9,0,3.8,0,5.7,0,.5,0,.5,0,.5.5,0,.9,0,1.8,0,2.7,0,.5,0,.5-.5.5-3.9,0-7.8,0-11.7,0h-11.6c-.6,0-.6,0-.6-.6,0-3.6,0-7.2,0-10.9,0-.6,0-.6.6-.6ZM157.5,264.2c-3.9,0-7.8,0-11.6,0h-11.6c-.6,0-.6,0-.6-.6,0-2,0-4,0-6,0-.5,0-.5.5-.5,7.8,0,15.6,0,23.4,0,.5,0,.5,0,.5.5,0,2,0,4,0,6,0,.6,0,.6-.6.6Z"/>
        <g>
          <path class="st1" d="M134.8,253.3v-7.9h2.8c.4,0,.7,0,1.1.2s.6.3.9.5c.2.2.4.5.6.8.1.3.2.6.2,1s0,.7-.2,1-.3.6-.6.8c-.2.2-.5.4-.9.5s-.7.2-1.1.2h-1.3v2.9h-1.5ZM137.6,249c.4,0,.7-.1.9-.3.2-.2.3-.5.3-.8s0-.3,0-.4-.1-.2-.2-.3c0,0-.2-.2-.4-.2-.1,0-.3,0-.5,0h-1.3v2.2h1.3Z"/>
          <path class="st1" d="M141.3,245.4h1.7l3.2,5.3h0v-1.5c0,0,0-3.8,0-3.8h1.5v7.9h-1.6l-3.4-5.6h0v1.5c0,0,0,4.1,0,4.1h-1.5v-7.9h0Z"/>
          <path class="st1" d="M152.9,248.9h3.9c0,0,0,.2,0,.3,0,.1,0,.2,0,.4,0,.5,0,1-.2,1.4s-.4.8-.7,1.2c-.4.4-.8.7-1.3.9-.5.2-1.1.3-1.7.3s-1.1-.1-1.6-.3c-.5-.2-.9-.5-1.3-.9-.4-.4-.7-.8-.9-1.3s-.3-1.1-.3-1.6.1-1.1.3-1.6.5-.9.9-1.3c.4-.4.8-.7,1.3-.9s1-.3,1.6-.3,1.2.1,1.7.3.9.5,1.3.9l-1,1c-.3-.3-.5-.5-.9-.6-.3-.1-.7-.2-1.1-.2s-.7,0-1,.2c-.3.1-.6.3-.9.5-.2.2-.4.5-.6.9-.1.3-.2.7-.2,1.1s0,.8.2,1.1c.1.3.3.6.6.9.2.2.5.4.9.5.3.1.7.2,1,.2s.8,0,1.1-.2c.3-.1.5-.3.7-.5.1-.1.3-.3.4-.5.1-.2.2-.4.2-.7h-2.5v-1.3h0Z"/>
        </g>
        <path class="st1" d="M199,243.9c0-1.2-1-2.1-2.2-2.1-.9,0-.8.1-.8-.9,0-1.1,0-2.2,0-3.3,0-.4-.1-.7-.4-1-2.3-2.7-4.7-5.3-7-8-.1-.1-.3-.2-.4-.4h-18.6c-.8.3-1.1.9-1.1,1.7,0,3.7,0,7.5,0,11.2s0,.6-.6.6c-1.5-.1-2.5,1-2.5,2.5,0,3.5,0,7,0,10.4,0,1.6.9,2.4,2.4,2.4q.6,0,.6.6c0,2.2,0,4.4,0,6.7,0,1.2.6,1.8,1.8,1.8,8,0,16,0,24,0,1.2,0,1.8-.6,1.8-1.7,0-2.3,0-4.5,0-6.8,0-.5,0-.5.5-.5.3,0,.5,0,.8,0,1-.2,1.7-1,1.7-2.1,0-3.7,0-7.4,0-11.1ZM170.6,229.8h16c.5,0,.6,0,.6.6,0,2.2,0,4.5,0,6.7,0,.8.2,1.1,1.1,1.1,1.9,0,3.8,0,5.7,0,.5,0,.5,0,.5.5,0,.9,0,1.8,0,2.7,0,.5,0,.5-.5.5-3.9,0-7.8,0-11.7,0h-11.6c-.6,0-.6,0-.6-.6,0-3.6,0-7.2,0-10.9,0-.6,0-.6.6-.6ZM193.9,264.2c-3.9,0-7.8,0-11.6,0h-11.6c-.6,0-.6,0-.6-.6,0-2,0-4,0-6,0-.5,0-.5.5-.5,7.8,0,15.6,0,23.4,0,.5,0,.5,0,.5.5,0,2,0,4,0,6,0,.6,0,.6-.6.6Z"/>
        <g>
          <path class="st1" d="M180.1,245.4h1.7l3,7.9h-1.6l-.7-1.9h-3l-.7,1.9h-1.6l3-7.9ZM182,250l-.7-2-.3-1h0l-.3,1-.7,2h2.1Z"/>
          <path class="st1" d="M186.3,247.1c-.1,0-.2,0-.4,0s-.2-.1-.3-.2c0,0-.2-.2-.2-.3,0-.1,0-.2,0-.4s0-.3,0-.4c0-.1.1-.2.2-.3,0,0,.2-.2.3-.2.1,0,.2,0,.4,0,.3,0,.5,0,.7.3.2.2.3.4.3.7s0,.5-.3.7c-.2.2-.4.3-.7.3ZM185.6,253.3v-5.4h1.4v5.4h-1.4Z"/>
        </g>
        <path class="st1" d="M236,243.9c0-1.2-1-2.1-2.2-2.1-.9,0-.8.1-.8-.9,0-1.1,0-2.2,0-3.3,0-.4-.1-.7-.4-1-2.3-2.7-4.7-5.3-7-8-.1-.1-.3-.2-.4-.4h-18.6c-.8.3-1.1.9-1.1,1.7,0,3.7,0,7.5,0,11.2s0,.6-.6.6c-1.5-.1-2.5,1-2.5,2.5,0,3.5,0,7,0,10.4,0,1.6.9,2.4,2.4,2.4q.6,0,.6.6c0,2.2,0,4.4,0,6.7,0,1.2.6,1.8,1.8,1.8,8,0,16,0,24,0,1.2,0,1.8-.6,1.8-1.7,0-2.3,0-4.5,0-6.8,0-.5,0-.5.5-.5.3,0,.5,0,.8,0,1-.2,1.7-1,1.7-2.1,0-3.7,0-7.4,0-11.1ZM207.6,229.8h16c.5,0,.6,0,.6.6,0,2.2,0,4.5,0,6.7,0,.8.2,1.1,1.1,1.1,1.9,0,3.8,0,5.7,0,.5,0,.5,0,.5.5,0,.9,0,1.8,0,2.7,0,.5,0,.5-.5.5-3.9,0-7.8,0-11.7,0h-11.6c-.6,0-.6,0-.6-.6,0-3.6,0-7.2,0-10.9,0-.6,0-.6.6-.6ZM230.9,264.2c-3.9,0-7.8,0-11.6,0h-11.6c-.6,0-.6,0-.6-.6,0-2,0-4,0-6,0-.5,0-.5.5-.5,7.8,0,15.6,0,23.4,0,.5,0,.5,0,.5.5,0,2,0,4,0,6,0,.6,0,.6-.6.6Z"/>
        <g>
          <path class="st1" d="M211.4,253.5c-.3,0-.7,0-1-.1-.3,0-.6-.2-.8-.4-.3-.2-.5-.4-.7-.7-.2-.3-.3-.6-.5-1l1.4-.6c.1.4.3.7.5,1,.3.3.6.4,1,.4s.3,0,.4,0c.1,0,.3,0,.4-.2s.2-.2.3-.3c0-.1,0-.3,0-.4s0-.3,0-.4c0-.1-.1-.2-.3-.3-.1-.1-.3-.2-.5-.3-.2,0-.4-.2-.7-.3l-.5-.2c-.2,0-.4-.2-.6-.3-.2-.1-.4-.3-.6-.5s-.3-.4-.4-.6c-.1-.2-.2-.5-.2-.8s0-.6.2-.9c.1-.3.3-.5.5-.7.2-.2.5-.4.8-.5s.7-.2,1-.2.7,0,1,.2.5.2.7.4c.2.2.4.3.5.5.1.2.2.4.3.6l-1.3.6c0-.2-.2-.4-.4-.6-.2-.2-.5-.3-.8-.3s-.6,0-.8.2-.3.3-.3.6.1.4.3.6c.2.2.5.3,1,.5l.5.2c.3.1.6.2.9.4.3.1.5.3.7.5.2.2.3.4.4.7.1.3.1.5.1.9s0,.8-.2,1.1c-.2.3-.4.5-.6.7-.3.2-.5.3-.9.4-.3,0-.6.1-1,.1Z"/>
          <path class="st1" d="M214.5,245.4h1.6l1.6,4.8.3,1h0l.3-1,1.7-4.8h1.6l-2.9,7.9h-1.6l-2.8-7.9Z"/>
          <path class="st1" d="M226.1,248.9h3.9c0,0,0,.2,0,.3s0,.2,0,.4c0,.5,0,1-.2,1.4-.2.4-.4.8-.7,1.2-.4.4-.8.7-1.3.9-.5.2-1.1.3-1.7.3s-1.1-.1-1.6-.3-.9-.5-1.3-.9c-.4-.4-.7-.8-.9-1.3-.2-.5-.3-1.1-.3-1.6s.1-1.1.3-1.6.5-.9.9-1.3c.4-.4.8-.7,1.3-.9.5-.2,1-.3,1.6-.3s1.2.1,1.7.3.9.5,1.3.9l-1,1c-.3-.3-.5-.5-.9-.6-.3-.1-.7-.2-1.1-.2s-.7,0-1,.2c-.3.1-.6.3-.8.5-.2.2-.4.5-.6.9-.1.3-.2.7-.2,1.1s0,.8.2,1.1c.1.3.3.6.6.9.2.2.5.4.9.5.3.1.7.2,1,.2s.8,0,1.1-.2.5-.3.7-.5c.1-.1.3-.3.4-.5.1-.2.2-.4.2-.7h-2.5v-1.3h0Z"/>
        </g>
        <path class="st1" d="M272.3,243.9c0-1.2-1-2.1-2.2-2.1-.9,0-.8.1-.8-.9,0-1.1,0-2.2,0-3.3,0-.4-.1-.7-.4-1-2.3-2.7-4.7-5.3-7-8-.1-.1-.3-.2-.4-.4h-18.6c-.8.3-1.1.9-1.1,1.7,0,3.7,0,7.5,0,11.2s0,.6-.5.6c-1.5-.1-2.5,1-2.5,2.5,0,3.5,0,7,0,10.4,0,1.6.9,2.4,2.5,2.4q.6,0,.6.6c0,2.2,0,4.4,0,6.7,0,1.2.6,1.8,1.8,1.8,8,0,16,0,24,0,1.2,0,1.8-.6,1.8-1.7,0-2.3,0-4.5,0-6.8,0-.5,0-.5.5-.5.3,0,.5,0,.8,0,1-.2,1.7-1,1.7-2.1,0-3.7,0-7.4,0-11.1ZM243.8,229.8h16c.5,0,.6,0,.6.6,0,2.2,0,4.5,0,6.7,0,.8.2,1.1,1.1,1.1,1.9,0,3.8,0,5.7,0,.5,0,.5,0,.5.5,0,.9,0,1.8,0,2.7,0,.5,0,.5-.5.5-3.9,0-7.8,0-11.7,0h-11.6c-.5,0-.6,0-.6-.6,0-3.6,0-7.2,0-10.9,0-.6,0-.6.6-.6ZM267.1,264.2c-3.9,0-7.8,0-11.6,0h-11.6c-.6,0-.6,0-.6-.6,0-2,0-4,0-6,0-.5,0-.5.5-.5,7.8,0,15.6,0,23.4,0,.5,0,.5,0,.5.5,0,2,0,4,0,6,0,.6,0,.6-.6.6Z"/>
        <g>
          <path class="st1" d="M248,246.8v1.8h3.2v1.4h-3.2v1.8h3.5v1.4h-5v-7.9h5v1.4h-3.5Z"/>
          <path class="st1" d="M252.9,253.3v-7.9h2.8c.4,0,.7,0,1.1.2s.6.3.9.5.4.5.6.8c.1.3.2.6.2,1s0,.7-.2,1c-.1.3-.3.6-.6.8s-.5.4-.9.5-.7.2-1.1.2h-1.3v2.9h-1.5ZM255.7,249c.4,0,.7-.1.9-.3.2-.2.3-.5.3-.8s0-.3,0-.4-.1-.2-.2-.3c0,0-.2-.2-.4-.2-.1,0-.3,0-.5,0h-1.3v2.2h1.3Z"/>
          <path class="st1" d="M261.8,253.5c-.3,0-.7,0-1-.1-.3,0-.6-.2-.8-.4-.3-.2-.5-.4-.7-.7-.2-.3-.3-.6-.5-1l1.4-.6c.1.4.3.7.5,1,.3.3.6.4,1,.4s.3,0,.4,0c.1,0,.3,0,.4-.2.1,0,.2-.2.3-.3,0-.1.1-.3.1-.4s0-.3,0-.4c0-.1-.1-.2-.3-.3-.1-.1-.3-.2-.5-.3-.2,0-.4-.2-.7-.3l-.5-.2c-.2,0-.4-.2-.6-.3-.2-.1-.4-.3-.6-.5s-.3-.4-.4-.6c-.1-.2-.2-.5-.2-.8s0-.6.2-.9c.1-.3.3-.5.5-.7.2-.2.5-.4.8-.5.3-.1.7-.2,1-.2s.7,0,1,.2.5.2.7.4c.2.2.4.3.5.5.1.2.2.4.3.6l-1.3.6c0-.2-.2-.4-.4-.6-.2-.2-.5-.3-.8-.3s-.6,0-.8.2c-.2.2-.3.3-.3.6s.1.4.3.6.5.3,1,.5l.5.2c.3.1.6.2.9.4.3.1.5.3.7.5.2.2.3.4.4.7,0,.3.1.5.1.9s0,.8-.2,1.1c-.2.3-.4.5-.6.7-.3.2-.5.3-.9.4-.3,0-.6.1-1,.1Z"/>
        </g>
        <g>
          <path class="st1" d="M296.4,251.8l4-5h-3.8v-1.4h5.6v1.5l-4,5h4v1.4h-5.8v-1.5h0Z"/>
          <path class="st1" d="M303.4,245.4h1.5v7.9h-1.5v-7.9Z"/>
          <path class="st1" d="M306.5,253.3v-7.9h2.8c.4,0,.7,0,1.1.2s.6.3.9.5.4.5.6.8c.1.3.2.6.2,1s0,.7-.2,1c-.1.3-.3.6-.6.8s-.5.4-.9.5-.7.2-1.1.2h-1.3v2.9h-1.5ZM309.3,249c.4,0,.7-.1.9-.3.2-.2.3-.5.3-.8s0-.3,0-.4-.1-.2-.2-.3c0,0-.2-.2-.4-.2-.1,0-.3,0-.5,0h-1.3v2.2h1.3Z"/>
        </g>
      </g>
      <g class="st2">
        <path class="st1" d="M275.1,245.9h9.1v2.2h-9.1v-2.2ZM275.1,249.7h9.1v2.2h-9.1v-2.2Z"/>
      </g>
    </g>
    <g class="st2">
      <path class="st1" d="M131.8,291.5h1.6c1.3,0,2.1.8,2.1,2s-.9,2-2.1,2h-1.6v-3.9ZM133.3,295.1c1,0,1.7-.7,1.7-1.6s-.7-1.6-1.7-1.6h-1.2v3.2h1.2Z"/>
      <path class="st1" d="M140.1,293.5c0-1.1.9-2,2.1-2s2.1.9,2.1,2-.9,2-2.1,2-2.1-.9-2.1-2ZM143.9,293.5c0-.9-.7-1.6-1.7-1.6s-1.7.7-1.7,1.6.7,1.6,1.7,1.6c.9,0,1.7-.7,1.7-1.6Z"/>
      <path class="st1" d="M154.6,291.5l-1.3,3.9h-.4l-1.2-3.4-1.2,3.4h-.4l-1.3-3.9h.4l1.1,3.4,1.2-3.4h.4l1.2,3.4,1.2-3.4h.4Z"/>
      <path class="st1" d="M162.7,291.5v3.9h-.3l-2.5-3.2v3.2h-.4v-3.9h.3l2.5,3.2v-3.2h.4Z"/>
      <path class="st1" d="M168.1,291.5h.4v3.6h2.2v.4h-2.6v-3.9h0Z"/>
      <path class="st1" d="M175.1,293.5c0-1.1.9-2,2.1-2s2.1.9,2.1,2-.9,2-2.1,2-2.1-.9-2.1-2ZM178.8,293.5c0-.9-.7-1.6-1.7-1.6s-1.7.7-1.7,1.6.7,1.6,1.7,1.6c.9,0,1.7-.7,1.7-1.6Z"/>
      <path class="st1" d="M186.6,294.4h-2.2l-.5,1.1h-.4l1.8-3.9h.4l1.8,3.9h-.4l-.5-1.1ZM186.5,294l-.9-2.1-.9,2.1h1.9Z"/>
      <path class="st1" d="M192.3,291.5h1.6c1.3,0,2.1.8,2.1,2s-.9,2-2.1,2h-1.6v-3.9ZM193.9,295.1c1,0,1.7-.7,1.7-1.6s-.7-1.6-1.7-1.6h-1.2v3.2h1.2Z"/>
      <path class="st1" d="M209,294.4h-2.2l-.5,1.1h-.4l1.8-3.9h.4l1.8,3.9h-.4l-.5-1.1ZM208.9,294l-.9-2.1-.9,2.1h1.9Z"/>
      <path class="st1" d="M214.7,291.5h.4v3.6h2.2v.4h-2.6v-3.9h0Z"/>
      <path class="st1" d="M222.1,291.5h.4v3.6h2.2v.4h-2.6v-3.9h0Z"/>
      <path class="st1" d="M235.4,291.8v1.6h2v.4h-2v1.7h-.4v-3.9h2.7v.4h-2.3Z"/>
      <path class="st1" d="M242.7,291.5h.4v3.9h-.4v-3.9Z"/>
      <path class="st1" d="M248.5,291.5h.4v3.6h2.2v.4h-2.6v-3.9h0Z"/>
      <path class="st1" d="M258.6,295.1v.4h-2.8v-3.9h2.7v.4h-2.3v1.4h2v.4h-2v1.5h2.4Z"/>
      <path class="st1" d="M269.7,291.8v1.6h2v.4h-2v1.7h-.4v-3.9h2.7v.4h-2.3Z"/>
      <path class="st1" d="M276.5,293.5c0-1.1.9-2,2.1-2s2.1.9,2.1,2-.9,2-2.1,2-2.1-.9-2.1-2ZM280.2,293.5c0-.9-.7-1.6-1.7-1.6s-1.7.7-1.7,1.6.7,1.6,1.7,1.6c.9,0,1.7-.7,1.7-1.6Z"/>
      <path class="st1" d="M288.3,295.4l-.9-1.3c-.1,0-.2,0-.3,0h-1.1v1.3h-.4v-3.9h1.5c1,0,1.6.5,1.6,1.4s-.3,1.1-.9,1.2l1,1.4h-.5ZM288.3,292.8c0-.6-.4-1-1.2-1h-1v2h1c.8,0,1.2-.4,1.2-1Z"/>
      <path class="st1" d="M297.9,291.5v3.9h-.4v-3.2l-1.6,2.7h-.2l-1.6-2.6v3.1h-.4v-3.9h.3l1.7,2.9,1.7-2.9h.3Z"/>
      <path class="st1" d="M305.7,294.4h-2.2l-.5,1.1h-.4l1.8-3.9h.4l1.8,3.9h-.4l-.5-1.1ZM305.6,294l-.9-2.1-.9,2.1h1.9Z"/>
      <path class="st1" d="M312,291.8h-1.4v-.4h3.2v.4h-1.4v3.6h-.4v-3.6h0Z"/>
      <path class="st1" d="M318.1,295l.2-.3c.3.3.8.5,1.3.5.7,0,1.1-.3,1.1-.7,0-1.1-2.4-.4-2.4-1.9s.5-1.1,1.5-1.1.9.1,1.2.4v.3c-.5-.2-.9-.3-1.2-.3-.7,0-1,.3-1,.7,0,1.1,2.4.4,2.4,1.9s-.5,1.1-1.5,1.1c-.6,0-1.2-.2-1.5-.5Z"/>
    </g>
  </g>
  <path class="st0" d="M376.7,125.2c-2.4,0-4.4-.9-5.7-2.6-1.3-1.8-1.7-4.2-.9-6.7l4.5-15.5c1.5-5.1,6.9-9.3,12-9.3h10c1.2,0,2.2-.8,2.6-1.9l1.7-6c.2-.8,0-1.7-.4-2.3-.5-.7-1.3-1.1-2.1-1.1h-21.9c-.1,0-.2,0-.4,0h-7.4c-2.4,0-4.4-.9-5.7-2.6-1.3-1.8-1.7-4.2-.9-6.7l.9-3c.2-.8,0-1.7-.4-2.3-.5-.7-1.3-1.1-2.1-1.1h-2.8c-1.2,0-2.2.8-2.6,1.9l-1.3,4.5c-1.5,5.1-6.9,9.3-12,9.3h-10c-1.2,0-2.2.8-2.6,1.9l-2.8,9.8s0,.1,0,.2l-4,14s0,.1,0,.2l-2.9,10.1c-1.5,5.1-6.9,9.3-12,9.3h-15.5c-2.4,0-4.4-.9-5.7-2.6-1.3-1.8-1.7-4.2-.9-6.7l13-45.2s0-.1,0-.2l.9-3.2c.2-.8,0-1.7-.4-2.3-.5-.7-1.3-1.1-2.1-1.1h-2.8c-1.2,0-2.2.8-2.6,1.9l-5.7,19.6s0,.1,0,.2l-2.1,7.4c-1.5,5.1-6.9,9.3-12,9.3h-15.5c-2.4,0-4.4-.9-5.7-2.6-1.3-1.8-1.7-4.2-.9-6.7l9.4-32.8c.2-.8,0-1.7-.4-2.3-.5-.7-1.3-1.1-2.1-1.1h-2.8c-1.2,0-2.2.8-2.6,1.9l-4,14s0,.1,0,.2l-5.8,20.1c-1.5,5.1-6.9,9.3-12,9.3h-15.5c-2.4,0-4.4-.9-5.7-2.6-1.3-1.8-1.7-4.2-.9-6.7l4.5-15.5s0-.1,0-.2l4.9-17.1c.2-.8,0-1.7-.4-2.3-.5-.7-1.3-1.1-2.1-1.1h-2.8c-1.2,0-2.2.8-2.6,1.9l-.4,1.4s0,.1,0,.2l-9.1,31.4s0,.1,0,.2l-.3,1.1c-1.5,5.1-6.9,9.3-12,9.3h-15.5c-2.4,0-4.4-.9-5.7-2.6-1.3-1.8-1.7-4.2-.9-6.7l.9-3c.2-.8,0-1.7-.4-2.3-.5-.7-1.3-1.1-2.1-1.1h-2.8c-1.2,0-2.2.8-2.6,1.9l-1.3,4.5c-1.5,5.1-6.9,9.3-12,9.3h-10.1c-1.2,0-2.2.8-2.6,1.9l-3.3,11.5c-1.5,5.1-6.9,9.3-12,9.3h-15.5c-2.4,0-4.4-.9-5.7-2.6-1.3-1.8-1.7-4.2-.9-6.7l2.9-10c.2-.8,0-1.7-.4-2.3-.5-.7-1.3-1.1-2.1-1.1h-8.3c-2.4,0-4.4-.9-5.7-2.6-1.3-1.8-1.7-4.2-.9-6.7l.9-3c.2-.8,0-1.7-.4-2.3-.5-.7-1.3-1.1-2.1-1.1h-2.8c-1.2,0-2.2.8-2.6,1.9l-1.3,4.5c-1.5,5.1-6.9,9.3-12,9.3h-21.3s-15.6,0-15.6,0c-2.4,0-4.4-.9-5.7-2.6-1.3-1.8-1.7-4.2-.9-6.7l2.9-10.1c.2-.8,0-1.7-.4-2.3-.5-.7-1.3-1.1-2.1-1.1H7c-2.4,0-4.4-.9-5.7-2.6-1.3-1.8-1.7-4.2-.9-6.7l7.7-26.9s0-.1,0-.2l2.5-8.7c0,0,0-.1,0-.2l.7-2.3c1.5-5.1,6.9-9.3,12-9.3h10c1.2,0,2.2-.8,2.6-1.9l3.3-11.5C40.7,4.2,46,0,51.2,0h21.3S88,0,88,0c2.4,0,4.4.9,5.7,2.6,1.3,1.8,1.7,4.2.9,6.7l-4.5,15.5c-1.5,5.1-6.9,9.3-12,9.3h-21.3s-9.9,0-9.9,0c-1.2,0-2.2.8-2.6,1.9l-4.4,15.3s0,.1,0,.2l-3.8,13.3c-.2.8,0,1.7.4,2.3.5.7,1.3,1.1,2.1,1.1s14.1,0,14.1,0h15.5c2.4,0,4.4.9,5.7,2.6,1.3,1.8,1.7,4.2.9,6.7l-.9,3.1c-.2.8,0,1.7.4,2.3.5.7,1.3,1.1,2.1,1.1h2.8c1.2,0,2.2-.8,2.6-1.9l1.7-5.8s6.2-21.5,6.2-21.5c1.5-5.1,6.9-9.3,12-9.3h9.9c1.2,0,2.2-.8,2.6-1.9l3.3-11.5c1.5-5.1,6.9-9.3,12-9.3h15.5c2.4,0,4.4.9,5.7,2.6,1.3,1.8,1.7,4.2.9,6.7l-2.9,10c-.2.8,0,1.7.4,2.3.5.7,1.3,1.1,2.1,1.1h8.4c2.4,0,4.4.9,5.7,2.6,1.3,1.8,1.7,4.2.9,6.7l-7.4,25.9c-.2.8,0,1.7.4,2.3s1.3,1.1,2.1,1.1h2.8c1.2,0,2.2-.8,2.6-1.9l3.5-12.2s0-.1,0-.2l9.1-31.4s0-.1,0-.2l1.8-6.1c1.5-5.1,6.9-9.3,12-9.3h36.8c2.4,0,4.4.9,5.7,2.6,1.3,1.8,1.7,4.2.9,6.7l-2.9,10.1c-.2.8,0,1.7.4,2.3.5.7,1.3,1.1,2.1,1.1h2.9c1.2,0,2.2-.8,2.6-1.9l3.3-11.5c1.5-5.1,6.9-9.3,12-9.3h15.5c2.4,0,4.4.9,5.7,2.6,1.3,1.8,1.7,4.2.9,6.7l-2.9,10c-.2.8,0,1.7.4,2.3.5.7,1.3,1.1,2.1,1.1h8.3c2.4,0,4.4.9,5.7,2.6,1.3,1.8,1.7,4.2.9,6.7l-.9,3.1c-.2.8,0,1.7.4,2.3.5.7,1.3,1.1,2.1,1.1h2.8c1.2,0,2.2-.8,2.6-1.9l7.9-27.3c1.5-5.1,6.9-9.3,12-9.3h10c1.2,0,2.2-.8,2.6-1.9l3.3-11.5c1.5-5.1,6.9-9.3,12-9.3h15.5c2.4,0,4.4.9,5.7,2.6,1.3,1.8,1.7,4.2.9,6.7l-4.5,15.5c-1.5,5.1-6.9,9.3-12,9.3h-10c-1.2,0-2.2.8-2.6,1.9l-1.7,6c-.2.8,0,1.7.4,2.3.5.7,1.3,1.1,2.1,1.1h8.4c2.4,0,4.4.9,5.7,2.6,1.3,1.8,1.7,4.2.9,6.7l-.9,3.1c-.2.8,0,1.7.4,2.3.5.7,1.3,1.1,2.1,1.1h2.8c1.2,0,2.2-.8,2.6-1.9l7.9-27.3c1.5-5.1,6.9-9.3,12-9.3h15.5c2.4,0,4.4.9,5.7,2.6,1.3,1.8,1.7,4.2.9,6.7l-7,24.4s0,.1,0,.2l-.8,2.6c-.2.8,0,1.7.4,2.3.5.7,1.3,1.1,2.1,1.1h2.8c1.2,0,2.2-.8,2.6-1.9l8.3-28.6c1.5-5.1,6.9-9.3,12-9.3h15.5c2.4,0,4.4.9,5.7,2.6,1.3,1.8,1.7,4.2.9,6.7l-17.6,61.1c-1.5,5.1-6.9,9.3-12,9.3h-10c-1.2,0-2.2.8-2.6,1.9l-3.3,11.5c-1.5,5.1-6.9,9.3-12,9.3h-15.5ZM125.5,57c-1.2,0-2.2.8-2.6,1.9l-8.3,28.8c-.2.8,0,1.7.4,2.3.5.7,1.3,1.1,2.1,1.1h2.8c1.2,0,2.2-.8,2.6-1.9l8.3-28.8c.2-.8,0-1.7-.4-2.3-.5-.7-1.3-1.1-2.1-1.1h-2.8Z"/>
</svg>