<svg xmlns="http://www.w3.org/2000/svg" viewBox="0 0 48 48" width="48" height="48">
  <style>
    .bg { fill: #211927; }
    .fg { fill: #F2FF59; }
    @media (prefers-color-scheme: dark) {
      .bg { fill: #F0EFED; }
      .fg { fill: #211927; }
    }
  </style>
  <rect class="bg" width="48" height="48" rx="12"/>
  <path class="fg" d="M31.0126 30.48C31.0576 30.3278 31.0822 30.1674 31.0822 29.9987C31.0822 29.0651 30.3294 28.3083 29.4006 28.3083H21.8643C21.4592 28.3124 21.1278 27.9834 21.1278 27.5762C21.1278 27.5022 21.1401 27.4323 21.1565 27.3665L23.1858 20.2593C23.2718 19.9467 23.5581 19.7164 23.8936 19.7164L31.4586 19.7082C33.0542 19.7082 34.4001 18.6264 34.8054 17.1499L35.9429 13.1891C35.9794 13.0493 36 12.8971 36 12.7449C36 11.8154 35.2513 11.0627 34.3268 11.0627H25.1742C23.5868 11.0627 22.2448 12.1362 21.8316 13.5963L21.0624 16.2985C20.9724 16.607 20.6901 16.8332 20.3546 16.8332H18.1575C16.5823 16.8332 15.2526 17.8861 14.8271 19.3298L12.0614 29.0404C12.0205 29.1844 12 29.3407 12 29.4969C12 30.4306 12.7528 31.1874 13.6816 31.1874H15.8418C16.2469 31.1874 16.5783 31.5164 16.5783 31.9277C16.5783 31.9976 16.5701 32.0675 16.5496 32.1334L15.7845 34.8109C15.7477 34.9549 15.7231 35.1029 15.7231 35.255C15.7231 36.1846 16.4719 36.9374 17.3965 36.9374L26.553 36.929C28.1446 36.929 29.4865 35.8513 29.8957 34.3833L31.0085 30.4841L31.0126 30.48Z"/>
</svg>
