<svg width="48" height="48" viewBox="0 0 48 48" fill="none" xmlns="http://www.w3.org/2000/svg">
<rect width="48" height="48" fill="#211927"/>
<path d="M31.0126 30.4797C31.0576 30.3275 31.0822 30.1671 31.0822 29.9985C31.0822 29.0649 30.3294 28.3081 29.4006 28.3081H21.8643C21.4593 28.3122 21.1279 27.9832 21.1279 27.576C21.1279 27.5019 21.1401 27.432 21.1565 27.3662L23.1858 20.259C23.2717 19.9465 23.5581 19.7161 23.8936 19.7161L31.4586 19.7079C33.0542 19.7079 34.4003 18.6262 34.8053 17.1497L35.9427 13.1889C35.9795 13.0491 36 12.8969 36 12.7447C36 11.8152 35.2513 11.0625 34.3266 11.0625H25.1742C23.5868 11.0625 22.2448 12.136 21.8316 13.5961L21.0624 16.2983C20.9724 16.6068 20.6901 16.833 20.3546 16.833H18.1575C16.5823 16.833 15.2526 17.8859 14.8271 19.3295L12.0614 29.0402C12.0205 29.1841 12 29.3404 12 29.4967C12 30.4304 12.7528 31.1871 13.6816 31.1871H15.8418C16.2468 31.1871 16.5782 31.5162 16.5782 31.9275C16.5782 31.9974 16.5701 32.0673 16.5496 32.1331L15.7845 34.8107C15.7477 34.9546 15.7232 35.1027 15.7232 35.2549C15.7232 36.1844 16.4719 36.937 17.3965 36.937L26.553 36.9288C28.1446 36.9288 29.4865 35.8512 29.8957 34.3829L31.0085 30.4838L31.0126 30.4797Z" fill="#F2FF59"/>
</svg>
