<svg width="500" height="500" viewBox="0 0 500 500" fill="none" xmlns="http://www.w3.org/2000/svg">
<mask id="mask0_386_76" style="mask-type:alpha" maskUnits="userSpaceOnUse" x="0" y="0" width="500" height="500">
<rect width="500" height="500" fill="#F2FF59"/>
</mask>
<g mask="url(#mask0_386_76)">
<rect width="500" height="500" fill="black"/>
<path d="M371.309 354.247C372.037 351.787 372.434 349.195 372.434 346.47C372.434 331.381 360.254 319.15 345.228 319.15H223.298C216.745 319.217 211.383 313.899 211.383 307.318C211.383 306.122 211.582 304.992 211.846 303.928L244.679 189.067C246.069 184.016 250.703 180.293 256.131 180.293L378.524 180.16C404.34 180.16 426.118 162.679 432.671 138.816L451.073 74.8047C451.669 72.5447 452 70.0853 452 67.6259C452 52.6036 439.886 40.4395 424.926 40.4395H276.849C251.166 40.4395 229.454 57.7882 222.769 81.3853L210.324 125.056C208.868 130.042 204.3 133.698 198.872 133.698H163.326C137.841 133.698 116.328 150.714 109.444 174.045L64.6961 330.982C64.0342 333.308 63.7032 335.834 63.7032 338.36C63.7032 353.449 75.883 365.68 90.9091 365.68H125.86C132.413 365.68 137.775 370.997 137.775 377.644C137.775 378.774 137.642 379.904 137.311 380.968L124.933 424.24C124.337 426.566 123.94 428.959 123.94 431.419C123.94 446.441 136.054 458.605 151.014 458.605L299.157 458.472C324.907 458.472 346.618 441.057 353.238 417.327L371.243 354.313L371.309 354.247Z" fill="#F2FF59"/>
</g>
</svg>
