<svg xmlns="http://www.w3.org/2000/svg">
  <g id="title404" fill="currentColor" transform="matrix(0.9346 -0.02737 -0.00901 1.0422 -597.31 -135.88)">
    <path d="M1436.44 522.556V439.749L1462.05 454.536C1478.8 464.21 1489.92 479.348 1489.92 505.313V518.746C1489.92 544.611 1478.72 546.966 1462.05 537.342L1436.44 522.556ZM1442.77 519.899L1461.87 530.926C1477.15 539.748 1483.32 535.087 1483.32 515.137V501.303C1483.32 481.253 1477.15 469.573 1461.87 460.751L1442.77 449.724V519.899Z"/>
    <path d="M1369.77 484.067V401.261L1376.02 404.87L1416.65 498.303V428.328L1422.73 431.837V514.643L1416.48 511.034L1375.85 417.601V487.576L1369.77 484.067Z"/>
    <path d="M1330.66 462.491C1311.56 451.464 1304.62 438.231 1304.62 417.68V363.645L1311.04 367.354V421.69C1311.04 440.737 1318.34 448.857 1330.66 455.975C1342.99 463.093 1350.2 463.343 1350.2 444.296V389.96L1356.62 393.67V447.704C1356.62 468.757 1349.24 473.218 1330.66 462.491Z"/>
    <path d="M1265.37 424.794C1245.75 413.466 1236.11 392.263 1236.11 372.614V358.278C1236.11 338.83 1245.75 328.654 1265.37 339.983C1285.08 351.361 1294.72 372.664 1294.72 392.113V406.448C1294.72 426.097 1285.08 436.173 1265.37 424.794ZM1242.71 376.724C1242.71 394.068 1250.53 409.506 1265.37 418.077C1280.3 426.699 1288.12 420.283 1288.12 402.94V388.002C1288.12 370.96 1280.3 355.321 1265.37 346.699C1250.53 338.128 1242.71 344.745 1242.71 361.787V376.724Z"/>
    <path d="M1187.24 378.685V295.879L1231.78 321.593V328.009L1193.58 305.954V341.643L1229.79 362.545V368.961L1193.58 348.059V382.344L1187.24 378.685Z"/>
    <path d="M1129.17 345.153V268.763L1106.33 255.58V249.164L1158.34 279.189V285.605L1135.5 272.422V348.812L1129.17 345.153Z"/>
    <path d="M1076.63 315.825C1057.01 304.497 1047.37 283.294 1047.37 263.645V249.309C1047.37 229.861 1057.01 219.685 1076.63 231.014C1096.34 242.392 1105.98 263.695 1105.98 283.144V297.479C1105.98 317.128 1096.34 327.204 1076.63 315.825ZM1053.97 267.755C1053.97 285.099 1061.79 300.537 1076.63 309.108C1091.56 317.73 1099.38 311.314 1099.38 293.971V279.033C1099.38 261.991 1091.56 246.352 1076.63 237.73C1061.79 229.159 1053.97 235.776 1053.97 252.818V267.755Z"/>
    <path d="M983.922 261.297V178.49L990.173 182.099L1030.8 275.532V205.558L1036.88 209.066V291.873L1030.63 288.264L989.999 194.831V264.805L983.922 261.297Z"/>
    <path d="M905.279 215.892V133.086L949.557 158.65V165.066L911.617 143.161V174.94L947.994 195.943V202.359L911.617 181.356V213.135L949.557 235.04V241.456L905.279 215.892Z"/>
    <path d="M864.552 193.381C846.059 182.704 836.422 161.702 836.422 141.852V127.517C836.422 107.767 845.972 97.8425 865.507 109.121C883.131 119.296 892.855 137.642 893.723 154.083L893.81 158.243L887.038 154.333V149.822C886.343 135.687 878.356 123.156 865.68 115.837C850.313 106.965 842.934 113.832 842.934 130.875V145.912C842.934 163.356 850.4 178.594 865.073 187.065C878.096 194.584 886.864 191.225 887.125 175.436V170.123L860.732 154.885V148.669L893.81 167.767V209.27L889.208 206.614L888.601 191.426C884.52 198.193 876.706 200.398 864.552 193.381Z"/>
    <path d="M777.479 142.107L801.615 73.2351L809.515 77.7965L833.738 174.588L826.966 170.678L821.93 150.027L789.286 131.18L784.251 146.017L777.479 142.107ZM791.11 125.816L820.107 142.558L805.869 84.2124L805.522 83.0094L805.261 83.8616L791.11 125.816Z"/>
    <path d="M727.161 113.056V30.2494L756.853 47.3921C772.047 56.164 779.513 69.2967 779.513 86.9407V88.1437C779.513 105.687 772.047 110.6 756.853 101.828L733.499 88.3442V116.715L727.161 113.056ZM733.499 82.0285L756.419 95.2615C767.792 101.828 772.915 98.67 772.915 84.7352V82.63C772.915 68.7955 767.792 60.0236 756.419 53.4572L733.499 40.2242V82.0285Z"/>
    <path d="M582.85 5.5V67.98L592.376 62.48V72.38L582.85 77.88V96.36L572.942 102.08V83.6L532.075 107.195V96.855L573.133 11.11L582.85 5.5ZM541.601 91.795L572.942 73.7V27.61L541.601 91.795Z"/>
    <path d="M495.102 148.121C475.096 159.671 464.903 150.816 464.903 126.286V111.546C464.903 87.2364 475.192 66.5564 495.102 55.0614C514.631 43.7864 524.824 52.6414 524.824 76.9514V91.6914C524.824 116.221 514.631 136.846 495.102 148.121ZM475.001 121.556C475.001 127.936 475.763 132.666 477.287 136.076L509.296 63.2564C506.057 60.8364 501.294 61.3864 495.102 64.9614C481.765 72.6614 475.001 86.0264 475.001 104.726V121.556ZM480.812 140.311C484.146 142.456 488.91 141.796 495.102 138.221C508.057 130.741 514.726 117.431 514.726 98.5114V81.6814C514.726 75.7414 514.059 71.1764 512.725 67.8764L480.812 140.311Z"/>
    <path d="M447.443 83.6773V146.157L456.969 140.657V150.557L447.443 156.057V174.537L437.535 180.257V161.777L396.668 185.372V175.032L437.726 89.2873L447.443 83.6773ZM406.194 169.972L437.535 151.877V105.787L406.194 169.972Z"/>
  </g>
</svg>
