<svg width="32" height="31" viewBox="0 0 32 31" fill="none" xmlns="http://www.w3.org/2000/svg">
<path d="M12.3587 19.8988L22.9972 11.9646C23.5187 11.5757 24.2642 11.7274 24.5127 12.3316C25.8207 15.5179 25.2363 19.3471 22.634 21.9762C20.0318 24.6052 16.411 25.1818 13.1015 23.8686L9.48617 25.5598C14.6716 29.1406 20.9684 28.255 24.9032 24.277C28.0243 21.1237 28.9909 16.8255 28.0871 12.9496L28.0952 12.9578C26.7845 7.26377 28.4175 4.98781 31.7625 0.333808C31.8416 0.223459 31.9208 0.113108 32 0L27.5982 4.44709V4.4333L12.356 19.9016" fill="white"/>
<path d="M10.1634 21.8272C6.44151 18.2353 7.0832 12.6764 10.2589 9.47079C12.6072 7.09824 16.4546 6.12993 19.8133 7.55344L23.4204 5.87061C22.7706 5.3961 21.9377 4.88574 20.982 4.52709C16.6622 2.73116 11.4904 3.62499 7.97884 7.16997C4.60108 10.5825 3.53887 15.8297 5.36292 20.3071C6.72549 23.6535 4.49185 26.0204 2.24183 28.4096C1.44449 29.2564 0.644421 30.1034 0 31L10.1606 21.8299" fill="white"/>
</svg>
