<svg width="38" height="16" viewBox="0 0 38 16" fill="none" xmlns="http://www.w3.org/2000/svg">
<path d="M25.6714 2.88536C26.1493 2.82951 26.7876 2.87631 27.2746 2.87552C29.4061 2.87217 29.7407 4.85107 31.0086 6.17285C31.3057 5.47951 31.7391 4.76441 32.1866 4.149C32.6673 3.48769 33.0911 3.10066 33.953 2.95519C34.7328 2.82353 36.8597 2.74599 37.4893 3.17876C37.6223 3.27022 37.7198 3.40009 37.7342 3.55864C37.7879 4.1504 34.524 8.38331 33.8977 9.14783C34.6224 10.5615 37.9453 14.0003 37.9993 15.2938C38.0058 15.4508 37.9689 15.5748 37.8512 15.6902C37.4841 16.0502 36.5552 15.9679 36.0583 15.9783C35.4029 15.9928 34.8918 16.0117 34.2446 15.9184C32.7906 15.7089 32.4029 14.8649 31.7106 13.8079C31.4542 13.4166 31.1547 13.018 30.868 12.641C29.8939 13.549 29.4433 14.7027 28.431 15.5215C27.7186 16.0978 24.0748 16.1659 23.6489 15.5402C23.3554 14.4588 26.2687 11.0941 26.96 10.1276C27.1912 9.80439 27.3923 9.66031 27.5531 9.23699L27.5618 9.21374C27.0682 8.21459 23.6269 4.06408 23.8836 3.31986C24.2686 2.90918 25.1029 2.92321 25.6714 2.88536Z" fill="white"/>
<path d="M13.5798 0.0217006C14.0245 0.0102399 17.731 -0.0733401 17.8671 0.188355C18.0783 0.594232 18.0745 2.39664 17.9571 2.91885C18.7829 2.90052 20.9815 2.73358 21.576 3.24255C21.9254 3.54165 21.8894 6.31329 21.4914 6.7223C20.9809 6.93681 18.6254 6.86654 17.9992 6.8141C18.2005 8.24188 17.6814 9.92179 18.1662 11.2688C18.2188 11.4149 18.4418 11.6515 18.5582 11.7758L18.5851 11.7807C19.4248 11.9253 20.4783 11.7921 21.4193 11.8541C21.5894 11.9423 21.7529 12.0279 21.8509 12.193C22.2597 12.8822 22.1381 14.3802 21.9594 15.1114C21.9191 15.307 21.8419 15.6435 21.6653 15.748C20.9367 16.1792 19.0596 15.9477 18.2447 15.8484C16.5346 15.6399 15.0424 15.373 13.9488 14.018C12.762 12.5472 12.9954 10.9199 12.9709 9.17573C12.9618 8.52672 12.9588 7.41995 13.0502 6.80867C12.4361 6.84166 10.8569 7.01497 10.4917 6.5846C10.1043 6.12824 10.3072 3.9303 10.3518 3.3296C10.9517 2.70004 12.1816 2.90197 13.0395 2.9117C13.0534 2.19219 12.7947 0.87298 13.1333 0.195009C13.203 0.055524 13.4145 0.0516102 13.5798 0.0217006Z" fill="white"/>
<path d="M1.66628 2.88823C2.58555 2.81214 4.10841 2.81874 4.945 3.20141C5.33248 5.15667 4.99029 7.60389 5.06565 9.60325C5.07579 9.8735 4.9874 11.6351 5.25399 11.7357C6.28618 12.1249 11.1291 11.506 11.8399 12.0455C12.163 12.56 12.0235 15.1134 11.8775 15.7598C11.3062 15.9103 11.0189 15.8876 10.4264 15.8899L5.78094 15.8919C3.59892 15.9082 2.36972 16.0953 0.208639 15.5943C0.116058 15.3247 0.0349184 14.7783 0.0303189 14.4959C-0.0272935 10.99 0.0150458 7.4781 0.0142792 3.97146C0.0140433 2.80644 0.604555 2.93016 1.66628 2.88823Z" fill="white"/>
</svg>
