<svg width="32" height="32" viewBox="0 0 32 32" fill="none" xmlns="http://www.w3.org/2000/svg">
<path d="M16.1935 32L24.9858 15.5745L27.22 19.5198H31.4952L27.22 12.0998L29.4765 8.3063H12.2615L14.5178 4.36093L12.2615 0.332235L7.41455 8.3063H2.39172L11.6896 23.9422H7.41455L4.85911 27.9711H13.194L15.6878 32L15.6431 31.9985C15.4212 31.9838 15.2231 31.8597 15.1159 31.668L13.1938 28.3031H4.85911C4.6194 28.3031 4.40156 28.1756 4.2872 27.9711L2.03092 24.1776C1.85061 23.8609 1.8506 23.4694 2.03092 23.1527L3.95303 19.7881L0.135229 12.9026C-0.0450889 12.586 -0.0450637 12.1944 0.135229 11.8778L2.39151 8.08424C2.50586 7.87972 2.72371 7.75222 2.96341 7.75222H7.41455L11.6896 0.332235C11.8039 0.127714 12.0218 0 12.2615 0H16.7124C16.9521 0 17.17 0.127714 17.2843 0.332235L19.2064 3.69689H27.5411C27.7808 3.69689 27.9986 3.82439 28.113 4.02891L30.3693 7.82245C30.5496 8.13912 30.5496 8.53061 30.3693 8.84729L28.113 12.6408L31.6316 19.0976C31.8119 19.4143 31.8119 19.8058 31.6316 20.1224L29.3751 23.916C29.2608 24.1204 29.0431 24.248 28.8034 24.248H24.9856L20.7106 31.668C20.5962 31.8725 20.3784 32 20.1387 32H16.1935Z" fill="white"/>
<path d="M22.0609 13.703H10.6869L16.1935 23.001L22.0609 13.703Z" fill="white"/>
</svg>
