<svg width="58" height="64" viewBox="0 0 58 64" fill="none" xmlns="http://www.w3.org/2000/svg">
<path d="M13.2057 63.8823C11.7151 63.8823 10.5122 63.3279 9.72785 62.2795C8.92161 61.2025 8.71142 59.6988 9.15088 58.1551L10.9156 51.9541C11.0564 51.4604 10.9584 50.929 10.6515 50.5183C10.3446 50.1084 9.86437 49.8671 9.35433 49.8671H4.28022C2.78876 49.8671 1.58594 49.3134 0.801951 48.2652C-0.0042886 47.1873 -0.214478 45.6836 0.225311 44.1399L6.28799 22.9338L6.95738 20.6039C7.85718 17.4423 11.1387 14.8727 14.2736 14.8727H20.3451C21.0696 14.8727 21.7069 14.3893 21.9064 13.6878L23.9142 6.63431C24.8131 3.47585 28.0948 0.906297 31.2296 0.906297L44.2144 0.883142L53.7201 0.882324C55.2111 0.882324 56.414 1.43606 57.1979 2.4843C58.0042 3.56134 58.2144 5.06506 57.7749 6.6087L55.0568 16.1591C54.1582 19.3168 50.8766 21.8855 47.7418 21.8855L34.7281 21.9103H28.6587C27.935 21.9103 27.2985 22.3929 27.0978 23.0936L22.0372 40.7818C21.8956 41.2763 21.9935 41.8093 22.3013 42.2199C22.6082 42.6298 23.0884 42.8711 23.5981 42.8711C23.5993 42.8711 32.1976 42.8543 32.1976 42.8543H41.6751C43.1662 42.8543 44.369 43.4081 45.153 44.4563C45.9592 45.5342 46.1694 47.0379 45.7296 48.5815L43.0116 58.1303C42.113 61.2888 38.8313 63.8575 35.6965 63.8575L22.6832 63.8823H13.2057Z" fill="#F0FF41" style="fill:#F0FF41;fill:color(display-p3 0.9412 1.0000 0.2549);fill-opacity:1;"/>
</svg>
