<svg width="211.5" height="52.5" viewBox="0 0 141 35" fill="none" xmlns="http://www.w3.org/2000/svg">
<path d="M128.797 34.2L132.013 23H136.749C139.197 23 140.445 24.184 140.445 25.688C140.445 27.24 139.245 28.184 137.645 28.488C138.989 28.872 139.645 29.784 139.645 30.856C139.645 33.368 137.213 34.2 134.317 34.2H128.797ZM132.461 32.088H134.317C135.725 32.088 136.557 31.592 136.557 30.52C136.557 29.88 136.109 29.432 135.165 29.416H133.213L132.461 32.088ZM133.773 27.48H135.501C136.749 27.48 137.485 27.016 137.485 26.136C137.485 25.56 137.101 25.112 136.029 25.112H134.461L133.773 27.48Z" fill="#ECFF00"/>
<path d="M122.531 34.472C119.555 34.472 117.491 32.632 118.531 29L120.259 23H123.315L121.443 29.528C120.899 31.384 121.779 32.024 122.851 32.024C123.907 32.024 124.691 31.384 125.139 29.816L127.091 23H129.955L127.891 30.216C127.123 32.872 125.299 34.472 122.531 34.472Z" fill="#ECFF00"/>
<path d="M112.008 34.2L113.32 29.64H109.368L108.056 34.2H105L108.216 23H111.272L110.04 27.304H113.992L115.224 23H118.264L115.048 34.2H112.008Z" fill="#ECFF00"/>
<path d="M87.8907 29.2183C87.3205 29.2183 86.8605 29.0081 86.5607 28.6102C86.2524 28.201 86.172 27.6302 86.3402 27.0441L87.3797 23.4189C87.7232 22.2202 88.9781 21.245 90.1771 21.245H92.5077C92.7848 21.245 93.0285 21.0615 93.1048 20.7952L93.5068 19.3933C93.5606 19.2055 93.5232 19.0038 93.4058 18.8479C93.2884 18.6923 93.1046 18.6007 92.9096 18.6007L87.8023 18.6016C87.7736 18.5976 87.7469 18.5958 87.7178 18.5958H85.9971C85.4269 18.5958 84.9669 18.3856 84.6671 17.9876C84.3589 17.5785 84.2783 17.0076 84.4464 16.4219L84.647 15.7219C84.7007 15.5344 84.6633 15.3327 84.5459 15.1768C84.4285 15.0212 84.2449 14.9296 84.0498 14.9296H83.3907C83.1134 14.9296 82.8699 15.1131 82.7936 15.3797L82.4948 16.4219C82.1512 17.6206 80.8962 18.5958 79.6972 18.5958H77.3725C77.0959 18.5958 76.8525 18.7787 76.7758 19.0444L76.1151 21.3305C76.1122 21.3393 76.1046 21.3627 76.1022 21.3715L75.1591 24.6382C75.155 24.6494 75.1492 24.6673 75.146 24.6789L74.4637 27.0435C74.1199 28.2431 72.8649 29.2183 71.6659 29.2183H68.0408C67.4706 29.2183 67.0106 29.0081 66.7107 28.6102C66.4024 28.2013 66.322 27.6305 66.4901 27.0445L69.5284 16.5054C69.5322 16.4944 69.5392 16.4726 69.5425 16.4614L69.7549 15.7225C69.8088 15.5351 69.7715 15.3331 69.6542 15.1771C69.5368 15.0212 69.353 14.9296 69.1579 14.9296H68.5055C68.2287 14.9296 67.9854 15.1128 67.9087 15.3785L66.5861 19.9614C66.5821 19.9726 66.5764 19.9908 66.5732 20.002L66.0741 21.7318C65.7303 22.9318 64.4753 23.9072 63.2764 23.9072H59.6513C59.0809 23.9072 58.6209 23.697 58.3211 23.2991C58.0129 22.8896 57.9324 22.3188 58.1006 21.7331L60.3035 14.0846C60.3574 13.8971 60.3201 13.6951 60.2029 13.5389C60.0855 13.383 59.9017 13.2914 59.7065 13.2914H59.0502C58.7731 13.2914 58.5295 13.4749 58.4531 13.7412L57.5139 17.0119C57.5101 17.0228 57.5043 17.0407 57.5011 17.0519L56.1494 21.7318C55.8051 22.9318 54.5501 23.9072 53.3514 23.9072H49.7263C49.1561 23.9072 48.6961 23.697 48.3963 23.2991C48.0879 22.8899 48.0075 22.3191 48.1756 21.7331L49.2151 18.1078C49.219 18.0969 49.2247 18.0796 49.2278 18.0683L50.3803 14.0782C50.4344 13.8907 50.3973 13.6884 50.28 13.5325C50.1626 13.3766 49.9787 13.2847 49.7835 13.2847H49.1333C48.8565 13.2847 48.6133 13.4679 48.5365 13.7336L48.4423 14.06C48.439 14.0694 48.4319 14.0915 48.4291 14.1009L46.3096 21.4367C46.3064 21.4464 46.2986 21.47 46.2959 21.4798L46.2236 21.7342C45.8802 22.9317 44.6253 23.9072 43.4264 23.9072H39.8013C39.231 23.9072 38.771 23.697 38.4712 23.2991C38.1629 22.8899 38.0825 22.319 38.2506 21.733L38.4503 21.036C38.5042 20.8486 38.4667 20.6469 38.3493 20.4909C38.2319 20.3353 38.0483 20.2437 37.8532 20.2437H37.1963C36.9196 20.2437 36.6762 20.4266 36.5995 20.6926L36.2993 21.7318C35.9552 22.9317 34.7003 23.9072 33.5014 23.9072H31.152C30.8749 23.9072 30.6312 24.0907 30.5549 24.357L29.7843 27.0441C29.4408 28.2431 28.1858 29.2183 26.9868 29.2183H23.3617C22.7914 29.2183 22.3314 29.0081 22.0315 28.6102C21.7232 28.201 21.6428 27.6301 21.811 27.0441L22.4832 24.6995C22.537 24.512 22.4995 24.3103 22.3822 24.1544C22.2648 23.9988 22.0811 23.9072 21.8861 23.9072H19.9514C19.3813 23.9072 18.9213 23.697 18.6212 23.2991C18.313 22.8899 18.2325 22.319 18.4005 21.7333L18.6004 21.036C18.6541 20.8486 18.6166 20.6469 18.4993 20.4909C18.3819 20.3353 18.1982 20.2437 18.0032 20.2437H17.3442C17.0671 20.2437 16.8236 20.4272 16.7471 20.6935L16.449 21.733C16.1053 22.9321 14.8503 23.9072 13.6515 23.9072L8.68599 23.916L5.05026 23.9163C4.48004 23.9163 4.02004 23.7061 3.72022 23.3082C3.41205 22.899 3.33151 22.3281 3.49957 21.7424L4.17459 19.3884C4.22842 19.2006 4.19096 18.9989 4.07359 18.843C3.95621 18.6874 3.77256 18.5958 3.5775 18.5958H1.63673C1.0665 18.5958 0.606509 18.3856 0.306689 17.9876C-0.0014856 17.5785 -0.0820236 17.0076 0.0860408 16.4219L1.89322 10.1417C1.89655 10.1323 1.904 10.1087 1.90686 10.0993L2.49028 8.07644C2.4956 8.06187 2.50013 8.04762 2.50439 8.03277L2.66121 7.48528C3.00485 6.28656 4.2597 5.3111 5.45854 5.3111H7.7806C8.05769 5.3111 8.30141 5.1276 8.3777 4.86129L9.14556 2.1836C9.48923 0.984564 10.7442 0.00941111 11.9432 0.00941111L16.9199 0H20.5442C21.1145 0 21.5745 0.210213 21.8743 0.60815C22.1826 1.01733 22.263 1.58818 22.0949 2.17418L21.0555 5.79976C20.7117 6.99848 19.4567 7.97363 18.2578 7.97363L13.2811 7.98273H10.96C10.6831 7.98273 10.4395 8.16624 10.3629 8.43226L9.33906 11.9953C9.33527 12.0066 9.32949 12.0245 9.32632 12.0357L8.42804 15.1465C8.37375 15.3343 8.41105 15.5366 8.52874 15.6928C8.64611 15.8484 8.82977 15.94 9.02483 15.94C9.02529 15.94 12.3134 15.9336 12.3134 15.9336H15.9377C16.508 15.9336 16.968 16.1438 17.2678 16.5418C17.5761 16.951 17.6565 17.5218 17.4884 18.1078L17.2814 18.8303C17.2276 19.0178 17.265 19.2195 17.3824 19.3754C17.4998 19.531 17.6835 19.6226 17.8785 19.6226H18.5375C18.8144 19.6226 19.058 19.4391 19.1346 19.1731L19.5254 17.8133C19.5292 17.8021 20.9753 12.7977 20.9753 12.7977C21.3192 11.5977 22.5742 10.6226 23.7732 10.6226H26.0872C26.3643 10.6226 26.608 10.4391 26.6843 10.1724L27.4528 7.49202C27.7967 6.2933 29.0519 5.31784 30.2506 5.31784H33.8755C34.4458 5.31784 34.9058 5.52805 35.2056 5.92599C35.5139 6.33517 35.5944 6.90602 35.4264 7.49171L34.7559 9.83029C34.7021 10.0177 34.7395 10.2194 34.8569 10.3754C34.9743 10.531 35.1579 10.6226 35.353 10.6226H37.3234C37.8936 10.6226 38.3536 10.8328 38.6534 11.2307C38.9617 11.6399 39.0421 12.2107 38.8739 12.7968L37.1379 18.8297C37.0839 19.0172 37.1212 19.2192 37.2386 19.3751C37.3558 19.531 37.5396 19.6226 37.7348 19.6226H38.3876C38.6643 19.6226 38.9077 19.4394 38.9845 19.1734L39.8018 16.338C39.8047 16.3295 39.8119 16.3068 39.8145 16.2983L41.9342 8.96224C41.9382 8.95071 41.9441 8.9322 41.9474 8.92068L42.3609 7.48628C42.7048 6.28665 43.9598 5.31119 45.1587 5.31119H53.7441C54.3142 5.31119 54.7742 5.52168 55.0741 5.91965C55.3825 6.32852 55.463 6.89937 55.2949 7.48506L54.6225 9.83002C54.5687 10.0178 54.6061 10.2195 54.7235 10.3751C54.8409 10.531 55.0245 10.6226 55.2196 10.6226H55.8968C56.1738 10.6226 56.4176 10.4391 56.4939 10.1728L57.2625 7.49205C57.6063 6.29333 58.8613 5.31787 60.0601 5.31787H63.6852C64.2554 5.31787 64.7154 5.52808 65.0153 5.92602C65.3236 6.3352 65.404 6.90605 65.2359 7.49205L64.5656 9.83033C64.5117 10.0178 64.5492 10.2195 64.6666 10.3754C64.784 10.531 64.9676 10.6226 65.1627 10.6226H67.0983C67.6685 10.6226 68.1285 10.8328 68.4283 11.2307C68.7365 11.6399 68.817 12.2108 68.649 12.7965L68.4427 13.5163C68.3889 13.7037 68.4263 13.9054 68.5437 14.0613C68.6611 14.2169 68.8447 14.3085 69.0398 14.3085H69.6965C69.9731 14.3085 70.2164 14.1256 70.2933 13.8599L72.1358 7.48662C72.4797 6.28637 73.7347 5.31122 74.9336 5.31122H77.2641C77.5412 5.31122 77.7848 5.12772 77.8612 4.86141L78.6319 2.17431C78.9756 0.975277 80.2306 0.000124239 81.4294 0.000124239H85.0545C85.6249 0.000124239 86.0849 0.210337 86.3847 0.608275C86.693 1.01746 86.7734 1.5883 86.6052 2.17431L85.5658 5.79988C85.2221 6.99861 83.9671 7.97376 82.7683 7.97376H80.4376C80.1605 7.97376 79.9168 8.15726 79.8405 8.42388L79.4372 9.83036C79.3834 10.0178 79.4209 10.2195 79.5382 10.3754C79.6556 10.531 79.8393 10.6226 80.0343 10.6226H81.9836C82.5538 10.6226 83.0138 10.8328 83.3136 11.2308C83.622 11.6397 83.7024 12.2105 83.5343 12.7965L83.328 13.5163C83.2742 13.7037 83.3117 13.9054 83.429 14.0614C83.5464 14.217 83.7301 14.3086 83.9251 14.3086H84.5842C84.861 14.3086 85.1043 14.1256 85.181 13.8596L87.0209 7.48662C87.3652 6.28669 88.6202 5.31122 89.8189 5.31122H93.4442C94.0144 5.31122 94.4744 5.52143 94.7742 5.91937C95.0825 6.32855 95.1629 6.8994 94.9947 7.48541L93.3583 13.1756C93.3542 13.1869 93.3486 13.2048 93.3453 13.2163L93.1699 13.8251C93.116 14.0128 93.1531 14.2148 93.2705 14.3707C93.3879 14.5266 93.5717 14.6183 93.7669 14.6183H94.4153C94.6921 14.6183 94.9355 14.4351 95.0123 14.1693L96.9402 7.48665C97.2843 6.28672 98.5392 5.31125 99.7381 5.31125H103.363C103.933 5.31125 104.393 5.52174 104.693 5.91971C105.002 6.32858 105.082 6.89943 104.914 7.48544L100.809 21.7326C100.465 22.9322 99.2105 23.9074 98.0118 23.9074H95.6811C95.404 23.9074 95.1603 24.0909 95.084 24.3572L94.3134 27.0443C93.9698 28.2433 92.7148 29.2185 91.5159 29.2185L87.8907 29.2183ZM29.2753 13.2914C28.9985 13.2914 28.7551 13.4746 28.6783 13.7406L26.7442 20.4518C26.6902 20.6393 26.7274 20.8413 26.8447 20.9972C26.9621 21.1534 27.1459 21.245 27.3411 21.245H27.9973C28.2741 21.245 28.5175 21.0619 28.5943 20.7958L30.5284 14.0846C30.5824 13.8972 30.5452 13.6952 30.4279 13.5392C30.3105 13.383 30.1267 13.2914 29.9315 13.2914H29.2753Z" fill="#F0FF41"/>
</svg>
