<svg xmlns="http://www.w3.org/2000/svg" viewBox="0 0 24 24" fill="currentColor"><path d="M12 2C6.48 2 2 6.48 2 12s4.48 10 10 10 10-4.48 10-10S17.52 2 12 2Zm5.8 11.33c.02.16.03.33.03.5 0 2.55-2.97 4.63-6.63 4.63-3.65 0-6.62-2.07-6.62-4.63 0-.17.01-.34.03-.5a1.58 1.58 0 0 1-.63-1.27c0-.88.72-1.59 1.6-1.59.44 0 .83.18 1.12.46 1.1-.79 2.62-1.3 4.31-1.37l.73-3.44a.32.32 0 0 1 .39-.24l2.43.52a1.13 1.13 0 0 1 2.15.36 1.13 1.13 0 0 1-1.13 1.12 1.13 1.13 0 0 1-1.08-.82l-2.16-.46-.65 3.07c1.65.09 3.14.59 4.22 1.36.29-.28.69-.46 1.13-.46.88 0 1.6.71 1.6 1.59 0 .52-.25.97-.63 1.27ZM9.5 13.5c0 .63.51 1.13 1.13 1.13s1.12-.5 1.12-1.13-.5-1.12-1.12-1.12-1.13.5-1.13 1.12Zm5.75 2.55c-.69.69-2 .73-3.25.73s-2.56-.04-3.25-.73a.32.32 0 1 1 .45-.45c.44.44 1.37.6 2.8.6 1.43 0 2.37-.16 2.8-.6a.32.32 0 1 1 .45.45Zm-.37-1.42c.62 0 1.13-.5 1.13-1.13 0-.62-.51-1.12-1.13-1.12-.63 0-1.13.5-1.13 1.12 0 .63.5 1.13 1.13 1.13Z"/></svg>
